<svg version="1.1" xmlns="http://www.w3.org/2000/svg" width="663" height="441"><defs><clipPath id="fXzEQZhwxeEc"><path fill="none" stroke="none" d="M 0.5 0.5 L 663.5 0.5 L 663.5 441.5 L 0.5 441.5 L 0.5 0.5 Z M 72.5 29.5 L 658.5 29.5 L 658.5 330.5 L 72.5 330.5 L 72.5 29.5 Z" clip-rule="evenodd"/></clipPath><clipPath id="MASrBHMPeCAC"><path fill="none" stroke="none" d="M 72.5 29.5 L 658.5 29.5 L 658.5 330.5 L 72.5 330.5 L 72.5 29.5 Z"/></clipPath><clipPath id="dxFkJqVGvgvg"><path fill="none" stroke="none" d="M 72.5 29.5 L 658.5 29.5 L 658.5 330.5 L 72.5 330.5 L 72.5 29.5 Z"/></clipPath><clipPath id="gIVPidDnJkHo"><path fill="none" stroke="none" d="M 72.5 29.5 L 658.5 29.5 L 658.5 330.5 L 72.5 330.5 L 72.5 29.5 Z"/></clipPath><clipPath id="uHqXGIlXZXQS"><path fill="none" stroke="none" d="M 72.5 29.5 L 658.5 29.5 L 658.5 330.5 L 72.5 330.5 L 72.5 29.5 Z"/></clipPath><clipPath id="KCyyOZNkhWOs"><path fill="none" stroke="none" d="M 72.5 29.5 L 658.5 29.5 L 658.5 330.5 L 72.5 330.5 L 72.5 29.5 Z"/></clipPath><clipPath id="LfMAgZNNlvyg"><path fill="none" stroke="none" d="M 72.5 29.5 L 658.5 29.5 L 658.5 330.5 L 72.5 330.5 L 72.5 29.5 Z"/></clipPath><clipPath id="HJomnuycieku"><path fill="none" stroke="none" d="M 72.5 29.5 L 658.5 29.5 L 658.5 330.5 L 72.5 330.5 L 72.5 29.5 Z"/></clipPath></defs><path fill="rgb(0,0,0)" stroke="none" paint-order="stroke" d="M 0 0 L 663 0 L 663 441 L 0 441 L 0 0 Z" fill-opacity="0"/><path fill="rgb(255,255,255)" stroke="none" paint-order="stroke" d="M 0.5 0.5 L 663.5 0.5 L 663.5 441.5 L 0.5 441.5 L 0.5 0.5 Z" fill-opacity="1" clip-path="url(#fXzEQZhwxeEc)"/><path fill="rgb(250,250,250)" stroke="none" paint-order="stroke" d="M 72.5 29.5 L 658.5 29.5 L 658.5 330.5 L 72.5 330.5 L 72.5 29.5 Z" fill-opacity="1"/><path fill="none" stroke="rgb(224,224,224)" paint-order="fill" d="M 99.5 330.5 L 99.5 29.5 M 205.5 330.5 L 205.5 29.5 M 312.5 330.5 L 312.5 29.5 M 419.5 330.5 L 419.5 29.5 M 526.5 330.5 L 526.5 29.5 M 632.5 330.5 L 632.5 29.5" stroke-opacity="1" stroke-linejoin="bevel" stroke-miterlimit="10" stroke-dasharray="6,4" clip-path="url(#MASrBHMPeCAC)"/><path fill="none" stroke="rgb(224,224,224)" paint-order="fill" d="M 72.5 302.5 L 658.5 302.5 M 72.5 238.5 L 658.5 238.5 M 72.5 173.5 L 658.5 173.5 M 72.5 108.5 L 658.5 108.5 M 72.5 44.5 L 658.5 44.5" stroke-opacity="1" stroke-linejoin="bevel" stroke-miterlimit="10" stroke-dasharray="6,4" clip-path="url(#dxFkJqVGvgvg)"/><path fill="none" stroke="rgb(31,119,180)" paint-order="fill" d="M 99.13636016845703 60.3163948059082 L 100.2039566040039 61.54157257080078 L 101.27154541015625 63.633384704589844 L 102.3391342163086 67.9551773071289 L 103.40672302246094 76.10174560546875 L 104.47431182861328 91.12853240966797 L 105.54190063476562 108.1457748413086 L 106.60948944091797 124.69361114501953 L 107.67707824707031 136.7069091796875 L 108.74467468261719 144.54339599609375 L 109.81226348876953 151.01429748535156 L 110.87985229492188 156.78028869628906 L 111.94744110107422 161.40927124023438 L 113.01502990722656 168.99774169921875 L 114.0826187133789 171.21322631835938 L 115.15020751953125 175.8724365234375 L 116.2177963256836 178.38429260253906 L 117.28539276123047 186.39950561523438 L 118.35298156738281 191.710693359375 L 119.42057037353516 194.47683715820312 L 120.4881591796875 202.69659423828125 L 121.55574798583984 204.16802978515625 L 122.62333679199219 204.45167541503906 L 123.69092559814453 209.38998413085938 L 124.75851440429688 213.14134216308594 L 125.82610321044922 216.28025817871094 L 126.8936996459961 218.149658203125 L 127.96128845214844 220.4678955078125 L 129.02886962890625 214.7070770263672 L 130.09646606445312 221.8848114013672 L 131.1640625 226.50228881835938 L 132.2316436767578 228.8460235595703 L 133.2992401123047 230.75772094726562 L 134.3668212890625 228.61961364746094 L 135.43441772460938 233.431396484375 L 136.5019989013672 231.15916442871094 L 137.56959533691406 235.1106414794922 L 138.63717651367188 214.44949340820312 L 139.70477294921875 216.3351593017578 L 140.77236938476562 205.00465393066406 L 141.83995056152344 193.6659393310547 L 142.9075469970703 207.5062713623047 L 143.97512817382812 227.34523010253906 L 145.042724609375 232.6639404296875 L 146.1103057861328 241.68963623046875 L 147.1779022216797 229.56211853027344 L 148.2454833984375 233.96311950683594 L 149.31307983398438 237.9432373046875 L 150.38067626953125 243.89064025878906 L 151.44825744628906 224.96231079101562 L 152.51585388183594 193.4822998046875 L 153.58343505859375 201.68264770507812 L 154.65103149414062 213.93270874023438 L 155.71861267089844 231.42807006835938 L 156.7862091064453 235.09136962890625 L 157.8538055419922 240.8563232421875 L 158.92138671875 241.03968811035156 L 159.98898315429688 254.3070526123047 L 161.0565643310547 257.1077880859375 L 162.12416076660156 256.31907653808594 L 163.19174194335938 262.33978271484375 L 164.25933837890625 263.0738830566406 L 165.32691955566406 270.2394714355469 L 166.39451599121094 270.61566162109375 L 167.4621124267578 268.1146545410156 L 168.52969360351562 271.4372863769531 L 169.5972900390625 279.1417236328125 L 170.6648712158203 277.6837463378906 L 171.7324676513672 285.2477722167969 L 172.800048828125 280.21826171875 L 173.86764526367188 269.75360107421875 L 174.93524169921875 271.2491455078125 L 176.00282287597656 274.8053894042969 L 177.07041931152344 274.53387451171875 L 178.13800048828125 269.6410827636719 L 179.20559692382812 265.9088134765625 L 180.27317810058594 275.923583984375 L 181.3407745361328 270.39654541015625 L 182.40835571289062 263.0112609863281 L 183.4759521484375 253.58494567871094 L 184.54354858398438 254.1885528564453 L 185.6111297607422 262.3509521484375 L 186.67872619628906 268.2413330078125 L 187.74630737304688 263.9949645996094 L 188.81390380859375 251.37841796875 L 189.88148498535156 253.3917236328125 L 190.94908142089844 224.75563049316406 L 192.01666259765625 229.87872314453125 L 193.08425903320312 239.72909545898438 L 194.15185546875 249.70352172851562 L 195.2194366455078 238.5081024169922 L 196.2870330810547 232.27944946289062 L 197.3546142578125 226.5076141357422 L 198.42221069335938 215.56204223632812 L 199.4897918701172 232.62669372558594 L 200.55738830566406 248.60276794433594 L 201.62498474121094 251.86688232421875 L 202.69256591796875 257.5701904296875 L 203.76016235351562 260.5059814453125 L 204.82774353027344 261.1652526855469 L 205.8953399658203 264.9320983886719 L 206.96292114257812 247.3495635986328 L 208.030517578125 243.54293823242188 L 209.0980987548828 247.86843872070312 L 210.1656951904297 246.48492431640625 L 211.23329162597656 262.4358215332031 L 212.30087280273438 257.9173583984375 L 213.36846923828125 257.8163146972656 L 214.43605041503906 256.13970947265625 L 215.50364685058594 236.79232788085938 L 216.57122802734375 230.4414825439453 L 217.63882446289062 214.4381561279297 L 218.70640563964844 205.49310302734375 L 219.7740020751953 217.15269470214844 L 220.8415985107422 192.37583923339844 L 221.9091796875 196.53292846679688 L 222.97677612304688 215.49290466308594 L 224.0443572998047 211.56246948242188 L 225.11195373535156 212.4515838623047 L 226.17953491210938 221.7627716064453 L 227.24713134765625 236.8951873779297 L 228.31472778320312 247.9838104248047 L 229.38230895996094 236.8131103515625 L 230.4499053955078 237.2779998779297 L 231.51748657226562 231.66732788085938 L 232.5850830078125 242.0354766845703 L 233.6526641845703 229.60325622558594 L 234.7202606201172 248.30152893066406 L 235.787841796875 243.41006469726562 L 236.85543823242188 258.9375305175781 L 237.92303466796875 259.97650146484375 L 238.99061584472656 268.25042724609375 L 240.05821228027344 276.2667236328125 L 241.12579345703125 278.6744079589844 L 242.19338989257812 289.8644104003906 L 243.26097106933594 275.6213684082031 L 244.3285675048828 259.5013122558594 L 245.39614868164062 256.2389221191406 L 246.4637451171875 258.1846923828125 L 247.53134155273438 241.82415771484375 L 248.5989227294922 253.48707580566406 L 249.66651916503906 255.88272094726562 L 250.73410034179688 266.88763427734375 L 251.80169677734375 279.645751953125 L 252.86927795410156 286.9178466796875 L 253.93687438964844 291.8561706542969 L 255.0044708251953 294.1763916015625 L 256.0720520019531 271.2042236328125 L 257.1396484375 263.7420654296875 L 258.2072448730469 253.58619689941406 L 259.2748107910156 254.41653442382812 L 260.3424072265625 257.50140380859375 L 261.4100036621094 260.4039001464844 L 262.47760009765625 260.4160461425781 L 263.545166015625 264.0780944824219 L 264.6127624511719 259.95556640625 L 265.68035888671875 256.2983856201172 L 266.7479553222656 244.2801513671875 L 267.8155517578125 223.36773681640625 L 268.88311767578125 228.29002380371094 L 269.9507141113281 219.42373657226562 L 271.018310546875 229.11265563964844 L 272.0859069824219 228.91209411621094 L 273.15350341796875 212.89991760253906 L 274.2210693359375 227.3158416748047 L 275.2886657714844 245.04580688476562 L 276.35626220703125 248.09149169921875 L 277.4238586425781 269.13604736328125 L 278.4914245605469 268.12359619140625 L 279.55902099609375 280.1106262207031 L 280.6266174316406 280.9846496582031 L 281.6942138671875 287.97540283203125 L 282.7618103027344 269.76513671875 L 283.8293762207031 275.5909118652344 L 284.89697265625 281.3026123046875 L 285.9645690917969 297.8956604003906 L 287.03216552734375 284.4154968261719 L 288.0997314453125 274.1822509765625 L 289.1673278808594 279.9528503417969 L 290.23492431640625 278.8855285644531 L 291.3025207519531 270.6766662597656 L 292.3701171875 269.37286376953125 L 293.43768310546875 266.23614501953125 L 294.5052795410156 252.83506774902344 L 295.5728759765625 270.44915771484375 L 296.6404724121094 264.2071533203125 L 297.7080383300781 250.03855895996094 L 298.775634765625 246.07168579101562 L 299.8432312011719 242.2665252685547 L 300.91082763671875 270.9093933105469 L 301.9784240722656 264.0562744140625 L 303.0459899902344 251.40634155273438 L 304.11358642578125 242.56874084472656 L 305.1811828613281 253.96011352539062 L 306.248779296875 256.06227111816406 L 307.31634521484375 257.4922790527344 L 308.3839416503906 263.7100830078125 L 309.4515380859375 243.1427001953125 L 310.5191345214844 246.51651000976562 L 311.58673095703125 251.90093994140625 L 312.654296875 246.1895294189453 L 313.7218933105469 258.60552978515625 L 314.78948974609375 240.0825653076172 L 315.8570861816406 245.1129608154297 L 316.9246826171875 219.86978149414062 L 317.99224853515625 231.1251983642578 L 319.0598449707031 233.08970642089844 L 320.12744140625 238.32400512695312 L 321.1950378417969 243.1376495361328 L 322.2626037597656 240.79322814941406 L 323.3302001953125 246.95697021484375 L 324.3977966308594 271.2682189941406 L 325.46539306640625 274.2829284667969 L 326.5329895019531 279.89703369140625 L 327.6005554199219 278.7214050292969 L 328.66815185546875 270.7679748535156 L 329.7357482910156 269.7167663574219 L 330.8033447265625 275.4745178222656 L 331.87091064453125 260.5264892578125 L 332.9385070800781 243.52593994140625 L 334.006103515625 250.9246368408203 L 335.0736999511719 255.2342071533203 L 336.14129638671875 269.6744689941406 L 337.2088623046875 269.904541015625 L 338.2764587402344 253.2509002685547 L 339.34405517578125 258.51837158203125 L 340.4116516113281 246.10238647460938 L 341.4792175292969 262.1581726074219 L 342.54681396484375 272.372802734375 L 343.6144104003906 264.4228515625 L 344.6820068359375 230.16128540039062 L 345.7496032714844 240.08258056640625 L 346.8171691894531 242.38571166992188 L 347.884765625 268.1637878417969 L 348.9523620605469 267.2319641113281 L 350.01995849609375 267.0990295410156 L 351.0875244140625 272.2972412109375 L 352.1551208496094 271.4213562011719 L 353.22271728515625 269.6584777832031 L 354.2903137207031 256.3443603515625 L 355.35791015625 252.27488708496094 L 356.42547607421875 247.57603454589844 L 357.4930725097656 266.9309997558594 L 358.5606689453125 261.8586120605469 L 359.6282653808594 271.3313903808594 L 360.6958312988281 254.13314819335938 L 361.763427734375 238.112548828125 L 362.8310241699219 250.5684051513672 L 363.89862060546875 255.7432861328125 L 364.9662170410156 240.97775268554688 L 366.0337829589844 230.57571411132812 L 367.10137939453125 224.67428588867188 L 368.1689758300781 207.07083129882812 L 369.236572265625 191.44004821777344 L 370.3041687011719 193.3981475830078 L 371.3717346191406 199.64773559570312 L 372.4393310546875 213.83291625976562 L 373.5069274902344 226.47679138183594 L 374.57452392578125 229.11659240722656 L 375.64208984375 231.29385375976562 L 376.7096862792969 247.5279541015625 L 377.77728271484375 249.8287811279297 L 378.8448791503906 253.7494354248047 L 379.9124755859375 251.49786376953125 L 380.98004150390625 238.2193603515625 L 382.0476379394531 235.59060668945312 L 383.115234375 247.402587890625 L 384.1828308105469 247.66297912597656 L 385.2503967285156 243.44290161132812 L 386.3179931640625 250.43048095703125 L 387.3855895996094 276.06976318359375 L 388.45318603515625 284.52020263671875 L 389.5207824707031 297.8067932128906 L 390.5883483886719 277.7012023925781 L 391.65594482421875 266.6010437011719 L 392.7235412597656 238.83372497558594 L 393.7911376953125 226.28717041015625 L 394.85870361328125 227.54025268554688 L 395.9263000488281 230.81979370117188 L 396.993896484375 242.59121704101562 L 398.0614929199219 256.5867919921875 L 399.12908935546875 266.6968994140625 L 400.1966552734375 263.636962890625 L 401.2642517089844 269.5152587890625 L 402.33184814453125 290.8386535644531 L 403.3994445800781 298.21221923828125 L 404.4670104980469 308.70556640625 L 405.53460693359375 312.8440856933594 L 406.6022033691406 313.76507568359375 L 407.6697998046875 306.1532287597656 L 408.7373962402344 304.006103515625 L 409.8049621582031 301.01971435546875 L 410.87255859375 295.1025695800781 L 411.9401550292969 283.75543212890625 L 413.00775146484375 284.14459228515625 L 414.0753173828125 272.0929260253906 L 415.1429138183594 241.89247131347656 L 416.21051025390625 252.69862365722656 L 417.2781066894531 254.74639892578125 L 418.345703125 253.871826171875 L 419.41326904296875 241.6212921142578 L 420.4808654785156 241.8701934814453 L 421.5484619140625 249.5468292236328 L 422.6160583496094 234.597900390625 L 423.68365478515625 234.93032836914062 L 424.751220703125 222.79090881347656 L 425.8188171386719 217.41102600097656 L 426.88641357421875 210.96121215820312 L 427.9540100097656 213.428955078125 L 429.0215759277344 230.4045867919922 L 430.08917236328125 241.20236206054688 L 431.1567687988281 250.6046142578125 L 432.224365234375 277.3297424316406 L 433.2919616699219 284.244873046875 L 434.3595275878906 277.8208923339844 L 435.4271240234375 265.8533935546875 L 436.4947204589844 277.5986633300781 L 437.56231689453125 269.0570068359375 L 438.6298828125 244.02438354492188 L 439.6974792480469 244.1914520263672 L 440.76507568359375 260.7868957519531 L 441.8326721191406 281.0470275878906 L 442.9002685546875 290.2749328613281 L 443.96783447265625 283.2889709472656 L 445.0354309082031 290.9925537109375 L 446.10302734375 288.7519836425781 L 447.1706237792969 307.1134338378906 L 448.2381896972656 309.2972412109375 L 449.3057861328125 303.0252380371094 L 450.3733825683594 302.7928771972656 L 451.44097900390625 287.3414611816406 L 452.5085754394531 298.856689453125 L 453.5761413574219 288.4333801269531 L 454.64373779296875 284.1745910644531 L 455.7113342285156 282.72003173828125 L 456.7789306640625 289.7449645996094 L 457.84649658203125 277.7586975097656 L 458.9140930175781 280.8837890625 L 459.981689453125 287.3792724609375 L 461.0492858886719 294.18994140625 L 462.11688232421875 300.3927917480469 L 463.1844482421875 298.0799560546875 L 464.2520446777344 275.048095703125 L 465.31964111328125 257.3454895019531 L 466.3872375488281 237.61570739746094 L 467.454833984375 227.9893341064453 L 468.52239990234375 237.3472900390625 L 469.5899963378906 243.4190216064453 L 470.6575927734375 249.38876342773438 L 471.7251892089844 231.64039611816406 L 472.7927551269531 227.79855346679688 L 473.8603515625 226.11907958984375 L 474.9279479980469 237.75511169433594 L 475.99554443359375 253.9509735107422 L 477.0631408691406 258.02606201171875 L 478.1307067871094 262.5697021484375 L 479.19830322265625 283.6066589355469 L 480.2658996582031 278.6976013183594 L 481.33349609375 275.149169921875 L 482.40106201171875 279.4684753417969 L 483.4686584472656 289.9150390625 L 484.5362548828125 308.8943786621094 L 485.6038513183594 303.12310791015625 L 486.67144775390625 288.58538818359375 L 487.739013671875 286.83355712890625 L 488.8066101074219 253.52322387695312 L 489.87420654296875 230.69241333007812 L 490.9418029785156 223.38059997558594 L 492.0093688964844 213.3834991455078 L 493.07696533203125 233.5044403076172 L 494.1445617675781 221.05422973632812 L 495.212158203125 221.4010009765625 L 496.2797546386719 228.71548461914062 L 497.3473205566406 213.57598876953125 L 498.4149169921875 208.5154571533203 L 499.4825134277344 226.94654846191406 L 500.55010986328125 232.9452362060547 L 501.61767578125 236.2970733642578 L 502.6852722167969 250.13555908203125 L 503.75286865234375 246.4679718017578 L 504.8204650878906 245.10739135742188 L 505.8880615234375 248.31973266601562 L 506.95562744140625 253.78489685058594 L 508.0232238769531 249.87771606445312 L 509.0908203125 266.8117370605469 L 510.1584167480469 283.181884765625 L 511.2259826660156 289.6490478515625 L 512.2935791015625 289.50677490234375 L 513.3612060546875 292.75927734375 L 514.4287719726562 274.13616943359375 L 515.496337890625 273.8959655761719 L 516.56396484375 293.432373046875 L 517.6315307617188 302.58221435546875 L 518.6990966796875 300.30096435546875 L 519.7667236328125 289.6743469238281 L 520.8342895507812 283.98583984375 L 521.9019165039062 287.686279296875 L 522.969482421875 296.7774353027344 L 524.0370483398438 314.28143310546875 L 525.1046752929688 308.54364013671875 L 526.1722412109375 294.22393798828125 L 527.2398681640625 292.8089904785156 L 528.3074340820312 296.9862976074219 L 529.375 300.2310485839844 L 530.442626953125 307.5263366699219 L 531.5101928710938 297.98095703125 L 532.5778198242188 291.09405517578125 L 533.6453857421875 294.6823425292969 L 534.7129516601562 288.6985168457031 L 535.7805786132812 280.15325927734375 L 536.84814453125 275.01611328125 L 537.9157104492188 270.1477355957031 L 538.9833374023438 281.5492248535156 L 540.0509033203125 275.5379333496094 L 541.1185302734375 285.0290222167969 L 542.1860961914062 269.6371154785156 L 543.253662109375 279.7909851074219 L 544.3212890625 267.94378662109375 L 545.3888549804688 268.1155700683594 L 546.4564819335938 254.54019165039062 L 547.5240478515625 256.6203308105469 L 548.5916137695312 270.6908264160156 L 549.6592407226562 265.3930358886719 L 550.726806640625 273.37750244140625 L 551.79443359375 270.9012145996094 L 552.8619995117188 261.65216064453125 L 553.9295654296875 249.92041015625 L 554.9971923828125 246.528564453125 L 556.0647583007812 251.84556579589844 L 557.1323852539062 261.4976501464844 L 558.199951171875 267.6996765136719 L 559.2675170898438 244.8933563232422 L 560.3351440429688 233.39761352539062 L 561.4027099609375 226.7686767578125 L 562.4702758789062 209.28306579589844 L 563.5379028320312 204.50411987304688 L 564.60546875 203.2801971435547 L 565.673095703125 210.5529327392578 L 566.7406616210938 214.47581481933594 L 567.8082275390625 239.86839294433594 L 568.8758544921875 245.63450622558594 L 569.9434204101562 228.72000122070312 L 571.0110473632812 221.73910522460938 L 572.07861328125 176.38363647460938 L 573.1461791992188 155.83743286132812 L 574.2138061523438 171.3522186279297 L 575.2813720703125 179.0096893310547 L 576.3489990234375 181.8678741455078 L 577.4165649414062 202.02700805664062 L 578.484130859375 215.22900390625 L 579.5517578125 213.62974548339844 L 580.6193237304688 222.38735961914062 L 581.6868896484375 244.14141845703125 L 582.7545166015625 247.7563934326172 L 583.8220825195312 241.26522827148438 L 584.8897094726562 255.56410217285156 L 585.957275390625 260.2181091308594 L 587.0248413085938 269.51019287109375 L 588.0924682617188 273.61614990234375 L 589.1600341796875 285.6075134277344 L 590.2276611328125 279.84466552734375 L 591.2952270507812 279.3670959472656 L 592.36279296875 278.51434326171875 L 593.430419921875 279.7419738769531 L 594.4979858398438 273.7525634765625 L 595.5656127929688 290.69659423828125 L 596.6331787109375 293.7415771484375 L 597.7007446289062 291.5173034667969 L 598.7683715820312 291.6748962402344 L 599.8359375 293.6195373535156 L 600.903564453125 295.6714782714844 L 601.9711303710938 292.5362548828125 L 603.0386962890625 293.20703125 L 604.1063232421875 296.8614807128906 L 605.1738891601562 294.6738586425781 L 606.241455078125 293.18951416015625 L 607.30908203125 291.0445556640625 L 608.3766479492188 296.782470703125 L 609.4442749023438 302.1055908203125 L 610.5118408203125 302.1244201660156 L 611.5794067382812 301.3357849121094 L 612.6470336914062 311.08251953125 L 613.714599609375 313.2915344238281 L 614.7822265625 316.81817626953125 L 615.8497924804688 307.80987548828125 L 616.9173583984375 303.8594970703125 L 617.9849853515625 287.1534729003906 L 619.0525512695312 279.66815185546875 L 620.1201782226562 285.7538757324219 L 621.187744140625 282.18328857421875 L 622.2553100585938 280.55389404296875 L 623.3229370117188 291.32684326171875 L 624.3905029296875 308.4792785644531 L 625.4580688476562 301.51507568359375 L 626.5256958007812 295.3421630859375 L 627.59326171875 288.3462829589844 L 628.660888671875 293.5031433105469 L 629.7284545898438 285.71722412109375 L 630.7960205078125 290.6750793457031 L 631.8636474609375 287.28289794921875" stroke-opacity="1" stroke-linejoin="bevel" stroke-miterlimit="10" stroke-width="2" clip-path="url(#gIVPidDnJkHo)"/><path fill="none" stroke="rgb(174,199,232)" paint-order="fill" d="M 99.13636016845703 53.35761642456055 L 100.2039566040039 59.90257263183594 L 101.27154541015625 60.58409118652344 L 102.3391342163086 60.71831512451172 L 103.40672302246094 60.74391555786133 L 104.47431182861328 60.744224548339844 L 105.54190063476562 60.75035858154297 L 106.60948944091797 60.776397705078125 L 107.67707824707031 60.78147888183594 L 108.74467468261719 60.78532028198242 L 109.81226348876953 60.81535339355469 L 110.87985229492188 60.8834228515625 L 111.94744110107422 61.04558181762695 L 113.01502990722656 61.30460739135742 L 114.0826187133789 62.19021224975586 L 115.15020751953125 63.21607971191406 L 116.2177963256836 64.52493286132812 L 117.28539276123047 65.92059326171875 L 118.35298156738281 66.70555877685547 L 119.42057037353516 68.41105651855469 L 120.4881591796875 69.47001647949219 L 121.55574798583984 70.01531982421875 L 122.62333679199219 71.14102172851562 L 123.69092559814453 72.63438415527344 L 124.75851440429688 73.11067962646484 L 125.82610321044922 73.55406188964844 L 126.8936996459961 74.60990905761719 L 127.96128845214844 75.06076049804688 L 129.02886962890625 75.20463562011719 L 130.09646606445312 75.56670379638672 L 131.1640625 76.10750579833984 L 132.2316436767578 76.15760040283203 L 133.2992401123047 76.5786361694336 L 134.3668212890625 76.86456298828125 L 135.43441772460938 77.24628448486328 L 136.5019989013672 77.10362243652344 L 137.56959533691406 77.60661315917969 L 138.63717651367188 77.74942016601562 L 139.70477294921875 77.82300567626953 L 140.77236938476562 77.79788970947266 L 141.83995056152344 77.08148956298828 L 142.9075469970703 78.01168823242188 L 143.97512817382812 78.07010650634766 L 145.042724609375 78.27912139892578 L 146.1103057861328 78.04972839355469 L 147.1779022216797 78.16841888427734 L 148.2454833984375 78.3056640625 L 149.31307983398438 78.13130950927734 L 150.38067626953125 77.88804626464844 L 151.44825744628906 78.60958099365234 L 152.51585388183594 78.58345794677734 L 153.58343505859375 78.8175277709961 L 154.65103149414062 79.11060333251953 L 155.71861267089844 78.625244140625 L 156.7862091064453 78.44352722167969 L 157.8538055419922 78.6756362915039 L 158.92138671875 79.08850860595703 L 159.98898315429688 78.6387939453125 L 161.0565643310547 78.95965576171875 L 162.12416076660156 79.17171478271484 L 163.19174194335938 79.03012084960938 L 164.25933837890625 79.0909423828125 L 165.32691955566406 79.0921859741211 L 166.39451599121094 78.7168197631836 L 167.4621124267578 78.32890319824219 L 168.52969360351562 78.31929779052734 L 169.5972900390625 79.015625 L 170.6648712158203 79.26129913330078 L 171.7324676513672 79.35191345214844 L 172.800048828125 78.66642761230469 L 173.86764526367188 78.66154479980469 L 174.93524169921875 79.46004486083984 L 176.00282287597656 79.2732925415039 L 177.07041931152344 79.50605773925781 L 178.13800048828125 79.2613296508789 L 179.20559692382812 79.50396728515625 L 180.27317810058594 79.6591567993164 L 181.3407745361328 79.01161193847656 L 182.40835571289062 78.69384002685547 L 183.4759521484375 79.56239318847656 L 184.54354858398438 79.68045806884766 L 185.6111297607422 79.34957122802734 L 186.67872619628906 79.50556182861328 L 187.74630737304688 79.61792755126953 L 188.81390380859375 79.58953094482422 L 189.88148498535156 79.65045166015625 L 190.94908142089844 79.64099884033203 L 192.01666259765625 79.60012817382812 L 193.08425903320312 79.34842681884766 L 194.15185546875 79.220458984375 L 195.2194366455078 79.71742248535156 L 196.2870330810547 79.63028717041016 L 197.3546142578125 79.20219421386719 L 198.42221069335938 79.76472473144531 L 199.4897918701172 79.74386596679688 L 200.55738830566406 79.57500457763672 L 201.62498474121094 79.82514190673828 L 202.69256591796875 79.76950073242188 L 203.76016235351562 79.5018081665039 L 204.82774353027344 79.67632293701172 L 205.8953399658203 79.65602111816406 L 206.96292114257812 79.71764373779297 L 208.030517578125 79.72381591796875 L 209.0980987548828 79.67108154296875 L 210.1656951904297 79.81822204589844 L 211.23329162597656 79.50294494628906 L 212.30087280273438 79.49126434326172 L 213.36846923828125 79.47364807128906 L 214.43605041503906 79.52906799316406 L 215.50364685058594 80.00428009033203 L 216.57122802734375 79.47587585449219 L 217.63882446289062 79.89594268798828 L 218.70640563964844 79.65982818603516 L 219.7740020751953 79.92271423339844 L 220.8415985107422 79.43287658691406 L 221.9091796875 79.72323608398438 L 222.97677612304688 79.8619155883789 L 224.0443572998047 79.8150863647461 L 225.11195373535156 79.8768539428711 L 226.17953491210938 79.77689361572266 L 227.24713134765625 79.84508514404297 L 228.31472778320312 79.89479064941406 L 229.38230895996094 79.74122619628906 L 230.4499053955078 79.51744079589844 L 231.51748657226562 78.92639923095703 L 232.5850830078125 79.40758514404297 L 233.6526641845703 79.7942886352539 L 234.7202606201172 79.65592956542969 L 235.787841796875 79.47505950927734 L 236.85543823242188 79.76790618896484 L 237.92303466796875 78.89987182617188 L 238.99061584472656 79.62307739257812 L 240.05821228027344 79.9087905883789 L 241.12579345703125 79.61237335205078 L 242.19338989257812 79.45406341552734 L 243.26097106933594 79.79825592041016 L 244.3285675048828 79.6474838256836 L 245.39614868164062 79.7747573852539 L 246.4637451171875 80.0530014038086 L 247.53134155273438 79.60379028320312 L 248.5989227294922 79.8570327758789 L 249.66651916503906 79.13906860351562 L 250.73410034179688 79.39987182617188 L 251.80169677734375 79.90725708007812 L 252.86927795410156 79.63060760498047 L 253.93687438964844 79.5670394897461 L 255.0044708251953 79.61051177978516 L 256.0720520019531 79.77185821533203 L 257.1396484375 79.87103271484375 L 258.2072448730469 79.6202621459961 L 259.2748107910156 79.81079864501953 L 260.3424072265625 79.68948364257812 L 261.4100036621094 79.76634216308594 L 262.47760009765625 79.89090728759766 L 263.545166015625 79.85335540771484 L 264.6127624511719 79.26922607421875 L 265.68035888671875 79.29710388183594 L 266.7479553222656 79.73719787597656 L 267.8155517578125 79.33386993408203 L 268.88311767578125 79.23661041259766 L 269.9507141113281 79.6041259765625 L 271.018310546875 79.83077239990234 L 272.0859069824219 79.55865478515625 L 273.15350341796875 79.7892837524414 L 274.2210693359375 79.62567138671875 L 275.2886657714844 78.72675323486328 L 276.35626220703125 79.51570129394531 L 277.4238586425781 79.982421875 L 278.4914245605469 79.6748046875 L 279.55902099609375 79.82103729248047 L 280.6266174316406 79.89959716796875 L 281.6942138671875 79.7576904296875 L 282.7618103027344 79.7627182006836 L 283.8293762207031 79.61447143554688 L 284.89697265625 79.9813461303711 L 285.9645690917969 79.89229583740234 L 287.03216552734375 79.85924530029297 L 288.0997314453125 79.84466552734375 L 289.1673278808594 79.90259552001953 L 290.23492431640625 79.69578552246094 L 291.3025207519531 79.47503662109375 L 292.3701171875 79.60127258300781 L 293.43768310546875 79.7486343383789 L 294.5052795410156 79.90955352783203 L 295.5728759765625 79.74185943603516 L 296.6404724121094 79.62127685546875 L 297.7080383300781 79.65765380859375 L 298.775634765625 79.92369079589844 L 299.8432312011719 79.7176284790039 L 300.91082763671875 79.87490844726562 L 301.9784240722656 79.8744125366211 L 303.0459899902344 79.95873260498047 L 304.11358642578125 79.87329864501953 L 305.1811828613281 79.77210235595703 L 306.248779296875 79.47753143310547 L 307.31634521484375 79.53291320800781 L 308.3839416503906 79.21297454833984 L 309.4515380859375 79.54434204101562 L 310.5191345214844 79.860107421875 L 311.58673095703125 79.75000762939453 L 312.654296875 79.51261138916016 L 313.7218933105469 79.77935028076172 L 314.78948974609375 79.93597412109375 L 315.8570861816406 79.82875061035156 L 316.9246826171875 79.84263610839844 L 317.99224853515625 79.74884033203125 L 319.0598449707031 79.8395004272461 L 320.12744140625 79.96995544433594 L 321.1950378417969 79.9944076538086 L 322.2626037597656 79.95875549316406 L 323.3302001953125 79.82144927978516 L 324.3977966308594 79.83575439453125 L 325.46539306640625 79.54850006103516 L 326.5329895019531 79.68164825439453 L 327.6005554199219 79.81776428222656 L 328.66815185546875 79.90449523925781 L 329.7357482910156 79.62228393554688 L 330.8033447265625 79.50254821777344 L 331.87091064453125 79.59091186523438 L 332.9385070800781 79.63206481933594 L 334.006103515625 79.94524383544922 L 335.0736999511719 79.89521789550781 L 336.14129638671875 79.63397216796875 L 337.2088623046875 79.89501953125 L 338.2764587402344 79.8023452758789 L 339.34405517578125 79.8391342163086 L 340.4116516113281 79.95912170410156 L 341.4792175292969 79.8150405883789 L 342.54681396484375 79.94929504394531 L 343.6144104003906 79.82527160644531 L 344.6820068359375 79.48869323730469 L 345.7496032714844 79.65518188476562 L 346.8171691894531 79.780517578125 L 347.884765625 79.62709045410156 L 348.9523620605469 79.34700012207031 L 350.01995849609375 79.13780975341797 L 351.0875244140625 79.58403015136719 L 352.1551208496094 79.99222564697266 L 353.22271728515625 79.89990997314453 L 354.2903137207031 79.66737365722656 L 355.35791015625 79.94275665283203 L 356.42547607421875 79.73207092285156 L 357.4930725097656 79.05277252197266 L 358.5606689453125 79.32066345214844 L 359.6282653808594 79.90119171142578 L 360.6958312988281 79.64752960205078 L 361.763427734375 79.94024658203125 L 362.8310241699219 79.8028564453125 L 363.89862060546875 79.9189224243164 L 364.9662170410156 79.71785736083984 L 366.0337829589844 79.61235809326172 L 367.10137939453125 79.81083679199219 L 368.1689758300781 79.79634857177734 L 369.236572265625 79.88919830322266 L 370.3041687011719 79.91883087158203 L 371.3717346191406 79.7845230102539 L 372.4393310546875 79.81970977783203 L 373.5069274902344 79.8079605102539 L 374.57452392578125 79.61442565917969 L 375.64208984375 79.68655395507812 L 376.7096862792969 79.91485595703125 L 377.77728271484375 79.92579650878906 L 378.8448791503906 79.77885437011719 L 379.9124755859375 79.80254364013672 L 380.98004150390625 80.00999450683594 L 382.0476379394531 80.04153442382812 L 383.115234375 79.87808227539062 L 384.1828308105469 79.8248291015625 L 385.2503967285156 79.80915069580078 L 386.3179931640625 79.66275024414062 L 387.3855895996094 79.44801330566406 L 388.45318603515625 79.87334442138672 L 389.5207824707031 79.9876480102539 L 390.5883483886719 79.96775817871094 L 391.65594482421875 79.2363052368164 L 392.7235412597656 79.82457733154297 L 393.7911376953125 80.02545166015625 L 394.85870361328125 79.754150390625 L 395.9263000488281 79.88214111328125 L 396.993896484375 79.90667724609375 L 398.0614929199219 79.6376953125 L 399.12908935546875 79.8609619140625 L 400.1966552734375 79.96390533447266 L 401.2642517089844 80.0591812133789 L 402.33184814453125 79.96769714355469 L 403.3994445800781 79.97615051269531 L 404.4670104980469 79.88801574707031 L 405.53460693359375 79.92862701416016 L 406.6022033691406 79.63277435302734 L 407.6697998046875 79.79839324951172 L 408.7373962402344 80.0176773071289 L 409.8049621582031 79.94508361816406 L 410.87255859375 79.97232818603516 L 411.9401550292969 79.91741943359375 L 413.00775146484375 79.99671936035156 L 414.0753173828125 79.73670196533203 L 415.1429138183594 79.72076416015625 L 416.21051025390625 80.0158920288086 L 417.2781066894531 79.8133544921875 L 418.345703125 79.78793334960938 L 419.41326904296875 80.0418701171875 L 420.4808654785156 79.51872253417969 L 421.5484619140625 79.86852264404297 L 422.6160583496094 80.0149154663086 L 423.68365478515625 79.69776153564453 L 424.751220703125 80.02613830566406 L 425.8188171386719 79.9123306274414 L 426.88641357421875 79.86425018310547 L 427.9540100097656 79.910400390625 L 429.0215759277344 79.6910629272461 L 430.08917236328125 79.85417175292969 L 431.1567687988281 79.8056869506836 L 432.224365234375 79.97298431396484 L 433.2919616699219 79.77330780029297 L 434.3595275878906 79.70004272460938 L 435.4271240234375 79.66853332519531 L 436.4947204589844 79.69140625 L 437.56231689453125 79.6292495727539 L 438.6298828125 79.68560028076172 L 439.6974792480469 79.3878173828125 L 440.76507568359375 79.91805267333984 L 441.8326721191406 79.3241195678711 L 442.9002685546875 79.50959014892578 L 443.96783447265625 79.71401977539062 L 445.0354309082031 79.68905639648438 L 446.10302734375 80.04021453857422 L 447.1706237792969 79.9063949584961 L 448.2381896972656 79.76380920410156 L 449.3057861328125 79.90422058105469 L 450.3733825683594 79.93559265136719 L 451.44097900390625 79.88894653320312 L 452.5085754394531 79.93396759033203 L 453.5761413574219 79.65544128417969 L 454.64373779296875 79.74718475341797 L 455.7113342285156 79.92707061767578 L 456.7789306640625 79.97953033447266 L 457.84649658203125 79.89060974121094 L 458.9140930175781 79.9201431274414 L 459.981689453125 79.80131530761719 L 461.0492858886719 80.0088882446289 L 462.11688232421875 79.9159164428711 L 463.1844482421875 79.9023666381836 L 464.2520446777344 79.65277099609375 L 465.31964111328125 79.81817626953125 L 466.3872375488281 80.0565185546875 L 467.454833984375 79.76628875732422 L 468.52239990234375 79.98792266845703 L 469.5899963378906 79.78473663330078 L 470.6575927734375 79.76390075683594 L 471.7251892089844 79.87757110595703 L 472.7927551269531 79.90154266357422 L 473.8603515625 79.98085021972656 L 474.9279479980469 79.81271362304688 L 475.99554443359375 79.93885803222656 L 477.0631408691406 79.96797943115234 L 478.1307067871094 80.03990173339844 L 479.19830322265625 79.74925994873047 L 480.2658996582031 80.01382446289062 L 481.33349609375 79.91466522216797 L 482.40106201171875 80.00653076171875 L 483.4686584472656 79.85867309570312 L 484.5362548828125 79.9737319946289 L 485.6038513183594 79.96047973632812 L 486.67144775390625 80.00935363769531 L 487.739013671875 79.75615692138672 L 488.8066101074219 79.89247131347656 L 489.87420654296875 80.04398345947266 L 490.9418029785156 79.8876953125 L 492.0093688964844 79.86136627197266 L 493.07696533203125 79.53761291503906 L 494.1445617675781 79.79167175292969 L 495.212158203125 79.67754364013672 L 496.2797546386719 79.91098022460938 L 497.3473205566406 79.90680694580078 L 498.4149169921875 79.99021911621094 L 499.4825134277344 79.8623275756836 L 500.55010986328125 79.91349792480469 L 501.61767578125 79.50880432128906 L 502.6852722167969 79.95774841308594 L 503.75286865234375 79.99130249023438 L 504.8204650878906 79.76081085205078 L 505.8880615234375 79.90829467773438 L 506.95562744140625 79.9269027709961 L 508.0232238769531 79.4995346069336 L 509.0908203125 79.89749145507812 L 510.1584167480469 79.842529296875 L 511.2259826660156 79.96803283691406 L 512.2935791015625 79.4919662475586 L 513.3612060546875 79.05854797363281 L 514.4287719726562 80.13928985595703 L 515.496337890625 79.83233642578125 L 516.56396484375 79.95742797851562 L 517.6315307617188 79.79673767089844 L 518.6990966796875 79.76238250732422 L 519.7667236328125 79.9775390625 L 520.8342895507812 79.89266204833984 L 521.9019165039062 79.72140502929688 L 522.969482421875 79.73756408691406 L 524.0370483398438 79.79046630859375 L 525.1046752929688 79.87298583984375 L 526.1722412109375 79.94609832763672 L 527.2398681640625 79.92694091796875 L 528.3074340820312 79.99390411376953 L 529.375 79.89679718017578 L 530.442626953125 79.87421417236328 L 531.5101928710938 79.88408660888672 L 532.5778198242188 79.99333953857422 L 533.6453857421875 79.88616180419922 L 534.7129516601562 79.9270248413086 L 535.7805786132812 79.94926452636719 L 536.84814453125 80.01323699951172 L 537.9157104492188 79.79222869873047 L 538.9833374023438 80.0000228881836 L 540.0509033203125 79.97039794921875 L 541.1185302734375 80.04479217529297 L 542.1860961914062 79.85625457763672 L 543.253662109375 79.90923309326172 L 544.3212890625 79.9864273071289 L 545.3888549804688 79.69424438476562 L 546.4564819335938 79.9344711303711 L 547.5240478515625 79.54766082763672 L 548.5916137695312 79.89375305175781 L 549.6592407226562 79.82737731933594 L 550.726806640625 79.9933090209961 L 551.79443359375 79.99005126953125 L 552.8619995117188 79.91575622558594 L 553.9295654296875 79.97506713867188 L 554.9971923828125 79.91707611083984 L 556.0647583007812 79.94084167480469 L 557.1323852539062 79.64529418945312 L 558.199951171875 79.8337631225586 L 559.2675170898438 79.96150207519531 L 560.3351440429688 79.96347045898438 L 561.4027099609375 79.81698608398438 L 562.4702758789062 79.77417755126953 L 563.5379028320312 79.90396881103516 L 564.60546875 80.07646942138672 L 565.673095703125 79.92057800292969 L 566.7406616210938 79.81553649902344 L 567.8082275390625 79.74937438964844 L 568.8758544921875 79.60205841064453 L 569.9434204101562 79.90431213378906 L 571.0110473632812 79.9330825805664 L 572.07861328125 79.95348358154297 L 573.1461791992188 80.02570343017578 L 574.2138061523438 79.79305267333984 L 575.2813720703125 79.427001953125 L 576.3489990234375 78.9102783203125 L 577.4165649414062 79.77336883544922 L 578.484130859375 79.70503234863281 L 579.5517578125 79.91935729980469 L 580.6193237304688 79.98727416992188 L 581.6868896484375 79.98201751708984 L 582.7545166015625 79.29067993164062 L 583.8220825195312 78.82744598388672 L 584.8897094726562 79.60372924804688 L 585.957275390625 79.82227325439453 L 587.0248413085938 79.4978256225586 L 588.0924682617188 79.64009857177734 L 589.1600341796875 79.99041748046875 L 590.2276611328125 79.96890258789062 L 591.2952270507812 80.01429748535156 L 592.36279296875 79.86206817626953 L 593.430419921875 79.90531921386719 L 594.4979858398438 79.78173065185547 L 595.5656127929688 79.91812896728516 L 596.6331787109375 80.00389862060547 L 597.7007446289062 79.87954711914062 L 598.7683715820312 80.04190826416016 L 599.8359375 80.06488800048828 L 600.903564453125 79.96485900878906 L 601.9711303710938 80.030029296875 L 603.0386962890625 79.68555450439453 L 604.1063232421875 79.73664855957031 L 605.1738891601562 80.03334045410156 L 606.241455078125 79.6340560913086 L 607.30908203125 80.01551055908203 L 608.3766479492188 79.97933959960938 L 609.4442749023438 79.93984985351562 L 610.5118408203125 79.6340560913086 L 611.5794067382812 79.82881927490234 L 612.6470336914062 79.6610336303711 L 613.714599609375 80.02571105957031 L 614.7822265625 79.92285919189453 L 615.8497924804688 79.69949340820312 L 616.9173583984375 79.68840026855469 L 617.9849853515625 79.81963348388672 L 619.0525512695312 80.00574493408203 L 620.1201782226562 80.0267105102539 L 621.187744140625 79.90018463134766 L 622.2553100585938 79.91828155517578 L 623.3229370117188 79.91114044189453 L 624.3905029296875 79.93840026855469 L 625.4580688476562 79.68499755859375 L 626.5256958007812 79.98295593261719 L 627.59326171875 79.92364501953125 L 628.660888671875 79.95388793945312 L 629.7284545898438 80.02884674072266 L 630.7960205078125 79.92053985595703 L 631.8636474609375 79.85750579833984" stroke-opacity="1" stroke-linejoin="bevel" stroke-miterlimit="10" stroke-width="2" clip-path="url(#uHqXGIlXZXQS)"/><path fill="none" stroke="rgb(255,127,14)" paint-order="fill" d="M 99.13636016845703 43.181819915771484 L 100.2039566040039 58.767051696777344 L 101.27154541015625 72.79259490966797 L 102.3391342163086 73.39802551269531 L 103.40672302246094 73.70246887207031 L 104.47431182861328 73.91295623779297 L 105.54190063476562 73.9207992553711 L 106.60948944091797 73.92440032958984 L 107.67707824707031 73.9424057006836 L 108.74467468261719 73.92799377441406 L 109.81226348876953 73.90435028076172 L 110.87985229492188 73.78982543945312 L 111.94744110107422 73.97015380859375 L 113.01502990722656 73.8533706665039 L 114.0826187133789 73.95429229736328 L 115.15020751953125 73.92794036865234 L 116.2177963256836 73.897216796875 L 117.28539276123047 73.94824981689453 L 118.35298156738281 73.91632843017578 L 119.42057037353516 73.8175048828125 L 120.4881591796875 73.9318618774414 L 121.55574798583984 73.9482650756836 L 122.62333679199219 73.91592407226562 L 123.69092559814453 74.01142883300781 L 124.75851440429688 73.94983673095703 L 125.82610321044922 73.9808120727539 L 126.8936996459961 74.32910919189453 L 127.96128845214844 77.56086730957031 L 129.02886962890625 92.13006591796875 L 130.09646606445312 105.98078918457031 L 131.1640625 122.06004333496094 L 132.2316436767578 136.8443603515625 L 133.2992401123047 150.5029754638672 L 134.3668212890625 160.35183715820312 L 135.43441772460938 166.6510772705078 L 136.5019989013672 170.94337463378906 L 137.56959533691406 177.48257446289062 L 138.63717651367188 182.58511352539062 L 139.70477294921875 189.14207458496094 L 140.77236938476562 190.8138885498047 L 141.83995056152344 196.40634155273438 L 142.9075469970703 199.60055541992188 L 143.97512817382812 201.95375061035156 L 145.042724609375 202.8648223876953 L 146.1103057861328 205.93655395507812 L 147.1779022216797 207.19859313964844 L 148.2454833984375 210.0678253173828 L 149.31307983398438 207.0026397705078 L 150.38067626953125 203.4127655029297 L 151.44825744628906 202.76443481445312 L 152.51585388183594 196.90158081054688 L 153.58343505859375 195.75192260742188 L 154.65103149414062 196.83412170410156 L 155.71861267089844 198.06832885742188 L 156.7862091064453 200.8675994873047 L 157.8538055419922 208.76589965820312 L 158.92138671875 216.26461791992188 L 159.98898315429688 218.8468475341797 L 161.0565643310547 219.04872131347656 L 162.12416076660156 219.71128845214844 L 163.19174194335938 227.48573303222656 L 164.25933837890625 232.12245178222656 L 165.32691955566406 236.7338104248047 L 166.39451599121094 238.83737182617188 L 167.4621124267578 237.9729461669922 L 168.52969360351562 239.51333618164062 L 169.5972900390625 243.9156036376953 L 170.6648712158203 235.67811584472656 L 171.7324676513672 216.7955322265625 L 172.800048828125 221.03366088867188 L 173.86764526367188 242.3430938720703 L 174.93524169921875 241.34506225585938 L 176.00282287597656 248.0898895263672 L 177.07041931152344 237.91224670410156 L 178.13800048828125 243.71493530273438 L 179.20559692382812 249.28892517089844 L 180.27317810058594 255.42442321777344 L 181.3407745361328 247.24415588378906 L 182.40835571289062 251.2903594970703 L 183.4759521484375 251.00738525390625 L 184.54354858398438 230.13296508789062 L 185.6111297607422 235.9905548095703 L 186.67872619628906 240.82421875 L 187.74630737304688 238.3505401611328 L 188.81390380859375 227.33103942871094 L 189.88148498535156 221.2166748046875 L 190.94908142089844 229.08282470703125 L 192.01666259765625 245.7008056640625 L 193.08425903320312 239.909423828125 L 194.15185546875 220.7208709716797 L 195.2194366455078 223.87498474121094 L 196.2870330810547 247.24862670898438 L 197.3546142578125 249.69912719726562 L 198.42221069335938 253.79623413085938 L 199.4897918701172 255.9777374267578 L 200.55738830566406 242.9178009033203 L 201.62498474121094 239.50704956054688 L 202.69256591796875 238.4248809814453 L 203.76016235351562 242.91041564941406 L 204.82774353027344 251.35824584960938 L 205.8953399658203 262.671142578125 L 206.96292114257812 265.3443603515625 L 208.030517578125 264.3854064941406 L 209.0980987548828 267.09210205078125 L 210.1656951904297 258.234619140625 L 211.23329162597656 269.97711181640625 L 212.30087280273438 259.9403076171875 L 213.36846923828125 245.82701110839844 L 214.43605041503906 245.45704650878906 L 215.50364685058594 235.07537841796875 L 216.57122802734375 251.38427734375 L 217.63882446289062 245.51669311523438 L 218.70640563964844 228.3324737548828 L 219.7740020751953 230.27272033691406 L 220.8415985107422 231.5284881591797 L 221.9091796875 245.73207092285156 L 222.97677612304688 259.80816650390625 L 224.0443572998047 255.73794555664062 L 225.11195373535156 240.67013549804688 L 226.17953491210938 237.01309204101562 L 227.24713134765625 240.10794067382812 L 228.31472778320312 244.9434814453125 L 229.38230895996094 256.675048828125 L 230.4499053955078 272.0613708496094 L 231.51748657226562 262.1927795410156 L 232.5850830078125 259.15869140625 L 233.6526641845703 266.38043212890625 L 234.7202606201172 263.2300720214844 L 235.787841796875 267.96240234375 L 236.85543823242188 277.9892883300781 L 237.92303466796875 275.01287841796875 L 238.99061584472656 259.6680603027344 L 240.05821228027344 260.93670654296875 L 241.12579345703125 275.0115661621094 L 242.19338989257812 252.81881713867188 L 243.26097106933594 260.990478515625 L 244.3285675048828 259.77008056640625 L 245.39614868164062 274.2203674316406 L 246.4637451171875 274.7049865722656 L 247.53134155273438 275.5112609863281 L 248.5989227294922 280.5305480957031 L 249.66651916503906 264.48828125 L 250.73410034179688 266.2127990722656 L 251.80169677734375 257.2559509277344 L 252.86927795410156 243.72344970703125 L 253.93687438964844 252.6171112060547 L 255.0044708251953 252.78372192382812 L 256.0720520019531 254.1876678466797 L 257.1396484375 246.9748077392578 L 258.2072448730469 257.49273681640625 L 259.2748107910156 285.56927490234375 L 260.3424072265625 278.89947509765625 L 261.4100036621094 268.5191345214844 L 262.47760009765625 284.6618957519531 L 263.545166015625 292.1189270019531 L 264.6127624511719 293.6888732910156 L 265.68035888671875 272.7279357910156 L 266.7479553222656 246.1070556640625 L 267.8155517578125 258.9488525390625 L 268.88311767578125 250.98159790039062 L 269.9507141113281 242.19869995117188 L 271.018310546875 245.07725524902344 L 272.0859069824219 243.30079650878906 L 273.15350341796875 255.2732391357422 L 274.2210693359375 252.2713165283203 L 275.2886657714844 224.3357696533203 L 276.35626220703125 218.01820373535156 L 277.4238586425781 220.56594848632812 L 278.4914245605469 240.3811798095703 L 279.55902099609375 240.02296447753906 L 280.6266174316406 239.0950927734375 L 281.6942138671875 257.3739013671875 L 282.7618103027344 274.5899353027344 L 283.8293762207031 274.6038513183594 L 284.89697265625 260.7171630859375 L 285.9645690917969 250.70140075683594 L 287.03216552734375 251.23501586914062 L 288.0997314453125 267.35308837890625 L 289.1673278808594 276.853515625 L 290.23492431640625 277.72216796875 L 291.3025207519531 277.0731201171875 L 292.3701171875 292.84197998046875 L 293.43768310546875 301.6583251953125 L 294.5052795410156 284.45281982421875 L 295.5728759765625 293.85968017578125 L 296.6404724121094 265.4085998535156 L 297.7080383300781 266.87445068359375 L 298.775634765625 239.55618286132812 L 299.8432312011719 221.25125122070312 L 300.91082763671875 194.79861450195312 L 301.9784240722656 199.67349243164062 L 303.0459899902344 191.16131591796875 L 304.11358642578125 207.2559051513672 L 305.1811828613281 228.37875366210938 L 306.248779296875 251.29612731933594 L 307.31634521484375 260.46978759765625 L 308.3839416503906 261.4960021972656 L 309.4515380859375 269.06915283203125 L 310.5191345214844 269.5327453613281 L 311.58673095703125 290.3906555175781 L 312.654296875 286.3732604980469 L 313.7218933105469 262.34222412109375 L 314.78948974609375 260.3226623535156 L 315.8570861816406 246.5567626953125 L 316.9246826171875 259.7258605957031 L 317.99224853515625 267.7426452636719 L 319.0598449707031 260.5425720214844 L 320.12744140625 270.20361328125 L 321.1950378417969 280.90106201171875 L 322.2626037597656 264.4847412109375 L 323.3302001953125 272.6917724609375 L 324.3977966308594 287.8522644042969 L 325.46539306640625 291.1379699707031 L 326.5329895019531 293.2754821777344 L 327.6005554199219 296.6439208984375 L 328.66815185546875 303.3199157714844 L 329.7357482910156 270.6336364746094 L 330.8033447265625 267.2794189453125 L 331.87091064453125 264.73394775390625 L 332.9385070800781 270.983154296875 L 334.006103515625 264.6309509277344 L 335.0736999511719 274.2771911621094 L 336.14129638671875 270.0619812011719 L 337.2088623046875 263.68658447265625 L 338.2764587402344 267.3939514160156 L 339.34405517578125 238.55917358398438 L 340.4116516113281 246.24725341796875 L 341.4792175292969 264.9300231933594 L 342.54681396484375 263.03387451171875 L 343.6144104003906 264.353515625 L 344.6820068359375 248.67922973632812 L 345.7496032714844 216.46670532226562 L 346.8171691894531 220.14158630371094 L 347.884765625 227.57077026367188 L 348.9523620605469 237.61111450195312 L 350.01995849609375 223.484130859375 L 351.0875244140625 224.93870544433594 L 352.1551208496094 234.69259643554688 L 353.22271728515625 258.0290832519531 L 354.2903137207031 261.5938415527344 L 355.35791015625 265.0274353027344 L 356.42547607421875 275.2919616699219 L 357.4930725097656 266.3833923339844 L 358.5606689453125 285.8087463378906 L 359.6282653808594 287.0674133300781 L 360.6958312988281 275.56231689453125 L 361.763427734375 276.9785461425781 L 362.8310241699219 292.8778076171875 L 363.89862060546875 298.2589111328125 L 364.9662170410156 292.1608581542969 L 366.0337829589844 271.6122741699219 L 367.10137939453125 274.7039489746094 L 368.1689758300781 266.5901794433594 L 369.236572265625 287.2811584472656 L 370.3041687011719 291.9554138183594 L 371.3717346191406 286.4322509765625 L 372.4393310546875 300.5025329589844 L 373.5069274902344 304.86724853515625 L 374.57452392578125 296.7810974121094 L 375.64208984375 290.96142578125 L 376.7096862792969 287.07391357421875 L 377.77728271484375 270.651123046875 L 378.8448791503906 266.9031066894531 L 379.9124755859375 258.13818359375 L 380.98004150390625 236.30520629882812 L 382.0476379394531 255.4479217529297 L 383.115234375 238.73118591308594 L 384.1828308105469 219.72996520996094 L 385.2503967285156 250.22030639648438 L 386.3179931640625 257.9640197753906 L 387.3855895996094 280.489013671875 L 388.45318603515625 271.6028137207031 L 389.5207824707031 247.66046142578125 L 390.5883483886719 259.80584716796875 L 391.65594482421875 275.638671875 L 392.7235412597656 286.1016540527344 L 393.7911376953125 301.7190246582031 L 394.85870361328125 295.7259826660156 L 395.9263000488281 283.248291015625 L 396.993896484375 274.1368103027344 L 398.0614929199219 242.45260620117188 L 399.12908935546875 251.47731018066406 L 400.1966552734375 225.08995056152344 L 401.2642517089844 224.44805908203125 L 402.33184814453125 229.4883270263672 L 403.3994445800781 245.7014923095703 L 404.4670104980469 250.08987426757812 L 405.53460693359375 254.38876342773438 L 406.6022033691406 284.4877014160156 L 407.6697998046875 292.0671691894531 L 408.7373962402344 277.6892395019531 L 409.8049621582031 280.9548034667969 L 410.87255859375 283.0543518066406 L 411.9401550292969 284.97772216796875 L 413.00775146484375 286.95037841796875 L 414.0753173828125 265.284423828125 L 415.1429138183594 278.8684997558594 L 416.21051025390625 263.2159423828125 L 417.2781066894531 262.839599609375 L 418.345703125 255.08657836914062 L 419.41326904296875 282.2201843261719 L 420.4808654785156 292.8031311035156 L 421.5484619140625 295.72674560546875 L 422.6160583496094 289.4619140625 L 423.68365478515625 288.5356140136719 L 424.751220703125 268.410400390625 L 425.8188171386719 253.49114990234375 L 426.88641357421875 251.02130126953125 L 427.9540100097656 271.1732177734375 L 429.0215759277344 274.8927917480469 L 430.08917236328125 268.64898681640625 L 431.1567687988281 270.4226379394531 L 432.224365234375 244.39004516601562 L 433.2919616699219 210.8839874267578 L 434.3595275878906 232.89625549316406 L 435.4271240234375 240.9433135986328 L 436.4947204589844 238.07174682617188 L 437.56231689453125 213.541259765625 L 438.6298828125 221.78875732421875 L 439.6974792480469 199.41099548339844 L 440.76507568359375 221.96826171875 L 441.8326721191406 244.58724975585938 L 442.9002685546875 262.3200378417969 L 443.96783447265625 282.38946533203125 L 445.0354309082031 290.88616943359375 L 446.10302734375 280.7362060546875 L 447.1706237792969 274.8115539550781 L 448.2381896972656 272.8456115722656 L 449.3057861328125 258.9620056152344 L 450.3733825683594 268.1188659667969 L 451.44097900390625 294.0119934082031 L 452.5085754394531 289.4349365234375 L 453.5761413574219 293.009521484375 L 454.64373779296875 296.99169921875 L 455.7113342285156 300.5067443847656 L 456.7789306640625 287.6707763671875 L 457.84649658203125 256.9079895019531 L 458.9140930175781 245.19325256347656 L 459.981689453125 221.425048828125 L 461.0492858886719 201.2050018310547 L 462.11688232421875 202.95973205566406 L 463.1844482421875 214.0873565673828 L 464.2520446777344 216.87802124023438 L 465.31964111328125 246.197265625 L 466.3872375488281 265.4512023925781 L 467.454833984375 267.4705810546875 L 468.52239990234375 284.6501770019531 L 469.5899963378906 285.7328796386719 L 470.6575927734375 285.9888610839844 L 471.7251892089844 294.81646728515625 L 472.7927551269531 295.2410888671875 L 473.8603515625 275.2878112792969 L 474.9279479980469 254.3009033203125 L 475.99554443359375 231.38803100585938 L 477.0631408691406 267.290283203125 L 478.1307067871094 271.749267578125 L 479.19830322265625 264.8044128417969 L 480.2658996582031 282.03857421875 L 481.33349609375 279.1352844238281 L 482.40106201171875 276.0649108886719 L 483.4686584472656 278.8072204589844 L 484.5362548828125 272.5290832519531 L 485.6038513183594 285.9803771972656 L 486.67144775390625 289.9923095703125 L 487.739013671875 288.5940246582031 L 488.8066101074219 278.6053771972656 L 489.87420654296875 264.54437255859375 L 490.9418029785156 235.99365234375 L 492.0093688964844 256.8801574707031 L 493.07696533203125 288.9218444824219 L 494.1445617675781 264.3735046386719 L 495.212158203125 276.31121826171875 L 496.2797546386719 266.0804138183594 L 497.3473205566406 282.4207763671875 L 498.4149169921875 278.8209533691406 L 499.4825134277344 277.44317626953125 L 500.55010986328125 292.09576416015625 L 501.61767578125 290.9300537109375 L 502.6852722167969 289.9871826171875 L 503.75286865234375 276.8951416015625 L 504.8204650878906 276.454833984375 L 505.8880615234375 285.928955078125 L 506.95562744140625 267.0089416503906 L 508.0232238769531 259.9469909667969 L 509.0908203125 255.99266052246094 L 510.1584167480469 227.86839294433594 L 511.2259826660156 239.33837890625 L 512.2935791015625 225.82870483398438 L 513.3612060546875 233.0769500732422 L 514.4287719726562 232.60308837890625 L 515.496337890625 232.2996063232422 L 516.56396484375 256.5863952636719 L 517.6315307617188 276.10845947265625 L 518.6990966796875 283.8432922363281 L 519.7667236328125 275.6253356933594 L 520.8342895507812 279.58294677734375 L 521.9019165039062 272.77056884765625 L 522.969482421875 268.1319580078125 L 524.0370483398438 280.6847839355469 L 525.1046752929688 258.063720703125 L 526.1722412109375 240.16567993164062 L 527.2398681640625 237.9380340576172 L 528.3074340820312 250.35736083984375 L 529.375 270.0091857910156 L 530.442626953125 268.315673828125 L 531.5101928710938 271.0823669433594 L 532.5778198242188 243.89419555664062 L 533.6453857421875 262.8742370605469 L 534.7129516601562 280.3134460449219 L 535.7805786132812 282.3013610839844 L 536.84814453125 284.6644592285156 L 537.9157104492188 258.12945556640625 L 538.9833374023438 259.8785400390625 L 540.0509033203125 270.54425048828125 L 541.1185302734375 268.9082336425781 L 542.1860961914062 287.51708984375 L 543.253662109375 277.1868896484375 L 544.3212890625 270.5777282714844 L 545.3888549804688 291.35675048828125 L 546.4564819335938 286.7784118652344 L 547.5240478515625 275.405517578125 L 548.5916137695312 273.2900695800781 L 549.6592407226562 284.3454895019531 L 550.726806640625 275.3791198730469 L 551.79443359375 296.4794921875 L 552.8619995117188 260.7734680175781 L 553.9295654296875 265.8838195800781 L 554.9971923828125 269.8421325683594 L 556.0647583007812 263.70587158203125 L 557.1323852539062 249.6256866455078 L 558.199951171875 259.3887023925781 L 559.2675170898438 263.3228759765625 L 560.3351440429688 288.9317321777344 L 561.4027099609375 297.3129577636719 L 562.4702758789062 292.83251953125 L 563.5379028320312 262.4569396972656 L 564.60546875 248.13442993164062 L 565.673095703125 239.6303253173828 L 566.7406616210938 259.8677062988281 L 567.8082275390625 266.874267578125 L 568.8758544921875 268.319580078125 L 569.9434204101562 284.3265075683594 L 571.0110473632812 287.55718994140625 L 572.07861328125 267.4134216308594 L 573.1461791992188 265.63128662109375 L 574.2138061523438 283.9728088378906 L 575.2813720703125 263.96875 L 576.3489990234375 257.6915283203125 L 577.4165649414062 266.9107971191406 L 578.484130859375 257.0400085449219 L 579.5517578125 258.3436279296875 L 580.6193237304688 254.6463623046875 L 581.6868896484375 254.22146606445312 L 582.7545166015625 246.84605407714844 L 583.8220825195312 234.12586975097656 L 584.8897094726562 214.75738525390625 L 585.957275390625 204.29173278808594 L 587.0248413085938 214.32843017578125 L 588.0924682617188 218.56121826171875 L 589.1600341796875 231.7274932861328 L 590.2276611328125 232.94493103027344 L 591.2952270507812 237.6773223876953 L 592.36279296875 248.89932250976562 L 593.430419921875 252.55723571777344 L 594.4979858398438 259.29986572265625 L 595.5656127929688 260.5106201171875 L 596.6331787109375 263.4259948730469 L 597.7007446289062 271.0193176269531 L 598.7683715820312 268.8379821777344 L 599.8359375 251.90350341796875 L 600.903564453125 257.6240539550781 L 601.9711303710938 255.9800567626953 L 603.0386962890625 277.0389099121094 L 604.1063232421875 272.1196594238281 L 605.1738891601562 249.56642150878906 L 606.241455078125 236.95094299316406 L 607.30908203125 225.99684143066406 L 608.3766479492188 214.39779663085938 L 609.4442749023438 225.16290283203125 L 610.5118408203125 228.6800994873047 L 611.5794067382812 238.92391967773438 L 612.6470336914062 235.1861572265625 L 613.714599609375 247.13327026367188 L 614.7822265625 265.3598937988281 L 615.8497924804688 268.61688232421875 L 616.9173583984375 266.2046813964844 L 617.9849853515625 261.3279113769531 L 619.0525512695312 251.8071746826172 L 620.1201782226562 277.12646484375 L 621.187744140625 287.2658386230469 L 622.2553100585938 289.4551086425781 L 623.3229370117188 279.63653564453125 L 624.3905029296875 282.3291015625 L 625.4580688476562 292.14404296875 L 626.5256958007812 294.9249267578125 L 627.59326171875 304.8544921875 L 628.660888671875 307.2184143066406 L 629.7284545898438 310.1914367675781 L 630.7960205078125 308.99603271484375 L 631.8636474609375 315.5658264160156" stroke-opacity="1" stroke-linejoin="bevel" stroke-miterlimit="10" stroke-width="2" clip-path="url(#KCyyOZNkhWOs)"/><path fill="none" stroke="rgb(255,187,120)" paint-order="fill" d="M 99.13636016845703 71.1503677368164 L 100.2039566040039 83.33843994140625 L 101.27154541015625 87.08072662353516 L 102.3391342163086 94.05669403076172 L 103.40672302246094 100.25099182128906 L 104.47431182861328 105.80408477783203 L 105.54190063476562 111.15657806396484 L 106.60948944091797 115.20012664794922 L 107.67707824707031 119.04837036132812 L 108.74467468261719 123.27721405029297 L 109.81226348876953 127.71304321289062 L 110.87985229492188 130.706298828125 L 111.94744110107422 135.7783203125 L 113.01502990722656 140.32943725585938 L 114.0826187133789 144.99160766601562 L 115.15020751953125 150.43299865722656 L 116.2177963256836 154.54771423339844 L 117.28539276123047 162.00856018066406 L 118.35298156738281 170.9220428466797 L 119.42057037353516 177.57992553710938 L 120.4881591796875 182.2115936279297 L 121.55574798583984 185.13412475585938 L 122.62333679199219 192.1878204345703 L 123.69092559814453 199.22157287597656 L 124.75851440429688 204.7572784423828 L 125.82610321044922 202.8646697998047 L 126.8936996459961 208.40548706054688 L 127.96128845214844 213.7246856689453 L 129.02886962890625 216.36476135253906 L 130.09646606445312 217.78736877441406 L 131.1640625 218.91232299804688 L 132.2316436767578 218.84683227539062 L 133.2992401123047 220.7437744140625 L 134.3668212890625 223.0166015625 L 135.43441772460938 224.9840850830078 L 136.5019989013672 223.34414672851562 L 137.56959533691406 224.7641143798828 L 138.63717651367188 227.3925323486328 L 139.70477294921875 226.98045349121094 L 140.77236938476562 229.1295928955078 L 141.83995056152344 229.9696502685547 L 142.9075469970703 231.0485076904297 L 143.97512817382812 233.10191345214844 L 145.042724609375 234.21983337402344 L 146.1103057861328 234.7587890625 L 147.1779022216797 235.1554412841797 L 148.2454833984375 232.4627685546875 L 149.31307983398438 236.3834991455078 L 150.38067626953125 230.35914611816406 L 151.44825744628906 223.6000213623047 L 152.51585388183594 228.22891235351562 L 153.58343505859375 238.3683624267578 L 154.65103149414062 235.63035583496094 L 155.71861267089844 239.76443481445312 L 156.7862091064453 241.1091766357422 L 157.8538055419922 241.20213317871094 L 158.92138671875 237.90994262695312 L 159.98898315429688 238.62294006347656 L 161.0565643310547 243.9061279296875 L 162.12416076660156 244.00875854492188 L 163.19174194335938 243.86656188964844 L 164.25933837890625 242.2224578857422 L 165.32691955566406 243.05484008789062 L 166.39451599121094 241.3209686279297 L 167.4621124267578 247.0183563232422 L 168.52969360351562 245.2021942138672 L 169.5972900390625 247.21432495117188 L 170.6648712158203 248.8182373046875 L 171.7324676513672 243.5853271484375 L 172.800048828125 248.57484436035156 L 173.86764526367188 248.45147705078125 L 174.93524169921875 247.48435974121094 L 176.00282287597656 241.59384155273438 L 177.07041931152344 244.07687377929688 L 178.13800048828125 244.8580780029297 L 179.20559692382812 246.30252075195312 L 180.27317810058594 246.7772979736328 L 181.3407745361328 246.9704132080078 L 182.40835571289062 243.77015686035156 L 183.4759521484375 244.93435668945312 L 184.54354858398438 248.8609619140625 L 185.6111297607422 249.80406188964844 L 186.67872619628906 247.00857543945312 L 187.74630737304688 242.13792419433594 L 188.81390380859375 244.10777282714844 L 189.88148498535156 242.849609375 L 190.94908142089844 250.31039428710938 L 192.01666259765625 244.63668823242188 L 193.08425903320312 248.1679229736328 L 194.15185546875 252.04299926757812 L 195.2194366455078 254.8503875732422 L 196.2870330810547 252.58935546875 L 197.3546142578125 245.53317260742188 L 198.42221069335938 252.82276916503906 L 199.4897918701172 253.3648681640625 L 200.55738830566406 244.84445190429688 L 201.62498474121094 250.7301788330078 L 202.69256591796875 249.63125610351562 L 203.76016235351562 247.45123291015625 L 204.82774353027344 247.982666015625 L 205.8953399658203 239.385498046875 L 206.96292114257812 244.75045776367188 L 208.030517578125 252.32037353515625 L 209.0980987548828 257.5855407714844 L 210.1656951904297 254.2315673828125 L 211.23329162597656 257.0921325683594 L 212.30087280273438 251.82151794433594 L 213.36846923828125 254.2541046142578 L 214.43605041503906 251.9264373779297 L 215.50364685058594 250.80718994140625 L 216.57122802734375 252.65884399414062 L 217.63882446289062 255.4878387451172 L 218.70640563964844 258.236083984375 L 219.7740020751953 253.33372497558594 L 220.8415985107422 247.34671020507812 L 221.9091796875 253.3350067138672 L 222.97677612304688 257.0104675292969 L 224.0443572998047 255.54855346679688 L 225.11195373535156 256.55621337890625 L 226.17953491210938 256.45416259765625 L 227.24713134765625 249.84954833984375 L 228.31472778320312 247.21365356445312 L 229.38230895996094 244.40538024902344 L 230.4499053955078 242.21949768066406 L 231.51748657226562 245.27088928222656 L 232.5850830078125 247.0244140625 L 233.6526641845703 246.3721923828125 L 234.7202606201172 251.60755920410156 L 235.787841796875 251.14462280273438 L 236.85543823242188 244.9860076904297 L 237.92303466796875 257.286376953125 L 238.99061584472656 253.86624145507812 L 240.05821228027344 254.59918212890625 L 241.12579345703125 260.6228942871094 L 242.19338989257812 252.5407257080078 L 243.26097106933594 245.50735473632812 L 244.3285675048828 251.4853515625 L 245.39614868164062 251.3320770263672 L 246.4637451171875 248.26260375976562 L 247.53134155273438 249.559326171875 L 248.5989227294922 256.4342498779297 L 249.66651916503906 254.7723388671875 L 250.73410034179688 247.15687561035156 L 251.80169677734375 242.0454559326172 L 252.86927795410156 258.5671081542969 L 253.93687438964844 253.54794311523438 L 255.0044708251953 249.3388671875 L 256.0720520019531 249.16954040527344 L 257.1396484375 254.38388061523438 L 258.2072448730469 254.52577209472656 L 259.2748107910156 247.41934204101562 L 260.3424072265625 246.79879760742188 L 261.4100036621094 235.56622314453125 L 262.47760009765625 237.56661987304688 L 263.545166015625 251.0825958251953 L 264.6127624511719 254.35272216796875 L 265.68035888671875 247.90980529785156 L 266.7479553222656 245.80015563964844 L 267.8155517578125 242.73251342773438 L 268.88311767578125 246.37355041503906 L 269.9507141113281 243.4174346923828 L 271.018310546875 250.66236877441406 L 272.0859069824219 253.7787628173828 L 273.15350341796875 256.34739685058594 L 274.2210693359375 261.68829345703125 L 275.2886657714844 252.39834594726562 L 276.35626220703125 255.0548553466797 L 277.4238586425781 257.10357666015625 L 278.4914245605469 261.2454528808594 L 279.55902099609375 260.1481018066406 L 280.6266174316406 259.9414978027344 L 281.6942138671875 253.26251220703125 L 282.7618103027344 263.098876953125 L 283.8293762207031 249.38368225097656 L 284.89697265625 237.50543212890625 L 285.9645690917969 235.62173461914062 L 287.03216552734375 260.30352783203125 L 288.0997314453125 264.3280334472656 L 289.1673278808594 255.0625762939453 L 290.23492431640625 263.3887634277344 L 291.3025207519531 257.1976013183594 L 292.3701171875 255.68788146972656 L 293.43768310546875 261.1625671386719 L 294.5052795410156 259.4612731933594 L 295.5728759765625 258.1204833984375 L 296.6404724121094 251.8575897216797 L 297.7080383300781 252.12449645996094 L 298.775634765625 262.6814880371094 L 299.8432312011719 260.9420166015625 L 300.91082763671875 262.6273498535156 L 301.9784240722656 259.98016357421875 L 303.0459899902344 262.4241638183594 L 304.11358642578125 250.18319702148438 L 305.1811828613281 249.2765350341797 L 306.248779296875 254.0290069580078 L 307.31634521484375 258.50958251953125 L 308.3839416503906 256.8912658691406 L 309.4515380859375 256.00755310058594 L 310.5191345214844 254.1414337158203 L 311.58673095703125 252.4992218017578 L 312.654296875 253.52479553222656 L 313.7218933105469 256.8021240234375 L 314.78948974609375 256.7050476074219 L 315.8570861816406 264.0091857910156 L 316.9246826171875 260.436279296875 L 317.99224853515625 266.19091796875 L 319.0598449707031 263.7493896484375 L 320.12744140625 243.9296112060547 L 321.1950378417969 255.21890258789062 L 322.2626037597656 263.0249938964844 L 323.3302001953125 263.2834777832031 L 324.3977966308594 265.5339660644531 L 325.46539306640625 258.5813293457031 L 326.5329895019531 256.54248046875 L 327.6005554199219 258.4675598144531 L 328.66815185546875 261.4394836425781 L 329.7357482910156 252.35153198242188 L 330.8033447265625 256.515869140625 L 331.87091064453125 249.27069091796875 L 332.9385070800781 253.88980102539062 L 334.006103515625 242.37184143066406 L 335.0736999511719 235.18124389648438 L 336.14129638671875 241.22364807128906 L 337.2088623046875 252.16763305664062 L 338.2764587402344 264.3379821777344 L 339.34405517578125 263.99688720703125 L 340.4116516113281 259.348876953125 L 341.4792175292969 265.34808349609375 L 342.54681396484375 268.1712646484375 L 343.6144104003906 259.6007995605469 L 344.6820068359375 267.74432373046875 L 345.7496032714844 270.08001708984375 L 346.8171691894531 263.2017822265625 L 347.884765625 263.77337646484375 L 348.9523620605469 267.39678955078125 L 350.01995849609375 268.03509521484375 L 351.0875244140625 268.838134765625 L 352.1551208496094 269.60150146484375 L 353.22271728515625 265.0057678222656 L 354.2903137207031 265.9049377441406 L 355.35791015625 267.4751281738281 L 356.42547607421875 269.3808898925781 L 357.4930725097656 268.2178039550781 L 358.5606689453125 243.3356170654297 L 359.6282653808594 258.8926086425781 L 360.6958312988281 266.7093505859375 L 361.763427734375 270.5218200683594 L 362.8310241699219 261.3395080566406 L 363.89862060546875 263.6280822753906 L 364.9662170410156 272.5263671875 L 366.0337829589844 270.4129333496094 L 367.10137939453125 269.91278076171875 L 368.1689758300781 272.79840087890625 L 369.236572265625 270.7211608886719 L 370.3041687011719 272.4543762207031 L 371.3717346191406 276.8830261230469 L 372.4393310546875 275.97174072265625 L 373.5069274902344 275.3865966796875 L 374.57452392578125 253.92620849609375 L 375.64208984375 245.31101989746094 L 376.7096862792969 249.76136779785156 L 377.77728271484375 264.03033447265625 L 378.8448791503906 265.0091857910156 L 379.9124755859375 253.04139709472656 L 380.98004150390625 244.01712036132812 L 382.0476379394531 253.475341796875 L 383.115234375 246.59109497070312 L 384.1828308105469 252.5797119140625 L 385.2503967285156 261.96795654296875 L 386.3179931640625 260.7510070800781 L 387.3855895996094 273.6058349609375 L 388.45318603515625 271.81951904296875 L 389.5207824707031 270.1585388183594 L 390.5883483886719 268.1167907714844 L 391.65594482421875 261.5359191894531 L 392.7235412597656 245.49998474121094 L 393.7911376953125 242.38754272460938 L 394.85870361328125 268.1070556640625 L 395.9263000488281 278.3603515625 L 396.993896484375 267.9992980957031 L 398.0614929199219 262.68353271484375 L 399.12908935546875 258.42108154296875 L 400.1966552734375 248.6616668701172 L 401.2642517089844 244.4794464111328 L 402.33184814453125 244.51446533203125 L 403.3994445800781 262.4928283691406 L 404.4670104980469 262.7049865722656 L 405.53460693359375 264.2943420410156 L 406.6022033691406 278.7388610839844 L 407.6697998046875 273.5716247558594 L 408.7373962402344 264.5003967285156 L 409.8049621582031 254.1333465576172 L 410.87255859375 250.699462890625 L 411.9401550292969 253.13064575195312 L 413.00775146484375 269.06475830078125 L 414.0753173828125 260.51953125 L 415.1429138183594 250.32546997070312 L 416.21051025390625 258.2546081542969 L 417.2781066894531 254.32089233398438 L 418.345703125 256.5088195800781 L 419.41326904296875 254.80230712890625 L 420.4808654785156 265.4216613769531 L 421.5484619140625 266.25750732421875 L 422.6160583496094 254.36671447753906 L 423.68365478515625 258.9751281738281 L 424.751220703125 273.3460998535156 L 425.8188171386719 277.482177734375 L 426.88641357421875 277.4821472167969 L 427.9540100097656 281.2692565917969 L 429.0215759277344 285.4447937011719 L 430.08917236328125 280.09014892578125 L 431.1567687988281 265.17254638671875 L 432.224365234375 272.9078369140625 L 433.2919616699219 279.86376953125 L 434.3595275878906 272.41070556640625 L 435.4271240234375 277.2372741699219 L 436.4947204589844 281.0984802246094 L 437.56231689453125 279.1231689453125 L 438.6298828125 281.4145812988281 L 439.6974792480469 264.5187683105469 L 440.76507568359375 269.3485412597656 L 441.8326721191406 275.2527770996094 L 442.9002685546875 259.93328857421875 L 443.96783447265625 268.5067443847656 L 445.0354309082031 263.7283020019531 L 446.10302734375 260.7760925292969 L 447.1706237792969 257.45941162109375 L 448.2381896972656 272.6346740722656 L 449.3057861328125 283.6094970703125 L 450.3733825683594 280.26629638671875 L 451.44097900390625 280.24432373046875 L 452.5085754394531 280.37060546875 L 453.5761413574219 281.736083984375 L 454.64373779296875 262.01470947265625 L 455.7113342285156 259.68731689453125 L 456.7789306640625 271.471923828125 L 457.84649658203125 261.958251953125 L 458.9140930175781 276.51495361328125 L 459.981689453125 272.1889343261719 L 461.0492858886719 276.48748779296875 L 462.11688232421875 278.4602966308594 L 463.1844482421875 280.6387634277344 L 464.2520446777344 266.05279541015625 L 465.31964111328125 266.1543273925781 L 466.3872375488281 272.8610534667969 L 467.454833984375 262.01123046875 L 468.52239990234375 276.3747253417969 L 469.5899963378906 286.3189697265625 L 470.6575927734375 281.14703369140625 L 471.7251892089844 279.595703125 L 472.7927551269531 281.0934753417969 L 473.8603515625 279.9534912109375 L 474.9279479980469 286.7884521484375 L 475.99554443359375 274.1638488769531 L 477.0631408691406 283.01556396484375 L 478.1307067871094 289.05621337890625 L 479.19830322265625 260.21331787109375 L 480.2658996582031 271.8880615234375 L 481.33349609375 287.529541015625 L 482.40106201171875 288.0084533691406 L 483.4686584472656 284.2471923828125 L 484.5362548828125 278.86865234375 L 485.6038513183594 277.0672607421875 L 486.67144775390625 274.7220458984375 L 487.739013671875 256.08763122558594 L 488.8066101074219 265.83428955078125 L 489.87420654296875 263.5138244628906 L 490.9418029785156 266.8493957519531 L 492.0093688964844 279.67559814453125 L 493.07696533203125 262.66827392578125 L 494.1445617675781 267.6659240722656 L 495.212158203125 281.9040222167969 L 496.2797546386719 278.0898132324219 L 497.3473205566406 276.635986328125 L 498.4149169921875 269.951416015625 L 499.4825134277344 272.5955505371094 L 500.55010986328125 272.11907958984375 L 501.61767578125 245.92893981933594 L 502.6852722167969 248.05426025390625 L 503.75286865234375 254.38890075683594 L 504.8204650878906 263.6195373535156 L 505.8880615234375 260.0591735839844 L 506.95562744140625 258.3399353027344 L 508.0232238769531 241.42738342285156 L 509.0908203125 261.3394470214844 L 510.1584167480469 265.50836181640625 L 511.2259826660156 265.5571594238281 L 512.2935791015625 264.43438720703125 L 513.3612060546875 294.06988525390625 L 514.4287719726562 283.61859130859375 L 515.496337890625 281.0312805175781 L 516.56396484375 281.4529113769531 L 517.6315307617188 285.4322509765625 L 518.6990966796875 294.2088317871094 L 519.7667236328125 289.2651672363281 L 520.8342895507812 288.5357360839844 L 521.9019165039062 283.3662109375 L 522.969482421875 284.6662902832031 L 524.0370483398438 289.4141845703125 L 525.1046752929688 293.6499328613281 L 526.1722412109375 288.29278564453125 L 527.2398681640625 296.67425537109375 L 528.3074340820312 290.9075012207031 L 529.375 278.5043640136719 L 530.442626953125 289.08001708984375 L 531.5101928710938 287.4965515136719 L 532.5778198242188 284.3485107421875 L 533.6453857421875 289.37677001953125 L 534.7129516601562 283.8671569824219 L 535.7805786132812 285.46826171875 L 536.84814453125 272.82318115234375 L 537.9157104492188 284.7054748535156 L 538.9833374023438 282.5765380859375 L 540.0509033203125 281.0928955078125 L 541.1185302734375 296.399658203125 L 542.1860961914062 295.8917541503906 L 543.253662109375 271.25457763671875 L 544.3212890625 293.2790222167969 L 545.3888549804688 285.3000183105469 L 546.4564819335938 288.3108825683594 L 547.5240478515625 290.30303955078125 L 548.5916137695312 295.09051513671875 L 549.6592407226562 277.31048583984375 L 550.726806640625 270.7003173828125 L 551.79443359375 262.6739807128906 L 552.8619995117188 268.56903076171875 L 553.9295654296875 274.2945556640625 L 554.9971923828125 290.51190185546875 L 556.0647583007812 278.3871765136719 L 557.1323852539062 286.9858703613281 L 558.199951171875 289.6773681640625 L 559.2675170898438 298.11700439453125 L 560.3351440429688 280.6319274902344 L 561.4027099609375 285.4956359863281 L 562.4702758789062 288.320556640625 L 563.5379028320312 278.3491516113281 L 564.60546875 268.6968078613281 L 565.673095703125 263.30133056640625 L 566.7406616210938 252.49819946289062 L 567.8082275390625 272.3448486328125 L 568.8758544921875 285.48248291015625 L 569.9434204101562 298.5456848144531 L 571.0110473632812 288.6808166503906 L 572.07861328125 258.629638671875 L 573.1461791992188 273.1795349121094 L 574.2138061523438 253.1997833251953 L 575.2813720703125 266.4972839355469 L 576.3489990234375 281.52532958984375 L 577.4165649414062 271.9931335449219 L 578.484130859375 276.8056945800781 L 579.5517578125 287.0028991699219 L 580.6193237304688 291.37677001953125 L 581.6868896484375 294.4970397949219 L 582.7545166015625 277.4490966796875 L 583.8220825195312 282.47412109375 L 584.8897094726562 290.1913757324219 L 585.957275390625 267.28973388671875 L 587.0248413085938 273.549072265625 L 588.0924682617188 269.6968078613281 L 589.1600341796875 279.59222412109375 L 590.2276611328125 284.3806457519531 L 591.2952270507812 261.8970947265625 L 592.36279296875 267.66827392578125 L 593.430419921875 288.4488830566406 L 594.4979858398438 284.9421691894531 L 595.5656127929688 279.2191162109375 L 596.6331787109375 283.503662109375 L 597.7007446289062 271.2262878417969 L 598.7683715820312 284.0846862792969 L 599.8359375 290.3642883300781 L 600.903564453125 286.41229248046875 L 601.9711303710938 276.15350341796875 L 603.0386962890625 288.0572814941406 L 604.1063232421875 297.2590026855469 L 605.1738891601562 295.3778076171875 L 606.241455078125 276.7741394042969 L 607.30908203125 263.939453125 L 608.3766479492188 243.2486572265625 L 609.4442749023438 234.22201538085938 L 610.5118408203125 255.8260955810547 L 611.5794067382812 261.6565246582031 L 612.6470336914062 250.64340209960938 L 613.714599609375 273.05816650390625 L 614.7822265625 275.290283203125 L 615.8497924804688 274.18017578125 L 616.9173583984375 281.35101318359375 L 617.9849853515625 277.62744140625 L 619.0525512695312 281.7687072753906 L 620.1201782226562 289.98175048828125 L 621.187744140625 294.8703308105469 L 622.2553100585938 301.124267578125 L 623.3229370117188 304.95941162109375 L 624.3905029296875 304.5077819824219 L 625.4580688476562 300.63079833984375 L 626.5256958007812 282.72698974609375 L 627.59326171875 292.76776123046875 L 628.660888671875 292.80657958984375 L 629.7284545898438 288.3638610839844 L 630.7960205078125 295.2715759277344 L 631.8636474609375 305.5921936035156" stroke-opacity="1" stroke-linejoin="bevel" stroke-miterlimit="10" stroke-width="2" clip-path="url(#LfMAgZNNlvyg)"/><path fill="none" stroke="rgb(0,0,0)" paint-order="fill" d="M 72.5 330.5 L 658.5 330.5" stroke-opacity="1" stroke-linejoin="bevel" stroke-miterlimit="10"/><path fill="none" stroke="rgb(0,0,0)" paint-order="fill" d="M 99.5 336.5 L 99.5 328.5 M 205.5 336.5 L 205.5 328.5 M 312.5 336.5 L 312.5 328.5 M 419.5 336.5 L 419.5 328.5 M 526.5 336.5 L 526.5 328.5 M 632.5 336.5 L 632.5 328.5" stroke-opacity="1" stroke-linejoin="bevel" stroke-miterlimit="10"/><path fill="none" stroke="rgb(0,0,0)" paint-order="fill" d="M 77.5 334.5 L 77.5 330.5 M 99.5 334.5 L 99.5 330.5 M 120.5 334.5 L 120.5 330.5 M 141.5 334.5 L 141.5 330.5 M 163.5 334.5 L 163.5 330.5 M 184.5 334.5 L 184.5 330.5 M 205.5 334.5 L 205.5 330.5 M 227.5 334.5 L 227.5 330.5 M 248.5 334.5 L 248.5 330.5 M 269.5 334.5 L 269.5 330.5 M 291.5 334.5 L 291.5 330.5 M 312.5 334.5 L 312.5 330.5 M 334.5 334.5 L 334.5 330.5 M 355.5 334.5 L 355.5 330.5 M 376.5 334.5 L 376.5 330.5 M 398.5 334.5 L 398.5 330.5 M 419.5 334.5 L 419.5 330.5 M 440.5 334.5 L 440.5 330.5 M 462.5 334.5 L 462.5 330.5 M 483.5 334.5 L 483.5 330.5 M 504.5 334.5 L 504.5 330.5 M 526.5 334.5 L 526.5 330.5 M 547.5 334.5 L 547.5 330.5 M 568.5 334.5 L 568.5 330.5 M 590.5 334.5 L 590.5 330.5 M 611.5 334.5 L 611.5 330.5 M 632.5 334.5 L 632.5 330.5 M 654.5 334.5 L 654.5 330.5" stroke-opacity="1" stroke-linejoin="bevel" stroke-miterlimit="10"/><text fill="rgb(0,0,0)" stroke="none" font-family="serif" font-size="10pt" font-style="normal" font-weight="normal" text-decoration="normal" x="94.37802696228027" y="351" text-anchor="start" dominant-baseline="alphabetic" transform="matrix(1, 0, 0, 1, 0.5, 0.5)" fill-opacity="1">0</text><text fill="none" stroke="rgb(0,0,0)" font-family="serif" font-size="10pt" font-style="normal" font-weight="normal" text-decoration="normal" x="94.37802696228027" y="351" text-anchor="start" dominant-baseline="alphabetic" transform="matrix(1, 0, 0, 1, 0.5, 0.5)" stroke-opacity="0" stroke-linejoin="bevel" stroke-miterlimit="10">0</text><text fill="rgb(0,0,0)" stroke="none" font-family="serif" font-size="10pt" font-style="normal" font-weight="normal" text-decoration="normal" x="192.62034034729004" y="351" text-anchor="start" dominant-baseline="alphabetic" transform="matrix(1, 0, 0, 1, 0.5, 0.5)" fill-opacity="1">100</text><text fill="none" stroke="rgb(0,0,0)" font-family="serif" font-size="10pt" font-style="normal" font-weight="normal" text-decoration="normal" x="192.62034034729004" y="351" text-anchor="start" dominant-baseline="alphabetic" transform="matrix(1, 0, 0, 1, 0.5, 0.5)" stroke-opacity="0" stroke-linejoin="bevel" stroke-miterlimit="10">100</text><text fill="rgb(0,0,0)" stroke="none" font-family="serif" font-size="10pt" font-style="normal" font-weight="normal" text-decoration="normal" x="299.3792972564697" y="351" text-anchor="start" dominant-baseline="alphabetic" transform="matrix(1, 0, 0, 1, 0.5, 0.5)" fill-opacity="1">200</text><text fill="none" stroke="rgb(0,0,0)" font-family="serif" font-size="10pt" font-style="normal" font-weight="normal" text-decoration="normal" x="299.3792972564697" y="351" text-anchor="start" dominant-baseline="alphabetic" transform="matrix(1, 0, 0, 1, 0.5, 0.5)" stroke-opacity="0" stroke-linejoin="bevel" stroke-miterlimit="10">200</text><text fill="rgb(0,0,0)" stroke="none" font-family="serif" font-size="10pt" font-style="normal" font-weight="normal" text-decoration="normal" x="406.1382694244385" y="351" text-anchor="start" dominant-baseline="alphabetic" transform="matrix(1, 0, 0, 1, 0.5, 0.5)" fill-opacity="1">300</text><text fill="none" stroke="rgb(0,0,0)" font-family="serif" font-size="10pt" font-style="normal" font-weight="normal" text-decoration="normal" x="406.1382694244385" y="351" text-anchor="start" dominant-baseline="alphabetic" transform="matrix(1, 0, 0, 1, 0.5, 0.5)" stroke-opacity="0" stroke-linejoin="bevel" stroke-miterlimit="10">300</text><text fill="rgb(0,0,0)" stroke="none" font-family="serif" font-size="10pt" font-style="normal" font-weight="normal" text-decoration="normal" x="512.8972415924072" y="351" text-anchor="start" dominant-baseline="alphabetic" transform="matrix(1, 0, 0, 1, 0.5, 0.5)" fill-opacity="1">400</text><text fill="none" stroke="rgb(0,0,0)" font-family="serif" font-size="10pt" font-style="normal" font-weight="normal" text-decoration="normal" x="512.8972415924072" y="351" text-anchor="start" dominant-baseline="alphabetic" transform="matrix(1, 0, 0, 1, 0.5, 0.5)" stroke-opacity="0" stroke-linejoin="bevel" stroke-miterlimit="10">400</text><text fill="rgb(0,0,0)" stroke="none" font-family="serif" font-size="10pt" font-style="normal" font-weight="normal" text-decoration="normal" x="619.656213760376" y="351" text-anchor="start" dominant-baseline="alphabetic" transform="matrix(1, 0, 0, 1, 0.5, 0.5)" fill-opacity="1">500</text><text fill="none" stroke="rgb(0,0,0)" font-family="serif" font-size="10pt" font-style="normal" font-weight="normal" text-decoration="normal" x="619.656213760376" y="351" text-anchor="start" dominant-baseline="alphabetic" transform="matrix(1, 0, 0, 1, 0.5, 0.5)" stroke-opacity="0" stroke-linejoin="bevel" stroke-miterlimit="10">500</text><text fill="rgb(0,0,0)" stroke="none" font-family="serif" font-size="12pt" font-style="italic" font-weight="normal" text-decoration="normal" x="339.5833339691162" y="374" text-anchor="start" dominant-baseline="alphabetic" transform="matrix(1, 0, 0, 1, 0.5, 0.5)" fill-opacity="1">Epoch</text><text fill="none" stroke="rgb(0,0,0)" font-family="serif" font-size="12pt" font-style="italic" font-weight="normal" text-decoration="normal" x="339.5833339691162" y="374" text-anchor="start" dominant-baseline="alphabetic" transform="matrix(1, 0, 0, 1, 0.5, 0.5)" stroke-opacity="0" stroke-linejoin="bevel" stroke-miterlimit="10">Epoch</text><path fill="none" stroke="rgb(0,0,0)" paint-order="fill" d="M 72.5 330.5 L 72.5 29.5" stroke-opacity="1" stroke-linejoin="bevel" stroke-miterlimit="10"/><path fill="none" stroke="rgb(0,0,0)" paint-order="fill" d="M 66.5 302.5 L 74.5 302.5 M 66.5 238.5 L 74.5 238.5 M 66.5 173.5 L 74.5 173.5 M 66.5 108.5 L 74.5 108.5 M 66.5 44.5 L 74.5 44.5" stroke-opacity="1" stroke-linejoin="bevel" stroke-miterlimit="10"/><path fill="none" stroke="rgb(0,0,0)" paint-order="fill" d="M 68.5 328.5 L 72.5 328.5 M 68.5 322.5 L 72.5 322.5 M 68.5 317.5 L 72.5 317.5 M 68.5 312.5 L 72.5 312.5 M 68.5 309.5 L 72.5 309.5 M 68.5 305.5 L 72.5 305.5 M 68.5 302.5 L 72.5 302.5 M 68.5 302.5 L 72.5 302.5 M 68.5 283.5 L 72.5 283.5 M 68.5 271.5 L 72.5 271.5 M 68.5 263.5 L 72.5 263.5 M 68.5 257.5 L 72.5 257.5 M 68.5 252.5 L 72.5 252.5 M 68.5 248.5 L 72.5 248.5 M 68.5 244.5 L 72.5 244.5 M 68.5 241.5 L 72.5 241.5 M 68.5 238.5 L 72.5 238.5 M 68.5 238.5 L 72.5 238.5 M 68.5 218.5 L 72.5 218.5 M 68.5 207.5 L 72.5 207.5 M 68.5 199.5 L 72.5 199.5 M 68.5 192.5 L 72.5 192.5 M 68.5 187.5 L 72.5 187.5 M 68.5 183.5 L 72.5 183.5 M 68.5 179.5 L 72.5 179.5 M 68.5 176.5 L 72.5 176.5 M 68.5 173.5 L 72.5 173.5 M 68.5 173.5 L 72.5 173.5 M 68.5 153.5 L 72.5 153.5 M 68.5 142.5 L 72.5 142.5 M 68.5 134.5 L 72.5 134.5 M 68.5 128.5 L 72.5 128.5 M 68.5 123.5 L 72.5 123.5 M 68.5 118.5 L 72.5 118.5 M 68.5 115.5 L 72.5 115.5 M 68.5 111.5 L 72.5 111.5 M 68.5 108.5 L 72.5 108.5 M 68.5 108.5 L 72.5 108.5 M 68.5 89.5 L 72.5 89.5 M 68.5 77.5 L 72.5 77.5 M 68.5 69.5 L 72.5 69.5 M 68.5 63.5 L 72.5 63.5 M 68.5 58.5 L 72.5 58.5 M 68.5 54.5 L 72.5 54.5 M 68.5 50.5 L 72.5 50.5 M 68.5 47.5 L 72.5 47.5 M 68.5 44.5 L 72.5 44.5 M 68.5 44.5 L 72.5 44.5" stroke-opacity="1" stroke-linejoin="bevel" stroke-miterlimit="10"/><text fill="rgb(0,0,0)" stroke="none" font-family="serif" font-size="10pt" font-style="normal" font-weight="normal" text-decoration="normal" x="0" y="14" text-anchor="start" dominant-baseline="alphabetic" transform="matrix(1, 0, 0, 1, 30.633334159851074, 295.8311767578125)" fill-opacity="1">10</text><text fill="none" stroke="rgb(0,0,0)" font-family="serif" font-size="10pt" font-style="normal" font-weight="normal" text-decoration="normal" x="0" y="14" text-anchor="start" dominant-baseline="alphabetic" transform="matrix(1, 0, 0, 1, 30.633334159851074, 295.8311767578125)" stroke-opacity="0" stroke-linejoin="bevel" stroke-miterlimit="10">10</text><text fill="rgb(0,0,0)" stroke="none" font-family="serif" font-size="7pt" font-style="normal" font-weight="normal" text-decoration="normal" x="17.03333282470703" y="7" text-anchor="start" dominant-baseline="alphabetic" transform="matrix(1, 0, 0, 1, 30.633334159851074, 295.8311767578125)" fill-opacity="1">2</text><text fill="none" stroke="rgb(0,0,0)" font-family="serif" font-size="7pt" font-style="normal" font-weight="normal" text-decoration="normal" x="17.03333282470703" y="7" text-anchor="start" dominant-baseline="alphabetic" transform="matrix(1, 0, 0, 1, 30.633334159851074, 295.8311767578125)" stroke-opacity="0" stroke-linejoin="bevel" stroke-miterlimit="10">2</text><text fill="rgb(0,0,0)" stroke="none" font-family="serif" font-size="10pt" font-style="normal" font-weight="normal" text-decoration="normal" x="0" y="14" text-anchor="start" dominant-baseline="alphabetic" transform="matrix(1, 0, 0, 1, 30.633334159851074, 231.13890075683594)" fill-opacity="1">10</text><text fill="none" stroke="rgb(0,0,0)" font-family="serif" font-size="10pt" font-style="normal" font-weight="normal" text-decoration="normal" x="0" y="14" text-anchor="start" dominant-baseline="alphabetic" transform="matrix(1, 0, 0, 1, 30.633334159851074, 231.13890075683594)" stroke-opacity="0" stroke-linejoin="bevel" stroke-miterlimit="10">10</text><text fill="rgb(0,0,0)" stroke="none" font-family="serif" font-size="7pt" font-style="normal" font-weight="normal" text-decoration="normal" x="17.03333282470703" y="7" text-anchor="start" dominant-baseline="alphabetic" transform="matrix(1, 0, 0, 1, 30.633334159851074, 231.13890075683594)" fill-opacity="1">1</text><text fill="none" stroke="rgb(0,0,0)" font-family="serif" font-size="7pt" font-style="normal" font-weight="normal" text-decoration="normal" x="17.03333282470703" y="7" text-anchor="start" dominant-baseline="alphabetic" transform="matrix(1, 0, 0, 1, 30.633334159851074, 231.13890075683594)" stroke-opacity="0" stroke-linejoin="bevel" stroke-miterlimit="10">1</text><text fill="rgb(0,0,0)" stroke="none" font-family="serif" font-size="10pt" font-style="normal" font-weight="normal" text-decoration="normal" x="0" y="14" text-anchor="start" dominant-baseline="alphabetic" transform="matrix(1, 0, 0, 1, 38.50000047683716, 166.44664001464844)" fill-opacity="1">10</text><text fill="none" stroke="rgb(0,0,0)" font-family="serif" font-size="10pt" font-style="normal" font-weight="normal" text-decoration="normal" x="0" y="14" text-anchor="start" dominant-baseline="alphabetic" transform="matrix(1, 0, 0, 1, 38.50000047683716, 166.44664001464844)" stroke-opacity="0" stroke-linejoin="bevel" stroke-miterlimit="10">10</text><text fill="rgb(0,0,0)" stroke="none" font-family="serif" font-size="7pt" font-style="normal" font-weight="normal" text-decoration="normal" x="17.03333282470703" y="7" text-anchor="start" dominant-baseline="alphabetic" transform="matrix(1, 0, 0, 1, 38.50000047683716, 166.44664001464844)" fill-opacity="1">0</text><text fill="none" stroke="rgb(0,0,0)" font-family="serif" font-size="7pt" font-style="normal" font-weight="normal" text-decoration="normal" x="17.03333282470703" y="7" text-anchor="start" dominant-baseline="alphabetic" transform="matrix(1, 0, 0, 1, 38.50000047683716, 166.44664001464844)" stroke-opacity="0" stroke-linejoin="bevel" stroke-miterlimit="10">0</text><text fill="rgb(0,0,0)" stroke="none" font-family="serif" font-size="10pt" font-style="normal" font-weight="normal" text-decoration="normal" x="0" y="14" text-anchor="start" dominant-baseline="alphabetic" transform="matrix(1, 0, 0, 1, 38.50000047683716, 101.7543716430664)" fill-opacity="1">10</text><text fill="none" stroke="rgb(0,0,0)" font-family="serif" font-size="10pt" font-style="normal" font-weight="normal" text-decoration="normal" x="0" y="14" text-anchor="start" dominant-baseline="alphabetic" transform="matrix(1, 0, 0, 1, 38.50000047683716, 101.7543716430664)" stroke-opacity="0" stroke-linejoin="bevel" stroke-miterlimit="10">10</text><text fill="rgb(0,0,0)" stroke="none" font-family="serif" font-size="7pt" font-style="normal" font-weight="normal" text-decoration="normal" x="17.03333282470703" y="7" text-anchor="start" dominant-baseline="alphabetic" transform="matrix(1, 0, 0, 1, 38.50000047683716, 101.7543716430664)" fill-opacity="1">1</text><text fill="none" stroke="rgb(0,0,0)" font-family="serif" font-size="7pt" font-style="normal" font-weight="normal" text-decoration="normal" x="17.03333282470703" y="7" text-anchor="start" dominant-baseline="alphabetic" transform="matrix(1, 0, 0, 1, 38.50000047683716, 101.7543716430664)" stroke-opacity="0" stroke-linejoin="bevel" stroke-miterlimit="10">1</text><text fill="rgb(0,0,0)" stroke="none" font-family="serif" font-size="10pt" font-style="normal" font-weight="normal" text-decoration="normal" x="0" y="14" text-anchor="start" dominant-baseline="alphabetic" transform="matrix(1, 0, 0, 1, 38.50000047683716, 37.06210708618164)" fill-opacity="1">10</text><text fill="none" stroke="rgb(0,0,0)" font-family="serif" font-size="10pt" font-style="normal" font-weight="normal" text-decoration="normal" x="0" y="14" text-anchor="start" dominant-baseline="alphabetic" transform="matrix(1, 0, 0, 1, 38.50000047683716, 37.06210708618164)" stroke-opacity="0" stroke-linejoin="bevel" stroke-miterlimit="10">10</text><text fill="rgb(0,0,0)" stroke="none" font-family="serif" font-size="7pt" font-style="normal" font-weight="normal" text-decoration="normal" x="17.03333282470703" y="7" text-anchor="start" dominant-baseline="alphabetic" transform="matrix(1, 0, 0, 1, 38.50000047683716, 37.06210708618164)" fill-opacity="1">2</text><text fill="none" stroke="rgb(0,0,0)" font-family="serif" font-size="7pt" font-style="normal" font-weight="normal" text-decoration="normal" x="17.03333282470703" y="7" text-anchor="start" dominant-baseline="alphabetic" transform="matrix(1, 0, 0, 1, 38.50000047683716, 37.06210708618164)" stroke-opacity="0" stroke-linejoin="bevel" stroke-miterlimit="10">2</text><text fill="rgb(0,0,0)" stroke="none" font-family="serif" font-size="12pt" font-style="italic" font-weight="normal" text-decoration="normal" x="-22.608330726623535" y="175.5" text-anchor="start" dominant-baseline="alphabetic" transform="matrix(6.123233995736766e-17, -1, 1, 6.123233995736766e-17, -156.86666584014893, 202.13333415985107)" fill-opacity="1">log10 MSE</text><text fill="none" stroke="rgb(0,0,0)" font-family="serif" font-size="12pt" font-style="italic" font-weight="normal" text-decoration="normal" x="-22.608330726623535" y="175.5" text-anchor="start" dominant-baseline="alphabetic" transform="matrix(6.123233995736766e-17, -1, 1, 6.123233995736766e-17, -156.86666584014893, 202.13333415985107)" stroke-opacity="0" stroke-linejoin="bevel" stroke-miterlimit="10">log10 MSE</text><path fill="rgb(240,240,240)" stroke="rgb(0,0,0)" paint-order="fill" d="M 82.5 391.5 L 451.5 391.5 L 451.5 431.5 L 82.5 431.5 L 82.5 391.5 Z" fill-opacity="0.8" stroke-opacity="0.8" stroke-linejoin="bevel" stroke-miterlimit="10"/><path fill="none" stroke="rgb(31,119,180)" paint-order="fill" d="M 92.5 411.5 L 112.5 411.5" stroke-opacity="1" stroke-linejoin="bevel" stroke-miterlimit="10" stroke-width="2"/><text fill="rgb(0,0,0)" stroke="none" font-family="serif" font-size="10pt" font-style="normal" font-weight="normal" text-decoration="normal" x="0" y="4.5" text-anchor="start" dominant-baseline="alphabetic" transform="matrix(1, 0, 0, 1, 117.5, 411.5)" fill-opacity="1">FFNN f1</text><text fill="none" stroke="rgb(0,0,0)" font-family="serif" font-size="10pt" font-style="normal" font-weight="normal" text-decoration="normal" x="0" y="4.5" text-anchor="start" dominant-baseline="alphabetic" transform="matrix(1, 0, 0, 1, 117.5, 411.5)" stroke-opacity="0" stroke-linejoin="bevel" stroke-miterlimit="10">FFNN f1</text><path fill="none" stroke="rgb(174,199,232)" paint-order="fill" d="M 182.5 411.5 L 202.5 411.5" stroke-opacity="1" stroke-linejoin="bevel" stroke-miterlimit="10" stroke-width="2"/><text fill="rgb(0,0,0)" stroke="none" font-family="serif" font-size="10pt" font-style="normal" font-weight="normal" text-decoration="normal" x="0" y="4.5" text-anchor="start" dominant-baseline="alphabetic" transform="matrix(1, 0, 0, 1, 207.5, 411.5)" fill-opacity="1">ICNN f1</text><text fill="none" stroke="rgb(0,0,0)" font-family="serif" font-size="10pt" font-style="normal" font-weight="normal" text-decoration="normal" x="0" y="4.5" text-anchor="start" dominant-baseline="alphabetic" transform="matrix(1, 0, 0, 1, 207.5, 411.5)" stroke-opacity="0" stroke-linejoin="bevel" stroke-miterlimit="10">ICNN f1</text><path fill="none" stroke="rgb(255,127,14)" paint-order="fill" d="M 269.5 411.5 L 289.5 411.5" stroke-opacity="1" stroke-linejoin="bevel" stroke-miterlimit="10" stroke-width="2"/><text fill="rgb(0,0,0)" stroke="none" font-family="serif" font-size="10pt" font-style="normal" font-weight="normal" text-decoration="normal" x="0" y="4.5" text-anchor="start" dominant-baseline="alphabetic" transform="matrix(1, 0, 0, 1, 294.5, 411.5)" fill-opacity="1">FFNN f2</text><text fill="none" stroke="rgb(0,0,0)" font-family="serif" font-size="10pt" font-style="normal" font-weight="normal" text-decoration="normal" x="0" y="4.5" text-anchor="start" dominant-baseline="alphabetic" transform="matrix(1, 0, 0, 1, 294.5, 411.5)" stroke-opacity="0" stroke-linejoin="bevel" stroke-miterlimit="10">FFNN f2</text><path fill="none" stroke="rgb(255,187,120)" paint-order="fill" d="M 359.5 411.5 L 379.5 411.5" stroke-opacity="1" stroke-linejoin="bevel" stroke-miterlimit="10" stroke-width="2"/><text fill="rgb(0,0,0)" stroke="none" font-family="serif" font-size="10pt" font-style="normal" font-weight="normal" text-decoration="normal" x="0" y="4.5" text-anchor="start" dominant-baseline="alphabetic" transform="matrix(1, 0, 0, 1, 384.5, 411.5)" fill-opacity="1">ICNN f2</text><text fill="none" stroke="rgb(0,0,0)" font-family="serif" font-size="10pt" font-style="normal" font-weight="normal" text-decoration="normal" x="0" y="4.5" text-anchor="start" dominant-baseline="alphabetic" transform="matrix(1, 0, 0, 1, 384.5, 411.5)" stroke-opacity="0" stroke-linejoin="bevel" stroke-miterlimit="10">ICNN f2</text><text fill="rgb(68,68,68)" stroke="none" font-family="serif" font-size="13px" font-style="normal" font-weight="bold" text-decoration="normal" x="0" y="13" text-anchor="start" dominant-baseline="alphabetic" transform="matrix(1, 0, 0, 1, 72.5, 7.5)" fill-opacity="1">Model Loss History</text><text fill="none" stroke="rgb(0,0,0)" font-family="serif" font-size="13px" font-style="normal" font-weight="bold" text-decoration="normal" x="0" y="13" text-anchor="start" dominant-baseline="alphabetic" transform="matrix(1, 0, 0, 1, 72.5, 7.5)" stroke-opacity="0" stroke-miterlimit="10" stroke-dasharray="">Model Loss History</text></svg>