<svg version="1.1" xmlns="http://www.w3.org/2000/svg" width="663" height="464"><defs><clipPath id="eHUHpFGmLRLU"><path fill="none" stroke="none" d="M 0.5 0.5 L 663.5 0.5 L 663.5 464.5 L 0.5 464.5 L 0.5 0.5 Z M 72.5 29.5 L 658.5 29.5 L 658.5 353.5 L 72.5 353.5 L 72.5 29.5 Z" clip-rule="evenodd"/></clipPath><clipPath id="htgnUTABNfrP"><path fill="none" stroke="none" d="M 72.5 29.5 L 658.5 29.5 L 658.5 353.5 L 72.5 353.5 L 72.5 29.5 Z"/></clipPath><clipPath id="POsVGLCgcCen"><path fill="none" stroke="none" d="M 72.5 29.5 L 658.5 29.5 L 658.5 353.5 L 72.5 353.5 L 72.5 29.5 Z"/></clipPath><clipPath id="xILfOmOHLmWd"><path fill="none" stroke="none" d="M 72.5 29.5 L 658.5 29.5 L 658.5 353.5 L 72.5 353.5 L 72.5 29.5 Z"/></clipPath><clipPath id="RtkgOeiLNXgv"><path fill="none" stroke="none" d="M 72.5 29.5 L 658.5 29.5 L 658.5 353.5 L 72.5 353.5 L 72.5 29.5 Z"/></clipPath><clipPath id="LpLkeQJBRnBP"><path fill="none" stroke="none" d="M 72.5 29.5 L 658.5 29.5 L 658.5 353.5 L 72.5 353.5 L 72.5 29.5 Z"/></clipPath><clipPath id="kvtZMGxKBpPd"><path fill="none" stroke="none" d="M 72.5 29.5 L 658.5 29.5 L 658.5 353.5 L 72.5 353.5 L 72.5 29.5 Z"/></clipPath></defs><path fill="rgb(0,0,0)" stroke="none" paint-order="stroke" d="M 0 0 L 663 0 L 663 464 L 0 464 L 0 0 Z" fill-opacity="0"/><path fill="rgb(255,255,255)" stroke="none" paint-order="stroke" d="M 0.5 0.5 L 663.5 0.5 L 663.5 464.5 L 0.5 464.5 L 0.5 0.5 Z" fill-opacity="1" clip-path="url(#eHUHpFGmLRLU)"/><path fill="rgb(250,250,250)" stroke="none" paint-order="stroke" d="M 72.5 29.5 L 658.5 29.5 L 658.5 353.5 L 72.5 353.5 L 72.5 29.5 Z" fill-opacity="1"/><path fill="none" stroke="rgb(224,224,224)" paint-order="fill" d="M 99.5 353.5 L 99.5 29.5 M 205.5 353.5 L 205.5 29.5 M 312.5 353.5 L 312.5 29.5 M 419.5 353.5 L 419.5 29.5 M 526.5 353.5 L 526.5 29.5 M 632.5 353.5 L 632.5 29.5" stroke-opacity="1" stroke-linejoin="bevel" stroke-miterlimit="10" stroke-dasharray="6,4" clip-path="url(#htgnUTABNfrP)"/><path fill="none" stroke="rgb(224,224,224)" paint-order="fill" d="M 72.5 317.5 L 658.5 317.5 M 72.5 259.5 L 658.5 259.5 M 72.5 202.5 L 658.5 202.5 M 72.5 145.5 L 658.5 145.5 M 72.5 88.5 L 658.5 88.5 M 72.5 31.5 L 658.5 31.5" stroke-opacity="1" stroke-linejoin="bevel" stroke-miterlimit="10" stroke-dasharray="6,4" clip-path="url(#POsVGLCgcCen)"/><path fill="none" stroke="rgb(31,119,180)" paint-order="fill" d="M 99.13636016845703 46.59539031982422 L 100.2039566040039 55.76923370361328 L 101.27154541015625 61.842987060546875 L 102.3391342163086 64.36062240600586 L 103.40672302246094 69.23995971679688 L 104.47431182861328 73.56777954101562 L 105.54190063476562 79.32600402832031 L 106.60948944091797 84.11591339111328 L 107.67707824707031 86.8532485961914 L 108.74467468261719 89.81182861328125 L 109.81226348876953 91.63468933105469 L 110.87985229492188 94.3387680053711 L 111.94744110107422 96.70584106445312 L 113.01502990722656 97.63603210449219 L 114.0826187133789 99.14436340332031 L 115.15020751953125 101.11618041992188 L 116.2177963256836 103.3755874633789 L 117.28539276123047 106.49113464355469 L 118.35298156738281 108.51526641845703 L 119.42057037353516 112.9913558959961 L 120.4881591796875 116.3038330078125 L 121.55574798583984 118.90520477294922 L 122.62333679199219 125.2107162475586 L 123.69092559814453 128.43124389648438 L 124.75851440429688 132.4526824951172 L 125.82610321044922 138.09104919433594 L 126.8936996459961 145.1926727294922 L 127.96128845214844 150.05880737304688 L 129.02886962890625 154.9789581298828 L 130.09646606445312 155.68763732910156 L 131.1640625 160.9485626220703 L 132.2316436767578 169.30734252929688 L 133.2992401123047 172.4385223388672 L 134.3668212890625 171.45510864257812 L 135.43441772460938 172.9096221923828 L 136.5019989013672 180.33859252929688 L 137.56959533691406 182.5712432861328 L 138.63717651367188 181.8634033203125 L 139.70477294921875 187.16378784179688 L 140.77236938476562 192.8670654296875 L 141.83995056152344 194.6236114501953 L 142.9075469970703 195.24118041992188 L 143.97512817382812 197.0043487548828 L 145.042724609375 197.2503662109375 L 146.1103057861328 196.43280029296875 L 147.1779022216797 195.7476043701172 L 148.2454833984375 198.29586791992188 L 149.31307983398438 199.806884765625 L 150.38067626953125 199.4237060546875 L 151.44825744628906 197.3886260986328 L 152.51585388183594 196.11643981933594 L 153.58343505859375 199.3874969482422 L 154.65103149414062 203.49172973632812 L 155.71861267089844 200.0878448486328 L 156.7862091064453 199.13751220703125 L 157.8538055419922 198.35299682617188 L 158.92138671875 191.0914764404297 L 159.98898315429688 199.84165954589844 L 161.0565643310547 204.00473022460938 L 162.12416076660156 204.94219970703125 L 163.19174194335938 202.34349060058594 L 164.25933837890625 192.28382873535156 L 165.32691955566406 199.51319885253906 L 166.39451599121094 200.68231201171875 L 167.4621124267578 200.42530822753906 L 168.52969360351562 200.4280548095703 L 169.5972900390625 199.47116088867188 L 170.6648712158203 192.8748779296875 L 171.7324676513672 192.80386352539062 L 172.800048828125 197.7796630859375 L 173.86764526367188 208.56307983398438 L 174.93524169921875 205.74288940429688 L 176.00282287597656 211.14427185058594 L 177.07041931152344 204.2552490234375 L 178.13800048828125 210.66513061523438 L 179.20559692382812 206.21615600585938 L 180.27317810058594 198.4298858642578 L 181.3407745361328 190.66607666015625 L 182.40835571289062 198.2872772216797 L 183.4759521484375 211.59022521972656 L 184.54354858398438 204.3688507080078 L 185.6111297607422 208.12240600585938 L 186.67872619628906 203.1654052734375 L 187.74630737304688 201.2988739013672 L 188.81390380859375 207.90792846679688 L 189.88148498535156 212.578857421875 L 190.94908142089844 214.6349334716797 L 192.01666259765625 214.78941345214844 L 193.08425903320312 206.85133361816406 L 194.15185546875 207.87979125976562 L 195.2194366455078 203.8271484375 L 196.2870330810547 207.31826782226562 L 197.3546142578125 209.26600646972656 L 198.42221069335938 210.19146728515625 L 199.4897918701172 213.03872680664062 L 200.55738830566406 210.56948852539062 L 201.62498474121094 206.10655212402344 L 202.69256591796875 189.66940307617188 L 203.76016235351562 195.97537231445312 L 204.82774353027344 196.9146270751953 L 205.8953399658203 212.12660217285156 L 206.96292114257812 210.53933715820312 L 208.030517578125 216.4803924560547 L 209.0980987548828 204.7119140625 L 210.1656951904297 204.17059326171875 L 211.23329162597656 206.96044921875 L 212.30087280273438 204.66014099121094 L 213.36846923828125 207.28390502929688 L 214.43605041503906 208.2412567138672 L 215.50364685058594 204.78712463378906 L 216.57122802734375 201.3321533203125 L 217.63882446289062 200.7417755126953 L 218.70640563964844 198.1304168701172 L 219.7740020751953 207.25035095214844 L 220.8415985107422 207.9288330078125 L 221.9091796875 211.63180541992188 L 222.97677612304688 202.4401092529297 L 224.0443572998047 204.30764770507812 L 225.11195373535156 199.6561279296875 L 226.17953491210938 193.6363983154297 L 227.24713134765625 204.8647003173828 L 228.31472778320312 215.60635375976562 L 229.38230895996094 210.21722412109375 L 230.4499053955078 210.1823272705078 L 231.51748657226562 202.99249267578125 L 232.5850830078125 206.37547302246094 L 233.6526641845703 212.49740600585938 L 234.7202606201172 211.18304443359375 L 235.787841796875 198.68260192871094 L 236.85543823242188 198.08863830566406 L 237.92303466796875 209.88084411621094 L 238.99061584472656 203.25819396972656 L 240.05821228027344 202.4901580810547 L 241.12579345703125 182.12644958496094 L 242.19338989257812 174.4798126220703 L 243.26097106933594 191.07225036621094 L 244.3285675048828 204.4451141357422 L 245.39614868164062 204.51910400390625 L 246.4637451171875 195.5235137939453 L 247.53134155273438 215.15853881835938 L 248.5989227294922 217.36326599121094 L 249.66651916503906 216.0541229248047 L 250.73410034179688 216.94195556640625 L 251.80169677734375 218.49488830566406 L 252.86927795410156 215.82395935058594 L 253.93687438964844 215.3208770751953 L 255.0044708251953 213.98216247558594 L 256.0720520019531 215.9138641357422 L 257.1396484375 206.24154663085938 L 258.2072448730469 201.3192596435547 L 259.2748107910156 210.75051879882812 L 260.3424072265625 215.4735870361328 L 261.4100036621094 215.64500427246094 L 262.47760009765625 213.44659423828125 L 263.545166015625 217.2222442626953 L 264.6127624511719 217.85829162597656 L 265.68035888671875 213.25823974609375 L 266.7479553222656 220.16891479492188 L 267.8155517578125 214.6710968017578 L 268.88311767578125 211.8606414794922 L 269.9507141113281 208.9981231689453 L 271.018310546875 212.70913696289062 L 272.0859069824219 206.6427001953125 L 273.15350341796875 192.18545532226562 L 274.2210693359375 208.05320739746094 L 275.2886657714844 213.2672576904297 L 276.35626220703125 218.1589813232422 L 277.4238586425781 216.7952880859375 L 278.4914245605469 213.1219482421875 L 279.55902099609375 197.86630249023438 L 280.6266174316406 213.60684204101562 L 281.6942138671875 225.5214080810547 L 282.7618103027344 213.7223358154297 L 283.8293762207031 208.35301208496094 L 284.89697265625 214.0980224609375 L 285.9645690917969 204.50746154785156 L 287.03216552734375 216.6724395751953 L 288.0997314453125 219.8159942626953 L 289.1673278808594 207.6354522705078 L 290.23492431640625 214.52490234375 L 291.3025207519531 214.52737426757812 L 292.3701171875 216.98709106445312 L 293.43768310546875 200.73768615722656 L 294.5052795410156 212.58277893066406 L 295.5728759765625 216.0983428955078 L 296.6404724121094 222.0478973388672 L 297.7080383300781 222.96041870117188 L 298.775634765625 222.057373046875 L 299.8432312011719 223.32354736328125 L 300.91082763671875 198.71359252929688 L 301.9784240722656 200.12905883789062 L 303.0459899902344 206.04214477539062 L 304.11358642578125 208.80455017089844 L 305.1811828613281 211.60617065429688 L 306.248779296875 216.20448303222656 L 307.31634521484375 211.53688049316406 L 308.3839416503906 211.71755981445312 L 309.4515380859375 207.49266052246094 L 310.5191345214844 210.30380249023438 L 311.58673095703125 202.8226776123047 L 312.654296875 217.62533569335938 L 313.7218933105469 192.59390258789062 L 314.78948974609375 196.13519287109375 L 315.8570861816406 201.25979614257812 L 316.9246826171875 210.0138702392578 L 317.99224853515625 223.9052734375 L 319.0598449707031 214.70382690429688 L 320.12744140625 205.79962158203125 L 321.1950378417969 210.13877868652344 L 322.2626037597656 202.5513458251953 L 323.3302001953125 213.13491821289062 L 324.3977966308594 216.0782928466797 L 325.46539306640625 209.4481964111328 L 326.5329895019531 202.1510009765625 L 327.6005554199219 215.57150268554688 L 328.66815185546875 229.09022521972656 L 329.7357482910156 216.26292419433594 L 330.8033447265625 204.64764404296875 L 331.87091064453125 216.1596221923828 L 332.9385070800781 217.9947967529297 L 334.006103515625 220.39154052734375 L 335.0736999511719 224.00067138671875 L 336.14129638671875 224.3649139404297 L 337.2088623046875 224.7728271484375 L 338.2764587402344 223.32244873046875 L 339.34405517578125 221.35992431640625 L 340.4116516113281 209.11700439453125 L 341.4792175292969 209.85902404785156 L 342.54681396484375 208.67962646484375 L 343.6144104003906 206.28164672851562 L 344.6820068359375 215.0240478515625 L 345.7496032714844 215.0469512939453 L 346.8171691894531 215.52120971679688 L 347.884765625 218.09552001953125 L 348.9523620605469 214.65252685546875 L 350.01995849609375 216.1697540283203 L 351.0875244140625 211.40200805664062 L 352.1551208496094 217.82032775878906 L 353.22271728515625 195.59555053710938 L 354.2903137207031 206.5580596923828 L 355.35791015625 223.34999084472656 L 356.42547607421875 229.10191345214844 L 357.4930725097656 224.35862731933594 L 358.5606689453125 231.43113708496094 L 359.6282653808594 230.87648010253906 L 360.6958312988281 225.0382537841797 L 361.763427734375 228.7531280517578 L 362.8310241699219 191.28692626953125 L 363.89862060546875 185.01837158203125 L 364.9662170410156 207.5043182373047 L 366.0337829589844 221.56214904785156 L 367.10137939453125 228.8694305419922 L 368.1689758300781 221.05931091308594 L 369.236572265625 228.9904327392578 L 370.3041687011719 225.90289306640625 L 371.3717346191406 219.11676025390625 L 372.4393310546875 215.80572509765625 L 373.5069274902344 221.23013305664062 L 374.57452392578125 231.69729614257812 L 375.64208984375 220.6787872314453 L 376.7096862792969 227.50555419921875 L 377.77728271484375 230.43814086914062 L 378.8448791503906 231.64744567871094 L 379.9124755859375 234.65838623046875 L 380.98004150390625 223.96112060546875 L 382.0476379394531 198.5944366455078 L 383.115234375 200.99624633789062 L 384.1828308105469 207.2884979248047 L 385.2503967285156 217.963623046875 L 386.3179931640625 228.847900390625 L 387.3855895996094 209.17649841308594 L 388.45318603515625 207.36083984375 L 389.5207824707031 216.515625 L 390.5883483886719 212.3910675048828 L 391.65594482421875 208.6092529296875 L 392.7235412597656 202.58450317382812 L 393.7911376953125 203.5078582763672 L 394.85870361328125 199.75576782226562 L 395.9263000488281 203.77133178710938 L 396.993896484375 206.4712371826172 L 398.0614929199219 212.17127990722656 L 399.12908935546875 219.21266174316406 L 400.1966552734375 218.16360473632812 L 401.2642517089844 221.35372924804688 L 402.33184814453125 221.80343627929688 L 403.3994445800781 229.52252197265625 L 404.4670104980469 221.28970336914062 L 405.53460693359375 222.7285614013672 L 406.6022033691406 227.0899658203125 L 407.6697998046875 227.17652893066406 L 408.7373962402344 232.91830444335938 L 409.8049621582031 233.41123962402344 L 410.87255859375 230.94088745117188 L 411.9401550292969 229.6632537841797 L 413.00775146484375 228.21376037597656 L 414.0753173828125 216.4320831298828 L 415.1429138183594 214.8948516845703 L 416.21051025390625 231.243408203125 L 417.2781066894531 231.3612823486328 L 418.345703125 222.77037048339844 L 419.41326904296875 227.78933715820312 L 420.4808654785156 216.62783813476562 L 421.5484619140625 222.5987091064453 L 422.6160583496094 227.334716796875 L 423.68365478515625 229.6629638671875 L 424.751220703125 239.68484497070312 L 425.8188171386719 214.6542510986328 L 426.88641357421875 216.18760681152344 L 427.9540100097656 225.06787109375 L 429.0215759277344 224.32232666015625 L 430.08917236328125 224.02830505371094 L 431.1567687988281 226.3066864013672 L 432.224365234375 214.4947967529297 L 433.2919616699219 218.39315795898438 L 434.3595275878906 216.22879028320312 L 435.4271240234375 194.80665588378906 L 436.4947204589844 202.5997772216797 L 437.56231689453125 197.76455688476562 L 438.6298828125 216.23233032226562 L 439.6974792480469 236.7918701171875 L 440.76507568359375 221.60658264160156 L 441.8326721191406 201.2073974609375 L 442.9002685546875 190.03717041015625 L 443.96783447265625 203.8053741455078 L 445.0354309082031 213.96783447265625 L 446.10302734375 211.29541015625 L 447.1706237792969 222.0647430419922 L 448.2381896972656 236.22975158691406 L 449.3057861328125 237.3196563720703 L 450.3733825683594 230.69485473632812 L 451.44097900390625 238.33804321289062 L 452.5085754394531 234.62815856933594 L 453.5761413574219 226.84640502929688 L 454.64373779296875 222.02578735351562 L 455.7113342285156 224.27981567382812 L 456.7789306640625 231.5669708251953 L 457.84649658203125 224.69801330566406 L 458.9140930175781 238.99322509765625 L 459.981689453125 240.16392517089844 L 461.0492858886719 233.24557495117188 L 462.11688232421875 236.68948364257812 L 463.1844482421875 239.53640747070312 L 464.2520446777344 232.38340759277344 L 465.31964111328125 226.58509826660156 L 466.3872375488281 225.5680389404297 L 467.454833984375 234.97381591796875 L 468.52239990234375 231.18577575683594 L 469.5899963378906 211.40296936035156 L 470.6575927734375 229.0069580078125 L 471.7251892089844 223.15122985839844 L 472.7927551269531 224.6324462890625 L 473.8603515625 223.2831268310547 L 474.9279479980469 237.32479858398438 L 475.99554443359375 238.58465576171875 L 477.0631408691406 241.3711395263672 L 478.1307067871094 246.36251831054688 L 479.19830322265625 233.12881469726562 L 480.2658996582031 228.02622985839844 L 481.33349609375 246.77622985839844 L 482.40106201171875 244.95364379882812 L 483.4686584472656 217.3905029296875 L 484.5362548828125 206.46923828125 L 485.6038513183594 227.0957794189453 L 486.67144775390625 235.07095336914062 L 487.739013671875 217.99131774902344 L 488.8066101074219 210.78741455078125 L 489.87420654296875 230.61767578125 L 490.9418029785156 227.9781036376953 L 492.0093688964844 244.96778869628906 L 493.07696533203125 234.44888305664062 L 494.1445617675781 234.36996459960938 L 495.212158203125 231.58270263671875 L 496.2797546386719 237.7136688232422 L 497.3473205566406 230.4300537109375 L 498.4149169921875 236.21401977539062 L 499.4825134277344 241.53782653808594 L 500.55010986328125 231.2412567138672 L 501.61767578125 245.0797576904297 L 502.6852722167969 243.387939453125 L 503.75286865234375 232.53509521484375 L 504.8204650878906 217.2894744873047 L 505.8880615234375 229.66224670410156 L 506.95562744140625 225.73133850097656 L 508.0232238769531 220.0439910888672 L 509.0908203125 208.84661865234375 L 510.1584167480469 219.29774475097656 L 511.2259826660156 217.7609100341797 L 512.2935791015625 231.4156494140625 L 513.3612060546875 221.92654418945312 L 514.4287719726562 228.08370971679688 L 515.496337890625 237.03909301757812 L 516.56396484375 248.2661590576172 L 517.6315307617188 237.027099609375 L 518.6990966796875 219.54078674316406 L 519.7667236328125 234.11595153808594 L 520.8342895507812 233.1719512939453 L 521.9019165039062 234.82435607910156 L 522.969482421875 232.93031311035156 L 524.0370483398438 236.15603637695312 L 525.1046752929688 236.47872924804688 L 526.1722412109375 229.85726928710938 L 527.2398681640625 245.87713623046875 L 528.3074340820312 232.74549865722656 L 529.375 234.2000274658203 L 530.442626953125 232.609375 L 531.5101928710938 218.09750366210938 L 532.5778198242188 200.05413818359375 L 533.6453857421875 222.5379180908203 L 534.7129516601562 207.96661376953125 L 535.7805786132812 210.85690307617188 L 536.84814453125 201.9989013671875 L 537.9157104492188 194.2872772216797 L 538.9833374023438 221.83676147460938 L 540.0509033203125 212.9837646484375 L 541.1185302734375 208.53672790527344 L 542.1860961914062 204.40237426757812 L 543.253662109375 201.77923583984375 L 544.3212890625 213.1828155517578 L 545.3888549804688 228.4534149169922 L 546.4564819335938 235.5082244873047 L 547.5240478515625 230.601318359375 L 548.5916137695312 215.6962432861328 L 549.6592407226562 245.0400848388672 L 550.726806640625 242.13699340820312 L 551.79443359375 232.6287841796875 L 552.8619995117188 231.2340545654297 L 553.9295654296875 241.1825408935547 L 554.9971923828125 234.20155334472656 L 556.0647583007812 232.68597412109375 L 557.1323852539062 241.8144073486328 L 558.199951171875 243.34976196289062 L 559.2675170898438 228.63674926757812 L 560.3351440429688 241.55160522460938 L 561.4027099609375 241.94586181640625 L 562.4702758789062 224.47927856445312 L 563.5379028320312 228.06716918945312 L 564.60546875 216.77264404296875 L 565.673095703125 220.27467346191406 L 566.7406616210938 237.06939697265625 L 567.8082275390625 238.016357421875 L 568.8758544921875 231.60572814941406 L 569.9434204101562 231.55674743652344 L 571.0110473632812 245.44114685058594 L 572.07861328125 246.4787139892578 L 573.1461791992188 249.90188598632812 L 574.2138061523438 237.0262908935547 L 575.2813720703125 253.6068878173828 L 576.3489990234375 258.35455322265625 L 577.4165649414062 243.890625 L 578.484130859375 245.82110595703125 L 579.5517578125 246.76124572753906 L 580.6193237304688 248.99700927734375 L 581.6868896484375 228.30319213867188 L 582.7545166015625 211.45083618164062 L 583.8220825195312 209.5832061767578 L 584.8897094726562 222.53126525878906 L 585.957275390625 224.94606018066406 L 587.0248413085938 229.8428192138672 L 588.0924682617188 229.02345275878906 L 589.1600341796875 239.78790283203125 L 590.2276611328125 240.6783905029297 L 591.2952270507812 252.40675354003906 L 592.36279296875 249.87820434570312 L 593.430419921875 242.47425842285156 L 594.4979858398438 249.7161407470703 L 595.5656127929688 254.47052001953125 L 596.6331787109375 257.8099060058594 L 597.7007446289062 255.8194122314453 L 598.7683715820312 242.8570556640625 L 599.8359375 215.97938537597656 L 600.903564453125 233.99090576171875 L 601.9711303710938 235.19776916503906 L 603.0386962890625 241.01719665527344 L 604.1063232421875 257.5440368652344 L 605.1738891601562 255.12530517578125 L 606.241455078125 253.6300811767578 L 607.30908203125 252.39866638183594 L 608.3766479492188 223.6647186279297 L 609.4442749023438 218.0194091796875 L 610.5118408203125 233.86073303222656 L 611.5794067382812 243.80926513671875 L 612.6470336914062 232.1599884033203 L 613.714599609375 226.84085083007812 L 614.7822265625 232.40377807617188 L 615.8497924804688 221.3328094482422 L 616.9173583984375 212.31117248535156 L 617.9849853515625 195.56137084960938 L 619.0525512695312 186.33494567871094 L 620.1201782226562 207.3450469970703 L 621.187744140625 223.6234893798828 L 622.2553100585938 244.5072479248047 L 623.3229370117188 262.93231201171875 L 624.3905029296875 251.03179931640625 L 625.4580688476562 248.75689697265625 L 626.5256958007812 248.3572540283203 L 627.59326171875 246.07093811035156 L 628.660888671875 241.3634033203125 L 629.7284545898438 237.32672119140625 L 630.7960205078125 238.64361572265625 L 631.8636474609375 250.58197021484375" stroke-opacity="1" stroke-linejoin="bevel" stroke-miterlimit="10" stroke-width="2" clip-path="url(#xILfOmOHLmWd)"/><path fill="none" stroke="rgb(174,199,232)" paint-order="fill" d="M 99.13636016845703 44.227272033691406 L 100.2039566040039 55.37138366699219 L 101.27154541015625 60.415977478027344 L 102.3391342163086 65.88209533691406 L 103.40672302246094 69.55551147460938 L 104.47431182861328 77.06486511230469 L 105.54190063476562 81.12155151367188 L 106.60948944091797 84.38095092773438 L 107.67707824707031 87.54216766357422 L 108.74467468261719 89.84748077392578 L 109.81226348876953 92.42083740234375 L 110.87985229492188 97.39672088623047 L 111.94744110107422 101.71467590332031 L 113.01502990722656 105.61480712890625 L 114.0826187133789 113.56954193115234 L 115.15020751953125 118.12191009521484 L 116.2177963256836 125.96533966064453 L 117.28539276123047 133.90692138671875 L 118.35298156738281 140.13031005859375 L 119.42057037353516 146.9799041748047 L 120.4881591796875 151.37374877929688 L 121.55574798583984 158.35121154785156 L 122.62333679199219 164.3662872314453 L 123.69092559814453 169.53054809570312 L 124.75851440429688 172.08560180664062 L 125.82610321044922 173.646484375 L 126.8936996459961 174.8699951171875 L 127.96128845214844 177.51092529296875 L 129.02886962890625 178.39700317382812 L 130.09646606445312 177.77647399902344 L 131.1640625 176.89234924316406 L 132.2316436767578 179.54432678222656 L 133.2992401123047 180.88148498535156 L 134.3668212890625 182.54075622558594 L 135.43441772460938 182.4745635986328 L 136.5019989013672 183.5537872314453 L 137.56959533691406 184.17904663085938 L 138.63717651367188 184.041748046875 L 139.70477294921875 182.87969970703125 L 140.77236938476562 183.41404724121094 L 141.83995056152344 178.2489013671875 L 142.9075469970703 183.89646911621094 L 143.97512817382812 184.84707641601562 L 145.042724609375 183.5316162109375 L 146.1103057861328 185.72076416015625 L 147.1779022216797 185.94482421875 L 148.2454833984375 185.11257934570312 L 149.31307983398438 187.40313720703125 L 150.38067626953125 187.14755249023438 L 151.44825744628906 187.7633514404297 L 152.51585388183594 187.1559600830078 L 153.58343505859375 186.24258422851562 L 154.65103149414062 185.69422912597656 L 155.71861267089844 180.4912567138672 L 156.7862091064453 188.68678283691406 L 157.8538055419922 189.35813903808594 L 158.92138671875 186.90243530273438 L 159.98898315429688 188.9519805908203 L 161.0565643310547 188.0806121826172 L 162.12416076660156 188.24278259277344 L 163.19174194335938 187.94195556640625 L 164.25933837890625 189.78604125976562 L 165.32691955566406 191.11631774902344 L 166.39451599121094 190.42494201660156 L 167.4621124267578 190.73956298828125 L 168.52969360351562 186.05641174316406 L 169.5972900390625 189.72439575195312 L 170.6648712158203 192.23495483398438 L 171.7324676513672 191.62327575683594 L 172.800048828125 190.32998657226562 L 173.86764526367188 192.66241455078125 L 174.93524169921875 191.85336303710938 L 176.00282287597656 190.05125427246094 L 177.07041931152344 191.55577087402344 L 178.13800048828125 192.0540008544922 L 179.20559692382812 188.39239501953125 L 180.27317810058594 191.29759216308594 L 181.3407745361328 191.4814453125 L 182.40835571289062 191.46739196777344 L 183.4759521484375 190.14218139648438 L 184.54354858398438 194.24537658691406 L 185.6111297607422 193.8789520263672 L 186.67872619628906 194.17909240722656 L 187.74630737304688 195.88525390625 L 188.81390380859375 196.21168518066406 L 189.88148498535156 192.13253784179688 L 190.94908142089844 189.55169677734375 L 192.01666259765625 197.91416931152344 L 193.08425903320312 197.97142028808594 L 194.15185546875 198.62550354003906 L 195.2194366455078 198.3725128173828 L 196.2870330810547 200.0982666015625 L 197.3546142578125 197.81109619140625 L 198.42221069335938 194.5277099609375 L 199.4897918701172 199.46063232421875 L 200.55738830566406 196.53622436523438 L 201.62498474121094 196.656982421875 L 202.69256591796875 197.22625732421875 L 203.76016235351562 198.4163818359375 L 204.82774353027344 198.92918395996094 L 205.8953399658203 199.70111083984375 L 206.96292114257812 198.81231689453125 L 208.030517578125 199.8758544921875 L 209.0980987548828 199.5457305908203 L 210.1656951904297 201.3662109375 L 211.23329162597656 201.74720764160156 L 212.30087280273438 200.75047302246094 L 213.36846923828125 205.17193603515625 L 214.43605041503906 199.4654541015625 L 215.50364685058594 196.71678161621094 L 216.57122802734375 199.66726684570312 L 217.63882446289062 198.7644500732422 L 218.70640563964844 201.3109588623047 L 219.7740020751953 203.63565063476562 L 220.8415985107422 191.72866821289062 L 221.9091796875 201.80091857910156 L 222.97677612304688 187.87899780273438 L 224.0443572998047 190.11386108398438 L 225.11195373535156 192.46798706054688 L 226.17953491210938 195.84487915039062 L 227.24713134765625 206.6689910888672 L 228.31472778320312 207.85208129882812 L 229.38230895996094 205.40211486816406 L 230.4499053955078 204.70941162109375 L 231.51748657226562 205.32777404785156 L 232.5850830078125 203.62315368652344 L 233.6526641845703 208.6201934814453 L 234.7202606201172 212.58880615234375 L 235.787841796875 211.5492401123047 L 236.85543823242188 214.118896484375 L 237.92303466796875 215.4295196533203 L 238.99061584472656 216.81689453125 L 240.05821228027344 214.5548095703125 L 241.12579345703125 205.2528839111328 L 242.19338989257812 208.73731994628906 L 243.26097106933594 209.93206787109375 L 244.3285675048828 218.09800720214844 L 245.39614868164062 216.8711700439453 L 246.4637451171875 219.97242736816406 L 247.53134155273438 217.0912322998047 L 248.5989227294922 220.81919860839844 L 249.66651916503906 210.47952270507812 L 250.73410034179688 213.72787475585938 L 251.80169677734375 219.65335083007812 L 252.86927795410156 221.33445739746094 L 253.93687438964844 220.58770751953125 L 255.0044708251953 221.70687866210938 L 256.0720520019531 216.0857391357422 L 257.1396484375 218.3846435546875 L 258.2072448730469 213.76043701171875 L 259.2748107910156 206.76748657226562 L 260.3424072265625 217.88165283203125 L 261.4100036621094 224.47657775878906 L 262.47760009765625 221.3945770263672 L 263.545166015625 223.72509765625 L 264.6127624511719 225.32656860351562 L 265.68035888671875 224.11944580078125 L 266.7479553222656 223.76145935058594 L 267.8155517578125 213.4657440185547 L 268.88311767578125 226.72796630859375 L 269.9507141113281 230.125732421875 L 271.018310546875 231.83299255371094 L 272.0859069824219 223.8427276611328 L 273.15350341796875 231.3489990234375 L 274.2210693359375 218.33917236328125 L 275.2886657714844 207.99574279785156 L 276.35626220703125 218.70008850097656 L 277.4238586425781 201.40834045410156 L 278.4914245605469 203.18939208984375 L 279.55902099609375 200.06277465820312 L 280.6266174316406 178.4886932373047 L 281.6942138671875 208.51327514648438 L 282.7618103027344 200.3050079345703 L 283.8293762207031 206.72796630859375 L 284.89697265625 218.0862579345703 L 285.9645690917969 217.4427032470703 L 287.03216552734375 232.7415771484375 L 288.0997314453125 238.3928985595703 L 289.1673278808594 241.0663299560547 L 290.23492431640625 242.92529296875 L 291.3025207519531 241.97840881347656 L 292.3701171875 235.70654296875 L 293.43768310546875 228.6307830810547 L 294.5052795410156 236.16009521484375 L 295.5728759765625 241.4501190185547 L 296.6404724121094 243.5364227294922 L 297.7080383300781 243.52430725097656 L 298.775634765625 243.109375 L 299.8432312011719 245.4073944091797 L 300.91082763671875 244.79347229003906 L 301.9784240722656 242.54750061035156 L 303.0459899902344 242.80397033691406 L 304.11358642578125 243.2775115966797 L 305.1811828613281 241.35116577148438 L 306.248779296875 237.39865112304688 L 307.31634521484375 232.40927124023438 L 308.3839416503906 239.44924926757812 L 309.4515380859375 231.08692932128906 L 310.5191345214844 236.51129150390625 L 311.58673095703125 227.78616333007812 L 312.654296875 223.7374725341797 L 313.7218933105469 241.83518981933594 L 314.78948974609375 245.15565490722656 L 315.8570861816406 229.93777465820312 L 316.9246826171875 213.1053009033203 L 317.99224853515625 199.8703155517578 L 319.0598449707031 210.39126586914062 L 320.12744140625 209.09539794921875 L 321.1950378417969 217.5634765625 L 322.2626037597656 208.5664520263672 L 323.3302001953125 214.1029052734375 L 324.3977966308594 220.79779052734375 L 325.46539306640625 218.06492614746094 L 326.5329895019531 209.1734161376953 L 327.6005554199219 224.7300262451172 L 328.66815185546875 228.79212951660156 L 329.7357482910156 241.87611389160156 L 330.8033447265625 253.51126098632812 L 331.87091064453125 256.5401611328125 L 332.9385070800781 250.49111938476562 L 334.006103515625 253.0767364501953 L 335.0736999511719 257.42388916015625 L 336.14129638671875 254.3404083251953 L 337.2088623046875 239.68096923828125 L 338.2764587402344 253.1768798828125 L 339.34405517578125 242.1852264404297 L 340.4116516113281 260.8803405761719 L 341.4792175292969 262.4784851074219 L 342.54681396484375 256.4033660888672 L 343.6144104003906 248.7469940185547 L 344.6820068359375 253.08363342285156 L 345.7496032714844 257.0422668457031 L 346.8171691894531 236.3199462890625 L 347.884765625 246.36602783203125 L 348.9523620605469 241.74363708496094 L 350.01995849609375 229.8393096923828 L 351.0875244140625 238.20974731445312 L 352.1551208496094 248.82701110839844 L 353.22271728515625 252.05230712890625 L 354.2903137207031 238.88992309570312 L 355.35791015625 192.45484924316406 L 356.42547607421875 195.3273162841797 L 357.4930725097656 221.4200439453125 L 358.5606689453125 222.9449462890625 L 359.6282653808594 247.8176727294922 L 360.6958312988281 248.77362060546875 L 361.763427734375 238.71548461914062 L 362.8310241699219 210.1774139404297 L 363.89862060546875 211.2496337890625 L 364.9662170410156 222.6090850830078 L 366.0337829589844 225.47422790527344 L 367.10137939453125 231.82093811035156 L 368.1689758300781 248.57455444335938 L 369.236572265625 260.4839782714844 L 370.3041687011719 260.0918273925781 L 371.3717346191406 253.25042724609375 L 372.4393310546875 263.33770751953125 L 373.5069274902344 259.0191955566406 L 374.57452392578125 243.2235870361328 L 375.64208984375 249.37689208984375 L 376.7096862792969 228.72854614257812 L 377.77728271484375 211.1456756591797 L 378.8448791503906 217.55894470214844 L 379.9124755859375 243.9236297607422 L 380.98004150390625 246.72581481933594 L 382.0476379394531 260.08636474609375 L 383.115234375 264.99407958984375 L 384.1828308105469 263.8792419433594 L 385.2503967285156 257.836669921875 L 386.3179931640625 254.9999237060547 L 387.3855895996094 256.58294677734375 L 388.45318603515625 230.62222290039062 L 389.5207824707031 189.81515502929688 L 390.5883483886719 181.77786254882812 L 391.65594482421875 165.73374938964844 L 392.7235412597656 177.99937438964844 L 393.7911376953125 180.81631469726562 L 394.85870361328125 168.26683044433594 L 395.9263000488281 189.9607391357422 L 396.993896484375 193.8230743408203 L 398.0614929199219 229.22671508789062 L 399.12908935546875 243.37982177734375 L 400.1966552734375 244.81948852539062 L 401.2642517089844 249.1055908203125 L 402.33184814453125 244.5060577392578 L 403.3994445800781 252.7517547607422 L 404.4670104980469 243.298828125 L 405.53460693359375 257.0030517578125 L 406.6022033691406 266.18206787109375 L 407.6697998046875 269.3691711425781 L 408.7373962402344 262.62078857421875 L 409.8049621582031 264.7411193847656 L 410.87255859375 265.1622009277344 L 411.9401550292969 254.42416381835938 L 413.00775146484375 240.96163940429688 L 414.0753173828125 207.3683319091797 L 415.1429138183594 233.19021606445312 L 416.21051025390625 253.2068634033203 L 417.2781066894531 258.7771911621094 L 418.345703125 271.9393005371094 L 419.41326904296875 277.6558532714844 L 420.4808654785156 274.5107116699219 L 421.5484619140625 268.7589111328125 L 422.6160583496094 265.8485107421875 L 423.68365478515625 272.346435546875 L 424.751220703125 274.6448059082031 L 425.8188171386719 269.5496520996094 L 426.88641357421875 262.61566162109375 L 427.9540100097656 255.36697387695312 L 429.0215759277344 251.0459747314453 L 430.08917236328125 256.3421630859375 L 431.1567687988281 237.1519012451172 L 432.224365234375 243.80369567871094 L 433.2919616699219 258.3406982421875 L 434.3595275878906 266.21826171875 L 435.4271240234375 262.8322448730469 L 436.4947204589844 239.2123565673828 L 437.56231689453125 258.030029296875 L 438.6298828125 239.17236328125 L 439.6974792480469 234.28787231445312 L 440.76507568359375 249.274658203125 L 441.8326721191406 265.17547607421875 L 442.9002685546875 227.1248321533203 L 443.96783447265625 233.3605499267578 L 445.0354309082031 252.5548858642578 L 446.10302734375 250.6470184326172 L 447.1706237792969 223.01202392578125 L 448.2381896972656 240.5015869140625 L 449.3057861328125 261.6992492675781 L 450.3733825683594 265.9393310546875 L 451.44097900390625 278.5329284667969 L 452.5085754394531 275.5531311035156 L 453.5761413574219 275.4605407714844 L 454.64373779296875 272.06927490234375 L 455.7113342285156 272.59075927734375 L 456.7789306640625 279.6949462890625 L 457.84649658203125 283.50323486328125 L 458.9140930175781 283.88592529296875 L 459.981689453125 281.6260070800781 L 461.0492858886719 281.433349609375 L 462.11688232421875 280.4638366699219 L 463.1844482421875 282.79345703125 L 464.2520446777344 270.2361755371094 L 465.31964111328125 278.78460693359375 L 466.3872375488281 279.0054016113281 L 467.454833984375 274.94500732421875 L 468.52239990234375 264.34515380859375 L 469.5899963378906 267.1567077636719 L 470.6575927734375 269.783203125 L 471.7251892089844 268.9350280761719 L 472.7927551269531 275.8397216796875 L 473.8603515625 272.00201416015625 L 474.9279479980469 271.92291259765625 L 475.99554443359375 264.9390563964844 L 477.0631408691406 232.7022247314453 L 478.1307067871094 240.41722106933594 L 479.19830322265625 255.5824432373047 L 480.2658996582031 254.28970336914062 L 481.33349609375 222.24087524414062 L 482.40106201171875 203.3280792236328 L 483.4686584472656 189.87570190429688 L 484.5362548828125 184.8735809326172 L 485.6038513183594 179.39230346679688 L 486.67144775390625 193.49624633789062 L 487.739013671875 194.87554931640625 L 488.8066101074219 201.3553009033203 L 489.87420654296875 250.43222045898438 L 490.9418029785156 262.36273193359375 L 492.0093688964844 251.36761474609375 L 493.07696533203125 255.97698974609375 L 494.1445617675781 255.60421752929688 L 495.212158203125 255.47341918945312 L 496.2797546386719 251.65774536132812 L 497.3473205566406 244.90386962890625 L 498.4149169921875 248.8154296875 L 499.4825134277344 239.41134643554688 L 500.55010986328125 251.8885040283203 L 501.61767578125 254.08338928222656 L 502.6852722167969 255.5254669189453 L 503.75286865234375 246.68609619140625 L 504.8204650878906 254.9571533203125 L 505.8880615234375 244.79896545410156 L 506.95562744140625 210.76499938964844 L 508.0232238769531 186.28480529785156 L 509.0908203125 200.71810913085938 L 510.1584167480469 200.89747619628906 L 511.2259826660156 213.26095581054688 L 512.2935791015625 220.4997100830078 L 513.3612060546875 219.1542510986328 L 514.4287719726562 243.9169158935547 L 515.496337890625 241.15855407714844 L 516.56396484375 228.6641845703125 L 517.6315307617188 253.40269470214844 L 518.6990966796875 266.03656005859375 L 519.7667236328125 259.5757751464844 L 520.8342895507812 243.2597198486328 L 521.9019165039062 227.43251037597656 L 522.969482421875 261.5508728027344 L 524.0370483398438 274.994140625 L 525.1046752929688 277.415771484375 L 526.1722412109375 276.4131164550781 L 527.2398681640625 286.6153869628906 L 528.3074340820312 286.1287536621094 L 529.375 284.52001953125 L 530.442626953125 284.1083068847656 L 531.5101928710938 288.69000244140625 L 532.5778198242188 285.8480224609375 L 533.6453857421875 287.4455261230469 L 534.7129516601562 277.223388671875 L 535.7805786132812 256.8664245605469 L 536.84814453125 269.5032653808594 L 537.9157104492188 283.3594665527344 L 538.9833374023438 281.71234130859375 L 540.0509033203125 268.4460144042969 L 541.1185302734375 250.4886016845703 L 542.1860961914062 236.38584899902344 L 543.253662109375 247.199951171875 L 544.3212890625 256.1918182373047 L 545.3888549804688 254.403564453125 L 546.4564819335938 233.8601531982422 L 547.5240478515625 213.04345703125 L 548.5916137695312 209.35601806640625 L 549.6592407226562 207.02279663085938 L 550.726806640625 212.19204711914062 L 551.79443359375 214.12254333496094 L 552.8619995117188 230.3061065673828 L 553.9295654296875 246.95584106445312 L 554.9971923828125 248.00570678710938 L 556.0647583007812 250.9964141845703 L 557.1323852539062 257.5783386230469 L 558.199951171875 269.3154296875 L 559.2675170898438 276.2431945800781 L 560.3351440429688 272.2950134277344 L 561.4027099609375 281.61102294921875 L 562.4702758789062 290.0172424316406 L 563.5379028320312 289.3411865234375 L 564.60546875 285.5674743652344 L 565.673095703125 278.5303649902344 L 566.7406616210938 270.0166931152344 L 567.8082275390625 246.94473266601562 L 568.8758544921875 243.86122131347656 L 569.9434204101562 197.1975860595703 L 571.0110473632812 184.96743774414062 L 572.07861328125 199.60382080078125 L 573.1461791992188 194.77084350585938 L 574.2138061523438 194.35072326660156 L 575.2813720703125 196.3421630859375 L 576.3489990234375 212.0230255126953 L 577.4165649414062 250.0542449951172 L 578.484130859375 244.82373046875 L 579.5517578125 235.8103790283203 L 580.6193237304688 238.5556182861328 L 581.6868896484375 216.60365295410156 L 582.7545166015625 241.98736572265625 L 583.8220825195312 263.2668151855469 L 584.8897094726562 259.86102294921875 L 585.957275390625 274.00830078125 L 587.0248413085938 268.1027526855469 L 588.0924682617188 286.8380126953125 L 589.1600341796875 285.4296569824219 L 590.2276611328125 288.36785888671875 L 591.2952270507812 289.4554748535156 L 592.36279296875 284.2979736328125 L 593.430419921875 281.5514221191406 L 594.4979858398438 283.4994201660156 L 595.5656127929688 292.489013671875 L 596.6331787109375 290.5853576660156 L 597.7007446289062 290.3130187988281 L 598.7683715820312 289.88934326171875 L 599.8359375 288.7604064941406 L 600.903564453125 278.078369140625 L 601.9711303710938 286.5646057128906 L 603.0386962890625 292.6795349121094 L 604.1063232421875 284.4942626953125 L 605.1738891601562 278.34747314453125 L 606.241455078125 279.0110778808594 L 607.30908203125 258.4616394042969 L 608.3766479492188 274.97003173828125 L 609.4442749023438 288.0277404785156 L 610.5118408203125 289.28485107421875 L 611.5794067382812 294.15240478515625 L 612.6470336914062 292.1897888183594 L 613.714599609375 295.9240417480469 L 614.7822265625 294.9373779296875 L 615.8497924804688 288.65167236328125 L 616.9173583984375 288.79302978515625 L 617.9849853515625 286.9670104980469 L 619.0525512695312 288.7437438964844 L 620.1201782226562 291.2674255371094 L 621.187744140625 284.33819580078125 L 622.2553100585938 291.2109069824219 L 623.3229370117188 288.203857421875 L 624.3905029296875 278.2198181152344 L 625.4580688476562 284.2118835449219 L 626.5256958007812 268.4420471191406 L 627.59326171875 239.94761657714844 L 628.660888671875 228.05116271972656 L 629.7284545898438 191.52220153808594 L 630.7960205078125 169.5085906982422 L 631.8636474609375 198.9429931640625" stroke-opacity="1" stroke-linejoin="bevel" stroke-miterlimit="10" stroke-width="2" clip-path="url(#RtkgOeiLNXgv)"/><path fill="none" stroke="rgb(255,127,14)" paint-order="fill" d="M 99.13636016845703 104.84464263916016 L 100.2039566040039 161.77870178222656 L 101.27154541015625 177.51026916503906 L 102.3391342163086 196.5846405029297 L 103.40672302246094 203.94583129882812 L 104.47431182861328 207.67881774902344 L 105.54190063476562 209.9549560546875 L 106.60948944091797 209.86904907226562 L 107.67707824707031 211.0620880126953 L 108.74467468261719 213.54603576660156 L 109.81226348876953 215.85614013671875 L 110.87985229492188 217.16200256347656 L 111.94744110107422 217.9637908935547 L 113.01502990722656 218.515625 L 114.0826187133789 221.32081604003906 L 115.15020751953125 220.51979064941406 L 116.2177963256836 220.69952392578125 L 117.28539276123047 222.15045166015625 L 118.35298156738281 221.37539672851562 L 119.42057037353516 226.77645874023438 L 120.4881591796875 226.57058715820312 L 121.55574798583984 228.16859436035156 L 122.62333679199219 228.49794006347656 L 123.69092559814453 228.9339599609375 L 124.75851440429688 229.892333984375 L 125.82610321044922 230.0376434326172 L 126.8936996459961 231.83497619628906 L 127.96128845214844 234.49337768554688 L 129.02886962890625 227.4533233642578 L 130.09646606445312 229.9026336669922 L 131.1640625 233.37266540527344 L 132.2316436767578 234.33021545410156 L 133.2992401123047 228.33914184570312 L 134.3668212890625 231.2847137451172 L 135.43441772460938 221.29673767089844 L 136.5019989013672 228.7754364013672 L 137.56959533691406 236.884765625 L 138.63717651367188 243.03866577148438 L 139.70477294921875 239.65451049804688 L 140.77236938476562 243.58103942871094 L 141.83995056152344 246.10025024414062 L 142.9075469970703 246.68521118164062 L 143.97512817382812 248.9556121826172 L 145.042724609375 251.62619018554688 L 146.1103057861328 250.6177215576172 L 147.1779022216797 252.54510498046875 L 148.2454833984375 254.24887084960938 L 149.31307983398438 254.26544189453125 L 150.38067626953125 252.04197692871094 L 151.44825744628906 253.1513214111328 L 152.51585388183594 250.43746948242188 L 153.58343505859375 258.5375061035156 L 154.65103149414062 264.2474365234375 L 155.71861267089844 263.5813293457031 L 156.7862091064453 265.59326171875 L 157.8538055419922 265.4159851074219 L 158.92138671875 268.9733581542969 L 159.98898315429688 269.34112548828125 L 161.0565643310547 268.1116027832031 L 162.12416076660156 272.6390686035156 L 163.19174194335938 265.30218505859375 L 164.25933837890625 266.8900146484375 L 165.32691955566406 273.3707580566406 L 166.39451599121094 285.8796691894531 L 167.4621124267578 287.7258605957031 L 168.52969360351562 288.30047607421875 L 169.5972900390625 280.8345947265625 L 170.6648712158203 284.359375 L 171.7324676513672 288.36871337890625 L 172.800048828125 286.4163513183594 L 173.86764526367188 291.9906005859375 L 174.93524169921875 304.1685485839844 L 176.00282287597656 293.0364074707031 L 177.07041931152344 300.1239013671875 L 178.13800048828125 306.6395263671875 L 179.20559692382812 306.6867980957031 L 180.27317810058594 312.6368103027344 L 181.3407745361328 314.315185546875 L 182.40835571289062 318.7890319824219 L 183.4759521484375 313.5836181640625 L 184.54354858398438 311.3548278808594 L 185.6111297607422 310.9812316894531 L 186.67872619628906 311.57672119140625 L 187.74630737304688 305.25103759765625 L 188.81390380859375 316.4907531738281 L 189.88148498535156 314.04595947265625 L 190.94908142089844 312.8630065917969 L 192.01666259765625 315.471435546875 L 193.08425903320312 312.1324157714844 L 194.15185546875 325.3700866699219 L 195.2194366455078 330.3493957519531 L 196.2870330810547 324.7695007324219 L 197.3546142578125 323.0601806640625 L 198.42221069335938 321.9647521972656 L 199.4897918701172 320.4111328125 L 200.55738830566406 326.2335510253906 L 201.62498474121094 330.5102844238281 L 202.69256591796875 323.7305908203125 L 203.76016235351562 305.6780090332031 L 204.82774353027344 319.3256530761719 L 205.8953399658203 319.5880126953125 L 206.96292114257812 329.6926574707031 L 208.030517578125 315.5699157714844 L 209.0980987548828 325.9996643066406 L 210.1656951904297 322.8611755371094 L 211.23329162597656 316.0416564941406 L 212.30087280273438 312.23516845703125 L 213.36846923828125 309.5372009277344 L 214.43605041503906 313.6320495605469 L 215.50364685058594 318.9905700683594 L 216.57122802734375 321.9716491699219 L 217.63882446289062 323.6212463378906 L 218.70640563964844 318.2552795410156 L 219.7740020751953 314.3173828125 L 220.8415985107422 326.6898498535156 L 221.9091796875 326.9529113769531 L 222.97677612304688 337.05499267578125 L 224.0443572998047 338.7727355957031 L 225.11195373535156 329.232666015625 L 226.17953491210938 325.327880859375 L 227.24713134765625 320.9087829589844 L 228.31472778320312 330.7747802734375 L 229.38230895996094 326.63531494140625 L 230.4499053955078 333.45648193359375 L 231.51748657226562 316.20855712890625 L 232.5850830078125 327.592529296875 L 233.6526641845703 313.0872802734375 L 234.7202606201172 308.3561706542969 L 235.787841796875 319.2427673339844 L 236.85543823242188 336.1494140625 L 237.92303466796875 305.3949279785156 L 238.99061584472656 314.5864562988281 L 240.05821228027344 304.11138916015625 L 241.12579345703125 326.31915283203125 L 242.19338989257812 336.96636962890625 L 243.26097106933594 325.217041015625 L 244.3285675048828 320.6123352050781 L 245.39614868164062 329.5747985839844 L 246.4637451171875 321.3299255371094 L 247.53134155273438 336.7475891113281 L 248.5989227294922 307.65972900390625 L 249.66651916503906 314.10198974609375 L 250.73410034179688 314.1958312988281 L 251.80169677734375 304.0227355957031 L 252.86927795410156 292.9364929199219 L 253.93687438964844 310.00372314453125 L 255.0044708251953 291.6528015136719 L 256.0720520019531 287.00091552734375 L 257.1396484375 277.8958435058594 L 258.2072448730469 281.2886962890625 L 259.2748107910156 282.7360534667969 L 260.3424072265625 284.6355895996094 L 261.4100036621094 294.63934326171875 L 262.47760009765625 302.00616455078125 L 263.545166015625 324.1124267578125 L 264.6127624511719 326.31707763671875 L 265.68035888671875 335.3256530761719 L 266.7479553222656 324.9356994628906 L 267.8155517578125 315.2834777832031 L 268.88311767578125 323.13677978515625 L 269.9507141113281 302.751953125 L 271.018310546875 302.5969543457031 L 272.0859069824219 286.3944396972656 L 273.15350341796875 286.89471435546875 L 274.2210693359375 304.1612243652344 L 275.2886657714844 318.0899353027344 L 276.35626220703125 317.14703369140625 L 277.4238586425781 305.54974365234375 L 278.4914245605469 272.1885681152344 L 279.55902099609375 290.6597900390625 L 280.6266174316406 313.2856140136719 L 281.6942138671875 337.3869934082031 L 282.7618103027344 326.12841796875 L 283.8293762207031 314.39434814453125 L 284.89697265625 330.4337463378906 L 285.9645690917969 331.55926513671875 L 287.03216552734375 318.585205078125 L 288.0997314453125 289.5367736816406 L 289.1673278808594 289.49859619140625 L 290.23492431640625 290.3278503417969 L 291.3025207519531 265.795166015625 L 292.3701171875 257.529296875 L 293.43768310546875 269.7418212890625 L 294.5052795410156 273.84228515625 L 295.5728759765625 267.2194519042969 L 296.6404724121094 267.64263916015625 L 297.7080383300781 268.458251953125 L 298.775634765625 282.2073974609375 L 299.8432312011719 290.3883056640625 L 300.91082763671875 284.6298522949219 L 301.9784240722656 265.5738220214844 L 303.0459899902344 253.48106384277344 L 304.11358642578125 273.79595947265625 L 305.1811828613281 298.5158386230469 L 306.248779296875 315.2221984863281 L 307.31634521484375 308.61932373046875 L 308.3839416503906 314.34429931640625 L 309.4515380859375 310.6040344238281 L 310.5191345214844 321.1900329589844 L 311.58673095703125 318.3957824707031 L 312.654296875 335.16229248046875 L 313.7218933105469 331.37799072265625 L 314.78948974609375 317.9012756347656 L 315.8570861816406 301.9766845703125 L 316.9246826171875 318.046630859375 L 317.99224853515625 300.82659912109375 L 319.0598449707031 264.6234436035156 L 320.12744140625 247.0824737548828 L 321.1950378417969 262.9406433105469 L 322.2626037597656 289.5824890136719 L 323.3302001953125 312.2445068359375 L 324.3977966308594 306.8218078613281 L 325.46539306640625 313.1245422363281 L 326.5329895019531 291.6767883300781 L 327.6005554199219 284.5045471191406 L 328.66815185546875 299.81591796875 L 329.7357482910156 312.8817138671875 L 330.8033447265625 323.2766418457031 L 331.87091064453125 319.5284118652344 L 332.9385070800781 316.25567626953125 L 334.006103515625 318.4411926269531 L 335.0736999511719 308.40570068359375 L 336.14129638671875 311.8724670410156 L 337.2088623046875 312.33154296875 L 338.2764587402344 331.9359436035156 L 339.34405517578125 306.6214294433594 L 340.4116516113281 307.7357177734375 L 341.4792175292969 305.9144287109375 L 342.54681396484375 313.7671203613281 L 343.6144104003906 324.29315185546875 L 344.6820068359375 323.6033020019531 L 345.7496032714844 330.53350830078125 L 346.8171691894531 305.004638671875 L 347.884765625 293.33734130859375 L 348.9523620605469 300.4817810058594 L 350.01995849609375 299.1036071777344 L 351.0875244140625 317.06109619140625 L 352.1551208496094 323.0029602050781 L 353.22271728515625 305.1873474121094 L 354.2903137207031 317.7104187011719 L 355.35791015625 303.5240783691406 L 356.42547607421875 288.4209289550781 L 357.4930725097656 280.2679138183594 L 358.5606689453125 257.53582763671875 L 359.6282653808594 234.67996215820312 L 360.6958312988281 258.8984680175781 L 361.763427734375 289.1122131347656 L 362.8310241699219 297.3880310058594 L 363.89862060546875 303.6673889160156 L 364.9662170410156 304.2875671386719 L 366.0337829589844 297.9108581542969 L 367.10137939453125 296.8408203125 L 368.1689758300781 302.7921447753906 L 369.236572265625 286.5185852050781 L 370.3041687011719 301.2064514160156 L 371.3717346191406 308.6478271484375 L 372.4393310546875 294.4162292480469 L 373.5069274902344 287.6795959472656 L 374.57452392578125 259.89398193359375 L 375.64208984375 264.61920166015625 L 376.7096862792969 248.7698211669922 L 377.77728271484375 269.5343933105469 L 378.8448791503906 276.8827209472656 L 379.9124755859375 268.9189453125 L 380.98004150390625 302.76031494140625 L 382.0476379394531 287.66790771484375 L 383.115234375 267.9532775878906 L 384.1828308105469 275.07061767578125 L 385.2503967285156 281.1584777832031 L 386.3179931640625 296.0079040527344 L 387.3855895996094 306.83843994140625 L 388.45318603515625 313.08807373046875 L 389.5207824707031 323.352294921875 L 390.5883483886719 324.9456481933594 L 391.65594482421875 319.4095458984375 L 392.7235412597656 329.0666198730469 L 393.7911376953125 326.4772644042969 L 394.85870361328125 323.0126647949219 L 395.9263000488281 331.9703674316406 L 396.993896484375 326.67840576171875 L 398.0614929199219 335.7259216308594 L 399.12908935546875 327.0943298339844 L 400.1966552734375 330.44610595703125 L 401.2642517089844 310.53582763671875 L 402.33184814453125 294.4297180175781 L 403.3994445800781 304.08966064453125 L 404.4670104980469 291.4007873535156 L 405.53460693359375 265.2245178222656 L 406.6022033691406 223.0602569580078 L 407.6697998046875 233.51028442382812 L 408.7373962402344 246.16943359375 L 409.8049621582031 270.3734436035156 L 410.87255859375 264.9593811035156 L 411.9401550292969 283.957275390625 L 413.00775146484375 295.90716552734375 L 414.0753173828125 307.1238708496094 L 415.1429138183594 322.8879699707031 L 416.21051025390625 311.4419860839844 L 417.2781066894531 309.09405517578125 L 418.345703125 302.8988037109375 L 419.41326904296875 290.6418762207031 L 420.4808654785156 277.4422607421875 L 421.5484619140625 264.70196533203125 L 422.6160583496094 281.1949157714844 L 423.68365478515625 287.1499938964844 L 424.751220703125 284.39959716796875 L 425.8188171386719 293.77593994140625 L 426.88641357421875 273.97869873046875 L 427.9540100097656 274.1903381347656 L 429.0215759277344 270.4493408203125 L 430.08917236328125 268.5584716796875 L 431.1567687988281 262.8152770996094 L 432.224365234375 271.68914794921875 L 433.2919616699219 287.3435974121094 L 434.3595275878906 301.5018005371094 L 435.4271240234375 309.23486328125 L 436.4947204589844 329.9091796875 L 437.56231689453125 329.49127197265625 L 438.6298828125 326.7687683105469 L 439.6974792480469 315.4848327636719 L 440.76507568359375 303.7017822265625 L 441.8326721191406 279.246337890625 L 442.9002685546875 272.24639892578125 L 443.96783447265625 281.02813720703125 L 445.0354309082031 308.1508483886719 L 446.10302734375 316.04718017578125 L 447.1706237792969 312.0648193359375 L 448.2381896972656 319.110595703125 L 449.3057861328125 311.2616882324219 L 450.3733825683594 319.1925048828125 L 451.44097900390625 321.50640869140625 L 452.5085754394531 310.1680908203125 L 453.5761413574219 302.8757629394531 L 454.64373779296875 310.5762634277344 L 455.7113342285156 311.6847839355469 L 456.7789306640625 313.4436950683594 L 457.84649658203125 309.3521423339844 L 458.9140930175781 292.90496826171875 L 459.981689453125 309.8080749511719 L 461.0492858886719 316.3132019042969 L 462.11688232421875 315.03857421875 L 463.1844482421875 316.3034973144531 L 464.2520446777344 280.33538818359375 L 465.31964111328125 270.68804931640625 L 466.3872375488281 277.3254699707031 L 467.454833984375 296.02239990234375 L 468.52239990234375 303.0005187988281 L 469.5899963378906 261.1275329589844 L 470.6575927734375 239.54786682128906 L 471.7251892089844 254.0694580078125 L 472.7927551269531 257.0952453613281 L 473.8603515625 267.94989013671875 L 474.9279479980469 264.6873779296875 L 475.99554443359375 282.62701416015625 L 477.0631408691406 302.0768737792969 L 478.1307067871094 308.7738037109375 L 479.19830322265625 287.14141845703125 L 480.2658996582031 294.8627624511719 L 481.33349609375 303.09808349609375 L 482.40106201171875 331.4278259277344 L 483.4686584472656 327.7289123535156 L 484.5362548828125 306.88671875 L 485.6038513183594 299.7764587402344 L 486.67144775390625 308.5785217285156 L 487.739013671875 325.2912902832031 L 488.8066101074219 332.1342468261719 L 489.87420654296875 311.4212951660156 L 490.9418029785156 304.57867431640625 L 492.0093688964844 307.14166259765625 L 493.07696533203125 314.8747253417969 L 494.1445617675781 287.34893798828125 L 495.212158203125 291.0371398925781 L 496.2797546386719 290.1381530761719 L 497.3473205566406 305.26959228515625 L 498.4149169921875 300.53338623046875 L 499.4825134277344 313.1924743652344 L 500.55010986328125 304.6868591308594 L 501.61767578125 316.73944091796875 L 502.6852722167969 327.4722900390625 L 503.75286865234375 323.0052185058594 L 504.8204650878906 309.7648010253906 L 505.8880615234375 297.4004211425781 L 506.95562744140625 294.72027587890625 L 508.0232238769531 298.39520263671875 L 509.0908203125 291.5361022949219 L 510.1584167480469 315.1273193359375 L 511.2259826660156 311.5919189453125 L 512.2935791015625 318.50537109375 L 513.3612060546875 324.44970703125 L 514.4287719726562 330.4968566894531 L 515.496337890625 325.2790832519531 L 516.56396484375 324.1473083496094 L 517.6315307617188 330.5299987792969 L 518.6990966796875 307.713134765625 L 519.7667236328125 293.0722351074219 L 520.8342895507812 306.4329528808594 L 521.9019165039062 307.7112121582031 L 522.969482421875 272.0147705078125 L 524.0370483398438 283.6091613769531 L 525.1046752929688 273.2305908203125 L 526.1722412109375 288.53619384765625 L 527.2398681640625 283.43865966796875 L 528.3074340820312 272.3696594238281 L 529.375 272.49981689453125 L 530.442626953125 275.6993408203125 L 531.5101928710938 265.5809020996094 L 532.5778198242188 282.5484924316406 L 533.6453857421875 266.0829772949219 L 534.7129516601562 265.29998779296875 L 535.7805786132812 279.09454345703125 L 536.84814453125 290.2051696777344 L 537.9157104492188 294.65057373046875 L 538.9833374023438 309.4463806152344 L 540.0509033203125 310.6081848144531 L 541.1185302734375 296.3726806640625 L 542.1860961914062 278.96392822265625 L 543.253662109375 299.28173828125 L 544.3212890625 322.5254211425781 L 545.3888549804688 302.6000061035156 L 546.4564819335938 309.2198181152344 L 547.5240478515625 296.391845703125 L 548.5916137695312 301.06072998046875 L 549.6592407226562 311.6685791015625 L 550.726806640625 327.86407470703125 L 551.79443359375 318.7502136230469 L 552.8619995117188 323.51409912109375 L 553.9295654296875 318.4907531738281 L 554.9971923828125 292.2862854003906 L 556.0647583007812 269.56768798828125 L 557.1323852539062 277.0641174316406 L 558.199951171875 283.0041809082031 L 559.2675170898438 308.95574951171875 L 560.3351440429688 311.5849304199219 L 561.4027099609375 311.74700927734375 L 562.4702758789062 285.85675048828125 L 563.5379028320312 289.25506591796875 L 564.60546875 295.0662536621094 L 565.673095703125 309.3964538574219 L 566.7406616210938 329.9886169433594 L 567.8082275390625 312.4336242675781 L 568.8758544921875 306.5810852050781 L 569.9434204101562 296.5504455566406 L 571.0110473632812 300.2160339355469 L 572.07861328125 302.005615234375 L 573.1461791992188 329.70574951171875 L 574.2138061523438 334.86968994140625 L 575.2813720703125 310.6715087890625 L 576.3489990234375 271.58001708984375 L 577.4165649414062 283.9916076660156 L 578.484130859375 295.3524169921875 L 579.5517578125 311.5653076171875 L 580.6193237304688 314.1636962890625 L 581.6868896484375 317.22412109375 L 582.7545166015625 327.0211181640625 L 583.8220825195312 314.1615905761719 L 584.8897094726562 322.0612487792969 L 585.957275390625 320.3157958984375 L 587.0248413085938 314.1109924316406 L 588.0924682617188 311.1835021972656 L 589.1600341796875 298.4879455566406 L 590.2276611328125 280.39794921875 L 591.2952270507812 269.7309875488281 L 592.36279296875 269.47418212890625 L 593.430419921875 232.9849395751953 L 594.4979858398438 239.26605224609375 L 595.5656127929688 266.56683349609375 L 596.6331787109375 258.19952392578125 L 597.7007446289062 269.4954528808594 L 598.7683715820312 295.07415771484375 L 599.8359375 306.510009765625 L 600.903564453125 304.7577819824219 L 601.9711303710938 291.22552490234375 L 603.0386962890625 287.5373229980469 L 604.1063232421875 287.8323669433594 L 605.1738891601562 297.65911865234375 L 606.241455078125 313.401123046875 L 607.30908203125 305.83575439453125 L 608.3766479492188 303.8933410644531 L 609.4442749023438 310.50201416015625 L 610.5118408203125 301.46051025390625 L 611.5794067382812 311.7900085449219 L 612.6470336914062 329.7526550292969 L 613.714599609375 331.8906555175781 L 614.7822265625 308.78521728515625 L 615.8497924804688 279.4769592285156 L 616.9173583984375 255.11424255371094 L 617.9849853515625 237.96609497070312 L 619.0525512695312 252.37466430664062 L 620.1201782226562 263.1894836425781 L 621.187744140625 291.2509460449219 L 622.2553100585938 294.7871398925781 L 623.3229370117188 282.8105163574219 L 624.3905029296875 266.49609375 L 625.4580688476562 274.20294189453125 L 626.5256958007812 303.0211181640625 L 627.59326171875 294.4917297363281 L 628.660888671875 292.706787109375 L 629.7284545898438 309.32366943359375 L 630.7960205078125 323.7607116699219 L 631.8636474609375 329.6436767578125" stroke-opacity="1" stroke-linejoin="bevel" stroke-miterlimit="10" stroke-width="2" clip-path="url(#LpLkeQJBRnBP)"/><path fill="none" stroke="rgb(0,0,0)" paint-order="fill" d="M 72.5 353.5 L 658.5 353.5" stroke-opacity="1" stroke-linejoin="bevel" stroke-miterlimit="10"/><path fill="none" stroke="rgb(0,0,0)" paint-order="fill" d="M 99.5 359.5 L 99.5 351.5 M 205.5 359.5 L 205.5 351.5 M 312.5 359.5 L 312.5 351.5 M 419.5 359.5 L 419.5 351.5 M 526.5 359.5 L 526.5 351.5 M 632.5 359.5 L 632.5 351.5" stroke-opacity="1" stroke-linejoin="bevel" stroke-miterlimit="10"/><path fill="none" stroke="rgb(0,0,0)" paint-order="fill" d="M 77.5 357.5 L 77.5 353.5 M 99.5 357.5 L 99.5 353.5 M 120.5 357.5 L 120.5 353.5 M 141.5 357.5 L 141.5 353.5 M 163.5 357.5 L 163.5 353.5 M 184.5 357.5 L 184.5 353.5 M 205.5 357.5 L 205.5 353.5 M 227.5 357.5 L 227.5 353.5 M 248.5 357.5 L 248.5 353.5 M 269.5 357.5 L 269.5 353.5 M 291.5 357.5 L 291.5 353.5 M 312.5 357.5 L 312.5 353.5 M 334.5 357.5 L 334.5 353.5 M 355.5 357.5 L 355.5 353.5 M 376.5 357.5 L 376.5 353.5 M 398.5 357.5 L 398.5 353.5 M 419.5 357.5 L 419.5 353.5 M 440.5 357.5 L 440.5 353.5 M 462.5 357.5 L 462.5 353.5 M 483.5 357.5 L 483.5 353.5 M 504.5 357.5 L 504.5 353.5 M 526.5 357.5 L 526.5 353.5 M 547.5 357.5 L 547.5 353.5 M 568.5 357.5 L 568.5 353.5 M 590.5 357.5 L 590.5 353.5 M 611.5 357.5 L 611.5 353.5 M 632.5 357.5 L 632.5 353.5 M 654.5 357.5 L 654.5 353.5" stroke-opacity="1" stroke-linejoin="bevel" stroke-miterlimit="10"/><text fill="rgb(0,0,0)" stroke="none" font-family="serif" font-size="10pt" font-style="normal" font-weight="normal" text-decoration="normal" x="94.37802696228027" y="374" text-anchor="start" dominant-baseline="alphabetic" transform="matrix(1, 0, 0, 1, 0.5, 0.5)" fill-opacity="1">0</text><text fill="none" stroke="rgb(0,0,0)" font-family="serif" font-size="10pt" font-style="normal" font-weight="normal" text-decoration="normal" x="94.37802696228027" y="374" text-anchor="start" dominant-baseline="alphabetic" transform="matrix(1, 0, 0, 1, 0.5, 0.5)" stroke-opacity="0" stroke-linejoin="bevel" stroke-miterlimit="10">0</text><text fill="rgb(0,0,0)" stroke="none" font-family="serif" font-size="10pt" font-style="normal" font-weight="normal" text-decoration="normal" x="192.62034034729004" y="374" text-anchor="start" dominant-baseline="alphabetic" transform="matrix(1, 0, 0, 1, 0.5, 0.5)" fill-opacity="1">100</text><text fill="none" stroke="rgb(0,0,0)" font-family="serif" font-size="10pt" font-style="normal" font-weight="normal" text-decoration="normal" x="192.62034034729004" y="374" text-anchor="start" dominant-baseline="alphabetic" transform="matrix(1, 0, 0, 1, 0.5, 0.5)" stroke-opacity="0" stroke-linejoin="bevel" stroke-miterlimit="10">100</text><text fill="rgb(0,0,0)" stroke="none" font-family="serif" font-size="10pt" font-style="normal" font-weight="normal" text-decoration="normal" x="299.3792972564697" y="374" text-anchor="start" dominant-baseline="alphabetic" transform="matrix(1, 0, 0, 1, 0.5, 0.5)" fill-opacity="1">200</text><text fill="none" stroke="rgb(0,0,0)" font-family="serif" font-size="10pt" font-style="normal" font-weight="normal" text-decoration="normal" x="299.3792972564697" y="374" text-anchor="start" dominant-baseline="alphabetic" transform="matrix(1, 0, 0, 1, 0.5, 0.5)" stroke-opacity="0" stroke-linejoin="bevel" stroke-miterlimit="10">200</text><text fill="rgb(0,0,0)" stroke="none" font-family="serif" font-size="10pt" font-style="normal" font-weight="normal" text-decoration="normal" x="406.1382694244385" y="374" text-anchor="start" dominant-baseline="alphabetic" transform="matrix(1, 0, 0, 1, 0.5, 0.5)" fill-opacity="1">300</text><text fill="none" stroke="rgb(0,0,0)" font-family="serif" font-size="10pt" font-style="normal" font-weight="normal" text-decoration="normal" x="406.1382694244385" y="374" text-anchor="start" dominant-baseline="alphabetic" transform="matrix(1, 0, 0, 1, 0.5, 0.5)" stroke-opacity="0" stroke-linejoin="bevel" stroke-miterlimit="10">300</text><text fill="rgb(0,0,0)" stroke="none" font-family="serif" font-size="10pt" font-style="normal" font-weight="normal" text-decoration="normal" x="512.8972415924072" y="374" text-anchor="start" dominant-baseline="alphabetic" transform="matrix(1, 0, 0, 1, 0.5, 0.5)" fill-opacity="1">400</text><text fill="none" stroke="rgb(0,0,0)" font-family="serif" font-size="10pt" font-style="normal" font-weight="normal" text-decoration="normal" x="512.8972415924072" y="374" text-anchor="start" dominant-baseline="alphabetic" transform="matrix(1, 0, 0, 1, 0.5, 0.5)" stroke-opacity="0" stroke-linejoin="bevel" stroke-miterlimit="10">400</text><text fill="rgb(0,0,0)" stroke="none" font-family="serif" font-size="10pt" font-style="normal" font-weight="normal" text-decoration="normal" x="619.656213760376" y="374" text-anchor="start" dominant-baseline="alphabetic" transform="matrix(1, 0, 0, 1, 0.5, 0.5)" fill-opacity="1">500</text><text fill="none" stroke="rgb(0,0,0)" font-family="serif" font-size="10pt" font-style="normal" font-weight="normal" text-decoration="normal" x="619.656213760376" y="374" text-anchor="start" dominant-baseline="alphabetic" transform="matrix(1, 0, 0, 1, 0.5, 0.5)" stroke-opacity="0" stroke-linejoin="bevel" stroke-miterlimit="10">500</text><text fill="rgb(0,0,0)" stroke="none" font-family="serif" font-size="12pt" font-style="italic" font-weight="normal" text-decoration="normal" x="339.5833339691162" y="397" text-anchor="start" dominant-baseline="alphabetic" transform="matrix(1, 0, 0, 1, 0.5, 0.5)" fill-opacity="1">Epoch</text><text fill="none" stroke="rgb(0,0,0)" font-family="serif" font-size="12pt" font-style="italic" font-weight="normal" text-decoration="normal" x="339.5833339691162" y="397" text-anchor="start" dominant-baseline="alphabetic" transform="matrix(1, 0, 0, 1, 0.5, 0.5)" stroke-opacity="0" stroke-linejoin="bevel" stroke-miterlimit="10">Epoch</text><path fill="none" stroke="rgb(0,0,0)" paint-order="fill" d="M 72.5 353.5 L 72.5 29.5" stroke-opacity="1" stroke-linejoin="bevel" stroke-miterlimit="10"/><path fill="none" stroke="rgb(0,0,0)" paint-order="fill" d="M 66.5 317.5 L 74.5 317.5 M 66.5 259.5 L 74.5 259.5 M 66.5 202.5 L 74.5 202.5 M 66.5 145.5 L 74.5 145.5 M 66.5 88.5 L 74.5 88.5 M 66.5 31.5 L 74.5 31.5" stroke-opacity="1" stroke-linejoin="bevel" stroke-miterlimit="10"/><path fill="none" stroke="rgb(0,0,0)" paint-order="fill" d="M 68.5 346.5 L 72.5 346.5 M 68.5 339.5 L 72.5 339.5 M 68.5 334.5 L 72.5 334.5 M 68.5 329.5 L 72.5 329.5 M 68.5 325.5 L 72.5 325.5 M 68.5 322.5 L 72.5 322.5 M 68.5 319.5 L 72.5 319.5 M 68.5 317.5 L 72.5 317.5 M 68.5 317.5 L 72.5 317.5 M 68.5 299.5 L 72.5 299.5 M 68.5 289.5 L 72.5 289.5 M 68.5 282.5 L 72.5 282.5 M 68.5 277.5 L 72.5 277.5 M 68.5 272.5 L 72.5 272.5 M 68.5 268.5 L 72.5 268.5 M 68.5 265.5 L 72.5 265.5 M 68.5 262.5 L 72.5 262.5 M 68.5 259.5 L 72.5 259.5 M 68.5 259.5 L 72.5 259.5 M 68.5 242.5 L 72.5 242.5 M 68.5 232.5 L 72.5 232.5 M 68.5 225.5 L 72.5 225.5 M 68.5 219.5 L 72.5 219.5 M 68.5 215.5 L 72.5 215.5 M 68.5 211.5 L 72.5 211.5 M 68.5 208.5 L 72.5 208.5 M 68.5 205.5 L 72.5 205.5 M 68.5 202.5 L 72.5 202.5 M 68.5 202.5 L 72.5 202.5 M 68.5 185.5 L 72.5 185.5 M 68.5 175.5 L 72.5 175.5 M 68.5 168.5 L 72.5 168.5 M 68.5 162.5 L 72.5 162.5 M 68.5 158.5 L 72.5 158.5 M 68.5 154.5 L 72.5 154.5 M 68.5 151.5 L 72.5 151.5 M 68.5 148.5 L 72.5 148.5 M 68.5 145.5 L 72.5 145.5 M 68.5 145.5 L 72.5 145.5 M 68.5 128.5 L 72.5 128.5 M 68.5 118.5 L 72.5 118.5 M 68.5 111.5 L 72.5 111.5 M 68.5 105.5 L 72.5 105.5 M 68.5 101.5 L 72.5 101.5 M 68.5 97.5 L 72.5 97.5 M 68.5 93.5 L 72.5 93.5 M 68.5 90.5 L 72.5 90.5 M 68.5 88.5 L 72.5 88.5 M 68.5 88.5 L 72.5 88.5 M 68.5 71.5 L 72.5 71.5 M 68.5 61.5 L 72.5 61.5 M 68.5 53.5 L 72.5 53.5 M 68.5 48.5 L 72.5 48.5 M 68.5 43.5 L 72.5 43.5 M 68.5 40.5 L 72.5 40.5 M 68.5 36.5 L 72.5 36.5 M 68.5 33.5 L 72.5 33.5 M 68.5 31.5 L 72.5 31.5 M 68.5 31.5 L 72.5 31.5" stroke-opacity="1" stroke-linejoin="bevel" stroke-miterlimit="10"/><text fill="rgb(0,0,0)" stroke="none" font-family="serif" font-size="10pt" font-style="normal" font-weight="normal" text-decoration="normal" x="0" y="14" text-anchor="start" dominant-baseline="alphabetic" transform="matrix(1, 0, 0, 1, 30.633334159851074, 310.0231018066406)" fill-opacity="1">10</text><text fill="none" stroke="rgb(0,0,0)" font-family="serif" font-size="10pt" font-style="normal" font-weight="normal" text-decoration="normal" x="0" y="14" text-anchor="start" dominant-baseline="alphabetic" transform="matrix(1, 0, 0, 1, 30.633334159851074, 310.0231018066406)" stroke-opacity="0" stroke-linejoin="bevel" stroke-miterlimit="10">10</text><text fill="rgb(0,0,0)" stroke="none" font-family="serif" font-size="7pt" font-style="normal" font-weight="normal" text-decoration="normal" x="17.03333282470703" y="7" text-anchor="start" dominant-baseline="alphabetic" transform="matrix(1, 0, 0, 1, 30.633334159851074, 310.0231018066406)" fill-opacity="1">3</text><text fill="none" stroke="rgb(0,0,0)" font-family="serif" font-size="7pt" font-style="normal" font-weight="normal" text-decoration="normal" x="17.03333282470703" y="7" text-anchor="start" dominant-baseline="alphabetic" transform="matrix(1, 0, 0, 1, 30.633334159851074, 310.0231018066406)" stroke-opacity="0" stroke-linejoin="bevel" stroke-miterlimit="10">3</text><text fill="rgb(0,0,0)" stroke="none" font-family="serif" font-size="10pt" font-style="normal" font-weight="normal" text-decoration="normal" x="0" y="14" text-anchor="start" dominant-baseline="alphabetic" transform="matrix(1, 0, 0, 1, 30.633334159851074, 252.85311889648438)" fill-opacity="1">10</text><text fill="none" stroke="rgb(0,0,0)" font-family="serif" font-size="10pt" font-style="normal" font-weight="normal" text-decoration="normal" x="0" y="14" text-anchor="start" dominant-baseline="alphabetic" transform="matrix(1, 0, 0, 1, 30.633334159851074, 252.85311889648438)" stroke-opacity="0" stroke-linejoin="bevel" stroke-miterlimit="10">10</text><text fill="rgb(0,0,0)" stroke="none" font-family="serif" font-size="7pt" font-style="normal" font-weight="normal" text-decoration="normal" x="17.03333282470703" y="7" text-anchor="start" dominant-baseline="alphabetic" transform="matrix(1, 0, 0, 1, 30.633334159851074, 252.85311889648438)" fill-opacity="1">2</text><text fill="none" stroke="rgb(0,0,0)" font-family="serif" font-size="7pt" font-style="normal" font-weight="normal" text-decoration="normal" x="17.03333282470703" y="7" text-anchor="start" dominant-baseline="alphabetic" transform="matrix(1, 0, 0, 1, 30.633334159851074, 252.85311889648438)" stroke-opacity="0" stroke-linejoin="bevel" stroke-miterlimit="10">2</text><text fill="rgb(0,0,0)" stroke="none" font-family="serif" font-size="10pt" font-style="normal" font-weight="normal" text-decoration="normal" x="0" y="14" text-anchor="start" dominant-baseline="alphabetic" transform="matrix(1, 0, 0, 1, 30.633334159851074, 195.68313598632812)" fill-opacity="1">10</text><text fill="none" stroke="rgb(0,0,0)" font-family="serif" font-size="10pt" font-style="normal" font-weight="normal" text-decoration="normal" x="0" y="14" text-anchor="start" dominant-baseline="alphabetic" transform="matrix(1, 0, 0, 1, 30.633334159851074, 195.68313598632812)" stroke-opacity="0" stroke-linejoin="bevel" stroke-miterlimit="10">10</text><text fill="rgb(0,0,0)" stroke="none" font-family="serif" font-size="7pt" font-style="normal" font-weight="normal" text-decoration="normal" x="17.03333282470703" y="7" text-anchor="start" dominant-baseline="alphabetic" transform="matrix(1, 0, 0, 1, 30.633334159851074, 195.68313598632812)" fill-opacity="1">1</text><text fill="none" stroke="rgb(0,0,0)" font-family="serif" font-size="7pt" font-style="normal" font-weight="normal" text-decoration="normal" x="17.03333282470703" y="7" text-anchor="start" dominant-baseline="alphabetic" transform="matrix(1, 0, 0, 1, 30.633334159851074, 195.68313598632812)" stroke-opacity="0" stroke-linejoin="bevel" stroke-miterlimit="10">1</text><text fill="rgb(0,0,0)" stroke="none" font-family="serif" font-size="10pt" font-style="normal" font-weight="normal" text-decoration="normal" x="0" y="14" text-anchor="start" dominant-baseline="alphabetic" transform="matrix(1, 0, 0, 1, 38.50000047683716, 138.51315307617188)" fill-opacity="1">10</text><text fill="none" stroke="rgb(0,0,0)" font-family="serif" font-size="10pt" font-style="normal" font-weight="normal" text-decoration="normal" x="0" y="14" text-anchor="start" dominant-baseline="alphabetic" transform="matrix(1, 0, 0, 1, 38.50000047683716, 138.51315307617188)" stroke-opacity="0" stroke-linejoin="bevel" stroke-miterlimit="10">10</text><text fill="rgb(0,0,0)" stroke="none" font-family="serif" font-size="7pt" font-style="normal" font-weight="normal" text-decoration="normal" x="17.03333282470703" y="7" text-anchor="start" dominant-baseline="alphabetic" transform="matrix(1, 0, 0, 1, 38.50000047683716, 138.51315307617188)" fill-opacity="1">0</text><text fill="none" stroke="rgb(0,0,0)" font-family="serif" font-size="7pt" font-style="normal" font-weight="normal" text-decoration="normal" x="17.03333282470703" y="7" text-anchor="start" dominant-baseline="alphabetic" transform="matrix(1, 0, 0, 1, 38.50000047683716, 138.51315307617188)" stroke-opacity="0" stroke-linejoin="bevel" stroke-miterlimit="10">0</text><text fill="rgb(0,0,0)" stroke="none" font-family="serif" font-size="10pt" font-style="normal" font-weight="normal" text-decoration="normal" x="0" y="14" text-anchor="start" dominant-baseline="alphabetic" transform="matrix(1, 0, 0, 1, 38.50000047683716, 81.34317779541016)" fill-opacity="1">10</text><text fill="none" stroke="rgb(0,0,0)" font-family="serif" font-size="10pt" font-style="normal" font-weight="normal" text-decoration="normal" x="0" y="14" text-anchor="start" dominant-baseline="alphabetic" transform="matrix(1, 0, 0, 1, 38.50000047683716, 81.34317779541016)" stroke-opacity="0" stroke-linejoin="bevel" stroke-miterlimit="10">10</text><text fill="rgb(0,0,0)" stroke="none" font-family="serif" font-size="7pt" font-style="normal" font-weight="normal" text-decoration="normal" x="17.03333282470703" y="7" text-anchor="start" dominant-baseline="alphabetic" transform="matrix(1, 0, 0, 1, 38.50000047683716, 81.34317779541016)" fill-opacity="1">1</text><text fill="none" stroke="rgb(0,0,0)" font-family="serif" font-size="7pt" font-style="normal" font-weight="normal" text-decoration="normal" x="17.03333282470703" y="7" text-anchor="start" dominant-baseline="alphabetic" transform="matrix(1, 0, 0, 1, 38.50000047683716, 81.34317779541016)" stroke-opacity="0" stroke-linejoin="bevel" stroke-miterlimit="10">1</text><text fill="rgb(0,0,0)" stroke="none" font-family="serif" font-size="10pt" font-style="normal" font-weight="normal" text-decoration="normal" x="0" y="14" text-anchor="start" dominant-baseline="alphabetic" transform="matrix(1, 0, 0, 1, 38.50000047683716, 24.173200607299805)" fill-opacity="1">10</text><text fill="none" stroke="rgb(0,0,0)" font-family="serif" font-size="10pt" font-style="normal" font-weight="normal" text-decoration="normal" x="0" y="14" text-anchor="start" dominant-baseline="alphabetic" transform="matrix(1, 0, 0, 1, 38.50000047683716, 24.173200607299805)" stroke-opacity="0" stroke-linejoin="bevel" stroke-miterlimit="10">10</text><text fill="rgb(0,0,0)" stroke="none" font-family="serif" font-size="7pt" font-style="normal" font-weight="normal" text-decoration="normal" x="17.03333282470703" y="7" text-anchor="start" dominant-baseline="alphabetic" transform="matrix(1, 0, 0, 1, 38.50000047683716, 24.173200607299805)" fill-opacity="1">2</text><text fill="none" stroke="rgb(0,0,0)" font-family="serif" font-size="7pt" font-style="normal" font-weight="normal" text-decoration="normal" x="17.03333282470703" y="7" text-anchor="start" dominant-baseline="alphabetic" transform="matrix(1, 0, 0, 1, 38.50000047683716, 24.173200607299805)" stroke-opacity="0" stroke-linejoin="bevel" stroke-miterlimit="10">2</text><text fill="rgb(0,0,0)" stroke="none" font-family="serif" font-size="12pt" font-style="italic" font-weight="normal" text-decoration="normal" x="-22.608330726623535" y="187" text-anchor="start" dominant-baseline="alphabetic" transform="matrix(6.123233995736766e-17, -1, 1, 6.123233995736766e-17, -168.36666584014893, 213.63333415985107)" fill-opacity="1">log10 MSE</text><text fill="none" stroke="rgb(0,0,0)" font-family="serif" font-size="12pt" font-style="italic" font-weight="normal" text-decoration="normal" x="-22.608330726623535" y="187" text-anchor="start" dominant-baseline="alphabetic" transform="matrix(6.123233995736766e-17, -1, 1, 6.123233995736766e-17, -168.36666584014893, 213.63333415985107)" stroke-opacity="0" stroke-linejoin="bevel" stroke-miterlimit="10">log10 MSE</text><path fill="rgb(240,240,240)" stroke="rgb(0,0,0)" paint-order="fill" d="M 82.5 414.5 L 376.5 414.5 L 376.5 454.5 L 82.5 454.5 L 82.5 414.5 Z" fill-opacity="0.8" stroke-opacity="0.8" stroke-linejoin="bevel" stroke-miterlimit="10"/><path fill="none" stroke="rgb(31,119,180)" paint-order="fill" d="M 92.5 434.5 L 112.5 434.5" stroke-opacity="1" stroke-linejoin="bevel" stroke-miterlimit="10" stroke-width="2"/><text fill="rgb(0,0,0)" stroke="none" font-family="serif" font-size="10pt" font-style="normal" font-weight="normal" text-decoration="normal" x="0" y="4.5" text-anchor="start" dominant-baseline="alphabetic" transform="matrix(1, 0, 0, 1, 117.5, 434.5)" fill-opacity="1">f2 only</text><text fill="none" stroke="rgb(0,0,0)" font-family="serif" font-size="10pt" font-style="normal" font-weight="normal" text-decoration="normal" x="0" y="4.5" text-anchor="start" dominant-baseline="alphabetic" transform="matrix(1, 0, 0, 1, 117.5, 434.5)" stroke-opacity="0" stroke-linejoin="bevel" stroke-miterlimit="10">f2 only</text><path fill="none" stroke="rgb(174,199,232)" paint-order="fill" d="M 168.5 434.5 L 188.5 434.5" stroke-opacity="1" stroke-linejoin="bevel" stroke-miterlimit="10" stroke-width="2"/><text fill="rgb(0,0,0)" stroke="none" font-family="serif" font-size="10pt" font-style="normal" font-weight="normal" text-decoration="normal" x="0" y="4.5" text-anchor="start" dominant-baseline="alphabetic" transform="matrix(1, 0, 0, 1, 193.5, 434.5)" fill-opacity="1">f2 and grad</text><text fill="none" stroke="rgb(0,0,0)" font-family="serif" font-size="10pt" font-style="normal" font-weight="normal" text-decoration="normal" x="0" y="4.5" text-anchor="start" dominant-baseline="alphabetic" transform="matrix(1, 0, 0, 1, 193.5, 434.5)" stroke-opacity="0" stroke-linejoin="bevel" stroke-miterlimit="10">f2 and grad</text><path fill="none" stroke="rgb(255,127,14)" paint-order="fill" d="M 277.5 434.5 L 297.5 434.5" stroke-opacity="1" stroke-linejoin="bevel" stroke-miterlimit="10" stroke-width="2"/><text fill="rgb(0,0,0)" stroke="none" font-family="serif" font-size="10pt" font-style="normal" font-weight="normal" text-decoration="normal" x="0" y="4.5" text-anchor="start" dominant-baseline="alphabetic" transform="matrix(1, 0, 0, 1, 302.5, 434.5)" fill-opacity="1">grad only</text><text fill="none" stroke="rgb(0,0,0)" font-family="serif" font-size="10pt" font-style="normal" font-weight="normal" text-decoration="normal" x="0" y="4.5" text-anchor="start" dominant-baseline="alphabetic" transform="matrix(1, 0, 0, 1, 302.5, 434.5)" stroke-opacity="0" stroke-linejoin="bevel" stroke-miterlimit="10">grad only</text><text fill="rgb(68,68,68)" stroke="none" font-family="serif" font-size="13px" font-style="normal" font-weight="bold" text-decoration="normal" x="0" y="13" text-anchor="start" dominant-baseline="alphabetic" transform="matrix(1, 0, 0, 1, 72.5, 7.5)" fill-opacity="1">Model Loss History</text><text fill="none" stroke="rgb(0,0,0)" font-family="serif" font-size="13px" font-style="normal" font-weight="bold" text-decoration="normal" x="0" y="13" text-anchor="start" dominant-baseline="alphabetic" transform="matrix(1, 0, 0, 1, 72.5, 7.5)" stroke-opacity="0" stroke-miterlimit="10" stroke-dasharray="">Model Loss History</text></svg>