<svg version="1.1" xmlns="http://www.w3.org/2000/svg" width="663" height="464"><defs><clipPath id="NQtttNgeGzrh"><path fill="none" stroke="none" d="M 0.5 0.5 L 663.5 0.5 L 663.5 464.5 L 0.5 464.5 L 0.5 0.5 Z M 72.5 29.5 L 658.5 29.5 L 658.5 353.5 L 72.5 353.5 L 72.5 29.5 Z" clip-rule="evenodd"/></clipPath><clipPath id="MuhJErTwyVlg"><path fill="none" stroke="none" d="M 72.5 29.5 L 658.5 29.5 L 658.5 353.5 L 72.5 353.5 L 72.5 29.5 Z"/></clipPath><clipPath id="fknlUUtzhLpR"><path fill="none" stroke="none" d="M 72.5 29.5 L 658.5 29.5 L 658.5 353.5 L 72.5 353.5 L 72.5 29.5 Z"/></clipPath><clipPath id="ssOGBVrMnZTo"><path fill="none" stroke="none" d="M 72.5 29.5 L 658.5 29.5 L 658.5 353.5 L 72.5 353.5 L 72.5 29.5 Z"/></clipPath><clipPath id="zaiRGCkTCuHU"><path fill="none" stroke="none" d="M 72.5 29.5 L 658.5 29.5 L 658.5 353.5 L 72.5 353.5 L 72.5 29.5 Z"/></clipPath><clipPath id="ADgHnJiGxlMb"><path fill="none" stroke="none" d="M 72.5 29.5 L 658.5 29.5 L 658.5 353.5 L 72.5 353.5 L 72.5 29.5 Z"/></clipPath><clipPath id="OROpOvFTiZZC"><path fill="none" stroke="none" d="M 72.5 29.5 L 658.5 29.5 L 658.5 353.5 L 72.5 353.5 L 72.5 29.5 Z"/></clipPath></defs><path fill="rgb(0,0,0)" stroke="none" paint-order="stroke" d="M 0 0 L 663 0 L 663 464 L 0 464 L 0 0 Z" fill-opacity="0"/><path fill="rgb(255,255,255)" stroke="none" paint-order="stroke" d="M 0.5 0.5 L 663.5 0.5 L 663.5 464.5 L 0.5 464.5 L 0.5 0.5 Z" fill-opacity="1" clip-path="url(#NQtttNgeGzrh)"/><path fill="rgb(250,250,250)" stroke="none" paint-order="stroke" d="M 72.5 29.5 L 658.5 29.5 L 658.5 353.5 L 72.5 353.5 L 72.5 29.5 Z" fill-opacity="1"/><path fill="none" stroke="rgb(224,224,224)" paint-order="fill" d="M 99.5 353.5 L 99.5 29.5 M 205.5 353.5 L 205.5 29.5 M 312.5 353.5 L 312.5 29.5 M 419.5 353.5 L 419.5 29.5 M 526.5 353.5 L 526.5 29.5 M 632.5 353.5 L 632.5 29.5" stroke-opacity="1" stroke-linejoin="bevel" stroke-miterlimit="10" stroke-dasharray="6,4" clip-path="url(#MuhJErTwyVlg)"/><path fill="none" stroke="rgb(224,224,224)" paint-order="fill" d="M 72.5 304.5 L 658.5 304.5 M 72.5 252.5 L 658.5 252.5 M 72.5 199.5 L 658.5 199.5 M 72.5 147.5 L 658.5 147.5 M 72.5 94.5 L 658.5 94.5 M 72.5 41.5 L 658.5 41.5" stroke-opacity="1" stroke-linejoin="bevel" stroke-miterlimit="10" stroke-dasharray="6,4" clip-path="url(#fknlUUtzhLpR)"/><path fill="none" stroke="rgb(31,119,180)" paint-order="fill" d="M 99.13636016845703 44.227272033691406 L 100.2039566040039 61.84440994262695 L 101.27154541015625 65.39950561523438 L 102.3391342163086 68.10332489013672 L 103.40672302246094 69.4033432006836 L 104.47431182861328 70.88226318359375 L 105.54190063476562 73.15320587158203 L 106.60948944091797 76.06875610351562 L 107.67707824707031 79.63291931152344 L 108.74467468261719 82.86392974853516 L 109.81226348876953 86.99103546142578 L 110.87985229492188 89.7857437133789 L 111.94744110107422 92.3877944946289 L 113.01502990722656 94.2806396484375 L 114.0826187133789 95.52708435058594 L 115.15020751953125 97.43801879882812 L 116.2177963256836 98.76831817626953 L 117.28539276123047 99.70514678955078 L 118.35298156738281 100.08137512207031 L 119.42057037353516 100.84516906738281 L 120.4881591796875 101.14878845214844 L 121.55574798583984 100.38661193847656 L 122.62333679199219 103.71986389160156 L 123.69092559814453 103.55811309814453 L 124.75851440429688 102.64581298828125 L 125.82610321044922 104.61483764648438 L 126.8936996459961 107.63224792480469 L 127.96128845214844 107.4790267944336 L 129.02886962890625 109.85050964355469 L 130.09646606445312 112.0063705444336 L 131.1640625 115.40135192871094 L 132.2316436767578 117.86469268798828 L 133.2992401123047 120.7958755493164 L 134.3668212890625 123.92395782470703 L 135.43441772460938 126.86581420898438 L 136.5019989013672 131.2476348876953 L 137.56959533691406 131.8973388671875 L 138.63717651367188 137.6271514892578 L 139.70477294921875 139.50526428222656 L 140.77236938476562 144.26373291015625 L 141.83995056152344 148.5137176513672 L 142.9075469970703 153.0137939453125 L 143.97512817382812 153.13027954101562 L 145.042724609375 159.96986389160156 L 146.1103057861328 163.75755310058594 L 147.1779022216797 168.56906127929688 L 148.2454833984375 172.0328369140625 L 149.31307983398438 172.93093872070312 L 150.38067626953125 175.5128631591797 L 151.44825744628906 177.48704528808594 L 152.51585388183594 181.79437255859375 L 153.58343505859375 176.88433837890625 L 154.65103149414062 180.45945739746094 L 155.71861267089844 185.09080505371094 L 156.7862091064453 184.6868438720703 L 157.8538055419922 186.7097930908203 L 158.92138671875 187.2249755859375 L 159.98898315429688 187.84625244140625 L 161.0565643310547 187.7997589111328 L 162.12416076660156 186.5524139404297 L 163.19174194335938 185.68824768066406 L 164.25933837890625 188.2450408935547 L 165.32691955566406 186.32740783691406 L 166.39451599121094 187.51611328125 L 167.4621124267578 188.74122619628906 L 168.52969360351562 192.3420867919922 L 169.5972900390625 192.34991455078125 L 170.6648712158203 190.09262084960938 L 171.7324676513672 184.6886749267578 L 172.800048828125 188.89727783203125 L 173.86764526367188 188.372802734375 L 174.93524169921875 184.3289031982422 L 176.00282287597656 192.3721160888672 L 177.07041931152344 193.45884704589844 L 178.13800048828125 189.72792053222656 L 179.20559692382812 193.69747924804688 L 180.27317810058594 188.0320587158203 L 181.3407745361328 189.77488708496094 L 182.40835571289062 190.7030792236328 L 183.4759521484375 192.58766174316406 L 184.54354858398438 196.01437377929688 L 185.6111297607422 195.496826171875 L 186.67872619628906 196.20986938476562 L 187.74630737304688 193.1972198486328 L 188.81390380859375 195.8616180419922 L 189.88148498535156 197.20144653320312 L 190.94908142089844 193.71400451660156 L 192.01666259765625 197.76251220703125 L 193.08425903320312 198.969970703125 L 194.15185546875 200.4990692138672 L 195.2194366455078 197.8006134033203 L 196.2870330810547 198.96035766601562 L 197.3546142578125 198.11221313476562 L 198.42221069335938 196.93896484375 L 199.4897918701172 177.28717041015625 L 200.55738830566406 178.3216094970703 L 201.62498474121094 192.7423095703125 L 202.69256591796875 193.39175415039062 L 203.76016235351562 199.53085327148438 L 204.82774353027344 198.65777587890625 L 205.8953399658203 191.93505859375 L 206.96292114257812 196.55128479003906 L 208.030517578125 199.1563720703125 L 209.0980987548828 200.93545532226562 L 210.1656951904297 194.0750274658203 L 211.23329162597656 201.5050048828125 L 212.30087280273438 200.48248291015625 L 213.36846923828125 194.70909118652344 L 214.43605041503906 201.23281860351562 L 215.50364685058594 200.8365478515625 L 216.57122802734375 194.56932067871094 L 217.63882446289062 196.0157012939453 L 218.70640563964844 199.60531616210938 L 219.7740020751953 203.1965789794922 L 220.8415985107422 202.79425048828125 L 221.9091796875 205.4757080078125 L 222.97677612304688 204.4464874267578 L 224.0443572998047 204.24749755859375 L 225.11195373535156 201.00160217285156 L 226.17953491210938 204.08628845214844 L 227.24713134765625 203.63595581054688 L 228.31472778320312 204.0752716064453 L 229.38230895996094 205.09849548339844 L 230.4499053955078 198.31324768066406 L 231.51748657226562 191.82589721679688 L 232.5850830078125 203.0517578125 L 233.6526641845703 202.49771118164062 L 234.7202606201172 186.935546875 L 235.787841796875 194.8280487060547 L 236.85543823242188 196.5096893310547 L 237.92303466796875 202.11868286132812 L 238.99061584472656 205.2395477294922 L 240.05821228027344 205.12747192382812 L 241.12579345703125 203.57998657226562 L 242.19338989257812 191.486328125 L 243.26097106933594 193.16477966308594 L 244.3285675048828 205.82928466796875 L 245.39614868164062 203.95689392089844 L 246.4637451171875 195.04595947265625 L 247.53134155273438 195.6322784423828 L 248.5989227294922 203.7793426513672 L 249.66651916503906 197.77471923828125 L 250.73410034179688 194.1963348388672 L 251.80169677734375 201.84304809570312 L 252.86927795410156 209.883544921875 L 253.93687438964844 206.5255584716797 L 255.0044708251953 193.20291137695312 L 256.0720520019531 197.009521484375 L 257.1396484375 203.14414978027344 L 258.2072448730469 201.47018432617188 L 259.2748107910156 204.75558471679688 L 260.3424072265625 205.08348083496094 L 261.4100036621094 203.6412353515625 L 262.47760009765625 197.2089385986328 L 263.545166015625 198.8138885498047 L 264.6127624511719 203.83555603027344 L 265.68035888671875 209.80020141601562 L 266.7479553222656 209.62277221679688 L 267.8155517578125 205.11770629882812 L 268.88311767578125 204.19285583496094 L 269.9507141113281 207.3258514404297 L 271.018310546875 209.44801330566406 L 272.0859069824219 210.43077087402344 L 273.15350341796875 204.09844970703125 L 274.2210693359375 196.80384826660156 L 275.2886657714844 192.260498046875 L 276.35626220703125 204.90785217285156 L 277.4238586425781 208.29611206054688 L 278.4914245605469 201.877685546875 L 279.55902099609375 202.7957763671875 L 280.6266174316406 194.76943969726562 L 281.6942138671875 196.14483642578125 L 282.7618103027344 206.09365844726562 L 283.8293762207031 202.619140625 L 284.89697265625 207.00802612304688 L 285.9645690917969 211.5789031982422 L 287.03216552734375 204.67495727539062 L 288.0997314453125 205.18914794921875 L 289.1673278808594 213.2147674560547 L 290.23492431640625 210.15127563476562 L 291.3025207519531 211.3995819091797 L 292.3701171875 212.44180297851562 L 293.43768310546875 203.2115936279297 L 294.5052795410156 181.4302215576172 L 295.5728759765625 150.61581420898438 L 296.6404724121094 159.6073760986328 L 297.7080383300781 171.62298583984375 L 298.775634765625 173.8402557373047 L 299.8432312011719 184.69483947753906 L 300.91082763671875 191.0156707763672 L 301.9784240722656 208.75331115722656 L 303.0459899902344 212.47265625 L 304.11358642578125 208.52166748046875 L 305.1811828613281 203.89356994628906 L 306.248779296875 205.55471801757812 L 307.31634521484375 211.95083618164062 L 308.3839416503906 213.9623260498047 L 309.4515380859375 213.98687744140625 L 310.5191345214844 218.6123504638672 L 311.58673095703125 207.16433715820312 L 312.654296875 199.1471710205078 L 313.7218933105469 199.42469787597656 L 314.78948974609375 206.83050537109375 L 315.8570861816406 215.82284545898438 L 316.9246826171875 218.48037719726562 L 317.99224853515625 217.52023315429688 L 319.0598449707031 215.58724975585938 L 320.12744140625 207.73838806152344 L 321.1950378417969 216.8271484375 L 322.2626037597656 215.19586181640625 L 323.3302001953125 212.66412353515625 L 324.3977966308594 203.61068725585938 L 325.46539306640625 198.6439208984375 L 326.5329895019531 212.62887573242188 L 327.6005554199219 205.94744873046875 L 328.66815185546875 218.19618225097656 L 329.7357482910156 212.19683837890625 L 330.8033447265625 213.15248107910156 L 331.87091064453125 214.36253356933594 L 332.9385070800781 204.10340881347656 L 334.006103515625 205.3116455078125 L 335.0736999511719 203.1136016845703 L 336.14129638671875 217.85000610351562 L 337.2088623046875 214.62840270996094 L 338.2764587402344 213.4580078125 L 339.34405517578125 218.33413696289062 L 340.4116516113281 209.4441375732422 L 341.4792175292969 213.54490661621094 L 342.54681396484375 218.59732055664062 L 343.6144104003906 213.89453125 L 344.6820068359375 202.48336791992188 L 345.7496032714844 195.55197143554688 L 346.8171691894531 211.73841857910156 L 347.884765625 215.77365112304688 L 348.9523620605469 216.21205139160156 L 350.01995849609375 217.1506805419922 L 351.0875244140625 215.1663360595703 L 352.1551208496094 223.27972412109375 L 353.22271728515625 216.3272705078125 L 354.2903137207031 218.96986389160156 L 355.35791015625 192.16781616210938 L 356.42547607421875 182.78750610351562 L 357.4930725097656 184.81637573242188 L 358.5606689453125 201.8709259033203 L 359.6282653808594 187.04229736328125 L 360.6958312988281 203.00343322753906 L 361.763427734375 213.27932739257812 L 362.8310241699219 220.96347045898438 L 363.89862060546875 212.7763671875 L 364.9662170410156 221.60939025878906 L 366.0337829589844 217.96923828125 L 367.10137939453125 223.86788940429688 L 368.1689758300781 223.44789123535156 L 369.236572265625 220.7866668701172 L 370.3041687011719 229.69760131835938 L 371.3717346191406 229.35089111328125 L 372.4393310546875 223.29017639160156 L 373.5069274902344 227.08700561523438 L 374.57452392578125 225.51890563964844 L 375.64208984375 222.85064697265625 L 376.7096862792969 221.05955505371094 L 377.77728271484375 221.39276123046875 L 378.8448791503906 212.96897888183594 L 379.9124755859375 208.32179260253906 L 380.98004150390625 213.0867156982422 L 382.0476379394531 214.54689025878906 L 383.115234375 207.41665649414062 L 384.1828308105469 218.6763458251953 L 385.2503967285156 219.93017578125 L 386.3179931640625 226.04806518554688 L 387.3855895996094 219.32962036132812 L 388.45318603515625 204.44161987304688 L 389.5207824707031 200.0738983154297 L 390.5883483886719 221.27395629882812 L 391.65594482421875 224.4990997314453 L 392.7235412597656 227.9986572265625 L 393.7911376953125 227.3732147216797 L 394.85870361328125 215.6800079345703 L 395.9263000488281 212.1216278076172 L 396.993896484375 219.41038513183594 L 398.0614929199219 225.39114379882812 L 399.12908935546875 220.71412658691406 L 400.1966552734375 229.25424194335938 L 401.2642517089844 213.39727783203125 L 402.33184814453125 217.2222137451172 L 403.3994445800781 229.4380645751953 L 404.4670104980469 232.42300415039062 L 405.53460693359375 230.22718811035156 L 406.6022033691406 231.26904296875 L 407.6697998046875 220.66038513183594 L 408.7373962402344 232.25962829589844 L 409.8049621582031 227.68588256835938 L 410.87255859375 224.9952850341797 L 411.9401550292969 218.1713104248047 L 413.00775146484375 221.24014282226562 L 414.0753173828125 229.91342163085938 L 415.1429138183594 222.11001586914062 L 416.21051025390625 224.73101806640625 L 417.2781066894531 222.29794311523438 L 418.345703125 223.0028076171875 L 419.41326904296875 221.41175842285156 L 420.4808654785156 203.57595825195312 L 421.5484619140625 205.8502655029297 L 422.6160583496094 209.5262451171875 L 423.68365478515625 224.6529083251953 L 424.751220703125 221.3220672607422 L 425.8188171386719 204.50794982910156 L 426.88641357421875 212.5243377685547 L 427.9540100097656 222.00750732421875 L 429.0215759277344 232.8209228515625 L 430.08917236328125 238.0465545654297 L 431.1567687988281 227.87319946289062 L 432.224365234375 195.89283752441406 L 433.2919616699219 182.6405029296875 L 434.3595275878906 182.80169677734375 L 435.4271240234375 159.7018585205078 L 436.4947204589844 171.43389892578125 L 437.56231689453125 176.63568115234375 L 438.6298828125 184.23611450195312 L 439.6974792480469 201.17913818359375 L 440.76507568359375 218.84173583984375 L 441.8326721191406 209.9207000732422 L 442.9002685546875 208.06285095214844 L 443.96783447265625 217.0535125732422 L 445.0354309082031 235.17030334472656 L 446.10302734375 228.98284912109375 L 447.1706237792969 227.57957458496094 L 448.2381896972656 233.4823760986328 L 449.3057861328125 229.09445190429688 L 450.3733825683594 223.53387451171875 L 451.44097900390625 229.95877075195312 L 452.5085754394531 219.13784790039062 L 453.5761413574219 230.2139129638672 L 454.64373779296875 221.33306884765625 L 455.7113342285156 227.88381958007812 L 456.7789306640625 239.4856719970703 L 457.84649658203125 227.30116271972656 L 458.9140930175781 235.57205200195312 L 459.981689453125 233.7597198486328 L 461.0492858886719 236.0386505126953 L 462.11688232421875 235.83392333984375 L 463.1844482421875 228.2051544189453 L 464.2520446777344 229.0089111328125 L 465.31964111328125 234.46397399902344 L 466.3872375488281 229.00648498535156 L 467.454833984375 224.52841186523438 L 468.52239990234375 218.75416564941406 L 469.5899963378906 224.6037139892578 L 470.6575927734375 241.0050048828125 L 471.7251892089844 233.75962829589844 L 472.7927551269531 220.1421661376953 L 473.8603515625 200.35891723632812 L 474.9279479980469 201.5818328857422 L 475.99554443359375 189.63951110839844 L 477.0631408691406 178.85739135742188 L 478.1307067871094 205.7830810546875 L 479.19830322265625 214.14544677734375 L 480.2658996582031 223.51052856445312 L 481.33349609375 200.2197265625 L 482.40106201171875 209.30450439453125 L 483.4686584472656 217.16348266601562 L 484.5362548828125 220.7046661376953 L 485.6038513183594 223.60565185546875 L 486.67144775390625 227.97789001464844 L 487.739013671875 232.75912475585938 L 488.8066101074219 232.2989501953125 L 489.87420654296875 225.02320861816406 L 490.9418029785156 202.4931182861328 L 492.0093688964844 197.41505432128906 L 493.07696533203125 221.7967987060547 L 494.1445617675781 226.4350128173828 L 495.212158203125 242.68682861328125 L 496.2797546386719 231.17269897460938 L 497.3473205566406 229.65997314453125 L 498.4149169921875 222.38685607910156 L 499.4825134277344 231.15255737304688 L 500.55010986328125 235.83689880371094 L 501.61767578125 237.1978759765625 L 502.6852722167969 245.34457397460938 L 503.75286865234375 240.55894470214844 L 504.8204650878906 228.5788116455078 L 505.8880615234375 231.17237854003906 L 506.95562744140625 251.57908630371094 L 508.0232238769531 236.248291015625 L 509.0908203125 227.63229370117188 L 510.1584167480469 244.53076171875 L 511.2259826660156 232.71826171875 L 512.2935791015625 237.1292724609375 L 513.3612060546875 225.2057342529297 L 514.4287719726562 232.9278564453125 L 515.496337890625 236.7719268798828 L 516.56396484375 241.42495727539062 L 517.6315307617188 236.5939483642578 L 518.6990966796875 222.372802734375 L 519.7667236328125 241.4035186767578 L 520.8342895507812 232.5952911376953 L 521.9019165039062 244.28707885742188 L 522.969482421875 239.82199096679688 L 524.0370483398438 230.87716674804688 L 525.1046752929688 224.4523468017578 L 526.1722412109375 231.85317993164062 L 527.2398681640625 228.73170471191406 L 528.3074340820312 240.6893768310547 L 529.375 224.79623413085938 L 530.442626953125 217.57147216796875 L 531.5101928710938 226.84568786621094 L 532.5778198242188 227.54684448242188 L 533.6453857421875 223.90087890625 L 534.7129516601562 230.1220245361328 L 535.7805786132812 215.7301025390625 L 536.84814453125 232.44227600097656 L 537.9157104492188 254.21173095703125 L 538.9833374023438 247.48081970214844 L 540.0509033203125 232.85386657714844 L 541.1185302734375 239.07479858398438 L 542.1860961914062 230.02053833007812 L 543.253662109375 239.23849487304688 L 544.3212890625 240.5797882080078 L 545.3888549804688 254.1815643310547 L 546.4564819335938 251.400146484375 L 547.5240478515625 248.8253936767578 L 548.5916137695312 245.84326171875 L 549.6592407226562 243.81048583984375 L 550.726806640625 233.766845703125 L 551.79443359375 247.16688537597656 L 552.8619995117188 233.5440673828125 L 553.9295654296875 225.43316650390625 L 554.9971923828125 242.89927673339844 L 556.0647583007812 251.48020935058594 L 557.1323852539062 247.72573852539062 L 558.199951171875 240.01791381835938 L 559.2675170898438 241.81008911132812 L 560.3351440429688 246.3806610107422 L 561.4027099609375 233.5930633544922 L 562.4702758789062 234.6754913330078 L 563.5379028320312 241.7626953125 L 564.60546875 246.9199981689453 L 565.673095703125 246.99008178710938 L 566.7406616210938 212.1263427734375 L 567.8082275390625 183.85653686523438 L 568.8758544921875 185.6885223388672 L 569.9434204101562 195.4483642578125 L 571.0110473632812 194.77597045898438 L 572.07861328125 202.3975372314453 L 573.1461791992188 201.06631469726562 L 574.2138061523438 213.26742553710938 L 575.2813720703125 218.04493713378906 L 576.3489990234375 211.1083984375 L 577.4165649414062 191.91387939453125 L 578.484130859375 167.6085205078125 L 579.5517578125 157.46397399902344 L 580.6193237304688 180.32012939453125 L 581.6868896484375 193.0312957763672 L 582.7545166015625 219.6031036376953 L 583.8220825195312 230.90830993652344 L 584.8897094726562 243.23158264160156 L 585.957275390625 253.19129943847656 L 587.0248413085938 228.8354034423828 L 588.0924682617188 240.32366943359375 L 589.1600341796875 234.4398956298828 L 590.2276611328125 237.47744750976562 L 591.2952270507812 239.65475463867188 L 592.36279296875 245.33206176757812 L 593.430419921875 234.41079711914062 L 594.4979858398438 238.84031677246094 L 595.5656127929688 252.48159790039062 L 596.6331787109375 262.0287780761719 L 597.7007446289062 248.36741638183594 L 598.7683715820312 242.9610137939453 L 599.8359375 243.38450622558594 L 600.903564453125 245.3153839111328 L 601.9711303710938 212.32176208496094 L 603.0386962890625 229.8639373779297 L 604.1063232421875 194.60531616210938 L 605.1738891601562 205.8185577392578 L 606.241455078125 213.92343139648438 L 607.30908203125 211.27761840820312 L 608.3766479492188 203.94290161132812 L 609.4442749023438 215.6141815185547 L 610.5118408203125 249.28392028808594 L 611.5794067382812 255.29293823242188 L 612.6470336914062 245.62623596191406 L 613.714599609375 232.9053955078125 L 614.7822265625 233.1768341064453 L 615.8497924804688 248.6978759765625 L 616.9173583984375 246.25889587402344 L 617.9849853515625 253.06292724609375 L 619.0525512695312 246.09620666503906 L 620.1201782226562 247.42747497558594 L 621.187744140625 236.94970703125 L 622.2553100585938 238.02503967285156 L 623.3229370117188 231.24900817871094 L 624.3905029296875 239.22723388671875 L 625.4580688476562 238.2195281982422 L 626.5256958007812 237.4712677001953 L 627.59326171875 236.49525451660156 L 628.660888671875 246.45849609375 L 629.7284545898438 241.67642211914062 L 630.7960205078125 251.0948486328125 L 631.8636474609375 255.51052856445312" stroke-opacity="1" stroke-linejoin="bevel" stroke-miterlimit="10" stroke-width="2" clip-path="url(#ssOGBVrMnZTo)"/><path fill="none" stroke="rgb(174,199,232)" paint-order="fill" d="M 99.13636016845703 56.18562316894531 L 100.2039566040039 64.932861328125 L 101.27154541015625 68.29622650146484 L 102.3391342163086 72.3889389038086 L 103.40672302246094 76.15780639648438 L 104.47431182861328 80.7546157836914 L 105.54190063476562 86.11174774169922 L 106.60948944091797 90.20219421386719 L 107.67707824707031 94.25811767578125 L 108.74467468261719 95.78702545166016 L 109.81226348876953 96.04800415039062 L 110.87985229492188 99.92239379882812 L 111.94744110107422 102.31986999511719 L 113.01502990722656 104.83971405029297 L 114.0826187133789 108.23231506347656 L 115.15020751953125 108.89356994628906 L 116.2177963256836 108.86338806152344 L 117.28539276123047 114.92072296142578 L 118.35298156738281 116.6592788696289 L 119.42057037353516 123.10164642333984 L 120.4881591796875 126.77830505371094 L 121.55574798583984 129.34918212890625 L 122.62333679199219 133.68429565429688 L 123.69092559814453 136.4073028564453 L 124.75851440429688 139.62086486816406 L 125.82610321044922 144.8220977783203 L 126.8936996459961 147.80345153808594 L 127.96128845214844 149.71107482910156 L 129.02886962890625 152.99952697753906 L 130.09646606445312 156.7357177734375 L 131.1640625 158.7563934326172 L 132.2316436767578 160.5003204345703 L 133.2992401123047 162.85877990722656 L 134.3668212890625 165.8521270751953 L 135.43441772460938 167.87948608398438 L 136.5019989013672 169.38607788085938 L 137.56959533691406 172.4541473388672 L 138.63717651367188 173.78594970703125 L 139.70477294921875 173.4521942138672 L 140.77236938476562 175.58909606933594 L 141.83995056152344 176.43968200683594 L 142.9075469970703 181.1768035888672 L 143.97512817382812 177.994873046875 L 145.042724609375 182.2545928955078 L 146.1103057861328 183.59127807617188 L 147.1779022216797 184.87034606933594 L 148.2454833984375 184.9578094482422 L 149.31307983398438 185.53326416015625 L 150.38067626953125 182.6663055419922 L 151.44825744628906 185.2056121826172 L 152.51585388183594 189.37600708007812 L 153.58343505859375 191.3128662109375 L 154.65103149414062 188.29669189453125 L 155.71861267089844 180.46255493164062 L 156.7862091064453 179.94345092773438 L 157.8538055419922 192.30813598632812 L 158.92138671875 193.18673706054688 L 159.98898315429688 194.88905334472656 L 161.0565643310547 196.7195281982422 L 162.12416076660156 197.75277709960938 L 163.19174194335938 197.18516540527344 L 164.25933837890625 197.17576599121094 L 165.32691955566406 197.5732421875 L 166.39451599121094 198.66717529296875 L 167.4621124267578 192.72543334960938 L 168.52969360351562 199.78793334960938 L 169.5972900390625 199.326904296875 L 170.6648712158203 195.84063720703125 L 171.7324676513672 196.97047424316406 L 172.800048828125 197.8621826171875 L 173.86764526367188 198.43479919433594 L 174.93524169921875 195.54161071777344 L 176.00282287597656 198.6349639892578 L 177.07041931152344 194.79969787597656 L 178.13800048828125 202.181640625 L 179.20559692382812 202.4844207763672 L 180.27317810058594 196.99122619628906 L 181.3407745361328 198.12893676757812 L 182.40835571289062 198.08847045898438 L 183.4759521484375 202.30870056152344 L 184.54354858398438 198.67333984375 L 185.6111297607422 198.60562133789062 L 186.67872619628906 202.34828186035156 L 187.74630737304688 200.8637237548828 L 188.81390380859375 193.2943878173828 L 189.88148498535156 191.99124145507812 L 190.94908142089844 198.88197326660156 L 192.01666259765625 203.36317443847656 L 193.08425903320312 200.9774932861328 L 194.15185546875 202.3271026611328 L 195.2194366455078 203.690673828125 L 196.2870330810547 205.0908660888672 L 197.3546142578125 200.8946075439453 L 198.42221069335938 201.06295776367188 L 199.4897918701172 196.49620056152344 L 200.55738830566406 205.48158264160156 L 201.62498474121094 203.4393310546875 L 202.69256591796875 204.5128631591797 L 203.76016235351562 202.36094665527344 L 204.82774353027344 200.72140502929688 L 205.8953399658203 197.45005798339844 L 206.96292114257812 199.23379516601562 L 208.030517578125 195.4979248046875 L 209.0980987548828 187.11070251464844 L 210.1656951904297 195.85716247558594 L 211.23329162597656 191.15956115722656 L 212.30087280273438 192.8638153076172 L 213.36846923828125 189.67056274414062 L 214.43605041503906 187.62562561035156 L 215.50364685058594 204.0237274169922 L 216.57122802734375 204.90428161621094 L 217.63882446289062 203.03732299804688 L 218.70640563964844 201.11424255371094 L 219.7740020751953 207.8184356689453 L 220.8415985107422 208.28536987304688 L 221.9091796875 204.92758178710938 L 222.97677612304688 198.68319702148438 L 224.0443572998047 191.76193237304688 L 225.11195373535156 190.86883544921875 L 226.17953491210938 187.70611572265625 L 227.24713134765625 198.43865966796875 L 228.31472778320312 205.88771057128906 L 229.38230895996094 203.2487030029297 L 230.4499053955078 199.05389404296875 L 231.51748657226562 200.7954559326172 L 232.5850830078125 198.50511169433594 L 233.6526641845703 200.4339141845703 L 234.7202606201172 206.11141967773438 L 235.787841796875 201.57102966308594 L 236.85543823242188 206.46746826171875 L 237.92303466796875 211.66769409179688 L 238.99061584472656 210.08682250976562 L 240.05821228027344 204.0048065185547 L 241.12579345703125 195.597900390625 L 242.19338989257812 209.78114318847656 L 243.26097106933594 208.1038055419922 L 244.3285675048828 212.21681213378906 L 245.39614868164062 204.74513244628906 L 246.4637451171875 207.6161346435547 L 247.53134155273438 199.62176513671875 L 248.5989227294922 200.63275146484375 L 249.66651916503906 206.41552734375 L 250.73410034179688 205.40469360351562 L 251.80169677734375 203.74761962890625 L 252.86927795410156 205.15579223632812 L 253.93687438964844 210.97201538085938 L 255.0044708251953 198.43035888671875 L 256.0720520019531 199.4479217529297 L 257.1396484375 196.9038543701172 L 258.2072448730469 196.2821807861328 L 259.2748107910156 210.19798278808594 L 260.3424072265625 213.37840270996094 L 261.4100036621094 208.79974365234375 L 262.47760009765625 208.90460205078125 L 263.545166015625 207.38424682617188 L 264.6127624511719 211.05528259277344 L 265.68035888671875 203.61407470703125 L 266.7479553222656 200.92926025390625 L 267.8155517578125 202.5462646484375 L 268.88311767578125 193.4795684814453 L 269.9507141113281 204.6956329345703 L 271.018310546875 198.29969787597656 L 272.0859069824219 198.54837036132812 L 273.15350341796875 196.5016326904297 L 274.2210693359375 207.51651000976562 L 275.2886657714844 214.78341674804688 L 276.35626220703125 215.2493896484375 L 277.4238586425781 208.31637573242188 L 278.4914245605469 200.8301239013672 L 279.55902099609375 211.16824340820312 L 280.6266174316406 195.0943603515625 L 281.6942138671875 210.1992645263672 L 282.7618103027344 210.1425018310547 L 283.8293762207031 203.10630798339844 L 284.89697265625 205.1139373779297 L 285.9645690917969 207.7093963623047 L 287.03216552734375 209.29774475097656 L 288.0997314453125 208.01158142089844 L 289.1673278808594 201.70016479492188 L 290.23492431640625 207.12940979003906 L 291.3025207519531 212.18402099609375 L 292.3701171875 209.34104919433594 L 293.43768310546875 212.2676544189453 L 294.5052795410156 214.75418090820312 L 295.5728759765625 194.93162536621094 L 296.6404724121094 200.37130737304688 L 297.7080383300781 212.61392211914062 L 298.775634765625 214.75857543945312 L 299.8432312011719 216.80807495117188 L 300.91082763671875 218.1835479736328 L 301.9784240722656 214.54566955566406 L 303.0459899902344 217.50376892089844 L 304.11358642578125 218.48760986328125 L 305.1811828613281 218.13983154296875 L 306.248779296875 209.14707946777344 L 307.31634521484375 210.20616149902344 L 308.3839416503906 219.48764038085938 L 309.4515380859375 220.07839965820312 L 310.5191345214844 219.12713623046875 L 311.58673095703125 204.02078247070312 L 312.654296875 203.90042114257812 L 313.7218933105469 201.1311492919922 L 314.78948974609375 187.4373321533203 L 315.8570861816406 189.041748046875 L 316.9246826171875 191.99942016601562 L 317.99224853515625 198.8656768798828 L 319.0598449707031 209.98223876953125 L 320.12744140625 213.99644470214844 L 321.1950378417969 216.51100158691406 L 322.2626037597656 215.63475036621094 L 323.3302001953125 204.91558837890625 L 324.3977966308594 200.42156982421875 L 325.46539306640625 218.4937286376953 L 326.5329895019531 213.6415557861328 L 327.6005554199219 218.65701293945312 L 328.66815185546875 201.78558349609375 L 329.7357482910156 214.0037384033203 L 330.8033447265625 223.3907928466797 L 331.87091064453125 205.50828552246094 L 332.9385070800781 222.33270263671875 L 334.006103515625 224.31256103515625 L 335.0736999511719 215.56887817382812 L 336.14129638671875 220.5924530029297 L 337.2088623046875 206.33921813964844 L 338.2764587402344 209.77398681640625 L 339.34405517578125 202.8763427734375 L 340.4116516113281 221.07630920410156 L 341.4792175292969 217.2086181640625 L 342.54681396484375 221.5399169921875 L 343.6144104003906 224.81784057617188 L 344.6820068359375 222.50904846191406 L 345.7496032714844 224.72439575195312 L 346.8171691894531 217.903564453125 L 347.884765625 224.0587921142578 L 348.9523620605469 218.401123046875 L 350.01995849609375 216.70877075195312 L 351.0875244140625 219.07142639160156 L 352.1551208496094 214.07046508789062 L 353.22271728515625 204.9899139404297 L 354.2903137207031 200.16644287109375 L 355.35791015625 213.48678588867188 L 356.42547607421875 221.43580627441406 L 357.4930725097656 224.61105346679688 L 358.5606689453125 229.04039001464844 L 359.6282653808594 228.12217712402344 L 360.6958312988281 228.93992614746094 L 361.763427734375 216.79649353027344 L 362.8310241699219 204.77542114257812 L 363.89862060546875 205.27346801757812 L 364.9662170410156 205.40379333496094 L 366.0337829589844 221.2212677001953 L 367.10137939453125 216.64015197753906 L 368.1689758300781 217.23338317871094 L 369.236572265625 228.7373809814453 L 370.3041687011719 228.98324584960938 L 371.3717346191406 218.31546020507812 L 372.4393310546875 221.91485595703125 L 373.5069274902344 219.33917236328125 L 374.57452392578125 218.99691772460938 L 375.64208984375 197.17767333984375 L 376.7096862792969 203.20404052734375 L 377.77728271484375 220.76339721679688 L 378.8448791503906 224.1151885986328 L 379.9124755859375 225.9827423095703 L 380.98004150390625 225.09046936035156 L 382.0476379394531 219.89427185058594 L 383.115234375 216.64515686035156 L 384.1828308105469 235.55621337890625 L 385.2503967285156 235.87783813476562 L 386.3179931640625 229.7269744873047 L 387.3855895996094 217.21945190429688 L 388.45318603515625 227.57867431640625 L 389.5207824707031 233.8333740234375 L 390.5883483886719 230.78346252441406 L 391.65594482421875 231.43902587890625 L 392.7235412597656 222.7769317626953 L 393.7911376953125 229.48390197753906 L 394.85870361328125 224.7228240966797 L 395.9263000488281 232.34019470214844 L 396.993896484375 233.94161987304688 L 398.0614929199219 231.37486267089844 L 399.12908935546875 216.57781982421875 L 400.1966552734375 210.2867431640625 L 401.2642517089844 219.60702514648438 L 402.33184814453125 220.82003784179688 L 403.3994445800781 217.06695556640625 L 404.4670104980469 215.3815460205078 L 405.53460693359375 215.5598602294922 L 406.6022033691406 204.8602294921875 L 407.6697998046875 195.74746704101562 L 408.7373962402344 212.89930725097656 L 409.8049621582031 198.5077667236328 L 410.87255859375 188.5283660888672 L 411.9401550292969 215.2195587158203 L 413.00775146484375 223.22625732421875 L 414.0753173828125 217.40618896484375 L 415.1429138183594 225.9036102294922 L 416.21051025390625 226.0618896484375 L 417.2781066894531 218.65538024902344 L 418.345703125 209.5881805419922 L 419.41326904296875 197.63894653320312 L 420.4808654785156 218.5211639404297 L 421.5484619140625 224.82083129882812 L 422.6160583496094 218.0266571044922 L 423.68365478515625 220.15342712402344 L 424.751220703125 209.36575317382812 L 425.8188171386719 206.65829467773438 L 426.88641357421875 213.86764526367188 L 427.9540100097656 229.5146942138672 L 429.0215759277344 225.42799377441406 L 430.08917236328125 232.18161010742188 L 431.1567687988281 231.04942321777344 L 432.224365234375 228.9013214111328 L 433.2919616699219 240.1695098876953 L 434.3595275878906 236.03990173339844 L 435.4271240234375 240.5325164794922 L 436.4947204589844 241.95236206054688 L 437.56231689453125 230.05235290527344 L 438.6298828125 239.4886474609375 L 439.6974792480469 239.00552368164062 L 440.76507568359375 232.47189331054688 L 441.8326721191406 229.60789489746094 L 442.9002685546875 215.60888671875 L 443.96783447265625 195.52914428710938 L 445.0354309082031 148.80564880371094 L 446.10302734375 167.28150939941406 L 447.1706237792969 183.2281494140625 L 448.2381896972656 195.10194396972656 L 449.3057861328125 208.15786743164062 L 450.3733825683594 207.35980224609375 L 451.44097900390625 217.9011688232422 L 452.5085754394531 214.58152770996094 L 453.5761413574219 208.9853973388672 L 454.64373779296875 209.5417938232422 L 455.7113342285156 222.46656799316406 L 456.7789306640625 238.62420654296875 L 457.84649658203125 236.75669860839844 L 458.9140930175781 237.04942321777344 L 459.981689453125 214.00685119628906 L 461.0492858886719 198.9382781982422 L 462.11688232421875 209.65206909179688 L 463.1844482421875 236.09361267089844 L 464.2520446777344 245.44351196289062 L 465.31964111328125 244.1514892578125 L 466.3872375488281 229.14926147460938 L 467.454833984375 223.42791748046875 L 468.52239990234375 233.21835327148438 L 469.5899963378906 235.901123046875 L 470.6575927734375 232.390869140625 L 471.7251892089844 235.72962951660156 L 472.7927551269531 232.7097625732422 L 473.8603515625 235.72738647460938 L 474.9279479980469 236.64535522460938 L 475.99554443359375 226.6945343017578 L 477.0631408691406 233.42799377441406 L 478.1307067871094 236.63858032226562 L 479.19830322265625 239.94683837890625 L 480.2658996582031 232.85690307617188 L 481.33349609375 244.19747924804688 L 482.40106201171875 245.45387268066406 L 483.4686584472656 240.4093017578125 L 484.5362548828125 244.27003479003906 L 485.6038513183594 246.24879455566406 L 486.67144775390625 240.22784423828125 L 487.739013671875 222.3211212158203 L 488.8066101074219 223.70718383789062 L 489.87420654296875 237.24415588378906 L 490.9418029785156 239.58082580566406 L 492.0093688964844 238.4239959716797 L 493.07696533203125 227.65931701660156 L 494.1445617675781 223.24563598632812 L 495.212158203125 224.13427734375 L 496.2797546386719 231.99746704101562 L 497.3473205566406 227.63037109375 L 498.4149169921875 245.91693115234375 L 499.4825134277344 242.5446319580078 L 500.55010986328125 244.75221252441406 L 501.61767578125 233.76889038085938 L 502.6852722167969 233.14598083496094 L 503.75286865234375 240.01666259765625 L 504.8204650878906 228.80735778808594 L 505.8880615234375 227.00424194335938 L 506.95562744140625 231.69174194335938 L 508.0232238769531 238.50006103515625 L 509.0908203125 223.34719848632812 L 510.1584167480469 217.5098114013672 L 511.2259826660156 212.4320526123047 L 512.2935791015625 221.73304748535156 L 513.3612060546875 230.00030517578125 L 514.4287719726562 231.1637725830078 L 515.496337890625 237.315185546875 L 516.56396484375 244.3150177001953 L 517.6315307617188 249.79718017578125 L 518.6990966796875 241.9261016845703 L 519.7667236328125 242.294677734375 L 520.8342895507812 242.73143005371094 L 521.9019165039062 239.9518585205078 L 522.969482421875 234.1452178955078 L 524.0370483398438 243.9986114501953 L 525.1046752929688 249.9645233154297 L 526.1722412109375 241.29034423828125 L 527.2398681640625 227.82691955566406 L 528.3074340820312 232.34246826171875 L 529.375 237.72915649414062 L 530.442626953125 241.26876831054688 L 531.5101928710938 230.11712646484375 L 532.5778198242188 217.95428466796875 L 533.6453857421875 213.1196746826172 L 534.7129516601562 215.9990234375 L 535.7805786132812 222.0838165283203 L 536.84814453125 226.70921325683594 L 537.9157104492188 207.07498168945312 L 538.9833374023438 225.89663696289062 L 540.0509033203125 224.2424774169922 L 541.1185302734375 223.38552856445312 L 542.1860961914062 240.26895141601562 L 543.253662109375 245.10292053222656 L 544.3212890625 236.037841796875 L 545.3888549804688 229.21896362304688 L 546.4564819335938 238.048095703125 L 547.5240478515625 252.8352508544922 L 548.5916137695312 251.11721801757812 L 549.6592407226562 252.0257568359375 L 550.726806640625 257.5812683105469 L 551.79443359375 243.5550537109375 L 552.8619995117188 256.34161376953125 L 553.9295654296875 234.65684509277344 L 554.9971923828125 225.26307678222656 L 556.0647583007812 230.4110870361328 L 557.1323852539062 223.63803100585938 L 558.199951171875 213.50413513183594 L 559.2675170898438 246.02578735351562 L 560.3351440429688 237.63827514648438 L 561.4027099609375 239.99481201171875 L 562.4702758789062 238.9060516357422 L 563.5379028320312 233.3803253173828 L 564.60546875 241.93116760253906 L 565.673095703125 230.55764770507812 L 566.7406616210938 241.31761169433594 L 567.8082275390625 255.8376007080078 L 568.8758544921875 240.45651245117188 L 569.9434204101562 223.225830078125 L 571.0110473632812 225.94142150878906 L 572.07861328125 230.47401428222656 L 573.1461791992188 219.98574829101562 L 574.2138061523438 222.18260192871094 L 575.2813720703125 194.16354370117188 L 576.3489990234375 217.05638122558594 L 577.4165649414062 216.64138793945312 L 578.484130859375 226.18983459472656 L 579.5517578125 226.95140075683594 L 580.6193237304688 213.10202026367188 L 581.6868896484375 223.37269592285156 L 582.7545166015625 244.9297332763672 L 583.8220825195312 238.15524291992188 L 584.8897094726562 252.9828643798828 L 585.957275390625 245.27249145507812 L 587.0248413085938 242.1881103515625 L 588.0924682617188 240.24911499023438 L 589.1600341796875 232.7772979736328 L 590.2276611328125 239.20782470703125 L 591.2952270507812 253.812255859375 L 592.36279296875 251.70785522460938 L 593.430419921875 248.49864196777344 L 594.4979858398438 228.9050750732422 L 595.5656127929688 210.56695556640625 L 596.6331787109375 218.6688995361328 L 597.7007446289062 235.2335662841797 L 598.7683715820312 240.54248046875 L 599.8359375 242.4442138671875 L 600.903564453125 253.97879028320312 L 601.9711303710938 253.1624755859375 L 603.0386962890625 241.2687530517578 L 604.1063232421875 244.15223693847656 L 605.1738891601562 239.2091827392578 L 606.241455078125 231.42738342285156 L 607.30908203125 237.86256408691406 L 608.3766479492188 225.38189697265625 L 609.4442749023438 235.05059814453125 L 610.5118408203125 238.26353454589844 L 611.5794067382812 238.5428924560547 L 612.6470336914062 240.56942749023438 L 613.714599609375 253.1238250732422 L 614.7822265625 248.625732421875 L 615.8497924804688 241.79275512695312 L 616.9173583984375 225.1774444580078 L 617.9849853515625 249.9321746826172 L 619.0525512695312 240.14407348632812 L 620.1201782226562 238.90052795410156 L 621.187744140625 238.58953857421875 L 622.2553100585938 222.56069946289062 L 623.3229370117188 225.25430297851562 L 624.3905029296875 232.7675018310547 L 625.4580688476562 229.05355834960938 L 626.5256958007812 222.3123321533203 L 627.59326171875 232.04747009277344 L 628.660888671875 232.51931762695312 L 629.7284545898438 212.40478515625 L 630.7960205078125 185.38015747070312 L 631.8636474609375 197.9285125732422" stroke-opacity="1" stroke-linejoin="bevel" stroke-miterlimit="10" stroke-width="2" clip-path="url(#zaiRGCkTCuHU)"/><path fill="none" stroke="rgb(255,127,14)" paint-order="fill" d="M 99.13636016845703 105.95176696777344 L 100.2039566040039 157.5687713623047 L 101.27154541015625 175.73463439941406 L 102.3391342163086 189.84454345703125 L 103.40672302246094 201.7621612548828 L 104.47431182861328 207.3660888671875 L 105.54190063476562 208.5625762939453 L 106.60948944091797 210.90415954589844 L 107.67707824707031 211.6608123779297 L 108.74467468261719 213.7762451171875 L 109.81226348876953 216.42323303222656 L 110.87985229492188 218.83685302734375 L 111.94744110107422 220.2162628173828 L 113.01502990722656 221.02304077148438 L 114.0826187133789 221.33839416503906 L 115.15020751953125 221.83168029785156 L 116.2177963256836 223.06114196777344 L 117.28539276123047 224.3630828857422 L 118.35298156738281 223.97962951660156 L 119.42057037353516 226.99269104003906 L 120.4881591796875 227.81932067871094 L 121.55574798583984 229.4727783203125 L 122.62333679199219 228.16661071777344 L 123.69092559814453 230.7447967529297 L 124.75851440429688 227.12637329101562 L 125.82610321044922 233.35354614257812 L 126.8936996459961 235.75942993164062 L 127.96128845214844 232.6455535888672 L 129.02886962890625 233.37841796875 L 130.09646606445312 232.9300079345703 L 131.1640625 235.73013305664062 L 132.2316436767578 240.34507751464844 L 133.2992401123047 241.17662048339844 L 134.3668212890625 238.2636260986328 L 135.43441772460938 237.5263671875 L 136.5019989013672 245.46246337890625 L 137.56959533691406 245.2379150390625 L 138.63717651367188 247.30516052246094 L 139.70477294921875 244.54507446289062 L 140.77236938476562 256.28504943847656 L 141.83995056152344 254.58096313476562 L 142.9075469970703 258.8814392089844 L 143.97512817382812 260.89208984375 L 145.042724609375 268.2579650878906 L 146.1103057861328 270.276611328125 L 147.1779022216797 265.75372314453125 L 148.2454833984375 274.0711669921875 L 149.31307983398438 273.73681640625 L 150.38067626953125 274.15997314453125 L 151.44825744628906 279.1070861816406 L 152.51585388183594 273.6580810546875 L 153.58343505859375 282.8111267089844 L 154.65103149414062 288.3460998535156 L 155.71861267089844 288.5494384765625 L 156.7862091064453 291.9364318847656 L 157.8538055419922 291.1065979003906 L 158.92138671875 285.4879150390625 L 159.98898315429688 287.4223937988281 L 161.0565643310547 298.7140197753906 L 162.12416076660156 296.8182067871094 L 163.19174194335938 302.220703125 L 164.25933837890625 305.94183349609375 L 165.32691955566406 306.1038818359375 L 166.39451599121094 307.5797119140625 L 167.4621124267578 303.5257263183594 L 168.52969360351562 305.2097473144531 L 169.5972900390625 301.1427001953125 L 170.6648712158203 304.0930480957031 L 171.7324676513672 306.46917724609375 L 172.800048828125 310.3208923339844 L 173.86764526367188 312.1041564941406 L 174.93524169921875 303.0205993652344 L 176.00282287597656 308.2197570800781 L 177.07041931152344 306.9949645996094 L 178.13800048828125 311.3957824707031 L 179.20559692382812 311.5390625 L 180.27317810058594 312.9470520019531 L 181.3407745361328 315.9009704589844 L 182.40835571289062 309.68505859375 L 183.4759521484375 310.3855285644531 L 184.54354858398438 313.0450134277344 L 185.6111297607422 312.3882751464844 L 186.67872619628906 314.1009826660156 L 187.74630737304688 315.1539306640625 L 188.81390380859375 321.99468994140625 L 189.88148498535156 315.6042175292969 L 190.94908142089844 317.1345520019531 L 192.01666259765625 316.80999755859375 L 193.08425903320312 321.0842590332031 L 194.15185546875 300.5474548339844 L 195.2194366455078 309.86578369140625 L 196.2870330810547 305.16748046875 L 197.3546142578125 305.0928039550781 L 198.42221069335938 306.4043273925781 L 199.4897918701172 315.3631286621094 L 200.55738830566406 314.3285217285156 L 201.62498474121094 309.27618408203125 L 202.69256591796875 296.1730651855469 L 203.76016235351562 302.05218505859375 L 204.82774353027344 301.0784912109375 L 205.8953399658203 296.68743896484375 L 206.96292114257812 304.71246337890625 L 208.030517578125 310.4449768066406 L 209.0980987548828 319.0910339355469 L 210.1656951904297 325.9267578125 L 211.23329162597656 322.7248229980469 L 212.30087280273438 319.1418762207031 L 213.36846923828125 313.65826416015625 L 214.43605041503906 311.99261474609375 L 215.50364685058594 307.5794372558594 L 216.57122802734375 307.8648681640625 L 217.63882446289062 320.8446350097656 L 218.70640563964844 314.5560302734375 L 219.7740020751953 316.68878173828125 L 220.8415985107422 303.12872314453125 L 221.9091796875 313.81512451171875 L 222.97677612304688 309.56304931640625 L 224.0443572998047 292.4101257324219 L 225.11195373535156 299.565185546875 L 226.17953491210938 284.8211975097656 L 227.24713134765625 300.0901794433594 L 228.31472778320312 321.5762023925781 L 229.38230895996094 290.3876953125 L 230.4499053955078 297.5956726074219 L 231.51748657226562 272.6359558105469 L 232.5850830078125 266.1982727050781 L 233.6526641845703 266.6000061035156 L 234.7202606201172 278.2550048828125 L 235.787841796875 286.4839172363281 L 236.85543823242188 301.1489562988281 L 237.92303466796875 316.23785400390625 L 238.99061584472656 304.07208251953125 L 240.05821228027344 309.978515625 L 241.12579345703125 306.91204833984375 L 242.19338989257812 313.485595703125 L 243.26097106933594 309.7049865722656 L 244.3285675048828 321.8841552734375 L 245.39614868164062 298.7958068847656 L 246.4637451171875 296.55078125 L 247.53134155273438 310.8091125488281 L 248.5989227294922 316.9389953613281 L 249.66651916503906 319.81146240234375 L 250.73410034179688 326.57476806640625 L 251.80169677734375 328.12005615234375 L 252.86927795410156 322.6700439453125 L 253.93687438964844 313.0299072265625 L 255.0044708251953 324.8990173339844 L 256.0720520019531 327.4764404296875 L 257.1396484375 306.5707702636719 L 258.2072448730469 291.7685852050781 L 259.2748107910156 319.0467834472656 L 260.3424072265625 325.507080078125 L 261.4100036621094 318.68707275390625 L 262.47760009765625 329.66796875 L 263.545166015625 330.6884460449219 L 264.6127624511719 317.0875549316406 L 265.68035888671875 305.1709289550781 L 266.7479553222656 306.1148986816406 L 267.8155517578125 312.8802795410156 L 268.88311767578125 307.0152282714844 L 269.9507141113281 302.93634033203125 L 271.018310546875 298.7865295410156 L 272.0859069824219 271.97601318359375 L 273.15350341796875 266.3289794921875 L 274.2210693359375 275.7696533203125 L 275.2886657714844 292.6459655761719 L 276.35626220703125 308.220703125 L 277.4238586425781 291.5931396484375 L 278.4914245605469 296.106689453125 L 279.55902099609375 305.0485534667969 L 280.6266174316406 317.2903747558594 L 281.6942138671875 270.467529296875 L 282.7618103027344 259.3232727050781 L 283.8293762207031 279.5162048339844 L 284.89697265625 274.5263977050781 L 285.9645690917969 252.96917724609375 L 287.03216552734375 268.2705993652344 L 288.0997314453125 286.72222900390625 L 289.1673278808594 258.5184631347656 L 290.23492431640625 246.1114501953125 L 291.3025207519531 265.5875549316406 L 292.3701171875 261.4022521972656 L 293.43768310546875 265.6077880859375 L 294.5052795410156 259.78887939453125 L 295.5728759765625 251.80450439453125 L 296.6404724121094 244.95986938476562 L 297.7080383300781 266.419189453125 L 298.775634765625 281.2571105957031 L 299.8432312011719 270.67254638671875 L 300.91082763671875 296.9089050292969 L 301.9784240722656 284.5303039550781 L 303.0459899902344 285.5707702636719 L 304.11358642578125 295.8109130859375 L 305.1811828613281 287.1322937011719 L 306.248779296875 310.02032470703125 L 307.31634521484375 298.2496032714844 L 308.3839416503906 312.1151428222656 L 309.4515380859375 316.8757629394531 L 310.5191345214844 300.4740295410156 L 311.58673095703125 286.6792297363281 L 312.654296875 289.0498046875 L 313.7218933105469 312.7196350097656 L 314.78948974609375 330.67376708984375 L 315.8570861816406 319.8734130859375 L 316.9246826171875 328.9312438964844 L 317.99224853515625 334.3629455566406 L 319.0598449707031 312.1854248046875 L 320.12744140625 313.35662841796875 L 321.1950378417969 320.8768615722656 L 322.2626037597656 317.0983581542969 L 323.3302001953125 311.4702453613281 L 324.3977966308594 306.54876708984375 L 325.46539306640625 297.9455871582031 L 326.5329895019531 303.86639404296875 L 327.6005554199219 289.18804931640625 L 328.66815185546875 284.848876953125 L 329.7357482910156 298.9017639160156 L 330.8033447265625 303.7215270996094 L 331.87091064453125 312.3543701171875 L 332.9385070800781 311.4413757324219 L 334.006103515625 292.7978210449219 L 335.0736999511719 269.0186462402344 L 336.14129638671875 268.29705810546875 L 337.2088623046875 283.5417175292969 L 338.2764587402344 280.1673889160156 L 339.34405517578125 284.2295227050781 L 340.4116516113281 310.0879821777344 L 341.4792175292969 312.935546875 L 342.54681396484375 312.98443603515625 L 343.6144104003906 298.4681701660156 L 344.6820068359375 282.0865783691406 L 345.7496032714844 280.8188171386719 L 346.8171691894531 293.0694885253906 L 347.884765625 265.9928894042969 L 348.9523620605469 264.1755676269531 L 350.01995849609375 257.95989990234375 L 351.0875244140625 256.8008117675781 L 352.1551208496094 252.49813842773438 L 353.22271728515625 244.14891052246094 L 354.2903137207031 235.30938720703125 L 355.35791015625 233.53424072265625 L 356.42547607421875 233.2255401611328 L 357.4930725097656 232.42503356933594 L 358.5606689453125 265.323486328125 L 359.6282653808594 285.1520690917969 L 360.6958312988281 295.2649230957031 L 361.763427734375 320.2637023925781 L 362.8310241699219 326.3614501953125 L 363.89862060546875 315.1776428222656 L 364.9662170410156 312.658447265625 L 366.0337829589844 317.9395751953125 L 367.10137939453125 321.1587219238281 L 368.1689758300781 303.0348815917969 L 369.236572265625 303.2508850097656 L 370.3041687011719 310.1147766113281 L 371.3717346191406 315.8450622558594 L 372.4393310546875 306.62994384765625 L 373.5069274902344 299.6869812011719 L 374.57452392578125 289.4048767089844 L 375.64208984375 294.62371826171875 L 376.7096862792969 314.0805969238281 L 377.77728271484375 311.0495300292969 L 378.8448791503906 306.82928466796875 L 379.9124755859375 307.1520080566406 L 380.98004150390625 322.4620666503906 L 382.0476379394531 319.23577880859375 L 383.115234375 300.8065490722656 L 384.1828308105469 289.5921630859375 L 385.2503967285156 289.0475769042969 L 386.3179931640625 297.507568359375 L 387.3855895996094 307.6630554199219 L 388.45318603515625 310.3217468261719 L 389.5207824707031 283.82080078125 L 390.5883483886719 286.193359375 L 391.65594482421875 281.595458984375 L 392.7235412597656 281.50738525390625 L 393.7911376953125 295.652587890625 L 394.85870361328125 316.3695373535156 L 395.9263000488281 305.03692626953125 L 396.993896484375 261.4263000488281 L 398.0614929199219 264.7470397949219 L 399.12908935546875 279.8424072265625 L 400.1966552734375 253.67649841308594 L 401.2642517089844 267.9520263671875 L 402.33184814453125 258.7335510253906 L 403.3994445800781 276.666748046875 L 404.4670104980469 283.1571350097656 L 405.53460693359375 276.2563171386719 L 406.6022033691406 254.20823669433594 L 407.6697998046875 245.873779296875 L 408.7373962402344 250.35072326660156 L 409.8049621582031 258.253173828125 L 410.87255859375 268.95050048828125 L 411.9401550292969 284.98956298828125 L 413.00775146484375 302.547607421875 L 414.0753173828125 296.5834655761719 L 415.1429138183594 295.4934387207031 L 416.21051025390625 292.0186767578125 L 417.2781066894531 287.2821350097656 L 418.345703125 288.2471008300781 L 419.41326904296875 283.0436706542969 L 420.4808654785156 277.2259826660156 L 421.5484619140625 290.9521179199219 L 422.6160583496094 306.71728515625 L 423.68365478515625 280.09954833984375 L 424.751220703125 291.54901123046875 L 425.8188171386719 301.2691345214844 L 426.88641357421875 305.02294921875 L 427.9540100097656 312.4712829589844 L 429.0215759277344 319.44830322265625 L 430.08917236328125 325.9697570800781 L 431.1567687988281 307.9712829589844 L 432.224365234375 306.0479431152344 L 433.2919616699219 322.37603759765625 L 434.3595275878906 329.7630310058594 L 435.4271240234375 319.61956787109375 L 436.4947204589844 306.3377685546875 L 437.56231689453125 286.2718200683594 L 438.6298828125 289.88641357421875 L 439.6974792480469 291.066650390625 L 440.76507568359375 273.78680419921875 L 441.8326721191406 231.7184295654297 L 442.9002685546875 236.40591430664062 L 443.96783447265625 250.4069061279297 L 445.0354309082031 270.5275573730469 L 446.10302734375 303.9333190917969 L 447.1706237792969 291.1221008300781 L 448.2381896972656 301.8189392089844 L 449.3057861328125 313.4869689941406 L 450.3733825683594 299.6017150878906 L 451.44097900390625 296.3453674316406 L 452.5085754394531 287.1590576171875 L 453.5761413574219 285.1039123535156 L 454.64373779296875 288.11846923828125 L 455.7113342285156 313.3402099609375 L 456.7789306640625 313.3542785644531 L 457.84649658203125 317.1412658691406 L 458.9140930175781 311.3399353027344 L 459.981689453125 310.0832824707031 L 461.0492858886719 328.4598388671875 L 462.11688232421875 323.82470703125 L 463.1844482421875 324.1452941894531 L 464.2520446777344 324.3176574707031 L 465.31964111328125 316.36737060546875 L 466.3872375488281 310.7381896972656 L 467.454833984375 297.2795715332031 L 468.52239990234375 270.7250671386719 L 469.5899963378906 287.4383239746094 L 470.6575927734375 290.66412353515625 L 471.7251892089844 289.8605651855469 L 472.7927551269531 296.9916687011719 L 473.8603515625 301.87554931640625 L 474.9279479980469 313.07147216796875 L 475.99554443359375 317.54632568359375 L 477.0631408691406 295.85870361328125 L 478.1307067871094 304.85894775390625 L 479.19830322265625 305.9942626953125 L 480.2658996582031 312.8157958984375 L 481.33349609375 300.8882141113281 L 482.40106201171875 309.17938232421875 L 483.4686584472656 324.94281005859375 L 484.5362548828125 320.0041198730469 L 485.6038513183594 325.84619140625 L 486.67144775390625 320.84344482421875 L 487.739013671875 278.93939208984375 L 488.8066101074219 268.3648986816406 L 489.87420654296875 282.9898681640625 L 490.9418029785156 295.7593994140625 L 492.0093688964844 297.2458190917969 L 493.07696533203125 287.76617431640625 L 494.1445617675781 269.3388671875 L 495.212158203125 278.3896789550781 L 496.2797546386719 269.3399658203125 L 497.3473205566406 260.9849853515625 L 498.4149169921875 276.58624267578125 L 499.4825134277344 278.41748046875 L 500.55010986328125 260.91876220703125 L 501.61767578125 235.15269470214844 L 502.6852722167969 224.0856170654297 L 503.75286865234375 233.60667419433594 L 504.8204650878906 235.2210235595703 L 505.8880615234375 268.85675048828125 L 506.95562744140625 299.4289855957031 L 508.0232238769531 311.4888000488281 L 509.0908203125 289.5721130371094 L 510.1584167480469 288.0965270996094 L 511.2259826660156 300.7286071777344 L 512.2935791015625 296.81646728515625 L 513.3612060546875 285.442138671875 L 514.4287719726562 290.1900329589844 L 515.496337890625 264.0661315917969 L 516.56396484375 271.65826416015625 L 517.6315307617188 280.5985107421875 L 518.6990966796875 308.30364990234375 L 519.7667236328125 317.14739990234375 L 520.8342895507812 335.40191650390625 L 521.9019165039062 329.080322265625 L 522.969482421875 301.8260192871094 L 524.0370483398438 290.5016174316406 L 525.1046752929688 292.4399108886719 L 526.1722412109375 264.6539306640625 L 527.2398681640625 271.5111083984375 L 528.3074340820312 272.219970703125 L 529.375 270.092041015625 L 530.442626953125 280.12359619140625 L 531.5101928710938 294.2809143066406 L 532.5778198242188 290.0528564453125 L 533.6453857421875 302.008544921875 L 534.7129516601562 300.999755859375 L 535.7805786132812 309.6715393066406 L 536.84814453125 273.8836364746094 L 537.9157104492188 270.4209289550781 L 538.9833374023438 313.2355651855469 L 540.0509033203125 302.9278259277344 L 541.1185302734375 277.5005798339844 L 542.1860961914062 275.36962890625 L 543.253662109375 300.638671875 L 544.3212890625 326.9891662597656 L 545.3888549804688 324.98492431640625 L 546.4564819335938 319.8241882324219 L 547.5240478515625 316.8248291015625 L 548.5916137695312 314.8702087402344 L 549.6592407226562 309.83624267578125 L 550.726806640625 286.64508056640625 L 551.79443359375 299.5771179199219 L 552.8619995117188 323.6511535644531 L 553.9295654296875 337.45916748046875 L 554.9971923828125 338.2245178222656 L 556.0647583007812 338.7727355957031 L 557.1323852539062 330.60052490234375 L 558.199951171875 329.5429382324219 L 559.2675170898438 315.2453918457031 L 560.3351440429688 308.878662109375 L 561.4027099609375 313.78167724609375 L 562.4702758789062 313.0450744628906 L 563.5379028320312 289.99700927734375 L 564.60546875 271.1806335449219 L 565.673095703125 258.2389831542969 L 566.7406616210938 266.11083984375 L 567.8082275390625 298.25848388671875 L 568.8758544921875 310.8103332519531 L 569.9434204101562 322.97064208984375 L 571.0110473632812 319.01751708984375 L 572.07861328125 297.94549560546875 L 573.1461791992188 304.392578125 L 574.2138061523438 316.652587890625 L 575.2813720703125 310.609130859375 L 576.3489990234375 276.37506103515625 L 577.4165649414062 285.8341369628906 L 578.484130859375 280.1070556640625 L 579.5517578125 298.6101989746094 L 580.6193237304688 284.9334411621094 L 581.6868896484375 278.95025634765625 L 582.7545166015625 280.2993469238281 L 583.8220825195312 262.5302429199219 L 584.8897094726562 282.1494445800781 L 585.957275390625 312.8251037597656 L 587.0248413085938 317.1617431640625 L 588.0924682617188 327.6942443847656 L 589.1600341796875 324.65679931640625 L 590.2276611328125 316.7876281738281 L 591.2952270507812 317.21990966796875 L 592.36279296875 323.88055419921875 L 593.430419921875 292.9921875 L 594.4979858398438 289.17132568359375 L 595.5656127929688 286.6213073730469 L 596.6331787109375 267.4491882324219 L 597.7007446289062 253.53298950195312 L 598.7683715820312 272.8808898925781 L 599.8359375 275.3354797363281 L 600.903564453125 288.5869140625 L 601.9711303710938 306.50897216796875 L 603.0386962890625 312.3948669433594 L 604.1063232421875 328.14068603515625 L 605.1738891601562 328.891357421875 L 606.241455078125 335.8594055175781 L 607.30908203125 325.1094665527344 L 608.3766479492188 303.5398864746094 L 609.4442749023438 323.4183044433594 L 610.5118408203125 321.7591552734375 L 611.5794067382812 309.71258544921875 L 612.6470336914062 310.9033203125 L 613.714599609375 313.36578369140625 L 614.7822265625 309.2636413574219 L 615.8497924804688 298.01611328125 L 616.9173583984375 261.4338073730469 L 617.9849853515625 281.31280517578125 L 619.0525512695312 275.1880798339844 L 620.1201782226562 267.6931457519531 L 621.187744140625 297.6083679199219 L 622.2553100585938 292.8329772949219 L 623.3229370117188 322.73516845703125 L 624.3905029296875 324.8938293457031 L 625.4580688476562 305.2923278808594 L 626.5256958007812 302.154052734375 L 627.59326171875 304.15118408203125 L 628.660888671875 313.96954345703125 L 629.7284545898438 326.8487243652344 L 630.7960205078125 306.9208984375 L 631.8636474609375 266.75830078125" stroke-opacity="1" stroke-linejoin="bevel" stroke-miterlimit="10" stroke-width="2" clip-path="url(#ADgHnJiGxlMb)"/><path fill="none" stroke="rgb(0,0,0)" paint-order="fill" d="M 72.5 353.5 L 658.5 353.5" stroke-opacity="1" stroke-linejoin="bevel" stroke-miterlimit="10"/><path fill="none" stroke="rgb(0,0,0)" paint-order="fill" d="M 99.5 359.5 L 99.5 351.5 M 205.5 359.5 L 205.5 351.5 M 312.5 359.5 L 312.5 351.5 M 419.5 359.5 L 419.5 351.5 M 526.5 359.5 L 526.5 351.5 M 632.5 359.5 L 632.5 351.5" stroke-opacity="1" stroke-linejoin="bevel" stroke-miterlimit="10"/><path fill="none" stroke="rgb(0,0,0)" paint-order="fill" d="M 77.5 357.5 L 77.5 353.5 M 99.5 357.5 L 99.5 353.5 M 120.5 357.5 L 120.5 353.5 M 141.5 357.5 L 141.5 353.5 M 163.5 357.5 L 163.5 353.5 M 184.5 357.5 L 184.5 353.5 M 205.5 357.5 L 205.5 353.5 M 227.5 357.5 L 227.5 353.5 M 248.5 357.5 L 248.5 353.5 M 269.5 357.5 L 269.5 353.5 M 291.5 357.5 L 291.5 353.5 M 312.5 357.5 L 312.5 353.5 M 334.5 357.5 L 334.5 353.5 M 355.5 357.5 L 355.5 353.5 M 376.5 357.5 L 376.5 353.5 M 398.5 357.5 L 398.5 353.5 M 419.5 357.5 L 419.5 353.5 M 440.5 357.5 L 440.5 353.5 M 462.5 357.5 L 462.5 353.5 M 483.5 357.5 L 483.5 353.5 M 504.5 357.5 L 504.5 353.5 M 526.5 357.5 L 526.5 353.5 M 547.5 357.5 L 547.5 353.5 M 568.5 357.5 L 568.5 353.5 M 590.5 357.5 L 590.5 353.5 M 611.5 357.5 L 611.5 353.5 M 632.5 357.5 L 632.5 353.5 M 654.5 357.5 L 654.5 353.5" stroke-opacity="1" stroke-linejoin="bevel" stroke-miterlimit="10"/><text fill="rgb(0,0,0)" stroke="none" font-family="serif" font-size="10pt" font-style="normal" font-weight="normal" text-decoration="normal" x="94.37802696228027" y="374" text-anchor="start" dominant-baseline="alphabetic" transform="matrix(1, 0, 0, 1, 0.5, 0.5)" fill-opacity="1">0</text><text fill="none" stroke="rgb(0,0,0)" font-family="serif" font-size="10pt" font-style="normal" font-weight="normal" text-decoration="normal" x="94.37802696228027" y="374" text-anchor="start" dominant-baseline="alphabetic" transform="matrix(1, 0, 0, 1, 0.5, 0.5)" stroke-opacity="0" stroke-linejoin="bevel" stroke-miterlimit="10">0</text><text fill="rgb(0,0,0)" stroke="none" font-family="serif" font-size="10pt" font-style="normal" font-weight="normal" text-decoration="normal" x="192.62034034729004" y="374" text-anchor="start" dominant-baseline="alphabetic" transform="matrix(1, 0, 0, 1, 0.5, 0.5)" fill-opacity="1">100</text><text fill="none" stroke="rgb(0,0,0)" font-family="serif" font-size="10pt" font-style="normal" font-weight="normal" text-decoration="normal" x="192.62034034729004" y="374" text-anchor="start" dominant-baseline="alphabetic" transform="matrix(1, 0, 0, 1, 0.5, 0.5)" stroke-opacity="0" stroke-linejoin="bevel" stroke-miterlimit="10">100</text><text fill="rgb(0,0,0)" stroke="none" font-family="serif" font-size="10pt" font-style="normal" font-weight="normal" text-decoration="normal" x="299.3792972564697" y="374" text-anchor="start" dominant-baseline="alphabetic" transform="matrix(1, 0, 0, 1, 0.5, 0.5)" fill-opacity="1">200</text><text fill="none" stroke="rgb(0,0,0)" font-family="serif" font-size="10pt" font-style="normal" font-weight="normal" text-decoration="normal" x="299.3792972564697" y="374" text-anchor="start" dominant-baseline="alphabetic" transform="matrix(1, 0, 0, 1, 0.5, 0.5)" stroke-opacity="0" stroke-linejoin="bevel" stroke-miterlimit="10">200</text><text fill="rgb(0,0,0)" stroke="none" font-family="serif" font-size="10pt" font-style="normal" font-weight="normal" text-decoration="normal" x="406.1382694244385" y="374" text-anchor="start" dominant-baseline="alphabetic" transform="matrix(1, 0, 0, 1, 0.5, 0.5)" fill-opacity="1">300</text><text fill="none" stroke="rgb(0,0,0)" font-family="serif" font-size="10pt" font-style="normal" font-weight="normal" text-decoration="normal" x="406.1382694244385" y="374" text-anchor="start" dominant-baseline="alphabetic" transform="matrix(1, 0, 0, 1, 0.5, 0.5)" stroke-opacity="0" stroke-linejoin="bevel" stroke-miterlimit="10">300</text><text fill="rgb(0,0,0)" stroke="none" font-family="serif" font-size="10pt" font-style="normal" font-weight="normal" text-decoration="normal" x="512.8972415924072" y="374" text-anchor="start" dominant-baseline="alphabetic" transform="matrix(1, 0, 0, 1, 0.5, 0.5)" fill-opacity="1">400</text><text fill="none" stroke="rgb(0,0,0)" font-family="serif" font-size="10pt" font-style="normal" font-weight="normal" text-decoration="normal" x="512.8972415924072" y="374" text-anchor="start" dominant-baseline="alphabetic" transform="matrix(1, 0, 0, 1, 0.5, 0.5)" stroke-opacity="0" stroke-linejoin="bevel" stroke-miterlimit="10">400</text><text fill="rgb(0,0,0)" stroke="none" font-family="serif" font-size="10pt" font-style="normal" font-weight="normal" text-decoration="normal" x="619.656213760376" y="374" text-anchor="start" dominant-baseline="alphabetic" transform="matrix(1, 0, 0, 1, 0.5, 0.5)" fill-opacity="1">500</text><text fill="none" stroke="rgb(0,0,0)" font-family="serif" font-size="10pt" font-style="normal" font-weight="normal" text-decoration="normal" x="619.656213760376" y="374" text-anchor="start" dominant-baseline="alphabetic" transform="matrix(1, 0, 0, 1, 0.5, 0.5)" stroke-opacity="0" stroke-linejoin="bevel" stroke-miterlimit="10">500</text><text fill="rgb(0,0,0)" stroke="none" font-family="serif" font-size="12pt" font-style="italic" font-weight="normal" text-decoration="normal" x="339.5833339691162" y="397" text-anchor="start" dominant-baseline="alphabetic" transform="matrix(1, 0, 0, 1, 0.5, 0.5)" fill-opacity="1">Epoch</text><text fill="none" stroke="rgb(0,0,0)" font-family="serif" font-size="12pt" font-style="italic" font-weight="normal" text-decoration="normal" x="339.5833339691162" y="397" text-anchor="start" dominant-baseline="alphabetic" transform="matrix(1, 0, 0, 1, 0.5, 0.5)" stroke-opacity="0" stroke-linejoin="bevel" stroke-miterlimit="10">Epoch</text><path fill="none" stroke="rgb(0,0,0)" paint-order="fill" d="M 72.5 353.5 L 72.5 29.5" stroke-opacity="1" stroke-linejoin="bevel" stroke-miterlimit="10"/><path fill="none" stroke="rgb(0,0,0)" paint-order="fill" d="M 66.5 304.5 L 74.5 304.5 M 66.5 252.5 L 74.5 252.5 M 66.5 199.5 L 74.5 199.5 M 66.5 147.5 L 74.5 147.5 M 66.5 94.5 L 74.5 94.5 M 66.5 41.5 L 74.5 41.5" stroke-opacity="1" stroke-linejoin="bevel" stroke-miterlimit="10"/><path fill="none" stroke="rgb(0,0,0)" paint-order="fill" d="M 68.5 341.5 L 72.5 341.5 M 68.5 332.5 L 72.5 332.5 M 68.5 325.5 L 72.5 325.5 M 68.5 320.5 L 72.5 320.5 M 68.5 316.5 L 72.5 316.5 M 68.5 313.5 L 72.5 313.5 M 68.5 309.5 L 72.5 309.5 M 68.5 307.5 L 72.5 307.5 M 68.5 304.5 L 72.5 304.5 M 68.5 304.5 L 72.5 304.5 M 68.5 289.5 L 72.5 289.5 M 68.5 279.5 L 72.5 279.5 M 68.5 273.5 L 72.5 273.5 M 68.5 268.5 L 72.5 268.5 M 68.5 263.5 L 72.5 263.5 M 68.5 260.5 L 72.5 260.5 M 68.5 257.5 L 72.5 257.5 M 68.5 254.5 L 72.5 254.5 M 68.5 252.5 L 72.5 252.5 M 68.5 252.5 L 72.5 252.5 M 68.5 236.5 L 72.5 236.5 M 68.5 227.5 L 72.5 227.5 M 68.5 220.5 L 72.5 220.5 M 68.5 215.5 L 72.5 215.5 M 68.5 211.5 L 72.5 211.5 M 68.5 207.5 L 72.5 207.5 M 68.5 204.5 L 72.5 204.5 M 68.5 202.5 L 72.5 202.5 M 68.5 199.5 L 72.5 199.5 M 68.5 199.5 L 72.5 199.5 M 68.5 183.5 L 72.5 183.5 M 68.5 174.5 L 72.5 174.5 M 68.5 168.5 L 72.5 168.5 M 68.5 162.5 L 72.5 162.5 M 68.5 158.5 L 72.5 158.5 M 68.5 155.5 L 72.5 155.5 M 68.5 152.5 L 72.5 152.5 M 68.5 149.5 L 72.5 149.5 M 68.5 147.5 L 72.5 147.5 M 68.5 147.5 L 72.5 147.5 M 68.5 131.5 L 72.5 131.5 M 68.5 122.5 L 72.5 122.5 M 68.5 115.5 L 72.5 115.5 M 68.5 110.5 L 72.5 110.5 M 68.5 106.5 L 72.5 106.5 M 68.5 102.5 L 72.5 102.5 M 68.5 99.5 L 72.5 99.5 M 68.5 96.5 L 72.5 96.5 M 68.5 94.5 L 72.5 94.5 M 68.5 94.5 L 72.5 94.5 M 68.5 78.5 L 72.5 78.5 M 68.5 69.5 L 72.5 69.5 M 68.5 62.5 L 72.5 62.5 M 68.5 57.5 L 72.5 57.5 M 68.5 53.5 L 72.5 53.5 M 68.5 50.5 L 72.5 50.5 M 68.5 47.5 L 72.5 47.5 M 68.5 44.5 L 72.5 44.5 M 68.5 41.5 L 72.5 41.5 M 68.5 41.5 L 72.5 41.5" stroke-opacity="1" stroke-linejoin="bevel" stroke-miterlimit="10"/><text fill="rgb(0,0,0)" stroke="none" font-family="serif" font-size="10pt" font-style="normal" font-weight="normal" text-decoration="normal" x="0" y="14" text-anchor="start" dominant-baseline="alphabetic" transform="matrix(1, 0, 0, 1, 30.633334159851074, 297.8571472167969)" fill-opacity="1">10</text><text fill="none" stroke="rgb(0,0,0)" font-family="serif" font-size="10pt" font-style="normal" font-weight="normal" text-decoration="normal" x="0" y="14" text-anchor="start" dominant-baseline="alphabetic" transform="matrix(1, 0, 0, 1, 30.633334159851074, 297.8571472167969)" stroke-opacity="0" stroke-linejoin="bevel" stroke-miterlimit="10">10</text><text fill="rgb(0,0,0)" stroke="none" font-family="serif" font-size="7pt" font-style="normal" font-weight="normal" text-decoration="normal" x="17.03333282470703" y="7" text-anchor="start" dominant-baseline="alphabetic" transform="matrix(1, 0, 0, 1, 30.633334159851074, 297.8571472167969)" fill-opacity="1">3</text><text fill="none" stroke="rgb(0,0,0)" font-family="serif" font-size="7pt" font-style="normal" font-weight="normal" text-decoration="normal" x="17.03333282470703" y="7" text-anchor="start" dominant-baseline="alphabetic" transform="matrix(1, 0, 0, 1, 30.633334159851074, 297.8571472167969)" stroke-opacity="0" stroke-linejoin="bevel" stroke-miterlimit="10">3</text><text fill="rgb(0,0,0)" stroke="none" font-family="serif" font-size="10pt" font-style="normal" font-weight="normal" text-decoration="normal" x="0" y="14" text-anchor="start" dominant-baseline="alphabetic" transform="matrix(1, 0, 0, 1, 30.633334159851074, 245.26866149902344)" fill-opacity="1">10</text><text fill="none" stroke="rgb(0,0,0)" font-family="serif" font-size="10pt" font-style="normal" font-weight="normal" text-decoration="normal" x="0" y="14" text-anchor="start" dominant-baseline="alphabetic" transform="matrix(1, 0, 0, 1, 30.633334159851074, 245.26866149902344)" stroke-opacity="0" stroke-linejoin="bevel" stroke-miterlimit="10">10</text><text fill="rgb(0,0,0)" stroke="none" font-family="serif" font-size="7pt" font-style="normal" font-weight="normal" text-decoration="normal" x="17.03333282470703" y="7" text-anchor="start" dominant-baseline="alphabetic" transform="matrix(1, 0, 0, 1, 30.633334159851074, 245.26866149902344)" fill-opacity="1">2</text><text fill="none" stroke="rgb(0,0,0)" font-family="serif" font-size="7pt" font-style="normal" font-weight="normal" text-decoration="normal" x="17.03333282470703" y="7" text-anchor="start" dominant-baseline="alphabetic" transform="matrix(1, 0, 0, 1, 30.633334159851074, 245.26866149902344)" stroke-opacity="0" stroke-linejoin="bevel" stroke-miterlimit="10">2</text><text fill="rgb(0,0,0)" stroke="none" font-family="serif" font-size="10pt" font-style="normal" font-weight="normal" text-decoration="normal" x="0" y="14" text-anchor="start" dominant-baseline="alphabetic" transform="matrix(1, 0, 0, 1, 30.633334159851074, 192.68017578125)" fill-opacity="1">10</text><text fill="none" stroke="rgb(0,0,0)" font-family="serif" font-size="10pt" font-style="normal" font-weight="normal" text-decoration="normal" x="0" y="14" text-anchor="start" dominant-baseline="alphabetic" transform="matrix(1, 0, 0, 1, 30.633334159851074, 192.68017578125)" stroke-opacity="0" stroke-linejoin="bevel" stroke-miterlimit="10">10</text><text fill="rgb(0,0,0)" stroke="none" font-family="serif" font-size="7pt" font-style="normal" font-weight="normal" text-decoration="normal" x="17.03333282470703" y="7" text-anchor="start" dominant-baseline="alphabetic" transform="matrix(1, 0, 0, 1, 30.633334159851074, 192.68017578125)" fill-opacity="1">1</text><text fill="none" stroke="rgb(0,0,0)" font-family="serif" font-size="7pt" font-style="normal" font-weight="normal" text-decoration="normal" x="17.03333282470703" y="7" text-anchor="start" dominant-baseline="alphabetic" transform="matrix(1, 0, 0, 1, 30.633334159851074, 192.68017578125)" stroke-opacity="0" stroke-linejoin="bevel" stroke-miterlimit="10">1</text><text fill="rgb(0,0,0)" stroke="none" font-family="serif" font-size="10pt" font-style="normal" font-weight="normal" text-decoration="normal" x="0" y="14" text-anchor="start" dominant-baseline="alphabetic" transform="matrix(1, 0, 0, 1, 38.50000047683716, 140.09170532226562)" fill-opacity="1">10</text><text fill="none" stroke="rgb(0,0,0)" font-family="serif" font-size="10pt" font-style="normal" font-weight="normal" text-decoration="normal" x="0" y="14" text-anchor="start" dominant-baseline="alphabetic" transform="matrix(1, 0, 0, 1, 38.50000047683716, 140.09170532226562)" stroke-opacity="0" stroke-linejoin="bevel" stroke-miterlimit="10">10</text><text fill="rgb(0,0,0)" stroke="none" font-family="serif" font-size="7pt" font-style="normal" font-weight="normal" text-decoration="normal" x="17.03333282470703" y="7" text-anchor="start" dominant-baseline="alphabetic" transform="matrix(1, 0, 0, 1, 38.50000047683716, 140.09170532226562)" fill-opacity="1">0</text><text fill="none" stroke="rgb(0,0,0)" font-family="serif" font-size="7pt" font-style="normal" font-weight="normal" text-decoration="normal" x="17.03333282470703" y="7" text-anchor="start" dominant-baseline="alphabetic" transform="matrix(1, 0, 0, 1, 38.50000047683716, 140.09170532226562)" stroke-opacity="0" stroke-linejoin="bevel" stroke-miterlimit="10">0</text><text fill="rgb(0,0,0)" stroke="none" font-family="serif" font-size="10pt" font-style="normal" font-weight="normal" text-decoration="normal" x="0" y="14" text-anchor="start" dominant-baseline="alphabetic" transform="matrix(1, 0, 0, 1, 38.50000047683716, 87.50322723388672)" fill-opacity="1">10</text><text fill="none" stroke="rgb(0,0,0)" font-family="serif" font-size="10pt" font-style="normal" font-weight="normal" text-decoration="normal" x="0" y="14" text-anchor="start" dominant-baseline="alphabetic" transform="matrix(1, 0, 0, 1, 38.50000047683716, 87.50322723388672)" stroke-opacity="0" stroke-linejoin="bevel" stroke-miterlimit="10">10</text><text fill="rgb(0,0,0)" stroke="none" font-family="serif" font-size="7pt" font-style="normal" font-weight="normal" text-decoration="normal" x="17.03333282470703" y="7" text-anchor="start" dominant-baseline="alphabetic" transform="matrix(1, 0, 0, 1, 38.50000047683716, 87.50322723388672)" fill-opacity="1">1</text><text fill="none" stroke="rgb(0,0,0)" font-family="serif" font-size="7pt" font-style="normal" font-weight="normal" text-decoration="normal" x="17.03333282470703" y="7" text-anchor="start" dominant-baseline="alphabetic" transform="matrix(1, 0, 0, 1, 38.50000047683716, 87.50322723388672)" stroke-opacity="0" stroke-linejoin="bevel" stroke-miterlimit="10">1</text><text fill="rgb(0,0,0)" stroke="none" font-family="serif" font-size="10pt" font-style="normal" font-weight="normal" text-decoration="normal" x="0" y="14" text-anchor="start" dominant-baseline="alphabetic" transform="matrix(1, 0, 0, 1, 38.50000047683716, 34.91474533081055)" fill-opacity="1">10</text><text fill="none" stroke="rgb(0,0,0)" font-family="serif" font-size="10pt" font-style="normal" font-weight="normal" text-decoration="normal" x="0" y="14" text-anchor="start" dominant-baseline="alphabetic" transform="matrix(1, 0, 0, 1, 38.50000047683716, 34.91474533081055)" stroke-opacity="0" stroke-linejoin="bevel" stroke-miterlimit="10">10</text><text fill="rgb(0,0,0)" stroke="none" font-family="serif" font-size="7pt" font-style="normal" font-weight="normal" text-decoration="normal" x="17.03333282470703" y="7" text-anchor="start" dominant-baseline="alphabetic" transform="matrix(1, 0, 0, 1, 38.50000047683716, 34.91474533081055)" fill-opacity="1">2</text><text fill="none" stroke="rgb(0,0,0)" font-family="serif" font-size="7pt" font-style="normal" font-weight="normal" text-decoration="normal" x="17.03333282470703" y="7" text-anchor="start" dominant-baseline="alphabetic" transform="matrix(1, 0, 0, 1, 38.50000047683716, 34.91474533081055)" stroke-opacity="0" stroke-linejoin="bevel" stroke-miterlimit="10">2</text><text fill="rgb(0,0,0)" stroke="none" font-family="serif" font-size="12pt" font-style="italic" font-weight="normal" text-decoration="normal" x="-22.608330726623535" y="187" text-anchor="start" dominant-baseline="alphabetic" transform="matrix(6.123233995736766e-17, -1, 1, 6.123233995736766e-17, -168.36666584014893, 213.63333415985107)" fill-opacity="1">log10 MSE</text><text fill="none" stroke="rgb(0,0,0)" font-family="serif" font-size="12pt" font-style="italic" font-weight="normal" text-decoration="normal" x="-22.608330726623535" y="187" text-anchor="start" dominant-baseline="alphabetic" transform="matrix(6.123233995736766e-17, -1, 1, 6.123233995736766e-17, -168.36666584014893, 213.63333415985107)" stroke-opacity="0" stroke-linejoin="bevel" stroke-miterlimit="10">log10 MSE</text><path fill="rgb(240,240,240)" stroke="rgb(0,0,0)" paint-order="fill" d="M 82.5 414.5 L 376.5 414.5 L 376.5 454.5 L 82.5 454.5 L 82.5 414.5 Z" fill-opacity="0.8" stroke-opacity="0.8" stroke-linejoin="bevel" stroke-miterlimit="10"/><path fill="none" stroke="rgb(31,119,180)" paint-order="fill" d="M 92.5 434.5 L 112.5 434.5" stroke-opacity="1" stroke-linejoin="bevel" stroke-miterlimit="10" stroke-width="2"/><text fill="rgb(0,0,0)" stroke="none" font-family="serif" font-size="10pt" font-style="normal" font-weight="normal" text-decoration="normal" x="0" y="4.5" text-anchor="start" dominant-baseline="alphabetic" transform="matrix(1, 0, 0, 1, 117.5, 434.5)" fill-opacity="1">f2 only</text><text fill="none" stroke="rgb(0,0,0)" font-family="serif" font-size="10pt" font-style="normal" font-weight="normal" text-decoration="normal" x="0" y="4.5" text-anchor="start" dominant-baseline="alphabetic" transform="matrix(1, 0, 0, 1, 117.5, 434.5)" stroke-opacity="0" stroke-linejoin="bevel" stroke-miterlimit="10">f2 only</text><path fill="none" stroke="rgb(174,199,232)" paint-order="fill" d="M 168.5 434.5 L 188.5 434.5" stroke-opacity="1" stroke-linejoin="bevel" stroke-miterlimit="10" stroke-width="2"/><text fill="rgb(0,0,0)" stroke="none" font-family="serif" font-size="10pt" font-style="normal" font-weight="normal" text-decoration="normal" x="0" y="4.5" text-anchor="start" dominant-baseline="alphabetic" transform="matrix(1, 0, 0, 1, 193.5, 434.5)" fill-opacity="1">f2 and grad</text><text fill="none" stroke="rgb(0,0,0)" font-family="serif" font-size="10pt" font-style="normal" font-weight="normal" text-decoration="normal" x="0" y="4.5" text-anchor="start" dominant-baseline="alphabetic" transform="matrix(1, 0, 0, 1, 193.5, 434.5)" stroke-opacity="0" stroke-linejoin="bevel" stroke-miterlimit="10">f2 and grad</text><path fill="none" stroke="rgb(255,127,14)" paint-order="fill" d="M 277.5 434.5 L 297.5 434.5" stroke-opacity="1" stroke-linejoin="bevel" stroke-miterlimit="10" stroke-width="2"/><text fill="rgb(0,0,0)" stroke="none" font-family="serif" font-size="10pt" font-style="normal" font-weight="normal" text-decoration="normal" x="0" y="4.5" text-anchor="start" dominant-baseline="alphabetic" transform="matrix(1, 0, 0, 1, 302.5, 434.5)" fill-opacity="1">grad only</text><text fill="none" stroke="rgb(0,0,0)" font-family="serif" font-size="10pt" font-style="normal" font-weight="normal" text-decoration="normal" x="0" y="4.5" text-anchor="start" dominant-baseline="alphabetic" transform="matrix(1, 0, 0, 1, 302.5, 434.5)" stroke-opacity="0" stroke-linejoin="bevel" stroke-miterlimit="10">grad only</text><text fill="rgb(68,68,68)" stroke="none" font-family="serif" font-size="13px" font-style="normal" font-weight="bold" text-decoration="normal" x="0" y="13" text-anchor="start" dominant-baseline="alphabetic" transform="matrix(1, 0, 0, 1, 72.5, 7.5)" fill-opacity="1">Model Loss History</text><text fill="none" stroke="rgb(0,0,0)" font-family="serif" font-size="13px" font-style="normal" font-weight="bold" text-decoration="normal" x="0" y="13" text-anchor="start" dominant-baseline="alphabetic" transform="matrix(1, 0, 0, 1, 72.5, 7.5)" stroke-opacity="0" stroke-miterlimit="10" stroke-dasharray="">Model Loss History</text></svg>