<svg version="1.1" xmlns="http://www.w3.org/2000/svg" width="663" height="508"><defs><clipPath id="sEEHLSvgTHqs"><path fill="none" stroke="none" d="M 0.5 0.5 L 663.5 0.5 L 663.5 508.5 L 0.5 508.5 L 0.5 0.5 Z M 61.5 5.5 L 550.5 5.5 L 550.5 417.5 L 61.5 417.5 L 61.5 5.5 Z" clip-rule="evenodd"/></clipPath><clipPath id="luutnVRbLuwa"><path fill="none" stroke="none" d="M 61.5 5.5 L 550.5 5.5 L 550.5 417.5 L 61.5 417.5 L 61.5 5.5 Z"/></clipPath><clipPath id="wtvXaixTTUuJ"><path fill="none" stroke="none" d="M 61.5 5.5 L 550.5 5.5 L 550.5 417.5 L 61.5 417.5 L 61.5 5.5 Z"/></clipPath><clipPath id="ZtIqzILleJXH"><path fill="none" stroke="none" d="M 61.5 5.5 L 550.5 5.5 L 550.5 417.5 L 61.5 417.5 L 61.5 5.5 Z"/></clipPath></defs><path fill="rgb(0,0,0)" stroke="none" paint-order="stroke" d="M 0 0 L 663 0 L 663 508 L 0 508 L 0 0 Z" fill-opacity="0"/><path fill="rgb(255,255,255)" stroke="none" paint-order="stroke" d="M 0.5 0.5 L 663.5 0.5 L 663.5 508.5 L 0.5 508.5 L 0.5 0.5 Z" fill-opacity="1" clip-path="url(#sEEHLSvgTHqs)"/><path fill="rgb(250,250,250)" stroke="none" paint-order="stroke" d="M 61.5 5.5 L 550.5 5.5 L 550.5 417.5 L 61.5 417.5 L 61.5 5.5 Z" fill-opacity="1"/><path fill="none" stroke="rgb(224,224,224)" paint-order="fill" d="M 83.5 417.5 L 83.5 5.5 M 194.5 417.5 L 194.5 5.5 M 306.5 417.5 L 306.5 5.5 M 417.5 417.5 L 417.5 5.5 M 528.5 417.5 L 528.5 5.5" stroke-opacity="1" stroke-linejoin="bevel" stroke-miterlimit="10" stroke-dasharray="6,4" clip-path="url(#luutnVRbLuwa)"/><path fill="none" stroke="rgb(224,224,224)" paint-order="fill" d="M 61.5 398.5 L 550.5 398.5 M 61.5 305.5 L 550.5 305.5 M 61.5 211.5 L 550.5 211.5 M 61.5 117.5 L 550.5 117.5 M 61.5 24.5 L 550.5 24.5" stroke-opacity="1" stroke-linejoin="bevel" stroke-miterlimit="10" stroke-dasharray="6,4" clip-path="url(#wtvXaixTTUuJ)"/><path fill="rgb(54,75,154)" stroke="none" paint-order="stroke" d="M 200.71292114257812 398.7727355957031 L 224.11004638671875 398.7727355957031 L 247.50717163085938 398.7727355957031 L 270.904296875 398.7727355957031 L 294.3014221191406 398.7727355957031 L 294.3014221191406 398.7727355957031 L 317.6985778808594 398.7727355957031 L 317.6985778808594 398.7727355957031 L 341.095703125 398.7727355957031 L 364.4928283691406 398.7727355957031 L 387.88995361328125 398.7727355957031 L 411.2870788574219 398.7727355957031 L 411.2870788574219 398.7727355957031 L 411.2870788574219 398.7727355957031 L 387.88995361328125 390.0114440917969 L 364.4928283691406 383.4404602050781 L 341.095703125 379.059814453125 L 341.095703125 379.059814453125 L 317.6985778808594 376.595703125 L 294.3014221191406 376.595703125 L 270.904296875 379.059814453125 L 270.904296875 379.059814453125 L 247.50717163085938 383.4404602050781 L 224.11004638671875 390.0114440917969 L 200.71292114257812 398.7727355957031 Z M 270.904296875 43.94019317626953 L 294.3014221191406 46.40430450439453 L 317.6985778808594 46.40430450439453 L 341.095703125 43.94019317626953 L 341.095703125 43.94019317626953 L 364.4928283691406 39.55954360961914 L 387.88995361328125 32.98857116699219 L 411.2870788574219 24.227272033691406 L 411.2870788574219 24.227272033691406 L 411.2870788574219 24.227272033691406 L 387.88995361328125 24.227272033691406 L 364.4928283691406 24.227272033691406 L 341.095703125 24.227272033691406 L 317.6985778808594 24.227272033691406 L 317.6985778808594 24.227272033691406 L 294.3014221191406 24.227272033691406 L 294.3014221191406 24.227272033691406 L 270.904296875 24.227272033691406 L 247.50717163085938 24.227272033691406 L 224.11004638671875 24.227272033691406 L 200.71292114257812 24.227272033691406 L 224.11004638671875 32.98857116699219 L 247.50717163085938 39.55954360961914 L 270.904296875 43.94019317626953 L 270.904296875 43.94019317626953 Z" fill-opacity="1" fill-rule="evenodd" clip-path="url(#ZtIqzILleJXH)"/><path fill="rgb(83,132,188)" stroke="none" paint-order="stroke" d="M 157.81817626953125 398.7727355957031 L 177.3157958984375 398.7727355957031 L 200.71292114257812 398.7727355957031 L 200.71292114257812 398.7727355957031 L 224.11004638671875 390.0114440917969 L 247.50717163085938 383.4404602050781 L 270.904296875 379.059814453125 L 270.904296875 379.059814453125 L 294.3014221191406 376.595703125 L 317.6985778808594 376.595703125 L 341.095703125 379.059814453125 L 341.095703125 379.059814453125 L 364.4928283691406 383.4404602050781 L 387.88995361328125 390.0114440917969 L 411.2870788574219 398.7727355957031 L 411.2870788574219 398.7727355957031 L 434.6842041015625 398.7727355957031 L 454.18182373046875 398.7727355957031 L 434.6842041015625 387.82110595703125 L 415.9665222167969 379.059814453125 L 411.2870788574219 376.595703125 L 387.88995361328125 366.7392272949219 L 364.4928283691406 359.3468933105469 L 364.4928283691406 359.3468933105469 L 341.095703125 353.7146301269531 L 317.6985778808594 350.89849853515625 L 294.3014221191406 350.89849853515625 L 270.904296875 353.7146301269531 L 247.50717163085938 359.3468933105469 L 247.50717163085938 359.3468933105469 L 224.11004638671875 366.7392272949219 L 200.71292114257812 376.595703125 L 196.0334930419922 379.059814453125 L 177.3157958984375 387.82110595703125 L 157.81817626953125 398.7727355957031 Z M 247.50717163085938 63.65311050415039 L 270.904296875 69.28536987304688 L 294.3014221191406 72.10150146484375 L 317.6985778808594 72.10150146484375 L 341.095703125 69.28536987304688 L 364.4928283691406 63.65311050415039 L 364.4928283691406 63.65311050415039 L 387.88995361328125 56.260765075683594 L 411.2870788574219 46.40430450439453 L 415.9665222167969 43.94019317626953 L 434.6842041015625 35.17889404296875 L 454.18182373046875 24.227272033691406 L 434.6842041015625 24.227272033691406 L 411.2870788574219 24.227272033691406 L 411.2870788574219 24.227272033691406 L 387.88995361328125 32.98857116699219 L 364.4928283691406 39.55954360961914 L 341.095703125 43.94019317626953 L 341.095703125 43.94019317626953 L 317.6985778808594 46.40430450439453 L 294.3014221191406 46.40430450439453 L 270.904296875 43.94019317626953 L 270.904296875 43.94019317626953 L 247.50717163085938 39.55954360961914 L 224.11004638671875 32.98857116699219 L 200.71292114257812 24.227272033691406 L 200.71292114257812 24.227272033691406 L 177.3157958984375 24.227272033691406 L 157.81817626953125 24.227272033691406 L 177.3157958984375 35.17889404296875 L 196.0334930419922 43.94019317626953 L 200.71292114257812 46.40430450439453 L 224.11004638671875 56.260765075683594 L 247.50717163085938 63.65311050415039 L 247.50717163085938 63.65311050415039 Z" fill-opacity="1" fill-rule="evenodd" clip-path="url(#ZtIqzILleJXH)"/><path fill="rgb(130,183,214)" stroke="none" paint-order="stroke" d="M 124.67224884033203 398.7727355957031 L 130.5215301513672 398.7727355957031 L 153.9186553955078 398.7727355957031 L 157.81817626953125 398.7727355957031 L 177.3157958984375 387.82110595703125 L 196.0334930419922 379.059814453125 L 200.71292114257812 376.595703125 L 224.11004638671875 366.7392272949219 L 247.50717163085938 359.3468933105469 L 247.50717163085938 359.3468933105469 L 270.904296875 353.7146301269531 L 294.3014221191406 350.89849853515625 L 317.6985778808594 350.89849853515625 L 341.095703125 353.7146301269531 L 364.4928283691406 359.3468933105469 L 364.4928283691406 359.3468933105469 L 387.88995361328125 366.7392272949219 L 411.2870788574219 376.595703125 L 415.9665222167969 379.059814453125 L 434.6842041015625 387.82110595703125 L 454.18182373046875 398.7727355957031 L 458.0813293457031 398.7727355957031 L 481.47845458984375 398.7727355957031 L 487.3277587890625 398.7727355957031 L 481.47845458984375 394.39208984375 L 458.0813293457031 379.059814453125 L 458.0813293457031 379.059814453125 L 434.6842041015625 364.2751159667969 L 425.3253479003906 359.3468933105469 L 411.2870788574219 350.89849853515625 L 387.88995361328125 339.63397216796875 L 387.88995361328125 339.63397216796875 L 364.4928283691406 329.77752685546875 L 341.095703125 323.20654296875 L 317.6985778808594 319.9210510253906 L 317.6985778808594 319.9210510253906 L 317.6985778808594 319.9210510253906 L 294.3014221191406 319.9210510253906 L 270.904296875 323.20654296875 L 247.50717163085938 329.77752685546875 L 224.11004638671875 339.63397216796875 L 224.11004638671875 339.63397216796875 L 200.71292114257812 350.89849853515625 L 186.6746368408203 359.3468933105469 L 177.3157958984375 364.2751159667969 L 153.9186553955078 379.059814453125 L 153.9186553955078 379.059814453125 L 130.5215301513672 394.39208984375 L 124.67224884033203 398.7727355957031 Z M 317.6985778808594 103.07894897460938 L 317.6985778808594 103.07894897460938 L 317.6985778808594 103.07894897460938 L 341.095703125 99.79346466064453 L 364.4928283691406 93.22248840332031 L 387.88995361328125 83.36602783203125 L 387.88995361328125 83.36602783203125 L 411.2870788574219 72.10150146484375 L 425.3253479003906 63.65311050415039 L 434.6842041015625 58.72488021850586 L 458.0813293457031 43.94019317626953 L 458.0813293457031 43.94019317626953 L 481.47845458984375 28.607921600341797 L 487.3277587890625 24.227272033691406 L 481.47845458984375 24.227272033691406 L 458.0813293457031 24.227272033691406 L 454.18182373046875 24.227272033691406 L 434.6842041015625 35.17889404296875 L 415.9665222167969 43.94019317626953 L 411.2870788574219 46.40430450439453 L 387.88995361328125 56.260765075683594 L 364.4928283691406 63.65311050415039 L 364.4928283691406 63.65311050415039 L 341.095703125 69.28536987304688 L 317.6985778808594 72.10150146484375 L 294.3014221191406 72.10150146484375 L 270.904296875 69.28536987304688 L 247.50717163085938 63.65311050415039 L 247.50717163085938 63.65311050415039 L 224.11004638671875 56.260765075683594 L 200.71292114257812 46.40430450439453 L 196.0334930419922 43.94019317626953 L 177.3157958984375 35.17889404296875 L 157.81817626953125 24.227272033691406 L 153.9186553955078 24.227272033691406 L 130.5215301513672 24.227272033691406 L 124.67224884033203 24.227272033691406 L 130.5215301513672 28.607921600341797 L 153.9186553955078 43.94019317626953 L 153.9186553955078 43.94019317626953 L 177.3157958984375 58.72488021850586 L 186.6746368408203 63.65311050415039 L 200.71292114257812 72.10150146484375 L 224.11004638671875 83.36602783203125 L 224.11004638671875 83.36602783203125 L 247.50717163085938 93.22248840332031 L 270.904296875 99.79346466064453 L 294.3014221191406 103.07894897460938 L 317.6985778808594 103.07894897460938 Z" fill-opacity="1" fill-rule="evenodd" clip-path="url(#ZtIqzILleJXH)"/><path fill="rgb(182,217,226)" stroke="none" paint-order="stroke" d="M 96.72567749023438 398.7727355957031 L 107.12440490722656 398.7727355957031 L 124.67224884033203 398.7727355957031 L 130.5215301513672 394.39208984375 L 153.9186553955078 379.059814453125 L 153.9186553955078 379.059814453125 L 177.3157958984375 364.2751159667969 L 186.6746368408203 359.3468933105469 L 200.71292114257812 350.89849853515625 L 224.11004638671875 339.63397216796875 L 224.11004638671875 339.63397216796875 L 247.50717163085938 329.77752685546875 L 270.904296875 323.20654296875 L 294.3014221191406 319.9210510253906 L 317.6985778808594 319.9210510253906 L 317.6985778808594 319.9210510253906 L 317.6985778808594 319.9210510253906 L 341.095703125 323.20654296875 L 364.4928283691406 329.77752685546875 L 387.88995361328125 339.63397216796875 L 387.88995361328125 339.63397216796875 L 411.2870788574219 350.89849853515625 L 425.3253479003906 359.3468933105469 L 434.6842041015625 364.2751159667969 L 458.0813293457031 379.059814453125 L 458.0813293457031 379.059814453125 L 481.47845458984375 394.39208984375 L 487.3277587890625 398.7727355957031 L 504.8756103515625 398.7727355957031 L 515.2742919921875 398.7727355957031 L 504.8756103515625 390.0114440917969 L 490.25238037109375 379.059814453125 L 481.47845458984375 371.6674499511719 L 464.7662353515625 359.3468933105469 L 458.0813293457031 353.7146301269531 L 438.583740234375 339.63397216796875 L 434.6842041015625 336.3484802246094 L 411.2870788574219 319.9210510253906 L 411.2870788574219 319.9210510253906 L 387.88995361328125 304.1507263183594 L 380.0909118652344 300.2081298828125 L 364.4928283691406 290.3516845703125 L 341.095703125 280.4952087402344 L 341.095703125 280.4952087402344 L 317.6985778808594 273.92425537109375 L 294.3014221191406 273.92425537109375 L 270.904296875 280.4952087402344 L 270.904296875 280.4952087402344 L 247.50717163085938 290.3516845703125 L 231.90908813476562 300.2081298828125 L 224.11004638671875 304.1507263183594 L 200.71292114257812 319.9210510253906 L 200.71292114257812 319.9210510253906 L 177.3157958984375 336.3484802246094 L 173.41627502441406 339.63397216796875 L 153.9186553955078 353.7146301269531 L 147.2337646484375 359.3468933105469 L 130.5215301513672 371.6674499511719 L 121.74760437011719 379.059814453125 L 107.12440490722656 390.0114440917969 L 96.72567749023438 398.7727355957031 Z M 270.904296875 142.50479125976562 L 294.3014221191406 149.0757598876953 L 317.6985778808594 149.0757598876953 L 341.095703125 142.50479125976562 L 341.095703125 142.50479125976562 L 364.4928283691406 132.64833068847656 L 380.0909118652344 122.79186248779297 L 387.88995361328125 118.84928131103516 L 411.2870788574219 103.07894897460938 L 411.2870788574219 103.07894897460938 L 434.6842041015625 86.6515121459961 L 438.583740234375 83.36602783203125 L 458.0813293457031 69.28536987304688 L 464.7662353515625 63.65311050415039 L 481.47845458984375 51.33253479003906 L 490.25238037109375 43.94019317626953 L 504.8756103515625 32.98857116699219 L 515.2742919921875 24.227272033691406 L 504.8756103515625 24.227272033691406 L 487.3277587890625 24.227272033691406 L 481.47845458984375 28.607921600341797 L 458.0813293457031 43.94019317626953 L 458.0813293457031 43.94019317626953 L 434.6842041015625 58.72488021850586 L 425.3253479003906 63.65311050415039 L 411.2870788574219 72.10150146484375 L 387.88995361328125 83.36602783203125 L 387.88995361328125 83.36602783203125 L 364.4928283691406 93.22248840332031 L 341.095703125 99.79346466064453 L 317.6985778808594 103.07894897460938 L 317.6985778808594 103.07894897460938 L 317.6985778808594 103.07894897460938 L 294.3014221191406 103.07894897460938 L 270.904296875 99.79346466064453 L 247.50717163085938 93.22248840332031 L 224.11004638671875 83.36602783203125 L 224.11004638671875 83.36602783203125 L 200.71292114257812 72.10150146484375 L 186.6746368408203 63.65311050415039 L 177.3157958984375 58.72488021850586 L 153.9186553955078 43.94019317626953 L 153.9186553955078 43.94019317626953 L 130.5215301513672 28.607921600341797 L 124.67224884033203 24.227272033691406 L 107.12440490722656 24.227272033691406 L 96.72567749023438 24.227272033691406 L 107.12440490722656 32.98857116699219 L 121.74760437011719 43.94019317626953 L 130.5215301513672 51.33253479003906 L 147.2337646484375 63.65311050415039 L 153.9186553955078 69.28536987304688 L 173.41627502441406 83.36602783203125 L 177.3157958984375 86.6515121459961 L 200.71292114257812 103.07894897460938 L 200.71292114257812 103.07894897460938 L 224.11004638671875 118.84928131103516 L 231.90908813476562 122.79186248779297 L 247.50717163085938 132.64833068847656 L 270.904296875 142.50479125976562 L 270.904296875 142.50479125976562 Z" fill-opacity="1" fill-rule="evenodd" clip-path="url(#ZtIqzILleJXH)"/><path fill="rgb(228,228,195)" stroke="none" paint-order="stroke" d="M 83.7272720336914 398.7727355957031 L 96.72567749023438 398.7727355957031 L 107.12440490722656 390.0114440917969 L 121.74760437011719 379.059814453125 L 130.5215301513672 371.6674499511719 L 147.2337646484375 359.3468933105469 L 153.9186553955078 353.7146301269531 L 173.41627502441406 339.63397216796875 L 177.3157958984375 336.3484802246094 L 200.71292114257812 319.9210510253906 L 200.71292114257812 319.9210510253906 L 224.11004638671875 304.1507263183594 L 231.90908813476562 300.2081298828125 L 247.50717163085938 290.3516845703125 L 270.904296875 280.4952087402344 L 270.904296875 280.4952087402344 L 294.3014221191406 273.92425537109375 L 317.6985778808594 273.92425537109375 L 341.095703125 280.4952087402344 L 341.095703125 280.4952087402344 L 364.4928283691406 290.3516845703125 L 380.0909118652344 300.2081298828125 L 387.88995361328125 304.1507263183594 L 411.2870788574219 319.9210510253906 L 411.2870788574219 319.9210510253906 L 434.6842041015625 336.3484802246094 L 438.583740234375 339.63397216796875 L 458.0813293457031 353.7146301269531 L 464.7662353515625 359.3468933105469 L 481.47845458984375 371.6674499511719 L 490.25238037109375 379.059814453125 L 504.8756103515625 390.0114440917969 L 515.2742919921875 398.7727355957031 L 528.272705078125 398.7727355957031 L 528.272705078125 387.82110595703125 L 517.8740234375 379.059814453125 L 504.8756103515625 366.7392272949219 L 496.1016845703125 359.3468933105469 L 481.47845458984375 345.2662353515625 L 474.7935791015625 339.63397216796875 L 458.0813293457031 323.20654296875 L 454.18182373046875 319.9210510253906 L 434.6842041015625 300.2081298828125 L 434.6842041015625 300.2081298828125 L 415.9665222167969 280.4952087402344 L 411.2870788574219 273.92425537109375 L 399.5885314941406 260.78228759765625 L 387.88995361328125 241.0693817138672 L 387.88995361328125 241.0693817138672 L 380.0909118652344 221.35646057128906 L 380.0909118652344 201.64353942871094 L 387.88995361328125 181.9306182861328 L 387.88995361328125 181.9306182861328 L 399.5885314941406 162.2176971435547 L 411.2870788574219 149.0757598876953 L 415.9665222167969 142.50479125976562 L 434.6842041015625 122.79186248779297 L 434.6842041015625 122.79186248779297 L 454.18182373046875 103.07894897460938 L 458.0813293457031 99.79346466064453 L 474.7935791015625 83.36602783203125 L 481.47845458984375 77.7337646484375 L 496.1016845703125 63.65311050415039 L 504.8756103515625 56.260765075683594 L 517.8740234375 43.94019317626953 L 528.272705078125 35.17889404296875 L 528.272705078125 24.227272033691406 L 515.2742919921875 24.227272033691406 L 504.8756103515625 32.98857116699219 L 490.25238037109375 43.94019317626953 L 481.47845458984375 51.33253479003906 L 464.7662353515625 63.65311050415039 L 458.0813293457031 69.28536987304688 L 438.583740234375 83.36602783203125 L 434.6842041015625 86.6515121459961 L 411.2870788574219 103.07894897460938 L 411.2870788574219 103.07894897460938 L 387.88995361328125 118.84928131103516 L 380.0909118652344 122.79186248779297 L 364.4928283691406 132.64833068847656 L 341.095703125 142.50479125976562 L 341.095703125 142.50479125976562 L 317.6985778808594 149.0757598876953 L 294.3014221191406 149.0757598876953 L 270.904296875 142.50479125976562 L 270.904296875 142.50479125976562 L 247.50717163085938 132.64833068847656 L 231.90908813476562 122.79186248779297 L 224.11004638671875 118.84928131103516 L 200.71292114257812 103.07894897460938 L 200.71292114257812 103.07894897460938 L 177.3157958984375 86.6515121459961 L 173.41627502441406 83.36602783203125 L 153.9186553955078 69.28536987304688 L 147.2337646484375 63.65311050415039 L 130.5215301513672 51.33253479003906 L 121.74760437011719 43.94019317626953 L 107.12440490722656 32.98857116699219 L 96.72567749023438 24.227272033691406 L 83.7272720336914 24.227272033691406 L 83.7272720336914 35.17889404296875 L 94.1259994506836 43.94019317626953 L 107.12440490722656 56.260765075683594 L 115.89832305908203 63.65311050415039 L 130.5215301513672 77.7337646484375 L 137.2064208984375 83.36602783203125 L 153.9186553955078 99.79346466064453 L 157.81817626953125 103.07894897460938 L 177.3157958984375 122.79186248779297 L 177.3157958984375 122.79186248779297 L 196.0334930419922 142.50479125976562 L 200.71292114257812 149.0757598876953 L 212.41148376464844 162.2176971435547 L 224.11004638671875 181.9306182861328 L 224.11004638671875 181.9306182861328 L 231.90908813476562 201.64353942871094 L 231.90908813476562 221.35646057128906 L 224.11004638671875 241.0693817138672 L 224.11004638671875 241.0693817138672 L 212.41148376464844 260.78228759765625 L 200.71292114257812 273.92425537109375 L 196.0334930419922 280.4952087402344 L 177.3157958984375 300.2081298828125 L 177.3157958984375 300.2081298828125 L 157.81817626953125 319.9210510253906 L 153.9186553955078 323.20654296875 L 137.2064208984375 339.63397216796875 L 130.5215301513672 345.2662353515625 L 115.89832305908203 359.3468933105469 L 107.12440490722656 366.7392272949219 L 94.1259994506836 379.059814453125 L 83.7272720336914 387.82110595703125 L 83.7272720336914 398.7727355957031 Z" fill-opacity="1" fill-rule="evenodd" clip-path="url(#ZtIqzILleJXH)"/><path fill="rgb(250,204,133)" stroke="none" paint-order="stroke" d="M 83.7272720336914 379.059814453125 L 83.7272720336914 387.82110595703125 L 94.1259994506836 379.059814453125 L 107.12440490722656 366.7392272949219 L 115.89832305908203 359.3468933105469 L 130.5215301513672 345.2662353515625 L 137.2064208984375 339.63397216796875 L 153.9186553955078 323.20654296875 L 157.81817626953125 319.9210510253906 L 177.3157958984375 300.2081298828125 L 177.3157958984375 300.2081298828125 L 196.0334930419922 280.4952087402344 L 200.71292114257812 273.92425537109375 L 212.41148376464844 260.78228759765625 L 224.11004638671875 241.0693817138672 L 224.11004638671875 241.0693817138672 L 231.90908813476562 221.35646057128906 L 231.90908813476562 201.64353942871094 L 224.11004638671875 181.9306182861328 L 224.11004638671875 181.9306182861328 L 212.41148376464844 162.2176971435547 L 200.71292114257812 149.0757598876953 L 196.0334930419922 142.50479125976562 L 177.3157958984375 122.79186248779297 L 177.3157958984375 122.79186248779297 L 157.81817626953125 103.07894897460938 L 153.9186553955078 99.79346466064453 L 137.2064208984375 83.36602783203125 L 130.5215301513672 77.7337646484375 L 115.89832305908203 63.65311050415039 L 107.12440490722656 56.260765075683594 L 94.1259994506836 43.94019317626953 L 83.7272720336914 35.17889404296875 L 83.7272720336914 43.94019317626953 L 83.7272720336914 58.72488021850586 L 88.9266357421875 63.65311050415039 L 107.12440490722656 83.36602783203125 L 107.12440490722656 83.36602783203125 L 124.67224884033203 103.07894897460938 L 130.5215301513672 110.964111328125 L 140.5488739013672 122.79186248779297 L 153.9186553955078 142.50479125976562 L 153.9186553955078 142.50479125976562 L 165.61721801757812 162.2176971435547 L 173.41627502441406 181.9306182861328 L 177.3157958984375 201.64353942871094 L 177.3157958984375 201.64353942871094 L 177.3157958984375 221.35646057128906 L 177.3157958984375 221.35646057128906 L 173.41627502441406 241.0693817138672 L 165.61721801757812 260.78228759765625 L 153.9186553955078 280.4952087402344 L 153.9186553955078 280.4952087402344 L 140.5488739013672 300.2081298828125 L 130.5215301513672 312.035888671875 L 124.67224884033203 319.9210510253906 L 107.12440490722656 339.63397216796875 L 107.12440490722656 339.63397216796875 L 88.9266357421875 359.3468933105469 L 83.7272720336914 364.2751159667969 L 83.7272720336914 379.059814453125 Z M 517.8740234375 379.059814453125 L 528.272705078125 387.82110595703125 L 528.272705078125 379.059814453125 L 528.272705078125 364.2751159667969 L 523.0733642578125 359.3468933105469 L 504.8756103515625 339.63397216796875 L 504.8756103515625 339.63397216796875 L 487.3277587890625 319.9210510253906 L 481.47845458984375 312.035888671875 L 471.4511413574219 300.2081298828125 L 458.0813293457031 280.4952087402344 L 458.0813293457031 280.4952087402344 L 446.3827819824219 260.78228759765625 L 438.583740234375 241.0693817138672 L 434.6842041015625 221.35646057128906 L 434.6842041015625 221.35646057128906 L 434.6842041015625 201.64353942871094 L 434.6842041015625 201.64353942871094 L 438.583740234375 181.9306182861328 L 446.3827819824219 162.2176971435547 L 458.0813293457031 142.50479125976562 L 458.0813293457031 142.50479125976562 L 471.4511413574219 122.79186248779297 L 481.47845458984375 110.964111328125 L 487.3277587890625 103.07894897460938 L 504.8756103515625 83.36602783203125 L 504.8756103515625 83.36602783203125 L 523.0733642578125 63.65311050415039 L 528.272705078125 58.72488021850586 L 528.272705078125 43.94019317626953 L 528.272705078125 35.17889404296875 L 517.8740234375 43.94019317626953 L 504.8756103515625 56.260765075683594 L 496.1016845703125 63.65311050415039 L 481.47845458984375 77.7337646484375 L 474.7935791015625 83.36602783203125 L 458.0813293457031 99.79346466064453 L 454.18182373046875 103.07894897460938 L 434.6842041015625 122.79186248779297 L 434.6842041015625 122.79186248779297 L 415.9665222167969 142.50479125976562 L 411.2870788574219 149.0757598876953 L 399.5885314941406 162.2176971435547 L 387.88995361328125 181.9306182861328 L 387.88995361328125 181.9306182861328 L 380.0909118652344 201.64353942871094 L 380.0909118652344 221.35646057128906 L 387.88995361328125 241.0693817138672 L 387.88995361328125 241.0693817138672 L 399.5885314941406 260.78228759765625 L 411.2870788574219 273.92425537109375 L 415.9665222167969 280.4952087402344 L 434.6842041015625 300.2081298828125 L 434.6842041015625 300.2081298828125 L 454.18182373046875 319.9210510253906 L 458.0813293457031 323.20654296875 L 474.7935791015625 339.63397216796875 L 481.47845458984375 345.2662353515625 L 496.1016845703125 359.3468933105469 L 504.8756103515625 366.7392272949219 L 517.8740234375 379.059814453125 Z" fill-opacity="1" fill-rule="evenodd" clip-path="url(#ZtIqzILleJXH)"/><path fill="rgb(248,150,89)" stroke="none" paint-order="stroke" d="M 83.7272720336914 359.3468933105469 L 83.7272720336914 364.2751159667969 L 88.9266357421875 359.3468933105469 L 107.12440490722656 339.63397216796875 L 107.12440490722656 339.63397216796875 L 124.67224884033203 319.9210510253906 L 130.5215301513672 312.035888671875 L 140.5488739013672 300.2081298828125 L 153.9186553955078 280.4952087402344 L 153.9186553955078 280.4952087402344 L 165.61721801757812 260.78228759765625 L 173.41627502441406 241.0693817138672 L 177.3157958984375 221.35646057128906 L 177.3157958984375 221.35646057128906 L 177.3157958984375 201.64353942871094 L 177.3157958984375 201.64353942871094 L 173.41627502441406 181.9306182861328 L 165.61721801757812 162.2176971435547 L 153.9186553955078 142.50479125976562 L 153.9186553955078 142.50479125976562 L 140.5488739013672 122.79186248779297 L 130.5215301513672 110.964111328125 L 124.67224884033203 103.07894897460938 L 107.12440490722656 83.36602783203125 L 107.12440490722656 83.36602783203125 L 88.9266357421875 63.65311050415039 L 83.7272720336914 58.72488021850586 L 83.7272720336914 63.65311050415039 L 83.7272720336914 83.36602783203125 L 83.7272720336914 86.6515121459961 L 96.72567749023438 103.07894897460938 L 107.12440490722656 118.84928131103516 L 110.04904174804688 122.79186248779297 L 121.74760437011719 142.50479125976562 L 130.5215301513672 162.2176971435547 L 130.5215301513672 162.2176971435547 L 137.2064208984375 181.9306182861328 L 140.5488739013672 201.64353942871094 L 140.5488739013672 221.35646057128906 L 137.2064208984375 241.0693817138672 L 130.5215301513672 260.78228759765625 L 130.5215301513672 260.78228759765625 L 121.74760437011719 280.4952087402344 L 110.04904174804688 300.2081298828125 L 107.12440490722656 304.1507263183594 L 96.72567749023438 319.9210510253906 L 83.7272720336914 336.3484802246094 L 83.7272720336914 339.63397216796875 L 83.7272720336914 359.3468933105469 Z M 523.0733642578125 359.3468933105469 L 528.272705078125 364.2751159667969 L 528.272705078125 359.3468933105469 L 528.272705078125 339.63397216796875 L 528.272705078125 336.3484802246094 L 515.2742919921875 319.9210510253906 L 504.8756103515625 304.1507263183594 L 501.9509582519531 300.2081298828125 L 490.25238037109375 280.4952087402344 L 481.47845458984375 260.78228759765625 L 481.47845458984375 260.78228759765625 L 474.7935791015625 241.0693817138672 L 471.4511413574219 221.35646057128906 L 471.4511413574219 201.64353942871094 L 474.7935791015625 181.9306182861328 L 481.47845458984375 162.2176971435547 L 481.47845458984375 162.2176971435547 L 490.25238037109375 142.50479125976562 L 501.9509582519531 122.79186248779297 L 504.8756103515625 118.84928131103516 L 515.2742919921875 103.07894897460938 L 528.272705078125 86.6515121459961 L 528.272705078125 83.36602783203125 L 528.272705078125 63.65311050415039 L 528.272705078125 58.72488021850586 L 523.0733642578125 63.65311050415039 L 504.8756103515625 83.36602783203125 L 504.8756103515625 83.36602783203125 L 487.3277587890625 103.07894897460938 L 481.47845458984375 110.964111328125 L 471.4511413574219 122.79186248779297 L 458.0813293457031 142.50479125976562 L 458.0813293457031 142.50479125976562 L 446.3827819824219 162.2176971435547 L 438.583740234375 181.9306182861328 L 434.6842041015625 201.64353942871094 L 434.6842041015625 201.64353942871094 L 434.6842041015625 221.35646057128906 L 434.6842041015625 221.35646057128906 L 438.583740234375 241.0693817138672 L 446.3827819824219 260.78228759765625 L 458.0813293457031 280.4952087402344 L 458.0813293457031 280.4952087402344 L 471.4511413574219 300.2081298828125 L 481.47845458984375 312.035888671875 L 487.3277587890625 319.9210510253906 L 504.8756103515625 339.63397216796875 L 504.8756103515625 339.63397216796875 L 523.0733642578125 359.3468933105469 Z" fill-opacity="1" fill-rule="evenodd" clip-path="url(#ZtIqzILleJXH)"/><path fill="rgb(226,76,52)" stroke="none" paint-order="stroke" d="M 83.7272720336914 319.9210510253906 L 83.7272720336914 336.3484802246094 L 96.72567749023438 319.9210510253906 L 107.12440490722656 304.1507263183594 L 110.04904174804688 300.2081298828125 L 121.74760437011719 280.4952087402344 L 130.5215301513672 260.78228759765625 L 130.5215301513672 260.78228759765625 L 137.2064208984375 241.0693817138672 L 140.5488739013672 221.35646057128906 L 140.5488739013672 201.64353942871094 L 137.2064208984375 181.9306182861328 L 130.5215301513672 162.2176971435547 L 130.5215301513672 162.2176971435547 L 121.74760437011719 142.50479125976562 L 110.04904174804688 122.79186248779297 L 107.12440490722656 118.84928131103516 L 96.72567749023438 103.07894897460938 L 83.7272720336914 86.6515121459961 L 83.7272720336914 103.07894897460938 L 83.7272720336914 122.79186248779297 L 83.7272720336914 122.79186248779297 L 94.1259994506836 142.50479125976562 L 101.92504119873047 162.2176971435547 L 107.12440490722656 181.9306182861328 L 107.12440490722656 181.9306182861328 L 110.04904174804688 201.64353942871094 L 110.04904174804688 221.35646057128906 L 107.12440490722656 241.0693817138672 L 107.12440490722656 241.0693817138672 L 101.92504119873047 260.78228759765625 L 94.1259994506836 280.4952087402344 L 83.7272720336914 300.2081298828125 L 83.7272720336914 300.2081298828125 L 83.7272720336914 319.9210510253906 Z M 515.2742919921875 319.9210510253906 L 528.272705078125 336.3484802246094 L 528.272705078125 319.9210510253906 L 528.272705078125 300.2081298828125 L 528.272705078125 300.2081298828125 L 517.8740234375 280.4952087402344 L 510.074951171875 260.78228759765625 L 504.8756103515625 241.0693817138672 L 504.8756103515625 241.0693817138672 L 501.9509582519531 221.35646057128906 L 501.9509582519531 201.64353942871094 L 504.8756103515625 181.9306182861328 L 504.8756103515625 181.9306182861328 L 510.074951171875 162.2176971435547 L 517.8740234375 142.50479125976562 L 528.272705078125 122.79186248779297 L 528.272705078125 122.79186248779297 L 528.272705078125 103.07894897460938 L 528.272705078125 86.6515121459961 L 515.2742919921875 103.07894897460938 L 504.8756103515625 118.84928131103516 L 501.9509582519531 122.79186248779297 L 490.25238037109375 142.50479125976562 L 481.47845458984375 162.2176971435547 L 481.47845458984375 162.2176971435547 L 474.7935791015625 181.9306182861328 L 471.4511413574219 201.64353942871094 L 471.4511413574219 221.35646057128906 L 474.7935791015625 241.0693817138672 L 481.47845458984375 260.78228759765625 L 481.47845458984375 260.78228759765625 L 490.25238037109375 280.4952087402344 L 501.9509582519531 300.2081298828125 L 504.8756103515625 304.1507263183594 L 515.2742919921875 319.9210510253906 Z" fill-opacity="1" fill-rule="evenodd" clip-path="url(#ZtIqzILleJXH)"/><path fill="rgb(165,0,38)" stroke="none" paint-order="stroke" d="M 83.7272720336914 280.4952087402344 L 83.7272720336914 300.2081298828125 L 94.1259994506836 280.4952087402344 L 101.92504119873047 260.78228759765625 L 107.12440490722656 241.0693817138672 L 107.12440490722656 241.0693817138672 L 110.04904174804688 221.35646057128906 L 110.04904174804688 201.64353942871094 L 107.12440490722656 181.9306182861328 L 107.12440490722656 181.9306182861328 L 101.92504119873047 162.2176971435547 L 94.1259994506836 142.50479125976562 L 83.7272720336914 122.79186248779297 L 83.7272720336914 122.79186248779297 L 83.7272720336914 122.79186248779297 L 83.7272720336914 142.50479125976562 L 83.7272720336914 162.2176971435547 L 83.7272720336914 181.9306182861328 L 83.7272720336914 201.64353942871094 L 83.7272720336914 221.35646057128906 L 83.7272720336914 241.0693817138672 L 83.7272720336914 260.78228759765625 L 83.7272720336914 280.4952087402344 Z M 517.8740234375 280.4952087402344 L 528.272705078125 300.2081298828125 L 528.272705078125 280.4952087402344 L 528.272705078125 260.78228759765625 L 528.272705078125 241.0693817138672 L 528.272705078125 221.35646057128906 L 528.272705078125 201.64353942871094 L 528.272705078125 181.9306182861328 L 528.272705078125 162.2176971435547 L 528.272705078125 142.50479125976562 L 528.272705078125 122.79186248779297 L 528.272705078125 122.79186248779297 L 528.272705078125 122.79186248779297 L 517.8740234375 142.50479125976562 L 510.074951171875 162.2176971435547 L 504.8756103515625 181.9306182861328 L 504.8756103515625 181.9306182861328 L 501.9509582519531 201.64353942871094 L 501.9509582519531 221.35646057128906 L 504.8756103515625 241.0693817138672 L 504.8756103515625 241.0693817138672 L 510.074951171875 260.78228759765625 L 517.8740234375 280.4952087402344 Z" fill-opacity="1" fill-rule="evenodd" clip-path="url(#ZtIqzILleJXH)"/><path fill="none" stroke="rgb(0,0,0)" paint-order="fill" d="M 294.3014221191406 398.7727355957031 L 294.3014221191406 398.7727355957031 L 317.6985778808594 398.7727355957031 L 317.6985778808594 398.7727355957031 M 317.6985778808594 24.227272033691406 L 317.6985778808594 24.227272033691406 L 294.3014221191406 24.227272033691406 L 294.3014221191406 24.227272033691406" stroke-opacity="1" stroke-linejoin="bevel" stroke-miterlimit="10" clip-path="url(#ZtIqzILleJXH)"/><path fill="none" stroke="rgb(0,0,0)" paint-order="fill" d="M 200.71292114257812 398.7727355957031 L 224.11004638671875 390.0114440917969 L 247.50717163085938 383.4404602050781 L 270.904296875 379.059814453125 L 270.904296875 379.059814453125 L 294.3014221191406 376.595703125 L 317.6985778808594 376.595703125 L 341.095703125 379.059814453125 L 341.095703125 379.059814453125 L 364.4928283691406 383.4404602050781 L 387.88995361328125 390.0114440917969 L 411.2870788574219 398.7727355957031 L 411.2870788574219 398.7727355957031 M 411.2870788574219 24.227272033691406 L 411.2870788574219 24.227272033691406 L 387.88995361328125 32.98857116699219 L 364.4928283691406 39.55954360961914 L 341.095703125 43.94019317626953 L 341.095703125 43.94019317626953 L 317.6985778808594 46.40430450439453 L 294.3014221191406 46.40430450439453 L 270.904296875 43.94019317626953 L 270.904296875 43.94019317626953 L 247.50717163085938 39.55954360961914 L 224.11004638671875 32.98857116699219 L 200.71292114257812 24.227272033691406" stroke-opacity="1" stroke-linejoin="bevel" stroke-miterlimit="10" clip-path="url(#ZtIqzILleJXH)"/><path fill="none" stroke="rgb(0,0,0)" paint-order="fill" d="M 157.81817626953125 398.7727355957031 L 177.3157958984375 387.82110595703125 L 196.0334930419922 379.059814453125 L 200.71292114257812 376.595703125 L 224.11004638671875 366.7392272949219 L 247.50717163085938 359.3468933105469 L 247.50717163085938 359.3468933105469 L 270.904296875 353.7146301269531 L 294.3014221191406 350.89849853515625 L 317.6985778808594 350.89849853515625 L 341.095703125 353.7146301269531 L 364.4928283691406 359.3468933105469 L 364.4928283691406 359.3468933105469 L 387.88995361328125 366.7392272949219 L 411.2870788574219 376.595703125 L 415.9665222167969 379.059814453125 L 434.6842041015625 387.82110595703125 L 454.18182373046875 398.7727355957031 M 454.18182373046875 24.227272033691406 L 434.6842041015625 35.17889404296875 L 415.9665222167969 43.94019317626953 L 411.2870788574219 46.40430450439453 L 387.88995361328125 56.260765075683594 L 364.4928283691406 63.65311050415039 L 364.4928283691406 63.65311050415039 L 341.095703125 69.28536987304688 L 317.6985778808594 72.10150146484375 L 294.3014221191406 72.10150146484375 L 270.904296875 69.28536987304688 L 247.50717163085938 63.65311050415039 L 247.50717163085938 63.65311050415039 L 224.11004638671875 56.260765075683594 L 200.71292114257812 46.40430450439453 L 196.0334930419922 43.94019317626953 L 177.3157958984375 35.17889404296875 L 157.81817626953125 24.227272033691406" stroke-opacity="1" stroke-linejoin="bevel" stroke-miterlimit="10" clip-path="url(#ZtIqzILleJXH)"/><path fill="none" stroke="rgb(0,0,0)" paint-order="fill" d="M 124.67224884033203 398.7727355957031 L 130.5215301513672 394.39208984375 L 153.9186553955078 379.059814453125 L 153.9186553955078 379.059814453125 L 177.3157958984375 364.2751159667969 L 186.6746368408203 359.3468933105469 L 200.71292114257812 350.89849853515625 L 224.11004638671875 339.63397216796875 L 224.11004638671875 339.63397216796875 L 247.50717163085938 329.77752685546875 L 270.904296875 323.20654296875 L 294.3014221191406 319.9210510253906 L 317.6985778808594 319.9210510253906 L 317.6985778808594 319.9210510253906 L 317.6985778808594 319.9210510253906 L 341.095703125 323.20654296875 L 364.4928283691406 329.77752685546875 L 387.88995361328125 339.63397216796875 L 387.88995361328125 339.63397216796875 L 411.2870788574219 350.89849853515625 L 425.3253479003906 359.3468933105469 L 434.6842041015625 364.2751159667969 L 458.0813293457031 379.059814453125 L 458.0813293457031 379.059814453125 L 481.47845458984375 394.39208984375 L 487.3277587890625 398.7727355957031 M 487.3277587890625 24.227272033691406 L 481.47845458984375 28.607921600341797 L 458.0813293457031 43.94019317626953 L 458.0813293457031 43.94019317626953 L 434.6842041015625 58.72488021850586 L 425.3253479003906 63.65311050415039 L 411.2870788574219 72.10150146484375 L 387.88995361328125 83.36602783203125 L 387.88995361328125 83.36602783203125 L 364.4928283691406 93.22248840332031 L 341.095703125 99.79346466064453 L 317.6985778808594 103.07894897460938 L 317.6985778808594 103.07894897460938 L 317.6985778808594 103.07894897460938 L 294.3014221191406 103.07894897460938 L 270.904296875 99.79346466064453 L 247.50717163085938 93.22248840332031 L 224.11004638671875 83.36602783203125 L 224.11004638671875 83.36602783203125 L 200.71292114257812 72.10150146484375 L 186.6746368408203 63.65311050415039 L 177.3157958984375 58.72488021850586 L 153.9186553955078 43.94019317626953 L 153.9186553955078 43.94019317626953 L 130.5215301513672 28.607921600341797 L 124.67224884033203 24.227272033691406" stroke-opacity="1" stroke-linejoin="bevel" stroke-miterlimit="10" clip-path="url(#ZtIqzILleJXH)"/><path fill="none" stroke="rgb(0,0,0)" paint-order="fill" d="M 96.72567749023438 398.7727355957031 L 107.12440490722656 390.0114440917969 L 121.74760437011719 379.059814453125 L 130.5215301513672 371.6674499511719 L 147.2337646484375 359.3468933105469 L 153.9186553955078 353.7146301269531 L 173.41627502441406 339.63397216796875 L 177.3157958984375 336.3484802246094 L 200.71292114257812 319.9210510253906 L 200.71292114257812 319.9210510253906 L 224.11004638671875 304.1507263183594 L 231.90908813476562 300.2081298828125 L 247.50717163085938 290.3516845703125 L 270.904296875 280.4952087402344 L 270.904296875 280.4952087402344 L 294.3014221191406 273.92425537109375 L 317.6985778808594 273.92425537109375 L 341.095703125 280.4952087402344 L 341.095703125 280.4952087402344 L 364.4928283691406 290.3516845703125 L 380.0909118652344 300.2081298828125 L 387.88995361328125 304.1507263183594 L 411.2870788574219 319.9210510253906 L 411.2870788574219 319.9210510253906 L 434.6842041015625 336.3484802246094 L 438.583740234375 339.63397216796875 L 458.0813293457031 353.7146301269531 L 464.7662353515625 359.3468933105469 L 481.47845458984375 371.6674499511719 L 490.25238037109375 379.059814453125 L 504.8756103515625 390.0114440917969 L 515.2742919921875 398.7727355957031 M 515.2742919921875 24.227272033691406 L 504.8756103515625 32.98857116699219 L 490.25238037109375 43.94019317626953 L 481.47845458984375 51.33253479003906 L 464.7662353515625 63.65311050415039 L 458.0813293457031 69.28536987304688 L 438.583740234375 83.36602783203125 L 434.6842041015625 86.6515121459961 L 411.2870788574219 103.07894897460938 L 411.2870788574219 103.07894897460938 L 387.88995361328125 118.84928131103516 L 380.0909118652344 122.79186248779297 L 364.4928283691406 132.64833068847656 L 341.095703125 142.50479125976562 L 341.095703125 142.50479125976562 L 317.6985778808594 149.0757598876953 L 294.3014221191406 149.0757598876953 L 270.904296875 142.50479125976562 L 270.904296875 142.50479125976562 L 247.50717163085938 132.64833068847656 L 231.90908813476562 122.79186248779297 L 224.11004638671875 118.84928131103516 L 200.71292114257812 103.07894897460938 L 200.71292114257812 103.07894897460938 L 177.3157958984375 86.6515121459961 L 173.41627502441406 83.36602783203125 L 153.9186553955078 69.28536987304688 L 147.2337646484375 63.65311050415039 L 130.5215301513672 51.33253479003906 L 121.74760437011719 43.94019317626953 L 107.12440490722656 32.98857116699219 L 96.72567749023438 24.227272033691406" stroke-opacity="1" stroke-linejoin="bevel" stroke-miterlimit="10" clip-path="url(#ZtIqzILleJXH)"/><path fill="none" stroke="rgb(0,0,0)" paint-order="fill" d="M 83.7272720336914 387.82110595703125 L 94.1259994506836 379.059814453125 L 107.12440490722656 366.7392272949219 L 115.89832305908203 359.3468933105469 L 130.5215301513672 345.2662353515625 L 137.2064208984375 339.63397216796875 L 153.9186553955078 323.20654296875 L 157.81817626953125 319.9210510253906 L 177.3157958984375 300.2081298828125 L 177.3157958984375 300.2081298828125 L 196.0334930419922 280.4952087402344 L 200.71292114257812 273.92425537109375 L 212.41148376464844 260.78228759765625 L 224.11004638671875 241.0693817138672 L 224.11004638671875 241.0693817138672 L 231.90908813476562 221.35646057128906 L 231.90908813476562 201.64353942871094 L 224.11004638671875 181.9306182861328 L 224.11004638671875 181.9306182861328 L 212.41148376464844 162.2176971435547 L 200.71292114257812 149.0757598876953 L 196.0334930419922 142.50479125976562 L 177.3157958984375 122.79186248779297 L 177.3157958984375 122.79186248779297 L 157.81817626953125 103.07894897460938 L 153.9186553955078 99.79346466064453 L 137.2064208984375 83.36602783203125 L 130.5215301513672 77.7337646484375 L 115.89832305908203 63.65311050415039 L 107.12440490722656 56.260765075683594 L 94.1259994506836 43.94019317626953 L 83.7272720336914 35.17889404296875 M 528.272705078125 35.17889404296875 L 517.8740234375 43.94019317626953 L 504.8756103515625 56.260765075683594 L 496.1016845703125 63.65311050415039 L 481.47845458984375 77.7337646484375 L 474.7935791015625 83.36602783203125 L 458.0813293457031 99.79346466064453 L 454.18182373046875 103.07894897460938 L 434.6842041015625 122.79186248779297 L 434.6842041015625 122.79186248779297 L 415.9665222167969 142.50479125976562 L 411.2870788574219 149.0757598876953 L 399.5885314941406 162.2176971435547 L 387.88995361328125 181.9306182861328 L 387.88995361328125 181.9306182861328 L 380.0909118652344 201.64353942871094 L 380.0909118652344 221.35646057128906 L 387.88995361328125 241.0693817138672 L 387.88995361328125 241.0693817138672 L 399.5885314941406 260.78228759765625 L 411.2870788574219 273.92425537109375 L 415.9665222167969 280.4952087402344 L 434.6842041015625 300.2081298828125 L 434.6842041015625 300.2081298828125 L 454.18182373046875 319.9210510253906 L 458.0813293457031 323.20654296875 L 474.7935791015625 339.63397216796875 L 481.47845458984375 345.2662353515625 L 496.1016845703125 359.3468933105469 L 504.8756103515625 366.7392272949219 L 517.8740234375 379.059814453125 L 528.272705078125 387.82110595703125" stroke-opacity="1" stroke-linejoin="bevel" stroke-miterlimit="10" clip-path="url(#ZtIqzILleJXH)"/><path fill="none" stroke="rgb(0,0,0)" paint-order="fill" d="M 83.7272720336914 364.2751159667969 L 88.9266357421875 359.3468933105469 L 107.12440490722656 339.63397216796875 L 107.12440490722656 339.63397216796875 L 124.67224884033203 319.9210510253906 L 130.5215301513672 312.035888671875 L 140.5488739013672 300.2081298828125 L 153.9186553955078 280.4952087402344 L 153.9186553955078 280.4952087402344 L 165.61721801757812 260.78228759765625 L 173.41627502441406 241.0693817138672 L 177.3157958984375 221.35646057128906 L 177.3157958984375 221.35646057128906 L 177.3157958984375 201.64353942871094 L 177.3157958984375 201.64353942871094 L 173.41627502441406 181.9306182861328 L 165.61721801757812 162.2176971435547 L 153.9186553955078 142.50479125976562 L 153.9186553955078 142.50479125976562 L 140.5488739013672 122.79186248779297 L 130.5215301513672 110.964111328125 L 124.67224884033203 103.07894897460938 L 107.12440490722656 83.36602783203125 L 107.12440490722656 83.36602783203125 L 88.9266357421875 63.65311050415039 L 83.7272720336914 58.72488021850586 M 528.272705078125 58.72488021850586 L 523.0733642578125 63.65311050415039 L 504.8756103515625 83.36602783203125 L 504.8756103515625 83.36602783203125 L 487.3277587890625 103.07894897460938 L 481.47845458984375 110.964111328125 L 471.4511413574219 122.79186248779297 L 458.0813293457031 142.50479125976562 L 458.0813293457031 142.50479125976562 L 446.3827819824219 162.2176971435547 L 438.583740234375 181.9306182861328 L 434.6842041015625 201.64353942871094 L 434.6842041015625 201.64353942871094 L 434.6842041015625 221.35646057128906 L 434.6842041015625 221.35646057128906 L 438.583740234375 241.0693817138672 L 446.3827819824219 260.78228759765625 L 458.0813293457031 280.4952087402344 L 458.0813293457031 280.4952087402344 L 471.4511413574219 300.2081298828125 L 481.47845458984375 312.035888671875 L 487.3277587890625 319.9210510253906 L 504.8756103515625 339.63397216796875 L 504.8756103515625 339.63397216796875 L 523.0733642578125 359.3468933105469 L 528.272705078125 364.2751159667969" stroke-opacity="1" stroke-linejoin="bevel" stroke-miterlimit="10" clip-path="url(#ZtIqzILleJXH)"/><path fill="none" stroke="rgb(0,0,0)" paint-order="fill" d="M 83.7272720336914 336.3484802246094 L 96.72567749023438 319.9210510253906 L 107.12440490722656 304.1507263183594 L 110.04904174804688 300.2081298828125 L 121.74760437011719 280.4952087402344 L 130.5215301513672 260.78228759765625 L 130.5215301513672 260.78228759765625 L 137.2064208984375 241.0693817138672 L 140.5488739013672 221.35646057128906 L 140.5488739013672 201.64353942871094 L 137.2064208984375 181.9306182861328 L 130.5215301513672 162.2176971435547 L 130.5215301513672 162.2176971435547 L 121.74760437011719 142.50479125976562 L 110.04904174804688 122.79186248779297 L 107.12440490722656 118.84928131103516 L 96.72567749023438 103.07894897460938 L 83.7272720336914 86.6515121459961 M 528.272705078125 86.6515121459961 L 515.2742919921875 103.07894897460938 L 504.8756103515625 118.84928131103516 L 501.9509582519531 122.79186248779297 L 490.25238037109375 142.50479125976562 L 481.47845458984375 162.2176971435547 L 481.47845458984375 162.2176971435547 L 474.7935791015625 181.9306182861328 L 471.4511413574219 201.64353942871094 L 471.4511413574219 221.35646057128906 L 474.7935791015625 241.0693817138672 L 481.47845458984375 260.78228759765625 L 481.47845458984375 260.78228759765625 L 490.25238037109375 280.4952087402344 L 501.9509582519531 300.2081298828125 L 504.8756103515625 304.1507263183594 L 515.2742919921875 319.9210510253906 L 528.272705078125 336.3484802246094" stroke-opacity="1" stroke-linejoin="bevel" stroke-miterlimit="10" clip-path="url(#ZtIqzILleJXH)"/><path fill="none" stroke="rgb(0,0,0)" paint-order="fill" d="M 83.7272720336914 300.2081298828125 L 94.1259994506836 280.4952087402344 L 101.92504119873047 260.78228759765625 L 107.12440490722656 241.0693817138672 L 107.12440490722656 241.0693817138672 L 110.04904174804688 221.35646057128906 L 110.04904174804688 201.64353942871094 L 107.12440490722656 181.9306182861328 L 107.12440490722656 181.9306182861328 L 101.92504119873047 162.2176971435547 L 94.1259994506836 142.50479125976562 L 83.7272720336914 122.79186248779297 L 83.7272720336914 122.79186248779297 M 528.272705078125 122.79186248779297 L 528.272705078125 122.79186248779297 L 517.8740234375 142.50479125976562 L 510.074951171875 162.2176971435547 L 504.8756103515625 181.9306182861328 L 504.8756103515625 181.9306182861328 L 501.9509582519531 201.64353942871094 L 501.9509582519531 221.35646057128906 L 504.8756103515625 241.0693817138672 L 504.8756103515625 241.0693817138672 L 510.074951171875 260.78228759765625 L 517.8740234375 280.4952087402344 L 528.272705078125 300.2081298828125" stroke-opacity="1" stroke-linejoin="bevel" stroke-miterlimit="10" clip-path="url(#ZtIqzILleJXH)"/><path fill="none" stroke="rgb(0,0,0)" paint-order="fill" d="" stroke-opacity="1" stroke-linejoin="bevel" stroke-miterlimit="10" clip-path="url(#ZtIqzILleJXH)"/><path fill="none" stroke="rgb(0,0,0)" paint-order="fill" d="M 61.5 417.5 L 550.5 417.5" stroke-opacity="1" stroke-linejoin="bevel" stroke-miterlimit="10"/><path fill="none" stroke="rgb(0,0,0)" paint-order="fill" d="M 83.5 423.5 L 83.5 415.5 M 194.5 423.5 L 194.5 415.5 M 306.5 423.5 L 306.5 415.5 M 417.5 423.5 L 417.5 415.5 M 528.5 423.5 L 528.5 415.5" stroke-opacity="1" stroke-linejoin="bevel" stroke-miterlimit="10"/><path fill="none" stroke="rgb(0,0,0)" paint-order="fill" d="M 61.5 421.5 L 61.5 417.5 M 83.5 421.5 L 83.5 417.5 M 105.5 421.5 L 105.5 417.5 M 128.5 421.5 L 128.5 417.5 M 150.5 421.5 L 150.5 417.5 M 172.5 421.5 L 172.5 417.5 M 194.5 421.5 L 194.5 417.5 M 217.5 421.5 L 217.5 417.5 M 239.5 421.5 L 239.5 417.5 M 261.5 421.5 L 261.5 417.5 M 283.5 421.5 L 283.5 417.5 M 306.5 421.5 L 306.5 417.5 M 328.5 421.5 L 328.5 417.5 M 350.5 421.5 L 350.5 417.5 M 372.5 421.5 L 372.5 417.5 M 394.5 421.5 L 394.5 417.5 M 417.5 421.5 L 417.5 417.5 M 439.5 421.5 L 439.5 417.5 M 461.5 421.5 L 461.5 417.5 M 483.5 421.5 L 483.5 417.5 M 506.5 421.5 L 506.5 417.5 M 528.5 421.5 L 528.5 417.5 M 550.5 421.5 L 550.5 417.5" stroke-opacity="1" stroke-linejoin="bevel" stroke-miterlimit="10"/><text fill="rgb(0,0,0)" stroke="none" font-family="serif" font-size="10pt" font-style="normal" font-weight="normal" text-decoration="normal" x="73.36060523986816" y="438" text-anchor="start" dominant-baseline="alphabetic" transform="matrix(1, 0, 0, 1, 0.5, 0.5)" fill-opacity="1">4</text><text fill="none" stroke="rgb(0,0,0)" font-family="serif" font-size="10pt" font-style="normal" font-weight="normal" text-decoration="normal" x="73.36060523986816" y="438" text-anchor="start" dominant-baseline="alphabetic" transform="matrix(1, 0, 0, 1, 0.5, 0.5)" stroke-opacity="0" stroke-linejoin="bevel" stroke-miterlimit="10">4</text><text fill="rgb(0,0,0)" stroke="none" font-family="serif" font-size="10pt" font-style="normal" font-weight="normal" text-decoration="normal" x="184.4969654083252" y="438" text-anchor="start" dominant-baseline="alphabetic" transform="matrix(1, 0, 0, 1, 0.5, 0.5)" fill-opacity="1">2</text><text fill="none" stroke="rgb(0,0,0)" font-family="serif" font-size="10pt" font-style="normal" font-weight="normal" text-decoration="normal" x="184.4969654083252" y="438" text-anchor="start" dominant-baseline="alphabetic" transform="matrix(1, 0, 0, 1, 0.5, 0.5)" stroke-opacity="0" stroke-linejoin="bevel" stroke-miterlimit="10">2</text><text fill="rgb(0,0,0)" stroke="none" font-family="serif" font-size="10pt" font-style="normal" font-weight="normal" text-decoration="normal" x="301.24166679382324" y="438" text-anchor="start" dominant-baseline="alphabetic" transform="matrix(1, 0, 0, 1, 0.5, 0.5)" fill-opacity="1">0</text><text fill="none" stroke="rgb(0,0,0)" font-family="serif" font-size="10pt" font-style="normal" font-weight="normal" text-decoration="normal" x="301.24166679382324" y="438" text-anchor="start" dominant-baseline="alphabetic" transform="matrix(1, 0, 0, 1, 0.5, 0.5)" stroke-opacity="0" stroke-linejoin="bevel" stroke-miterlimit="10">0</text><text fill="rgb(0,0,0)" stroke="none" font-family="serif" font-size="10pt" font-style="normal" font-weight="normal" text-decoration="normal" x="412.37801933288574" y="438" text-anchor="start" dominant-baseline="alphabetic" transform="matrix(1, 0, 0, 1, 0.5, 0.5)" fill-opacity="1">2</text><text fill="none" stroke="rgb(0,0,0)" font-family="serif" font-size="10pt" font-style="normal" font-weight="normal" text-decoration="normal" x="412.37801933288574" y="438" text-anchor="start" dominant-baseline="alphabetic" transform="matrix(1, 0, 0, 1, 0.5, 0.5)" stroke-opacity="0" stroke-linejoin="bevel" stroke-miterlimit="10">2</text><text fill="rgb(0,0,0)" stroke="none" font-family="serif" font-size="10pt" font-style="normal" font-weight="normal" text-decoration="normal" x="523.5143718719482" y="438" text-anchor="start" dominant-baseline="alphabetic" transform="matrix(1, 0, 0, 1, 0.5, 0.5)" fill-opacity="1">4</text><text fill="none" stroke="rgb(0,0,0)" font-family="serif" font-size="10pt" font-style="normal" font-weight="normal" text-decoration="normal" x="523.5143718719482" y="438" text-anchor="start" dominant-baseline="alphabetic" transform="matrix(1, 0, 0, 1, 0.5, 0.5)" stroke-opacity="0" stroke-linejoin="bevel" stroke-miterlimit="10">4</text><text fill="rgb(0,0,0)" stroke="none" font-family="serif" font-size="12pt" font-style="italic" font-weight="normal" text-decoration="normal" x="300.99166679382324" y="461" text-anchor="start" dominant-baseline="alphabetic" transform="matrix(1, 0, 0, 1, 0.5, 0.5)" fill-opacity="1">x</text><text fill="none" stroke="rgb(0,0,0)" font-family="serif" font-size="12pt" font-style="italic" font-weight="normal" text-decoration="normal" x="300.99166679382324" y="461" text-anchor="start" dominant-baseline="alphabetic" transform="matrix(1, 0, 0, 1, 0.5, 0.5)" stroke-opacity="0" stroke-linejoin="bevel" stroke-miterlimit="10">x</text><path fill="none" stroke="rgb(0,0,0)" paint-order="fill" d="M 61.5 417.5 L 61.5 5.5" stroke-opacity="1" stroke-linejoin="bevel" stroke-miterlimit="10"/><path fill="none" stroke="rgb(0,0,0)" paint-order="fill" d="M 55.5 398.5 L 63.5 398.5 M 55.5 305.5 L 63.5 305.5 M 55.5 211.5 L 63.5 211.5 M 55.5 117.5 L 63.5 117.5 M 55.5 24.5 L 63.5 24.5" stroke-opacity="1" stroke-linejoin="bevel" stroke-miterlimit="10"/><path fill="none" stroke="rgb(0,0,0)" paint-order="fill" d="M 57.5 417.5 L 61.5 417.5 M 57.5 398.5 L 61.5 398.5 M 57.5 380.5 L 61.5 380.5 M 57.5 361.5 L 61.5 361.5 M 57.5 342.5 L 61.5 342.5 M 57.5 323.5 L 61.5 323.5 M 57.5 305.5 L 61.5 305.5 M 57.5 286.5 L 61.5 286.5 M 57.5 267.5 L 61.5 267.5 M 57.5 248.5 L 61.5 248.5 M 57.5 230.5 L 61.5 230.5 M 57.5 211.5 L 61.5 211.5 M 57.5 192.5 L 61.5 192.5 M 57.5 174.5 L 61.5 174.5 M 57.5 155.5 L 61.5 155.5 M 57.5 136.5 L 61.5 136.5 M 57.5 117.5 L 61.5 117.5 M 57.5 99.5 L 61.5 99.5 M 57.5 80.5 L 61.5 80.5 M 57.5 61.5 L 61.5 61.5 M 57.5 42.5 L 61.5 42.5 M 57.5 24.5 L 61.5 24.5 M 57.5 5.5 L 61.5 5.5" stroke-opacity="1" stroke-linejoin="bevel" stroke-miterlimit="10"/><text fill="rgb(0,0,0)" stroke="none" font-family="serif" font-size="10pt" font-style="normal" font-weight="normal" text-decoration="normal" x="30.266666412353516" y="403.2727355957031" text-anchor="start" dominant-baseline="alphabetic" transform="matrix(1, 0, 0, 1, 0.5, 0.5)" fill-opacity="1">4</text><text fill="none" stroke="rgb(0,0,0)" font-family="serif" font-size="10pt" font-style="normal" font-weight="normal" text-decoration="normal" x="30.266666412353516" y="403.2727355957031" text-anchor="start" dominant-baseline="alphabetic" transform="matrix(1, 0, 0, 1, 0.5, 0.5)" stroke-opacity="0" stroke-linejoin="bevel" stroke-miterlimit="10">4</text><text fill="rgb(0,0,0)" stroke="none" font-family="serif" font-size="10pt" font-style="normal" font-weight="normal" text-decoration="normal" x="30.266666412353516" y="309.6363525390625" text-anchor="start" dominant-baseline="alphabetic" transform="matrix(1, 0, 0, 1, 0.5, 0.5)" fill-opacity="1">2</text><text fill="none" stroke="rgb(0,0,0)" font-family="serif" font-size="10pt" font-style="normal" font-weight="normal" text-decoration="normal" x="30.266666412353516" y="309.6363525390625" text-anchor="start" dominant-baseline="alphabetic" transform="matrix(1, 0, 0, 1, 0.5, 0.5)" stroke-opacity="0" stroke-linejoin="bevel" stroke-miterlimit="10">2</text><text fill="rgb(0,0,0)" stroke="none" font-family="serif" font-size="10pt" font-style="normal" font-weight="normal" text-decoration="normal" x="41.483333587646484" y="216" text-anchor="start" dominant-baseline="alphabetic" transform="matrix(1, 0, 0, 1, 0.5, 0.5)" fill-opacity="1">0</text><text fill="none" stroke="rgb(0,0,0)" font-family="serif" font-size="10pt" font-style="normal" font-weight="normal" text-decoration="normal" x="41.483333587646484" y="216" text-anchor="start" dominant-baseline="alphabetic" transform="matrix(1, 0, 0, 1, 0.5, 0.5)" stroke-opacity="0" stroke-linejoin="bevel" stroke-miterlimit="10">0</text><text fill="rgb(0,0,0)" stroke="none" font-family="serif" font-size="10pt" font-style="normal" font-weight="normal" text-decoration="normal" x="41.483333587646484" y="122.36363983154297" text-anchor="start" dominant-baseline="alphabetic" transform="matrix(1, 0, 0, 1, 0.5, 0.5)" fill-opacity="1">2</text><text fill="none" stroke="rgb(0,0,0)" font-family="serif" font-size="10pt" font-style="normal" font-weight="normal" text-decoration="normal" x="41.483333587646484" y="122.36363983154297" text-anchor="start" dominant-baseline="alphabetic" transform="matrix(1, 0, 0, 1, 0.5, 0.5)" stroke-opacity="0" stroke-linejoin="bevel" stroke-miterlimit="10">2</text><text fill="rgb(0,0,0)" stroke="none" font-family="serif" font-size="10pt" font-style="normal" font-weight="normal" text-decoration="normal" x="41.483333587646484" y="28.727272033691406" text-anchor="start" dominant-baseline="alphabetic" transform="matrix(1, 0, 0, 1, 0.5, 0.5)" fill-opacity="1">4</text><text fill="none" stroke="rgb(0,0,0)" font-family="serif" font-size="10pt" font-style="normal" font-weight="normal" text-decoration="normal" x="41.483333587646484" y="28.727272033691406" text-anchor="start" dominant-baseline="alphabetic" transform="matrix(1, 0, 0, 1, 0.5, 0.5)" stroke-opacity="0" stroke-linejoin="bevel" stroke-miterlimit="10">4</text><text fill="rgb(0,0,0)" stroke="none" font-family="serif" font-size="12pt" font-style="italic" font-weight="normal" text-decoration="normal" x="17.749999523162842" y="207" text-anchor="start" dominant-baseline="alphabetic" transform="matrix(6.123233995736766e-17, -1, 1, 6.123233995736766e-17, -188.23333358764648, 233.76666641235352)" fill-opacity="1">y</text><text fill="none" stroke="rgb(0,0,0)" font-family="serif" font-size="12pt" font-style="italic" font-weight="normal" text-decoration="normal" x="17.749999523162842" y="207" text-anchor="start" dominant-baseline="alphabetic" transform="matrix(6.123233995736766e-17, -1, 1, 6.123233995736766e-17, -188.23333358764648, 233.76666641235352)" stroke-opacity="0" stroke-linejoin="bevel" stroke-miterlimit="10">y</text><path fill="rgb(255,255,255)" stroke="none" paint-order="stroke" d="M 550.5 5.5 L 662.5 5.5 L 662.5 417.5 L 550.5 417.5 L 550.5 5.5 Z" fill-opacity="0.9490196078431372"/><path fill="rgb(54,75,154)" stroke="none" paint-order="stroke" d="M 580.5 407.5 L 605.5 407.5 L 605.5 363.9444580078125 L 580.5 363.9444580078125 L 580.5 407.5 Z" fill-opacity="1"/><path fill="rgb(83,132,188)" stroke="none" paint-order="stroke" d="M 580.5 363.9444580078125 L 605.5 363.9444580078125 L 605.5 320.3888854980469 L 580.5 320.3888854980469 L 580.5 363.9444580078125 Z" fill-opacity="1"/><path fill="rgb(130,183,214)" stroke="none" paint-order="stroke" d="M 580.5 320.3888854980469 L 605.5 320.3888854980469 L 605.5 276.8333435058594 L 580.5 276.8333435058594 L 580.5 320.3888854980469 Z" fill-opacity="1"/><path fill="rgb(182,217,226)" stroke="none" paint-order="stroke" d="M 580.5 276.8333435058594 L 605.5 276.8333435058594 L 605.5 233.27777099609375 L 580.5 233.27777099609375 L 580.5 276.8333435058594 Z" fill-opacity="1"/><path fill="rgb(228,228,195)" stroke="none" paint-order="stroke" d="M 580.5 233.27777099609375 L 605.5 233.27777099609375 L 605.5 189.72222900390625 L 580.5 189.72222900390625 L 580.5 233.27777099609375 Z" fill-opacity="1"/><path fill="rgb(250,204,133)" stroke="none" paint-order="stroke" d="M 580.5 189.72222900390625 L 605.5 189.72222900390625 L 605.5 146.1666717529297 L 580.5 146.1666717529297 L 580.5 189.72222900390625 Z" fill-opacity="1"/><path fill="rgb(248,150,89)" stroke="none" paint-order="stroke" d="M 580.5 146.1666717529297 L 605.5 146.1666717529297 L 605.5 102.61111450195312 L 580.5 102.61111450195312 L 580.5 146.1666717529297 Z" fill-opacity="1"/><path fill="rgb(226,76,52)" stroke="none" paint-order="stroke" d="M 580.5 102.61111450195312 L 605.5 102.61111450195312 L 605.5 59.05555725097656 L 580.5 59.05555725097656 L 580.5 102.61111450195312 Z" fill-opacity="1"/><path fill="rgb(165,0,38)" stroke="none" paint-order="stroke" d="M 580.5 59.05555725097656 L 605.5 59.05555725097656 L 605.5 15.5 L 580.5 15.5 L 580.5 59.05555725097656 Z" fill-opacity="1"/><path fill="none" stroke="rgb(0,0,0)" paint-order="fill" d="M 580.5 407.5 L 605.5 407.5" stroke-opacity="1" stroke-linejoin="bevel" stroke-miterlimit="10"/><path fill="none" stroke="rgb(0,0,0)" paint-order="fill" d="M 580.5 363.9444580078125 L 605.5 363.9444580078125" stroke-opacity="1" stroke-linejoin="bevel" stroke-miterlimit="10"/><path fill="none" stroke="rgb(0,0,0)" paint-order="fill" d="M 580.5 320.3888854980469 L 605.5 320.3888854980469" stroke-opacity="1" stroke-linejoin="bevel" stroke-miterlimit="10"/><path fill="none" stroke="rgb(0,0,0)" paint-order="fill" d="M 580.5 276.8333435058594 L 605.5 276.8333435058594" stroke-opacity="1" stroke-linejoin="bevel" stroke-miterlimit="10"/><path fill="none" stroke="rgb(0,0,0)" paint-order="fill" d="M 580.5 233.27777099609375 L 605.5 233.27777099609375" stroke-opacity="1" stroke-linejoin="bevel" stroke-miterlimit="10"/><path fill="none" stroke="rgb(0,0,0)" paint-order="fill" d="M 580.5 189.72222900390625 L 605.5 189.72222900390625" stroke-opacity="1" stroke-linejoin="bevel" stroke-miterlimit="10"/><path fill="none" stroke="rgb(0,0,0)" paint-order="fill" d="M 580.5 146.1666717529297 L 605.5 146.1666717529297" stroke-opacity="1" stroke-linejoin="bevel" stroke-miterlimit="10"/><path fill="none" stroke="rgb(0,0,0)" paint-order="fill" d="M 580.5 102.61111450195312 L 605.5 102.61111450195312" stroke-opacity="1" stroke-linejoin="bevel" stroke-miterlimit="10"/><path fill="none" stroke="rgb(0,0,0)" paint-order="fill" d="M 580.5 59.05555725097656 L 605.5 59.05555725097656" stroke-opacity="1" stroke-linejoin="bevel" stroke-miterlimit="10"/><path fill="none" stroke="rgb(0,0,0)" paint-order="fill" d="M 580.5 15.5 L 605.5 15.5" stroke-opacity="1" stroke-linejoin="bevel" stroke-miterlimit="10"/><text fill="rgb(68,68,68)" stroke="none" font-family="helvetica" font-size="13px" font-style="italic" font-weight="normal" text-decoration="normal" x="0" y="12" text-anchor="start" dominant-baseline="alphabetic" transform="matrix(6.123233995736766e-17, -1, 1, 6.123233995736766e-17, 563.5, 407.5)" fill-opacity="1">Ground Truth</text><text fill="none" stroke="rgb(0,0,0)" font-family="helvetica" font-size="13px" font-style="italic" font-weight="normal" text-decoration="normal" x="0" y="12" text-anchor="start" dominant-baseline="alphabetic" transform="matrix(6.123233995736766e-17, -1, 1, 6.123233995736766e-17, 563.5, 407.5)" stroke-opacity="0" stroke-miterlimit="10" stroke-dasharray="">Ground Truth</text><path fill="none" stroke="rgb(255,255,255)" paint-order="fill" d="M 605.5 407.5 L 600.5 407.5 M 605.5 363.5 L 600.5 363.5 M 605.5 320.5 L 600.5 320.5 M 605.5 276.5 L 600.5 276.5 M 605.5 233.5 L 600.5 233.5 M 605.5 189.5 L 600.5 189.5 M 605.5 146.5 L 600.5 146.5 M 605.5 102.5 L 600.5 102.5 M 605.5 59.5 L 600.5 59.5 M 605.5 15.5 L 600.5 15.5" stroke-opacity="1" stroke-linejoin="bevel" stroke-miterlimit="10"/><text fill="rgb(68,68,68)" stroke="none" font-family="helvetica" font-size="11px" font-style="normal" font-weight="normal" text-decoration="normal" x="610" y="411" text-anchor="start" dominant-baseline="alphabetic" transform="matrix(1, 0, 0, 1, 0.5, 0.5)" fill-opacity="1">15.956</text><text fill="none" stroke="rgb(0,0,0)" font-family="helvetica" font-size="11px" font-style="normal" font-weight="normal" text-decoration="normal" x="610" y="411" text-anchor="start" dominant-baseline="alphabetic" transform="matrix(1, 0, 0, 1, 0.5, 0.5)" stroke-opacity="0" stroke-linejoin="bevel" stroke-miterlimit="10">15.956</text><text fill="rgb(68,68,68)" stroke="none" font-family="helvetica" font-size="11px" font-style="normal" font-weight="normal" text-decoration="normal" x="610" y="367.4444580078125" text-anchor="start" dominant-baseline="alphabetic" transform="matrix(1, 0, 0, 1, 0.5, 0.5)" fill-opacity="1">12.41</text><text fill="none" stroke="rgb(0,0,0)" font-family="helvetica" font-size="11px" font-style="normal" font-weight="normal" text-decoration="normal" x="610" y="367.4444580078125" text-anchor="start" dominant-baseline="alphabetic" transform="matrix(1, 0, 0, 1, 0.5, 0.5)" stroke-opacity="0" stroke-linejoin="bevel" stroke-miterlimit="10">12.41</text><text fill="rgb(68,68,68)" stroke="none" font-family="helvetica" font-size="11px" font-style="normal" font-weight="normal" text-decoration="normal" x="610" y="323.8888854980469" text-anchor="start" dominant-baseline="alphabetic" transform="matrix(1, 0, 0, 1, 0.5, 0.5)" fill-opacity="1">8.864</text><text fill="none" stroke="rgb(0,0,0)" font-family="helvetica" font-size="11px" font-style="normal" font-weight="normal" text-decoration="normal" x="610" y="323.8888854980469" text-anchor="start" dominant-baseline="alphabetic" transform="matrix(1, 0, 0, 1, 0.5, 0.5)" stroke-opacity="0" stroke-linejoin="bevel" stroke-miterlimit="10">8.864</text><text fill="rgb(68,68,68)" stroke="none" font-family="helvetica" font-size="11px" font-style="normal" font-weight="normal" text-decoration="normal" x="610" y="280.3333435058594" text-anchor="start" dominant-baseline="alphabetic" transform="matrix(1, 0, 0, 1, 0.5, 0.5)" fill-opacity="1">5.319</text><text fill="none" stroke="rgb(0,0,0)" font-family="helvetica" font-size="11px" font-style="normal" font-weight="normal" text-decoration="normal" x="610" y="280.3333435058594" text-anchor="start" dominant-baseline="alphabetic" transform="matrix(1, 0, 0, 1, 0.5, 0.5)" stroke-opacity="0" stroke-linejoin="bevel" stroke-miterlimit="10">5.319</text><text fill="rgb(68,68,68)" stroke="none" font-family="helvetica" font-size="11px" font-style="normal" font-weight="normal" text-decoration="normal" x="610" y="236.77777099609375" text-anchor="start" dominant-baseline="alphabetic" transform="matrix(1, 0, 0, 1, 0.5, 0.5)" fill-opacity="1">1.773</text><text fill="none" stroke="rgb(0,0,0)" font-family="helvetica" font-size="11px" font-style="normal" font-weight="normal" text-decoration="normal" x="610" y="236.77777099609375" text-anchor="start" dominant-baseline="alphabetic" transform="matrix(1, 0, 0, 1, 0.5, 0.5)" stroke-opacity="0" stroke-linejoin="bevel" stroke-miterlimit="10">1.773</text><text fill="rgb(68,68,68)" stroke="none" font-family="helvetica" font-size="11px" font-style="normal" font-weight="normal" text-decoration="normal" x="610" y="193.22222900390625" text-anchor="start" dominant-baseline="alphabetic" transform="matrix(1, 0, 0, 1, 0.5, 0.5)" fill-opacity="1">1.773</text><text fill="none" stroke="rgb(0,0,0)" font-family="helvetica" font-size="11px" font-style="normal" font-weight="normal" text-decoration="normal" x="610" y="193.22222900390625" text-anchor="start" dominant-baseline="alphabetic" transform="matrix(1, 0, 0, 1, 0.5, 0.5)" stroke-opacity="0" stroke-linejoin="bevel" stroke-miterlimit="10">1.773</text><text fill="rgb(68,68,68)" stroke="none" font-family="helvetica" font-size="11px" font-style="normal" font-weight="normal" text-decoration="normal" x="610" y="149.6666717529297" text-anchor="start" dominant-baseline="alphabetic" transform="matrix(1, 0, 0, 1, 0.5, 0.5)" fill-opacity="1">5.319</text><text fill="none" stroke="rgb(0,0,0)" font-family="helvetica" font-size="11px" font-style="normal" font-weight="normal" text-decoration="normal" x="610" y="149.6666717529297" text-anchor="start" dominant-baseline="alphabetic" transform="matrix(1, 0, 0, 1, 0.5, 0.5)" stroke-opacity="0" stroke-linejoin="bevel" stroke-miterlimit="10">5.319</text><text fill="rgb(68,68,68)" stroke="none" font-family="helvetica" font-size="11px" font-style="normal" font-weight="normal" text-decoration="normal" x="610" y="106.11111450195312" text-anchor="start" dominant-baseline="alphabetic" transform="matrix(1, 0, 0, 1, 0.5, 0.5)" fill-opacity="1">8.864</text><text fill="none" stroke="rgb(0,0,0)" font-family="helvetica" font-size="11px" font-style="normal" font-weight="normal" text-decoration="normal" x="610" y="106.11111450195312" text-anchor="start" dominant-baseline="alphabetic" transform="matrix(1, 0, 0, 1, 0.5, 0.5)" stroke-opacity="0" stroke-linejoin="bevel" stroke-miterlimit="10">8.864</text><text fill="rgb(68,68,68)" stroke="none" font-family="helvetica" font-size="11px" font-style="normal" font-weight="normal" text-decoration="normal" x="610" y="62.55555725097656" text-anchor="start" dominant-baseline="alphabetic" transform="matrix(1, 0, 0, 1, 0.5, 0.5)" fill-opacity="1">12.41</text><text fill="none" stroke="rgb(0,0,0)" font-family="helvetica" font-size="11px" font-style="normal" font-weight="normal" text-decoration="normal" x="610" y="62.55555725097656" text-anchor="start" dominant-baseline="alphabetic" transform="matrix(1, 0, 0, 1, 0.5, 0.5)" stroke-opacity="0" stroke-linejoin="bevel" stroke-miterlimit="10">12.41</text><text fill="rgb(68,68,68)" stroke="none" font-family="helvetica" font-size="11px" font-style="normal" font-weight="normal" text-decoration="normal" x="610" y="19" text-anchor="start" dominant-baseline="alphabetic" transform="matrix(1, 0, 0, 1, 0.5, 0.5)" fill-opacity="1">15.956</text><text fill="none" stroke="rgb(0,0,0)" font-family="helvetica" font-size="11px" font-style="normal" font-weight="normal" text-decoration="normal" x="610" y="19" text-anchor="start" dominant-baseline="alphabetic" transform="matrix(1, 0, 0, 1, 0.5, 0.5)" stroke-opacity="0" stroke-linejoin="bevel" stroke-miterlimit="10">15.956</text></svg>