<svg version="1.1" xmlns="http://www.w3.org/2000/svg" width="663" height="508"><defs><clipPath id="UfVdBBqChTLW"><path fill="none" stroke="none" d="M 0.5 0.5 L 663.5 0.5 L 663.5 508.5 L 0.5 508.5 L 0.5 0.5 Z M 61.5 5.5 L 556.5 5.5 L 556.5 417.5 L 61.5 417.5 L 61.5 5.5 Z" clip-rule="evenodd"/></clipPath><clipPath id="ZVLzMGpFarnA"><path fill="none" stroke="none" d="M 61.5 5.5 L 556.5 5.5 L 556.5 417.5 L 61.5 417.5 L 61.5 5.5 Z"/></clipPath><clipPath id="LqAIVMwncQMQ"><path fill="none" stroke="none" d="M 61.5 5.5 L 556.5 5.5 L 556.5 417.5 L 61.5 417.5 L 61.5 5.5 Z"/></clipPath><clipPath id="WiJlTnfFEbhK"><path fill="none" stroke="none" d="M 61.5 5.5 L 556.5 5.5 L 556.5 417.5 L 61.5 417.5 L 61.5 5.5 Z"/></clipPath></defs><path fill="rgb(0,0,0)" stroke="none" paint-order="stroke" d="M 0 0 L 663 0 L 663 508 L 0 508 L 0 0 Z" fill-opacity="0"/><path fill="rgb(255,255,255)" stroke="none" paint-order="stroke" d="M 0.5 0.5 L 663.5 0.5 L 663.5 508.5 L 0.5 508.5 L 0.5 0.5 Z" fill-opacity="1" clip-path="url(#UfVdBBqChTLW)"/><path fill="rgb(250,250,250)" stroke="none" paint-order="stroke" d="M 61.5 5.5 L 556.5 5.5 L 556.5 417.5 L 61.5 417.5 L 61.5 5.5 Z" fill-opacity="1"/><path fill="none" stroke="rgb(224,224,224)" paint-order="fill" d="M 84.5 417.5 L 84.5 5.5 M 196.5 417.5 L 196.5 5.5 M 309.5 417.5 L 309.5 5.5 M 421.5 417.5 L 421.5 5.5 M 534.5 417.5 L 534.5 5.5" stroke-opacity="1" stroke-linejoin="bevel" stroke-miterlimit="10" stroke-dasharray="6,4" clip-path="url(#ZVLzMGpFarnA)"/><path fill="none" stroke="rgb(224,224,224)" paint-order="fill" d="M 61.5 398.5 L 556.5 398.5 M 61.5 305.5 L 556.5 305.5 M 61.5 211.5 L 556.5 211.5 M 61.5 117.5 L 556.5 117.5 M 61.5 24.5 L 556.5 24.5" stroke-opacity="1" stroke-linejoin="bevel" stroke-miterlimit="10" stroke-dasharray="6,4" clip-path="url(#LqAIVMwncQMQ)"/><path fill="rgb(54,75,154)" stroke="none" paint-order="stroke" d="M 255.7105255126953 300.2081298828125 L 273.47369384765625 312.035888671875 L 297.15789794921875 319.9210510253906 L 320.84210205078125 319.9210510253906 L 344.52630615234375 312.035888671875 L 362.2894592285156 300.2081298828125 L 368.2105407714844 295.2799072265625 L 380.0526428222656 280.4952087402344 L 391.8947448730469 260.78228759765625 L 391.8947448730469 260.78228759765625 L 397.8157958984375 241.0693817138672 L 400.77630615234375 221.35646057128906 L 400.77630615234375 201.64353942871094 L 397.8157958984375 181.9306182861328 L 391.8947448730469 162.2176971435547 L 391.8947448730469 162.2176971435547 L 380.0526428222656 142.50479125976562 L 368.2105407714844 127.7200927734375 L 362.2894592285156 122.79186248779297 L 344.52630615234375 110.964111328125 L 320.84210205078125 103.07894897460938 L 297.15789794921875 103.07894897460938 L 273.47369384765625 110.964111328125 L 255.7105255126953 122.79186248779297 L 249.7894744873047 127.7200927734375 L 237.94737243652344 142.50479125976562 L 226.1052703857422 162.2176971435547 L 226.1052703857422 162.2176971435547 L 220.1842041015625 181.9306182861328 L 217.2236785888672 201.64353942871094 L 217.2236785888672 221.35646057128906 L 220.1842041015625 241.0693817138672 L 226.1052703857422 260.78228759765625 L 226.1052703857422 260.78228759765625 L 237.94737243652344 280.4952087402344 L 249.7894744873047 295.2799072265625 L 255.7105255126953 300.2081298828125 Z M 320.84210205078125 201.64353942871094 L 320.84210205078125 201.64353942871094 L 320.84210205078125 201.64353942871094 L 320.84210205078125 201.64353942871094 L 320.84210205078125 201.64353942871094 Z" fill-opacity="1" fill-rule="evenodd" clip-path="url(#WiJlTnfFEbhK)"/><path fill="rgb(83,132,188)" stroke="none" paint-order="stroke" d="M 273.47369384765625 359.3468933105469 L 297.15789794921875 364.2751159667969 L 320.84210205078125 364.2751159667969 L 344.52630615234375 359.3468933105469 L 344.52630615234375 359.3468933105469 L 368.2105407714844 348.0823669433594 L 380.0526428222656 339.63397216796875 L 391.8947448730469 329.77752685546875 L 400.77630615234375 319.9210510253906 L 415.5789489746094 300.2081298828125 L 415.5789489746094 300.2081298828125 L 425.0526428222656 280.4952087402344 L 432.15789794921875 260.78228759765625 L 436.8947448730469 241.0693817138672 L 439.2631530761719 221.35646057128906 L 439.2631530761719 221.35646057128906 L 439.2631530761719 201.64353942871094 L 439.2631530761719 201.64353942871094 L 436.8947448730469 181.9306182861328 L 432.15789794921875 162.2176971435547 L 425.0526428222656 142.50479125976562 L 415.5789489746094 122.79186248779297 L 415.5789489746094 122.79186248779297 L 400.77630615234375 103.07894897460938 L 391.8947448730469 93.22248840332031 L 380.0526428222656 83.36602783203125 L 368.2105407714844 74.91763305664062 L 344.52630615234375 63.65311050415039 L 344.52630615234375 63.65311050415039 L 320.84210205078125 58.72488021850586 L 297.15789794921875 58.72488021850586 L 273.47369384765625 63.65311050415039 L 273.47369384765625 63.65311050415039 L 249.7894744873047 74.91763305664062 L 237.94737243652344 83.36602783203125 L 226.1052703857422 93.22248840332031 L 217.2236785888672 103.07894897460938 L 202.42105102539062 122.79186248779297 L 202.42105102539062 122.79186248779297 L 192.94737243652344 142.50479125976562 L 185.84210205078125 162.2176971435547 L 181.1052703857422 181.9306182861328 L 178.73684692382812 201.64353942871094 L 178.73684692382812 201.64353942871094 L 178.73684692382812 221.35646057128906 L 178.73684692382812 221.35646057128906 L 181.1052703857422 241.0693817138672 L 185.84210205078125 260.78228759765625 L 192.94737243652344 280.4952087402344 L 202.42105102539062 300.2081298828125 L 202.42105102539062 300.2081298828125 L 217.2236785888672 319.9210510253906 L 226.1052703857422 329.77752685546875 L 237.94737243652344 339.63397216796875 L 249.7894744873047 348.0823669433594 L 273.47369384765625 359.3468933105469 L 273.47369384765625 359.3468933105469 Z M 273.47369384765625 312.035888671875 L 255.7105255126953 300.2081298828125 L 249.7894744873047 295.2799072265625 L 237.94737243652344 280.4952087402344 L 226.1052703857422 260.78228759765625 L 226.1052703857422 260.78228759765625 L 220.1842041015625 241.0693817138672 L 217.2236785888672 221.35646057128906 L 217.2236785888672 201.64353942871094 L 220.1842041015625 181.9306182861328 L 226.1052703857422 162.2176971435547 L 226.1052703857422 162.2176971435547 L 237.94737243652344 142.50479125976562 L 249.7894744873047 127.7200927734375 L 255.7105255126953 122.79186248779297 L 273.47369384765625 110.964111328125 L 297.15789794921875 103.07894897460938 L 320.84210205078125 103.07894897460938 L 344.52630615234375 110.964111328125 L 362.2894592285156 122.79186248779297 L 368.2105407714844 127.7200927734375 L 380.0526428222656 142.50479125976562 L 391.8947448730469 162.2176971435547 L 391.8947448730469 162.2176971435547 L 397.8157958984375 181.9306182861328 L 400.77630615234375 201.64353942871094 L 400.77630615234375 221.35646057128906 L 397.8157958984375 241.0693817138672 L 391.8947448730469 260.78228759765625 L 391.8947448730469 260.78228759765625 L 380.0526428222656 280.4952087402344 L 368.2105407714844 295.2799072265625 L 362.2894592285156 300.2081298828125 L 344.52630615234375 312.035888671875 L 320.84210205078125 319.9210510253906 L 297.15789794921875 319.9210510253906 L 273.47369384765625 312.035888671875 Z" fill-opacity="1" fill-rule="evenodd" clip-path="url(#WiJlTnfFEbhK)"/><path fill="rgb(130,183,214)" stroke="none" paint-order="stroke" d="M 237.94737243652344 379.059814453125 L 249.7894744873047 385.6307678222656 L 273.47369384765625 394.39208984375 L 297.15789794921875 398.7727355957031 L 297.15789794921875 398.7727355957031 L 320.84210205078125 398.7727355957031 L 320.84210205078125 398.7727355957031 L 344.52630615234375 394.39208984375 L 368.2105407714844 385.6307678222656 L 380.0526428222656 379.059814453125 L 391.8947448730469 371.6674499511719 L 406.6973571777344 359.3468933105469 L 415.5789489746094 350.89849853515625 L 425.0526428222656 339.63397216796875 L 439.2631530761719 319.9210510253906 L 439.2631530761719 319.9210510253906 L 449.131591796875 300.2081298828125 L 457.02630615234375 280.4952087402344 L 462.9473571777344 260.78228759765625 L 462.9473571777344 260.78228759765625 L 466.3308410644531 241.0693817138672 L 468.0225524902344 221.35646057128906 L 468.0225524902344 201.64353942871094 L 466.3308410644531 181.9306182861328 L 462.9473571777344 162.2176971435547 L 462.9473571777344 162.2176971435547 L 457.02630615234375 142.50479125976562 L 449.131591796875 122.79186248779297 L 439.2631530761719 103.07894897460938 L 439.2631530761719 103.07894897460938 L 425.0526428222656 83.36602783203125 L 415.5789489746094 72.10150146484375 L 406.6973571777344 63.65311050415039 L 391.8947448730469 51.33253479003906 L 380.0526428222656 43.94019317626953 L 368.2105407714844 37.36921691894531 L 344.52630615234375 28.607921600341797 L 320.84210205078125 24.227272033691406 L 320.84210205078125 24.227272033691406 L 297.15789794921875 24.227272033691406 L 297.15789794921875 24.227272033691406 L 273.47369384765625 28.607921600341797 L 249.7894744873047 37.36921691894531 L 237.94737243652344 43.94019317626953 L 226.1052703857422 51.33253479003906 L 211.30262756347656 63.65311050415039 L 202.42105102539062 72.10150146484375 L 192.94737243652344 83.36602783203125 L 178.73684692382812 103.07894897460938 L 178.73684692382812 103.07894897460938 L 168.86842346191406 122.79186248779297 L 160.9736785888672 142.50479125976562 L 155.05262756347656 162.2176971435547 L 155.05262756347656 162.2176971435547 L 151.66917419433594 181.9306182861328 L 149.97744750976562 201.64353942871094 L 149.97744750976562 221.35646057128906 L 151.66917419433594 241.0693817138672 L 155.05262756347656 260.78228759765625 L 155.05262756347656 260.78228759765625 L 160.9736785888672 280.4952087402344 L 168.86842346191406 300.2081298828125 L 178.73684692382812 319.9210510253906 L 178.73684692382812 319.9210510253906 L 192.94737243652344 339.63397216796875 L 202.42105102539062 350.89849853515625 L 211.30262756347656 359.3468933105469 L 226.1052703857422 371.6674499511719 L 237.94737243652344 379.059814453125 Z M 297.15789794921875 364.2751159667969 L 273.47369384765625 359.3468933105469 L 273.47369384765625 359.3468933105469 L 249.7894744873047 348.0823669433594 L 237.94737243652344 339.63397216796875 L 226.1052703857422 329.77752685546875 L 217.2236785888672 319.9210510253906 L 202.42105102539062 300.2081298828125 L 202.42105102539062 300.2081298828125 L 192.94737243652344 280.4952087402344 L 185.84210205078125 260.78228759765625 L 181.1052703857422 241.0693817138672 L 178.73684692382812 221.35646057128906 L 178.73684692382812 221.35646057128906 L 178.73684692382812 201.64353942871094 L 178.73684692382812 201.64353942871094 L 181.1052703857422 181.9306182861328 L 185.84210205078125 162.2176971435547 L 192.94737243652344 142.50479125976562 L 202.42105102539062 122.79186248779297 L 202.42105102539062 122.79186248779297 L 217.2236785888672 103.07894897460938 L 226.1052703857422 93.22248840332031 L 237.94737243652344 83.36602783203125 L 249.7894744873047 74.91763305664062 L 273.47369384765625 63.65311050415039 L 273.47369384765625 63.65311050415039 L 297.15789794921875 58.72488021850586 L 320.84210205078125 58.72488021850586 L 344.52630615234375 63.65311050415039 L 344.52630615234375 63.65311050415039 L 368.2105407714844 74.91763305664062 L 380.0526428222656 83.36602783203125 L 391.8947448730469 93.22248840332031 L 400.77630615234375 103.07894897460938 L 415.5789489746094 122.79186248779297 L 415.5789489746094 122.79186248779297 L 425.0526428222656 142.50479125976562 L 432.15789794921875 162.2176971435547 L 436.8947448730469 181.9306182861328 L 439.2631530761719 201.64353942871094 L 439.2631530761719 201.64353942871094 L 439.2631530761719 221.35646057128906 L 439.2631530761719 221.35646057128906 L 436.8947448730469 241.0693817138672 L 432.15789794921875 260.78228759765625 L 425.0526428222656 280.4952087402344 L 415.5789489746094 300.2081298828125 L 415.5789489746094 300.2081298828125 L 400.77630615234375 319.9210510253906 L 391.8947448730469 329.77752685546875 L 380.0526428222656 339.63397216796875 L 368.2105407714844 348.0823669433594 L 344.52630615234375 359.3468933105469 L 344.52630615234375 359.3468933105469 L 320.84210205078125 364.2751159667969 L 297.15789794921875 364.2751159667969 Z" fill-opacity="1" fill-rule="evenodd" clip-path="url(#WiJlTnfFEbhK)"/><path fill="rgb(182,217,226)" stroke="none" paint-order="stroke" d="M 192.94737243652344 379.059814453125 L 202.42105102539062 387.82110595703125 L 217.2236785888672 398.7727355957031 L 226.1052703857422 398.7727355957031 L 249.7894744873047 398.7727355957031 L 273.47369384765625 398.7727355957031 L 297.15789794921875 398.7727355957031 L 273.47369384765625 394.39208984375 L 249.7894744873047 385.6307678222656 L 237.94737243652344 379.059814453125 L 226.1052703857422 371.6674499511719 L 211.30262756347656 359.3468933105469 L 202.42105102539062 350.89849853515625 L 192.94737243652344 339.63397216796875 L 178.73684692382812 319.9210510253906 L 178.73684692382812 319.9210510253906 L 168.86842346191406 300.2081298828125 L 160.9736785888672 280.4952087402344 L 155.05262756347656 260.78228759765625 L 155.05262756347656 260.78228759765625 L 151.66917419433594 241.0693817138672 L 149.97744750976562 221.35646057128906 L 149.97744750976562 201.64353942871094 L 151.66917419433594 181.9306182861328 L 155.05262756347656 162.2176971435547 L 155.05262756347656 162.2176971435547 L 160.9736785888672 142.50479125976562 L 168.86842346191406 122.79186248779297 L 178.73684692382812 103.07894897460938 L 178.73684692382812 103.07894897460938 L 192.94737243652344 83.36602783203125 L 202.42105102539062 72.10150146484375 L 211.30262756347656 63.65311050415039 L 226.1052703857422 51.33253479003906 L 237.94737243652344 43.94019317626953 L 249.7894744873047 37.36921691894531 L 273.47369384765625 28.607921600341797 L 297.15789794921875 24.227272033691406 L 273.47369384765625 24.227272033691406 L 249.7894744873047 24.227272033691406 L 226.1052703857422 24.227272033691406 L 217.2236785888672 24.227272033691406 L 202.42105102539062 35.17889404296875 L 192.94737243652344 43.94019317626953 L 178.73684692382812 58.72488021850586 L 174.7894744873047 63.65311050415039 L 160.9736785888672 83.36602783203125 L 155.05262756347656 93.22248840332031 L 149.97744750976562 103.07894897460938 L 141.518798828125 122.79186248779297 L 134.7518768310547 142.50479125976562 L 131.36842346191406 155.646728515625 L 129.88815307617188 162.2176971435547 L 126.9276351928711 181.9306182861328 L 125.4473648071289 201.64353942871094 L 125.4473648071289 221.35646057128906 L 126.9276351928711 241.0693817138672 L 129.88815307617188 260.78228759765625 L 131.36842346191406 267.353271484375 L 134.7518768310547 280.4952087402344 L 141.518798828125 300.2081298828125 L 149.97744750976562 319.9210510253906 L 155.05262756347656 329.77752685546875 L 160.9736785888672 339.63397216796875 L 174.7894744873047 359.3468933105469 L 178.73684692382812 364.2751159667969 L 192.94737243652344 379.059814453125 Z M 320.84210205078125 398.7727355957031 L 344.52630615234375 398.7727355957031 L 368.2105407714844 398.7727355957031 L 391.8947448730469 398.7727355957031 L 400.77630615234375 398.7727355957031 L 415.5789489746094 387.82110595703125 L 425.0526428222656 379.059814453125 L 439.2631530761719 364.2751159667969 L 443.2105407714844 359.3468933105469 L 457.02630615234375 339.63397216796875 L 462.9473571777344 329.77752685546875 L 468.0225524902344 319.9210510253906 L 476.481201171875 300.2081298828125 L 483.24810791015625 280.4952087402344 L 486.631591796875 267.353271484375 L 488.1118469238281 260.78228759765625 L 491.0723571777344 241.0693817138672 L 492.5526428222656 221.35646057128906 L 492.5526428222656 201.64353942871094 L 491.0723571777344 181.9306182861328 L 488.1118469238281 162.2176971435547 L 486.631591796875 155.646728515625 L 483.24810791015625 142.50479125976562 L 476.481201171875 122.79186248779297 L 468.0225524902344 103.07894897460938 L 462.9473571777344 93.22248840332031 L 457.02630615234375 83.36602783203125 L 443.2105407714844 63.65311050415039 L 439.2631530761719 58.72488021850586 L 425.0526428222656 43.94019317626953 L 415.5789489746094 35.17889404296875 L 400.77630615234375 24.227272033691406 L 391.8947448730469 24.227272033691406 L 368.2105407714844 24.227272033691406 L 344.52630615234375 24.227272033691406 L 320.84210205078125 24.227272033691406 L 344.52630615234375 28.607921600341797 L 368.2105407714844 37.36921691894531 L 380.0526428222656 43.94019317626953 L 391.8947448730469 51.33253479003906 L 406.6973571777344 63.65311050415039 L 415.5789489746094 72.10150146484375 L 425.0526428222656 83.36602783203125 L 439.2631530761719 103.07894897460938 L 439.2631530761719 103.07894897460938 L 449.131591796875 122.79186248779297 L 457.02630615234375 142.50479125976562 L 462.9473571777344 162.2176971435547 L 462.9473571777344 162.2176971435547 L 466.3308410644531 181.9306182861328 L 468.0225524902344 201.64353942871094 L 468.0225524902344 221.35646057128906 L 466.3308410644531 241.0693817138672 L 462.9473571777344 260.78228759765625 L 462.9473571777344 260.78228759765625 L 457.02630615234375 280.4952087402344 L 449.131591796875 300.2081298828125 L 439.2631530761719 319.9210510253906 L 439.2631530761719 319.9210510253906 L 425.0526428222656 339.63397216796875 L 415.5789489746094 350.89849853515625 L 406.6973571777344 359.3468933105469 L 391.8947448730469 371.6674499511719 L 380.0526428222656 379.059814453125 L 368.2105407714844 385.6307678222656 L 344.52630615234375 394.39208984375 L 320.84210205078125 398.7727355957031 Z" fill-opacity="1" fill-rule="evenodd" clip-path="url(#WiJlTnfFEbhK)"/><path fill="rgb(228,228,195)" stroke="none" paint-order="stroke" d="M 160.9736785888672 379.059814453125 L 178.73684692382812 398.7727355957031 L 178.73684692382812 398.7727355957031 L 202.42105102539062 398.7727355957031 L 217.2236785888672 398.7727355957031 L 202.42105102539062 387.82110595703125 L 192.94737243652344 379.059814453125 L 178.73684692382812 364.2751159667969 L 174.7894744873047 359.3468933105469 L 160.9736785888672 339.63397216796875 L 155.05262756347656 329.77752685546875 L 149.97744750976562 319.9210510253906 L 141.518798828125 300.2081298828125 L 134.7518768310547 280.4952087402344 L 131.36842346191406 267.353271484375 L 129.88815307617188 260.78228759765625 L 126.9276351928711 241.0693817138672 L 125.4473648071289 221.35646057128906 L 125.4473648071289 201.64353942871094 L 126.9276351928711 181.9306182861328 L 129.88815307617188 162.2176971435547 L 131.36842346191406 155.646728515625 L 134.7518768310547 142.50479125976562 L 141.518798828125 122.79186248779297 L 149.97744750976562 103.07894897460938 L 155.05262756347656 93.22248840332031 L 160.9736785888672 83.36602783203125 L 174.7894744873047 63.65311050415039 L 178.73684692382812 58.72488021850586 L 192.94737243652344 43.94019317626953 L 202.42105102539062 35.17889404296875 L 217.2236785888672 24.227272033691406 L 202.42105102539062 24.227272033691406 L 178.73684692382812 24.227272033691406 L 178.73684692382812 24.227272033691406 L 160.9736785888672 43.94019317626953 L 155.05262756347656 51.33253479003906 L 146.59397888183594 63.65311050415039 L 134.7518768310547 83.36602783203125 L 131.36842346191406 89.93700408935547 L 125.4473648071289 103.07894897460938 L 118.04605102539062 122.79186248779297 L 112.125 142.50479125976562 L 107.68421173095703 162.2176971435547 L 107.68421173095703 162.2176971435547 L 105.0526351928711 181.9306182861328 L 103.7368392944336 201.64353942871094 L 103.7368392944336 221.35646057128906 L 105.0526351928711 241.0693817138672 L 107.68421173095703 260.78228759765625 L 107.68421173095703 260.78228759765625 L 112.125 280.4952087402344 L 118.04605102539062 300.2081298828125 L 125.4473648071289 319.9210510253906 L 131.36842346191406 333.06298828125 L 134.7518768310547 339.63397216796875 L 146.59397888183594 359.3468933105469 L 155.05262756347656 371.6674499511719 L 160.9736785888672 379.059814453125 Z M 400.77630615234375 398.7727355957031 L 415.5789489746094 398.7727355957031 L 439.2631530761719 398.7727355957031 L 439.2631530761719 398.7727355957031 L 457.02630615234375 379.059814453125 L 462.9473571777344 371.6674499511719 L 471.406005859375 359.3468933105469 L 483.24810791015625 339.63397216796875 L 486.631591796875 333.06298828125 L 492.5526428222656 319.9210510253906 L 499.9539489746094 300.2081298828125 L 505.875 280.4952087402344 L 510.3157958984375 260.78228759765625 L 510.3157958984375 260.78228759765625 L 512.9473876953125 241.0693817138672 L 514.26318359375 221.35646057128906 L 514.26318359375 201.64353942871094 L 512.9473876953125 181.9306182861328 L 510.3157958984375 162.2176971435547 L 510.3157958984375 162.2176971435547 L 505.875 142.50479125976562 L 499.9539489746094 122.79186248779297 L 492.5526428222656 103.07894897460938 L 486.631591796875 89.93700408935547 L 483.24810791015625 83.36602783203125 L 471.406005859375 63.65311050415039 L 462.9473571777344 51.33253479003906 L 457.02630615234375 43.94019317626953 L 439.2631530761719 24.227272033691406 L 439.2631530761719 24.227272033691406 L 415.5789489746094 24.227272033691406 L 400.77630615234375 24.227272033691406 L 415.5789489746094 35.17889404296875 L 425.0526428222656 43.94019317626953 L 439.2631530761719 58.72488021850586 L 443.2105407714844 63.65311050415039 L 457.02630615234375 83.36602783203125 L 462.9473571777344 93.22248840332031 L 468.0225524902344 103.07894897460938 L 476.481201171875 122.79186248779297 L 483.24810791015625 142.50479125976562 L 486.631591796875 155.646728515625 L 488.1118469238281 162.2176971435547 L 491.0723571777344 181.9306182861328 L 492.5526428222656 201.64353942871094 L 492.5526428222656 221.35646057128906 L 491.0723571777344 241.0693817138672 L 488.1118469238281 260.78228759765625 L 486.631591796875 267.353271484375 L 483.24810791015625 280.4952087402344 L 476.481201171875 300.2081298828125 L 468.0225524902344 319.9210510253906 L 462.9473571777344 329.77752685546875 L 457.02630615234375 339.63397216796875 L 443.2105407714844 359.3468933105469 L 439.2631530761719 364.2751159667969 L 425.0526428222656 379.059814453125 L 415.5789489746094 387.82110595703125 L 400.77630615234375 398.7727355957031 Z" fill-opacity="1" fill-rule="evenodd" clip-path="url(#WiJlTnfFEbhK)"/><path fill="rgb(250,204,133)" stroke="none" paint-order="stroke" d="M 149.97744750976562 398.7727355957031 L 155.05262756347656 398.7727355957031 L 178.73684692382812 398.7727355957031 L 178.73684692382812 398.7727355957031 L 178.73684692382812 398.7727355957031 L 160.9736785888672 379.059814453125 L 155.05262756347656 371.6674499511719 L 146.59397888183594 359.3468933105469 L 134.7518768310547 339.63397216796875 L 131.36842346191406 333.06298828125 L 125.4473648071289 319.9210510253906 L 118.04605102539062 300.2081298828125 L 112.125 280.4952087402344 L 107.68421173095703 260.78228759765625 L 107.68421173095703 260.78228759765625 L 105.0526351928711 241.0693817138672 L 103.7368392944336 221.35646057128906 L 103.7368392944336 201.64353942871094 L 105.0526351928711 181.9306182861328 L 107.68421173095703 162.2176971435547 L 107.68421173095703 162.2176971435547 L 112.125 142.50479125976562 L 118.04605102539062 122.79186248779297 L 125.4473648071289 103.07894897460938 L 131.36842346191406 89.93700408935547 L 134.7518768310547 83.36602783203125 L 146.59397888183594 63.65311050415039 L 155.05262756347656 51.33253479003906 L 160.9736785888672 43.94019317626953 L 178.73684692382812 24.227272033691406 L 178.73684692382812 24.227272033691406 L 178.73684692382812 24.227272033691406 L 155.05262756347656 24.227272033691406 L 149.97744750976562 24.227272033691406 L 134.7518768310547 43.94019317626953 L 131.36842346191406 48.8684196472168 L 122.4868392944336 63.65311050415039 L 112.125 83.36602783203125 L 107.68421173095703 93.22248840332031 L 103.7368392944336 103.07894897460938 L 97.15789794921875 122.79186248779297 L 91.89473724365234 142.50479125976562 L 87.9473648071289 162.2176971435547 L 85.31578826904297 181.9306182861328 L 84 201.64353942871094 L 84 201.64353942871094 L 84 221.35646057128906 L 84 221.35646057128906 L 85.31578826904297 241.0693817138672 L 87.9473648071289 260.78228759765625 L 91.89473724365234 280.4952087402344 L 97.15789794921875 300.2081298828125 L 103.7368392944336 319.9210510253906 L 107.68421173095703 329.77752685546875 L 112.125 339.63397216796875 L 122.4868392944336 359.3468933105469 L 131.36842346191406 374.131591796875 L 134.7518768310547 379.059814453125 L 149.97744750976562 398.7727355957031 Z M 439.2631530761719 398.7727355957031 L 439.2631530761719 398.7727355957031 L 462.9473571777344 398.7727355957031 L 468.0225524902344 398.7727355957031 L 483.24810791015625 379.059814453125 L 486.631591796875 374.131591796875 L 495.5131530761719 359.3468933105469 L 505.875 339.63397216796875 L 510.3157958984375 329.77752685546875 L 514.26318359375 319.9210510253906 L 520.8421020507812 300.2081298828125 L 526.1052856445312 280.4952087402344 L 530.0526123046875 260.78228759765625 L 532.6842041015625 241.0693817138672 L 534 221.35646057128906 L 534 221.35646057128906 L 534 201.64353942871094 L 534 201.64353942871094 L 532.6842041015625 181.9306182861328 L 530.0526123046875 162.2176971435547 L 526.1052856445312 142.50479125976562 L 520.8421020507812 122.79186248779297 L 514.26318359375 103.07894897460938 L 510.3157958984375 93.22248840332031 L 505.875 83.36602783203125 L 495.5131530761719 63.65311050415039 L 486.631591796875 48.8684196472168 L 483.24810791015625 43.94019317626953 L 468.0225524902344 24.227272033691406 L 462.9473571777344 24.227272033691406 L 439.2631530761719 24.227272033691406 L 439.2631530761719 24.227272033691406 L 439.2631530761719 24.227272033691406 L 457.02630615234375 43.94019317626953 L 462.9473571777344 51.33253479003906 L 471.406005859375 63.65311050415039 L 483.24810791015625 83.36602783203125 L 486.631591796875 89.93700408935547 L 492.5526428222656 103.07894897460938 L 499.9539489746094 122.79186248779297 L 505.875 142.50479125976562 L 510.3157958984375 162.2176971435547 L 510.3157958984375 162.2176971435547 L 512.9473876953125 181.9306182861328 L 514.26318359375 201.64353942871094 L 514.26318359375 221.35646057128906 L 512.9473876953125 241.0693817138672 L 510.3157958984375 260.78228759765625 L 510.3157958984375 260.78228759765625 L 505.875 280.4952087402344 L 499.9539489746094 300.2081298828125 L 492.5526428222656 319.9210510253906 L 486.631591796875 333.06298828125 L 483.24810791015625 339.63397216796875 L 471.406005859375 359.3468933105469 L 462.9473571777344 371.6674499511719 L 457.02630615234375 379.059814453125 L 439.2631530761719 398.7727355957031 L 439.2631530761719 398.7727355957031 Z" fill-opacity="1" fill-rule="evenodd" clip-path="url(#WiJlTnfFEbhK)"/><path fill="rgb(248,150,89)" stroke="none" paint-order="stroke" d="M 125.4473648071289 398.7727355957031 L 131.36842346191406 398.7727355957031 L 149.97744750976562 398.7727355957031 L 134.7518768310547 379.059814453125 L 131.36842346191406 374.131591796875 L 122.4868392944336 359.3468933105469 L 112.125 339.63397216796875 L 107.68421173095703 329.77752685546875 L 103.7368392944336 319.9210510253906 L 97.15789794921875 300.2081298828125 L 91.89473724365234 280.4952087402344 L 87.9473648071289 260.78228759765625 L 85.31578826904297 241.0693817138672 L 84 221.35646057128906 L 84 241.0693817138672 L 84 260.78228759765625 L 84 280.4952087402344 L 84 300.2081298828125 L 84 319.9210510253906 L 84 319.9210510253906 L 91.89473724365234 339.63397216796875 L 101.10526275634766 359.3468933105469 L 107.68421173095703 371.6674499511719 L 112.125 379.059814453125 L 125.4473648071289 398.7727355957031 Z M 468.0225524902344 398.7727355957031 L 486.631591796875 398.7727355957031 L 492.5526428222656 398.7727355957031 L 505.875 379.059814453125 L 510.3157958984375 371.6674499511719 L 516.8947143554688 359.3468933105469 L 526.1052856445312 339.63397216796875 L 534 319.9210510253906 L 534 319.9210510253906 L 534 300.2081298828125 L 534 280.4952087402344 L 534 260.78228759765625 L 534 241.0693817138672 L 534 221.35646057128906 L 532.6842041015625 241.0693817138672 L 530.0526123046875 260.78228759765625 L 526.1052856445312 280.4952087402344 L 520.8421020507812 300.2081298828125 L 514.26318359375 319.9210510253906 L 510.3157958984375 329.77752685546875 L 505.875 339.63397216796875 L 495.5131530761719 359.3468933105469 L 486.631591796875 374.131591796875 L 483.24810791015625 379.059814453125 L 468.0225524902344 398.7727355957031 Z M 84 181.9306182861328 L 84 201.64353942871094 L 85.31578826904297 181.9306182861328 L 87.9473648071289 162.2176971435547 L 91.89473724365234 142.50479125976562 L 97.15789794921875 122.79186248779297 L 103.7368392944336 103.07894897460938 L 107.68421173095703 93.22248840332031 L 112.125 83.36602783203125 L 122.4868392944336 63.65311050415039 L 131.36842346191406 48.8684196472168 L 134.7518768310547 43.94019317626953 L 149.97744750976562 24.227272033691406 L 131.36842346191406 24.227272033691406 L 125.4473648071289 24.227272033691406 L 112.125 43.94019317626953 L 107.68421173095703 51.33253479003906 L 101.10526275634766 63.65311050415039 L 91.89473724365234 83.36602783203125 L 84 103.07894897460938 L 84 103.07894897460938 L 84 122.79186248779297 L 84 142.50479125976562 L 84 162.2176971435547 L 84 181.9306182861328 Z M 532.6842041015625 181.9306182861328 L 534 201.64353942871094 L 534 181.9306182861328 L 534 162.2176971435547 L 534 142.50479125976562 L 534 122.79186248779297 L 534 103.07894897460938 L 534 103.07894897460938 L 526.1052856445312 83.36602783203125 L 516.8947143554688 63.65311050415039 L 510.3157958984375 51.33253479003906 L 505.875 43.94019317626953 L 492.5526428222656 24.227272033691406 L 486.631591796875 24.227272033691406 L 468.0225524902344 24.227272033691406 L 483.24810791015625 43.94019317626953 L 486.631591796875 48.8684196472168 L 495.5131530761719 63.65311050415039 L 505.875 83.36602783203125 L 510.3157958984375 93.22248840332031 L 514.26318359375 103.07894897460938 L 520.8421020507812 122.79186248779297 L 526.1052856445312 142.50479125976562 L 530.0526123046875 162.2176971435547 L 532.6842041015625 181.9306182861328 Z" fill-opacity="1" fill-rule="evenodd" clip-path="url(#WiJlTnfFEbhK)"/><path fill="rgb(226,76,52)" stroke="none" paint-order="stroke" d="M 103.7368392944336 398.7727355957031 L 107.68421173095703 398.7727355957031 L 125.4473648071289 398.7727355957031 L 112.125 379.059814453125 L 107.68421173095703 371.6674499511719 L 101.10526275634766 359.3468933105469 L 91.89473724365234 339.63397216796875 L 84 319.9210510253906 L 84 339.63397216796875 L 84 359.3468933105469 L 84 364.2751159667969 L 91.89473724365234 379.059814453125 L 103.7368392944336 398.7727355957031 Z M 492.5526428222656 398.7727355957031 L 510.3157958984375 398.7727355957031 L 514.26318359375 398.7727355957031 L 526.1052856445312 379.059814453125 L 534 364.2751159667969 L 534 359.3468933105469 L 534 339.63397216796875 L 534 319.9210510253906 L 526.1052856445312 339.63397216796875 L 516.8947143554688 359.3468933105469 L 510.3157958984375 371.6674499511719 L 505.875 379.059814453125 L 492.5526428222656 398.7727355957031 Z M 84 83.36602783203125 L 84 103.07894897460938 L 91.89473724365234 83.36602783203125 L 101.10526275634766 63.65311050415039 L 107.68421173095703 51.33253479003906 L 112.125 43.94019317626953 L 125.4473648071289 24.227272033691406 L 107.68421173095703 24.227272033691406 L 103.7368392944336 24.227272033691406 L 91.89473724365234 43.94019317626953 L 84 58.72488021850586 L 84 63.65311050415039 L 84 83.36602783203125 Z M 526.1052856445312 83.36602783203125 L 534 103.07894897460938 L 534 83.36602783203125 L 534 63.65311050415039 L 534 58.72488021850586 L 526.1052856445312 43.94019317626953 L 514.26318359375 24.227272033691406 L 510.3157958984375 24.227272033691406 L 492.5526428222656 24.227272033691406 L 505.875 43.94019317626953 L 510.3157958984375 51.33253479003906 L 516.8947143554688 63.65311050415039 L 526.1052856445312 83.36602783203125 Z" fill-opacity="1" fill-rule="evenodd" clip-path="url(#WiJlTnfFEbhK)"/><path fill="rgb(165,0,38)" stroke="none" paint-order="stroke" d="M 84 398.7727355957031 L 103.7368392944336 398.7727355957031 L 91.89473724365234 379.059814453125 L 84 364.2751159667969 L 84 379.059814453125 L 84 398.7727355957031 Z M 514.26318359375 398.7727355957031 L 534 398.7727355957031 L 534 379.059814453125 L 534 364.2751159667969 L 526.1052856445312 379.059814453125 L 514.26318359375 398.7727355957031 Z M 84 43.94019317626953 L 84 58.72488021850586 L 91.89473724365234 43.94019317626953 L 103.7368392944336 24.227272033691406 L 84 24.227272033691406 L 84 43.94019317626953 Z M 526.1052856445312 43.94019317626953 L 534 58.72488021850586 L 534 43.94019317626953 L 534 24.227272033691406 L 514.26318359375 24.227272033691406 L 526.1052856445312 43.94019317626953 Z" fill-opacity="1" fill-rule="evenodd" clip-path="url(#WiJlTnfFEbhK)"/><path fill="none" stroke="rgb(0,0,0)" paint-order="fill" d="M 320.84210205078125 201.64353942871094 L 320.84210205078125 201.64353942871094 L 320.84210205078125 201.64353942871094 L 320.84210205078125 201.64353942871094 L 320.84210205078125 201.64353942871094" stroke-opacity="1" stroke-linejoin="bevel" stroke-miterlimit="10" clip-path="url(#WiJlTnfFEbhK)"/><path fill="none" stroke="rgb(0,0,0)" paint-order="fill" d="M 273.47369384765625 312.035888671875 L 255.7105255126953 300.2081298828125 L 249.7894744873047 295.2799072265625 L 237.94737243652344 280.4952087402344 L 226.1052703857422 260.78228759765625 L 226.1052703857422 260.78228759765625 L 220.1842041015625 241.0693817138672 L 217.2236785888672 221.35646057128906 L 217.2236785888672 201.64353942871094 L 220.1842041015625 181.9306182861328 L 226.1052703857422 162.2176971435547 L 226.1052703857422 162.2176971435547 L 237.94737243652344 142.50479125976562 L 249.7894744873047 127.7200927734375 L 255.7105255126953 122.79186248779297 L 273.47369384765625 110.964111328125 L 297.15789794921875 103.07894897460938 L 320.84210205078125 103.07894897460938 L 344.52630615234375 110.964111328125 L 362.2894592285156 122.79186248779297 L 368.2105407714844 127.7200927734375 L 380.0526428222656 142.50479125976562 L 391.8947448730469 162.2176971435547 L 391.8947448730469 162.2176971435547 L 397.8157958984375 181.9306182861328 L 400.77630615234375 201.64353942871094 L 400.77630615234375 221.35646057128906 L 397.8157958984375 241.0693817138672 L 391.8947448730469 260.78228759765625 L 391.8947448730469 260.78228759765625 L 380.0526428222656 280.4952087402344 L 368.2105407714844 295.2799072265625 L 362.2894592285156 300.2081298828125 L 344.52630615234375 312.035888671875 L 320.84210205078125 319.9210510253906 L 297.15789794921875 319.9210510253906 L 273.47369384765625 312.035888671875" stroke-opacity="1" stroke-linejoin="bevel" stroke-miterlimit="10" clip-path="url(#WiJlTnfFEbhK)"/><path fill="none" stroke="rgb(0,0,0)" paint-order="fill" d="M 297.15789794921875 364.2751159667969 L 273.47369384765625 359.3468933105469 L 273.47369384765625 359.3468933105469 L 249.7894744873047 348.0823669433594 L 237.94737243652344 339.63397216796875 L 226.1052703857422 329.77752685546875 L 217.2236785888672 319.9210510253906 L 202.42105102539062 300.2081298828125 L 202.42105102539062 300.2081298828125 L 192.94737243652344 280.4952087402344 L 185.84210205078125 260.78228759765625 L 181.1052703857422 241.0693817138672 L 178.73684692382812 221.35646057128906 L 178.73684692382812 221.35646057128906 L 178.73684692382812 201.64353942871094 L 178.73684692382812 201.64353942871094 L 181.1052703857422 181.9306182861328 L 185.84210205078125 162.2176971435547 L 192.94737243652344 142.50479125976562 L 202.42105102539062 122.79186248779297 L 202.42105102539062 122.79186248779297 L 217.2236785888672 103.07894897460938 L 226.1052703857422 93.22248840332031 L 237.94737243652344 83.36602783203125 L 249.7894744873047 74.91763305664062 L 273.47369384765625 63.65311050415039 L 273.47369384765625 63.65311050415039 L 297.15789794921875 58.72488021850586 L 320.84210205078125 58.72488021850586 L 344.52630615234375 63.65311050415039 L 344.52630615234375 63.65311050415039 L 368.2105407714844 74.91763305664062 L 380.0526428222656 83.36602783203125 L 391.8947448730469 93.22248840332031 L 400.77630615234375 103.07894897460938 L 415.5789489746094 122.79186248779297 L 415.5789489746094 122.79186248779297 L 425.0526428222656 142.50479125976562 L 432.15789794921875 162.2176971435547 L 436.8947448730469 181.9306182861328 L 439.2631530761719 201.64353942871094 L 439.2631530761719 201.64353942871094 L 439.2631530761719 221.35646057128906 L 439.2631530761719 221.35646057128906 L 436.8947448730469 241.0693817138672 L 432.15789794921875 260.78228759765625 L 425.0526428222656 280.4952087402344 L 415.5789489746094 300.2081298828125 L 415.5789489746094 300.2081298828125 L 400.77630615234375 319.9210510253906 L 391.8947448730469 329.77752685546875 L 380.0526428222656 339.63397216796875 L 368.2105407714844 348.0823669433594 L 344.52630615234375 359.3468933105469 L 344.52630615234375 359.3468933105469 L 320.84210205078125 364.2751159667969 L 297.15789794921875 364.2751159667969" stroke-opacity="1" stroke-linejoin="bevel" stroke-miterlimit="10" clip-path="url(#WiJlTnfFEbhK)"/><path fill="none" stroke="rgb(0,0,0)" paint-order="fill" d="M 297.15789794921875 398.7727355957031 L 273.47369384765625 394.39208984375 L 249.7894744873047 385.6307678222656 L 237.94737243652344 379.059814453125 L 226.1052703857422 371.6674499511719 L 211.30262756347656 359.3468933105469 L 202.42105102539062 350.89849853515625 L 192.94737243652344 339.63397216796875 L 178.73684692382812 319.9210510253906 L 178.73684692382812 319.9210510253906 L 168.86842346191406 300.2081298828125 L 160.9736785888672 280.4952087402344 L 155.05262756347656 260.78228759765625 L 155.05262756347656 260.78228759765625 L 151.66917419433594 241.0693817138672 L 149.97744750976562 221.35646057128906 L 149.97744750976562 201.64353942871094 L 151.66917419433594 181.9306182861328 L 155.05262756347656 162.2176971435547 L 155.05262756347656 162.2176971435547 L 160.9736785888672 142.50479125976562 L 168.86842346191406 122.79186248779297 L 178.73684692382812 103.07894897460938 L 178.73684692382812 103.07894897460938 L 192.94737243652344 83.36602783203125 L 202.42105102539062 72.10150146484375 L 211.30262756347656 63.65311050415039 L 226.1052703857422 51.33253479003906 L 237.94737243652344 43.94019317626953 L 249.7894744873047 37.36921691894531 L 273.47369384765625 28.607921600341797 L 297.15789794921875 24.227272033691406 M 320.84210205078125 24.227272033691406 L 344.52630615234375 28.607921600341797 L 368.2105407714844 37.36921691894531 L 380.0526428222656 43.94019317626953 L 391.8947448730469 51.33253479003906 L 406.6973571777344 63.65311050415039 L 415.5789489746094 72.10150146484375 L 425.0526428222656 83.36602783203125 L 439.2631530761719 103.07894897460938 L 439.2631530761719 103.07894897460938 L 449.131591796875 122.79186248779297 L 457.02630615234375 142.50479125976562 L 462.9473571777344 162.2176971435547 L 462.9473571777344 162.2176971435547 L 466.3308410644531 181.9306182861328 L 468.0225524902344 201.64353942871094 L 468.0225524902344 221.35646057128906 L 466.3308410644531 241.0693817138672 L 462.9473571777344 260.78228759765625 L 462.9473571777344 260.78228759765625 L 457.02630615234375 280.4952087402344 L 449.131591796875 300.2081298828125 L 439.2631530761719 319.9210510253906 L 439.2631530761719 319.9210510253906 L 425.0526428222656 339.63397216796875 L 415.5789489746094 350.89849853515625 L 406.6973571777344 359.3468933105469 L 391.8947448730469 371.6674499511719 L 380.0526428222656 379.059814453125 L 368.2105407714844 385.6307678222656 L 344.52630615234375 394.39208984375 L 320.84210205078125 398.7727355957031" stroke-opacity="1" stroke-linejoin="bevel" stroke-miterlimit="10" clip-path="url(#WiJlTnfFEbhK)"/><path fill="none" stroke="rgb(0,0,0)" paint-order="fill" d="M 217.2236785888672 398.7727355957031 L 202.42105102539062 387.82110595703125 L 192.94737243652344 379.059814453125 L 178.73684692382812 364.2751159667969 L 174.7894744873047 359.3468933105469 L 160.9736785888672 339.63397216796875 L 155.05262756347656 329.77752685546875 L 149.97744750976562 319.9210510253906 L 141.518798828125 300.2081298828125 L 134.7518768310547 280.4952087402344 L 131.36842346191406 267.353271484375 L 129.88815307617188 260.78228759765625 L 126.9276351928711 241.0693817138672 L 125.4473648071289 221.35646057128906 L 125.4473648071289 201.64353942871094 L 126.9276351928711 181.9306182861328 L 129.88815307617188 162.2176971435547 L 131.36842346191406 155.646728515625 L 134.7518768310547 142.50479125976562 L 141.518798828125 122.79186248779297 L 149.97744750976562 103.07894897460938 L 155.05262756347656 93.22248840332031 L 160.9736785888672 83.36602783203125 L 174.7894744873047 63.65311050415039 L 178.73684692382812 58.72488021850586 L 192.94737243652344 43.94019317626953 L 202.42105102539062 35.17889404296875 L 217.2236785888672 24.227272033691406 M 400.77630615234375 24.227272033691406 L 415.5789489746094 35.17889404296875 L 425.0526428222656 43.94019317626953 L 439.2631530761719 58.72488021850586 L 443.2105407714844 63.65311050415039 L 457.02630615234375 83.36602783203125 L 462.9473571777344 93.22248840332031 L 468.0225524902344 103.07894897460938 L 476.481201171875 122.79186248779297 L 483.24810791015625 142.50479125976562 L 486.631591796875 155.646728515625 L 488.1118469238281 162.2176971435547 L 491.0723571777344 181.9306182861328 L 492.5526428222656 201.64353942871094 L 492.5526428222656 221.35646057128906 L 491.0723571777344 241.0693817138672 L 488.1118469238281 260.78228759765625 L 486.631591796875 267.353271484375 L 483.24810791015625 280.4952087402344 L 476.481201171875 300.2081298828125 L 468.0225524902344 319.9210510253906 L 462.9473571777344 329.77752685546875 L 457.02630615234375 339.63397216796875 L 443.2105407714844 359.3468933105469 L 439.2631530761719 364.2751159667969 L 425.0526428222656 379.059814453125 L 415.5789489746094 387.82110595703125 L 400.77630615234375 398.7727355957031" stroke-opacity="1" stroke-linejoin="bevel" stroke-miterlimit="10" clip-path="url(#WiJlTnfFEbhK)"/><path fill="none" stroke="rgb(0,0,0)" paint-order="fill" d="M 178.73684692382812 398.7727355957031 L 178.73684692382812 398.7727355957031 L 160.9736785888672 379.059814453125 L 155.05262756347656 371.6674499511719 L 146.59397888183594 359.3468933105469 L 134.7518768310547 339.63397216796875 L 131.36842346191406 333.06298828125 L 125.4473648071289 319.9210510253906 L 118.04605102539062 300.2081298828125 L 112.125 280.4952087402344 L 107.68421173095703 260.78228759765625 L 107.68421173095703 260.78228759765625 L 105.0526351928711 241.0693817138672 L 103.7368392944336 221.35646057128906 L 103.7368392944336 201.64353942871094 L 105.0526351928711 181.9306182861328 L 107.68421173095703 162.2176971435547 L 107.68421173095703 162.2176971435547 L 112.125 142.50479125976562 L 118.04605102539062 122.79186248779297 L 125.4473648071289 103.07894897460938 L 131.36842346191406 89.93700408935547 L 134.7518768310547 83.36602783203125 L 146.59397888183594 63.65311050415039 L 155.05262756347656 51.33253479003906 L 160.9736785888672 43.94019317626953 L 178.73684692382812 24.227272033691406 L 178.73684692382812 24.227272033691406 M 439.2631530761719 24.227272033691406 L 439.2631530761719 24.227272033691406 L 457.02630615234375 43.94019317626953 L 462.9473571777344 51.33253479003906 L 471.406005859375 63.65311050415039 L 483.24810791015625 83.36602783203125 L 486.631591796875 89.93700408935547 L 492.5526428222656 103.07894897460938 L 499.9539489746094 122.79186248779297 L 505.875 142.50479125976562 L 510.3157958984375 162.2176971435547 L 510.3157958984375 162.2176971435547 L 512.9473876953125 181.9306182861328 L 514.26318359375 201.64353942871094 L 514.26318359375 221.35646057128906 L 512.9473876953125 241.0693817138672 L 510.3157958984375 260.78228759765625 L 510.3157958984375 260.78228759765625 L 505.875 280.4952087402344 L 499.9539489746094 300.2081298828125 L 492.5526428222656 319.9210510253906 L 486.631591796875 333.06298828125 L 483.24810791015625 339.63397216796875 L 471.406005859375 359.3468933105469 L 462.9473571777344 371.6674499511719 L 457.02630615234375 379.059814453125 L 439.2631530761719 398.7727355957031 L 439.2631530761719 398.7727355957031" stroke-opacity="1" stroke-linejoin="bevel" stroke-miterlimit="10" clip-path="url(#WiJlTnfFEbhK)"/><path fill="none" stroke="rgb(0,0,0)" paint-order="fill" d="M 149.97744750976562 398.7727355957031 L 134.7518768310547 379.059814453125 L 131.36842346191406 374.131591796875 L 122.4868392944336 359.3468933105469 L 112.125 339.63397216796875 L 107.68421173095703 329.77752685546875 L 103.7368392944336 319.9210510253906 L 97.15789794921875 300.2081298828125 L 91.89473724365234 280.4952087402344 L 87.9473648071289 260.78228759765625 L 85.31578826904297 241.0693817138672 L 84 221.35646057128906 M 534 221.35646057128906 L 532.6842041015625 241.0693817138672 L 530.0526123046875 260.78228759765625 L 526.1052856445312 280.4952087402344 L 520.8421020507812 300.2081298828125 L 514.26318359375 319.9210510253906 L 510.3157958984375 329.77752685546875 L 505.875 339.63397216796875 L 495.5131530761719 359.3468933105469 L 486.631591796875 374.131591796875 L 483.24810791015625 379.059814453125 L 468.0225524902344 398.7727355957031 M 84 201.64353942871094 L 85.31578826904297 181.9306182861328 L 87.9473648071289 162.2176971435547 L 91.89473724365234 142.50479125976562 L 97.15789794921875 122.79186248779297 L 103.7368392944336 103.07894897460938 L 107.68421173095703 93.22248840332031 L 112.125 83.36602783203125 L 122.4868392944336 63.65311050415039 L 131.36842346191406 48.8684196472168 L 134.7518768310547 43.94019317626953 L 149.97744750976562 24.227272033691406 M 468.0225524902344 24.227272033691406 L 483.24810791015625 43.94019317626953 L 486.631591796875 48.8684196472168 L 495.5131530761719 63.65311050415039 L 505.875 83.36602783203125 L 510.3157958984375 93.22248840332031 L 514.26318359375 103.07894897460938 L 520.8421020507812 122.79186248779297 L 526.1052856445312 142.50479125976562 L 530.0526123046875 162.2176971435547 L 532.6842041015625 181.9306182861328 L 534 201.64353942871094" stroke-opacity="1" stroke-linejoin="bevel" stroke-miterlimit="10" clip-path="url(#WiJlTnfFEbhK)"/><path fill="none" stroke="rgb(0,0,0)" paint-order="fill" d="M 125.4473648071289 398.7727355957031 L 112.125 379.059814453125 L 107.68421173095703 371.6674499511719 L 101.10526275634766 359.3468933105469 L 91.89473724365234 339.63397216796875 L 84 319.9210510253906 M 534 319.9210510253906 L 526.1052856445312 339.63397216796875 L 516.8947143554688 359.3468933105469 L 510.3157958984375 371.6674499511719 L 505.875 379.059814453125 L 492.5526428222656 398.7727355957031 M 84 103.07894897460938 L 91.89473724365234 83.36602783203125 L 101.10526275634766 63.65311050415039 L 107.68421173095703 51.33253479003906 L 112.125 43.94019317626953 L 125.4473648071289 24.227272033691406 M 492.5526428222656 24.227272033691406 L 505.875 43.94019317626953 L 510.3157958984375 51.33253479003906 L 516.8947143554688 63.65311050415039 L 526.1052856445312 83.36602783203125 L 534 103.07894897460938" stroke-opacity="1" stroke-linejoin="bevel" stroke-miterlimit="10" clip-path="url(#WiJlTnfFEbhK)"/><path fill="none" stroke="rgb(0,0,0)" paint-order="fill" d="M 103.7368392944336 398.7727355957031 L 91.89473724365234 379.059814453125 L 84 364.2751159667969 M 534 364.2751159667969 L 526.1052856445312 379.059814453125 L 514.26318359375 398.7727355957031 M 84 58.72488021850586 L 91.89473724365234 43.94019317626953 L 103.7368392944336 24.227272033691406 M 514.26318359375 24.227272033691406 L 526.1052856445312 43.94019317626953 L 534 58.72488021850586" stroke-opacity="1" stroke-linejoin="bevel" stroke-miterlimit="10" clip-path="url(#WiJlTnfFEbhK)"/><path fill="none" stroke="rgb(0,0,0)" paint-order="fill" d="" stroke-opacity="1" stroke-linejoin="bevel" stroke-miterlimit="10" clip-path="url(#WiJlTnfFEbhK)"/><path fill="none" stroke="rgb(0,0,0)" paint-order="fill" d="M 61.5 417.5 L 556.5 417.5" stroke-opacity="1" stroke-linejoin="bevel" stroke-miterlimit="10"/><path fill="none" stroke="rgb(0,0,0)" paint-order="fill" d="M 84.5 423.5 L 84.5 415.5 M 196.5 423.5 L 196.5 415.5 M 309.5 423.5 L 309.5 415.5 M 421.5 423.5 L 421.5 415.5 M 534.5 423.5 L 534.5 415.5" stroke-opacity="1" stroke-linejoin="bevel" stroke-miterlimit="10"/><path fill="none" stroke="rgb(0,0,0)" paint-order="fill" d="M 61.5 421.5 L 61.5 417.5 M 84.5 421.5 L 84.5 417.5 M 106.5 421.5 L 106.5 417.5 M 129.5 421.5 L 129.5 417.5 M 151.5 421.5 L 151.5 417.5 M 174.5 421.5 L 174.5 417.5 M 196.5 421.5 L 196.5 417.5 M 219.5 421.5 L 219.5 417.5 M 241.5 421.5 L 241.5 417.5 M 264.5 421.5 L 264.5 417.5 M 286.5 421.5 L 286.5 417.5 M 309.5 421.5 L 309.5 417.5 M 331.5 421.5 L 331.5 417.5 M 354.5 421.5 L 354.5 417.5 M 376.5 421.5 L 376.5 417.5 M 399.5 421.5 L 399.5 417.5 M 421.5 421.5 L 421.5 417.5 M 444.5 421.5 L 444.5 417.5 M 466.5 421.5 L 466.5 417.5 M 489.5 421.5 L 489.5 417.5 M 511.5 421.5 L 511.5 417.5 M 534.5 421.5 L 534.5 417.5 M 556.5 421.5 L 556.5 417.5" stroke-opacity="1" stroke-linejoin="bevel" stroke-miterlimit="10"/><text fill="rgb(0,0,0)" stroke="none" font-family="serif" font-size="10pt" font-style="normal" font-weight="normal" text-decoration="normal" x="73.63333320617676" y="438" text-anchor="start" dominant-baseline="alphabetic" transform="matrix(1, 0, 0, 1, 0.5, 0.5)" fill-opacity="1">−4</text><text fill="none" stroke="rgb(0,0,0)" font-family="serif" font-size="10pt" font-style="normal" font-weight="normal" text-decoration="normal" x="73.63333320617676" y="438" text-anchor="start" dominant-baseline="alphabetic" transform="matrix(1, 0, 0, 1, 0.5, 0.5)" stroke-opacity="0" stroke-linejoin="bevel" stroke-miterlimit="10">−4</text><text fill="rgb(0,0,0)" stroke="none" font-family="serif" font-size="10pt" font-style="normal" font-weight="normal" text-decoration="normal" x="186.13333320617676" y="438" text-anchor="start" dominant-baseline="alphabetic" transform="matrix(1, 0, 0, 1, 0.5, 0.5)" fill-opacity="1">−2</text><text fill="none" stroke="rgb(0,0,0)" font-family="serif" font-size="10pt" font-style="normal" font-weight="normal" text-decoration="normal" x="186.13333320617676" y="438" text-anchor="start" dominant-baseline="alphabetic" transform="matrix(1, 0, 0, 1, 0.5, 0.5)" stroke-opacity="0" stroke-linejoin="bevel" stroke-miterlimit="10">−2</text><text fill="rgb(0,0,0)" stroke="none" font-family="serif" font-size="10pt" font-style="normal" font-weight="normal" text-decoration="normal" x="304.24166679382324" y="438" text-anchor="start" dominant-baseline="alphabetic" transform="matrix(1, 0, 0, 1, 0.5, 0.5)" fill-opacity="1">0</text><text fill="none" stroke="rgb(0,0,0)" font-family="serif" font-size="10pt" font-style="normal" font-weight="normal" text-decoration="normal" x="304.24166679382324" y="438" text-anchor="start" dominant-baseline="alphabetic" transform="matrix(1, 0, 0, 1, 0.5, 0.5)" stroke-opacity="0" stroke-linejoin="bevel" stroke-miterlimit="10">0</text><text fill="rgb(0,0,0)" stroke="none" font-family="serif" font-size="10pt" font-style="normal" font-weight="normal" text-decoration="normal" x="416.74166679382324" y="438" text-anchor="start" dominant-baseline="alphabetic" transform="matrix(1, 0, 0, 1, 0.5, 0.5)" fill-opacity="1">2</text><text fill="none" stroke="rgb(0,0,0)" font-family="serif" font-size="10pt" font-style="normal" font-weight="normal" text-decoration="normal" x="416.74166679382324" y="438" text-anchor="start" dominant-baseline="alphabetic" transform="matrix(1, 0, 0, 1, 0.5, 0.5)" stroke-opacity="0" stroke-linejoin="bevel" stroke-miterlimit="10">2</text><text fill="rgb(0,0,0)" stroke="none" font-family="serif" font-size="10pt" font-style="normal" font-weight="normal" text-decoration="normal" x="529.2416667938232" y="438" text-anchor="start" dominant-baseline="alphabetic" transform="matrix(1, 0, 0, 1, 0.5, 0.5)" fill-opacity="1">4</text><text fill="none" stroke="rgb(0,0,0)" font-family="serif" font-size="10pt" font-style="normal" font-weight="normal" text-decoration="normal" x="529.2416667938232" y="438" text-anchor="start" dominant-baseline="alphabetic" transform="matrix(1, 0, 0, 1, 0.5, 0.5)" stroke-opacity="0" stroke-linejoin="bevel" stroke-miterlimit="10">4</text><text fill="rgb(0,0,0)" stroke="none" font-family="serif" font-size="12pt" font-style="italic" font-weight="normal" text-decoration="normal" x="303.99166679382324" y="461" text-anchor="start" dominant-baseline="alphabetic" transform="matrix(1, 0, 0, 1, 0.5, 0.5)" fill-opacity="1">x</text><text fill="none" stroke="rgb(0,0,0)" font-family="serif" font-size="12pt" font-style="italic" font-weight="normal" text-decoration="normal" x="303.99166679382324" y="461" text-anchor="start" dominant-baseline="alphabetic" transform="matrix(1, 0, 0, 1, 0.5, 0.5)" stroke-opacity="0" stroke-linejoin="bevel" stroke-miterlimit="10">x</text><path fill="none" stroke="rgb(0,0,0)" paint-order="fill" d="M 61.5 417.5 L 61.5 5.5" stroke-opacity="1" stroke-linejoin="bevel" stroke-miterlimit="10"/><path fill="none" stroke="rgb(0,0,0)" paint-order="fill" d="M 55.5 398.5 L 63.5 398.5 M 55.5 305.5 L 63.5 305.5 M 55.5 211.5 L 63.5 211.5 M 55.5 117.5 L 63.5 117.5 M 55.5 24.5 L 63.5 24.5" stroke-opacity="1" stroke-linejoin="bevel" stroke-miterlimit="10"/><path fill="none" stroke="rgb(0,0,0)" paint-order="fill" d="M 57.5 417.5 L 61.5 417.5 M 57.5 398.5 L 61.5 398.5 M 57.5 380.5 L 61.5 380.5 M 57.5 361.5 L 61.5 361.5 M 57.5 342.5 L 61.5 342.5 M 57.5 323.5 L 61.5 323.5 M 57.5 305.5 L 61.5 305.5 M 57.5 286.5 L 61.5 286.5 M 57.5 267.5 L 61.5 267.5 M 57.5 248.5 L 61.5 248.5 M 57.5 230.5 L 61.5 230.5 M 57.5 211.5 L 61.5 211.5 M 57.5 192.5 L 61.5 192.5 M 57.5 174.5 L 61.5 174.5 M 57.5 155.5 L 61.5 155.5 M 57.5 136.5 L 61.5 136.5 M 57.5 117.5 L 61.5 117.5 M 57.5 99.5 L 61.5 99.5 M 57.5 80.5 L 61.5 80.5 M 57.5 61.5 L 61.5 61.5 M 57.5 42.5 L 61.5 42.5 M 57.5 24.5 L 61.5 24.5 M 57.5 5.5 L 61.5 5.5" stroke-opacity="1" stroke-linejoin="bevel" stroke-miterlimit="10"/><text fill="rgb(0,0,0)" stroke="none" font-family="serif" font-size="10pt" font-style="normal" font-weight="normal" text-decoration="normal" x="30.266666412353516" y="403.2727355957031" text-anchor="start" dominant-baseline="alphabetic" transform="matrix(1, 0, 0, 1, 0.5, 0.5)" fill-opacity="1">−4</text><text fill="none" stroke="rgb(0,0,0)" font-family="serif" font-size="10pt" font-style="normal" font-weight="normal" text-decoration="normal" x="30.266666412353516" y="403.2727355957031" text-anchor="start" dominant-baseline="alphabetic" transform="matrix(1, 0, 0, 1, 0.5, 0.5)" stroke-opacity="0" stroke-linejoin="bevel" stroke-miterlimit="10">−4</text><text fill="rgb(0,0,0)" stroke="none" font-family="serif" font-size="10pt" font-style="normal" font-weight="normal" text-decoration="normal" x="30.266666412353516" y="309.6363525390625" text-anchor="start" dominant-baseline="alphabetic" transform="matrix(1, 0, 0, 1, 0.5, 0.5)" fill-opacity="1">−2</text><text fill="none" stroke="rgb(0,0,0)" font-family="serif" font-size="10pt" font-style="normal" font-weight="normal" text-decoration="normal" x="30.266666412353516" y="309.6363525390625" text-anchor="start" dominant-baseline="alphabetic" transform="matrix(1, 0, 0, 1, 0.5, 0.5)" stroke-opacity="0" stroke-linejoin="bevel" stroke-miterlimit="10">−2</text><text fill="rgb(0,0,0)" stroke="none" font-family="serif" font-size="10pt" font-style="normal" font-weight="normal" text-decoration="normal" x="41.483333587646484" y="216" text-anchor="start" dominant-baseline="alphabetic" transform="matrix(1, 0, 0, 1, 0.5, 0.5)" fill-opacity="1">0</text><text fill="none" stroke="rgb(0,0,0)" font-family="serif" font-size="10pt" font-style="normal" font-weight="normal" text-decoration="normal" x="41.483333587646484" y="216" text-anchor="start" dominant-baseline="alphabetic" transform="matrix(1, 0, 0, 1, 0.5, 0.5)" stroke-opacity="0" stroke-linejoin="bevel" stroke-miterlimit="10">0</text><text fill="rgb(0,0,0)" stroke="none" font-family="serif" font-size="10pt" font-style="normal" font-weight="normal" text-decoration="normal" x="41.483333587646484" y="122.36363983154297" text-anchor="start" dominant-baseline="alphabetic" transform="matrix(1, 0, 0, 1, 0.5, 0.5)" fill-opacity="1">2</text><text fill="none" stroke="rgb(0,0,0)" font-family="serif" font-size="10pt" font-style="normal" font-weight="normal" text-decoration="normal" x="41.483333587646484" y="122.36363983154297" text-anchor="start" dominant-baseline="alphabetic" transform="matrix(1, 0, 0, 1, 0.5, 0.5)" stroke-opacity="0" stroke-linejoin="bevel" stroke-miterlimit="10">2</text><text fill="rgb(0,0,0)" stroke="none" font-family="serif" font-size="10pt" font-style="normal" font-weight="normal" text-decoration="normal" x="41.483333587646484" y="28.727272033691406" text-anchor="start" dominant-baseline="alphabetic" transform="matrix(1, 0, 0, 1, 0.5, 0.5)" fill-opacity="1">4</text><text fill="none" stroke="rgb(0,0,0)" font-family="serif" font-size="10pt" font-style="normal" font-weight="normal" text-decoration="normal" x="41.483333587646484" y="28.727272033691406" text-anchor="start" dominant-baseline="alphabetic" transform="matrix(1, 0, 0, 1, 0.5, 0.5)" stroke-opacity="0" stroke-linejoin="bevel" stroke-miterlimit="10">4</text><text fill="rgb(0,0,0)" stroke="none" font-family="serif" font-size="12pt" font-style="italic" font-weight="normal" text-decoration="normal" x="17.749999523162842" y="207" text-anchor="start" dominant-baseline="alphabetic" transform="matrix(6.123233995736766e-17, -1, 1, 6.123233995736766e-17, -188.23333358764648, 233.76666641235352)" fill-opacity="1">y</text><text fill="none" stroke="rgb(0,0,0)" font-family="serif" font-size="12pt" font-style="italic" font-weight="normal" text-decoration="normal" x="17.749999523162842" y="207" text-anchor="start" dominant-baseline="alphabetic" transform="matrix(6.123233995736766e-17, -1, 1, 6.123233995736766e-17, -188.23333358764648, 233.76666641235352)" stroke-opacity="0" stroke-linejoin="bevel" stroke-miterlimit="10">y</text><path fill="rgb(255,255,255)" stroke="none" paint-order="stroke" d="M 556.5 5.5 L 662.5 5.5 L 662.5 417.5 L 556.5 417.5 L 556.5 5.5 Z" fill-opacity="0.9490196078431372"/><path fill="rgb(54,75,154)" stroke="none" paint-order="stroke" d="M 586.5 407.5 L 611.5 407.5 L 611.5 363.9444580078125 L 586.5 363.9444580078125 L 586.5 407.5 Z" fill-opacity="1"/><path fill="rgb(83,132,188)" stroke="none" paint-order="stroke" d="M 586.5 363.9444580078125 L 611.5 363.9444580078125 L 611.5 320.3888854980469 L 586.5 320.3888854980469 L 586.5 363.9444580078125 Z" fill-opacity="1"/><path fill="rgb(130,183,214)" stroke="none" paint-order="stroke" d="M 586.5 320.3888854980469 L 611.5 320.3888854980469 L 611.5 276.8333435058594 L 586.5 276.8333435058594 L 586.5 320.3888854980469 Z" fill-opacity="1"/><path fill="rgb(182,217,226)" stroke="none" paint-order="stroke" d="M 586.5 276.8333435058594 L 611.5 276.8333435058594 L 611.5 233.27777099609375 L 586.5 233.27777099609375 L 586.5 276.8333435058594 Z" fill-opacity="1"/><path fill="rgb(228,228,195)" stroke="none" paint-order="stroke" d="M 586.5 233.27777099609375 L 611.5 233.27777099609375 L 611.5 189.72222900390625 L 586.5 189.72222900390625 L 586.5 233.27777099609375 Z" fill-opacity="1"/><path fill="rgb(250,204,133)" stroke="none" paint-order="stroke" d="M 586.5 189.72222900390625 L 611.5 189.72222900390625 L 611.5 146.1666717529297 L 586.5 146.1666717529297 L 586.5 189.72222900390625 Z" fill-opacity="1"/><path fill="rgb(248,150,89)" stroke="none" paint-order="stroke" d="M 586.5 146.1666717529297 L 611.5 146.1666717529297 L 611.5 102.61111450195312 L 586.5 102.61111450195312 L 586.5 146.1666717529297 Z" fill-opacity="1"/><path fill="rgb(226,76,52)" stroke="none" paint-order="stroke" d="M 586.5 102.61111450195312 L 611.5 102.61111450195312 L 611.5 59.05555725097656 L 586.5 59.05555725097656 L 586.5 102.61111450195312 Z" fill-opacity="1"/><path fill="rgb(165,0,38)" stroke="none" paint-order="stroke" d="M 586.5 59.05555725097656 L 611.5 59.05555725097656 L 611.5 15.5 L 586.5 15.5 L 586.5 59.05555725097656 Z" fill-opacity="1"/><path fill="none" stroke="rgb(0,0,0)" paint-order="fill" d="M 586.5 407.5 L 611.5 407.5" stroke-opacity="1" stroke-linejoin="bevel" stroke-miterlimit="10"/><path fill="none" stroke="rgb(0,0,0)" paint-order="fill" d="M 586.5 363.9444580078125 L 611.5 363.9444580078125" stroke-opacity="1" stroke-linejoin="bevel" stroke-miterlimit="10"/><path fill="none" stroke="rgb(0,0,0)" paint-order="fill" d="M 586.5 320.3888854980469 L 611.5 320.3888854980469" stroke-opacity="1" stroke-linejoin="bevel" stroke-miterlimit="10"/><path fill="none" stroke="rgb(0,0,0)" paint-order="fill" d="M 586.5 276.8333435058594 L 611.5 276.8333435058594" stroke-opacity="1" stroke-linejoin="bevel" stroke-miterlimit="10"/><path fill="none" stroke="rgb(0,0,0)" paint-order="fill" d="M 586.5 233.27777099609375 L 611.5 233.27777099609375" stroke-opacity="1" stroke-linejoin="bevel" stroke-miterlimit="10"/><path fill="none" stroke="rgb(0,0,0)" paint-order="fill" d="M 586.5 189.72222900390625 L 611.5 189.72222900390625" stroke-opacity="1" stroke-linejoin="bevel" stroke-miterlimit="10"/><path fill="none" stroke="rgb(0,0,0)" paint-order="fill" d="M 586.5 146.1666717529297 L 611.5 146.1666717529297" stroke-opacity="1" stroke-linejoin="bevel" stroke-miterlimit="10"/><path fill="none" stroke="rgb(0,0,0)" paint-order="fill" d="M 586.5 102.61111450195312 L 611.5 102.61111450195312" stroke-opacity="1" stroke-linejoin="bevel" stroke-miterlimit="10"/><path fill="none" stroke="rgb(0,0,0)" paint-order="fill" d="M 586.5 59.05555725097656 L 611.5 59.05555725097656" stroke-opacity="1" stroke-linejoin="bevel" stroke-miterlimit="10"/><path fill="none" stroke="rgb(0,0,0)" paint-order="fill" d="M 586.5 15.5 L 611.5 15.5" stroke-opacity="1" stroke-linejoin="bevel" stroke-miterlimit="10"/><text fill="rgb(68,68,68)" stroke="none" font-family="helvetica" font-size="13px" font-style="italic" font-weight="normal" text-decoration="normal" x="0" y="12" text-anchor="start" dominant-baseline="alphabetic" transform="matrix(6.123233995736766e-17, -1, 1, 6.123233995736766e-17, 569.5, 407.5)" fill-opacity="1">Ground Truth</text><text fill="none" stroke="rgb(0,0,0)" font-family="helvetica" font-size="13px" font-style="italic" font-weight="normal" text-decoration="normal" x="0" y="12" text-anchor="start" dominant-baseline="alphabetic" transform="matrix(6.123233995736766e-17, -1, 1, 6.123233995736766e-17, 569.5, 407.5)" stroke-opacity="0" stroke-miterlimit="10" stroke-dasharray="">Ground Truth</text><path fill="none" stroke="rgb(255,255,255)" paint-order="fill" d="M 611.5 407.5 L 606.5 407.5 M 611.5 363.5 L 606.5 363.5 M 611.5 320.5 L 606.5 320.5 M 611.5 276.5 L 606.5 276.5 M 611.5 233.5 L 606.5 233.5 M 611.5 189.5 L 606.5 189.5 M 611.5 146.5 L 606.5 146.5 M 611.5 102.5 L 606.5 102.5 M 611.5 59.5 L 606.5 59.5 M 611.5 15.5 L 606.5 15.5" stroke-opacity="1" stroke-linejoin="bevel" stroke-miterlimit="10"/><text fill="rgb(68,68,68)" stroke="none" font-family="helvetica" font-size="11px" font-style="normal" font-weight="normal" text-decoration="normal" x="616" y="411" text-anchor="start" dominant-baseline="alphabetic" transform="matrix(1, 0, 0, 1, 0.5, 0.5)" fill-opacity="1">0.066</text><text fill="none" stroke="rgb(0,0,0)" font-family="helvetica" font-size="11px" font-style="normal" font-weight="normal" text-decoration="normal" x="616" y="411" text-anchor="start" dominant-baseline="alphabetic" transform="matrix(1, 0, 0, 1, 0.5, 0.5)" stroke-opacity="0" stroke-linejoin="bevel" stroke-miterlimit="10">0.066</text><text fill="rgb(68,68,68)" stroke="none" font-family="helvetica" font-size="11px" font-style="normal" font-weight="normal" text-decoration="normal" x="616" y="367.4444580078125" text-anchor="start" dominant-baseline="alphabetic" transform="matrix(1, 0, 0, 1, 0.5, 0.5)" fill-opacity="1">2.726</text><text fill="none" stroke="rgb(0,0,0)" font-family="helvetica" font-size="11px" font-style="normal" font-weight="normal" text-decoration="normal" x="616" y="367.4444580078125" text-anchor="start" dominant-baseline="alphabetic" transform="matrix(1, 0, 0, 1, 0.5, 0.5)" stroke-opacity="0" stroke-linejoin="bevel" stroke-miterlimit="10">2.726</text><text fill="rgb(68,68,68)" stroke="none" font-family="helvetica" font-size="11px" font-style="normal" font-weight="normal" text-decoration="normal" x="616" y="323.8888854980469" text-anchor="start" dominant-baseline="alphabetic" transform="matrix(1, 0, 0, 1, 0.5, 0.5)" fill-opacity="1">5.385</text><text fill="none" stroke="rgb(0,0,0)" font-family="helvetica" font-size="11px" font-style="normal" font-weight="normal" text-decoration="normal" x="616" y="323.8888854980469" text-anchor="start" dominant-baseline="alphabetic" transform="matrix(1, 0, 0, 1, 0.5, 0.5)" stroke-opacity="0" stroke-linejoin="bevel" stroke-miterlimit="10">5.385</text><text fill="rgb(68,68,68)" stroke="none" font-family="helvetica" font-size="11px" font-style="normal" font-weight="normal" text-decoration="normal" x="616" y="280.3333435058594" text-anchor="start" dominant-baseline="alphabetic" transform="matrix(1, 0, 0, 1, 0.5, 0.5)" fill-opacity="1">8.044</text><text fill="none" stroke="rgb(0,0,0)" font-family="helvetica" font-size="11px" font-style="normal" font-weight="normal" text-decoration="normal" x="616" y="280.3333435058594" text-anchor="start" dominant-baseline="alphabetic" transform="matrix(1, 0, 0, 1, 0.5, 0.5)" stroke-opacity="0" stroke-linejoin="bevel" stroke-miterlimit="10">8.044</text><text fill="rgb(68,68,68)" stroke="none" font-family="helvetica" font-size="11px" font-style="normal" font-weight="normal" text-decoration="normal" x="616" y="236.77777099609375" text-anchor="start" dominant-baseline="alphabetic" transform="matrix(1, 0, 0, 1, 0.5, 0.5)" fill-opacity="1">10.704</text><text fill="none" stroke="rgb(0,0,0)" font-family="helvetica" font-size="11px" font-style="normal" font-weight="normal" text-decoration="normal" x="616" y="236.77777099609375" text-anchor="start" dominant-baseline="alphabetic" transform="matrix(1, 0, 0, 1, 0.5, 0.5)" stroke-opacity="0" stroke-linejoin="bevel" stroke-miterlimit="10">10.704</text><text fill="rgb(68,68,68)" stroke="none" font-family="helvetica" font-size="11px" font-style="normal" font-weight="normal" text-decoration="normal" x="616" y="193.22222900390625" text-anchor="start" dominant-baseline="alphabetic" transform="matrix(1, 0, 0, 1, 0.5, 0.5)" fill-opacity="1">13.363</text><text fill="none" stroke="rgb(0,0,0)" font-family="helvetica" font-size="11px" font-style="normal" font-weight="normal" text-decoration="normal" x="616" y="193.22222900390625" text-anchor="start" dominant-baseline="alphabetic" transform="matrix(1, 0, 0, 1, 0.5, 0.5)" stroke-opacity="0" stroke-linejoin="bevel" stroke-miterlimit="10">13.363</text><text fill="rgb(68,68,68)" stroke="none" font-family="helvetica" font-size="11px" font-style="normal" font-weight="normal" text-decoration="normal" x="616" y="149.6666717529297" text-anchor="start" dominant-baseline="alphabetic" transform="matrix(1, 0, 0, 1, 0.5, 0.5)" fill-opacity="1">16.022</text><text fill="none" stroke="rgb(0,0,0)" font-family="helvetica" font-size="11px" font-style="normal" font-weight="normal" text-decoration="normal" x="616" y="149.6666717529297" text-anchor="start" dominant-baseline="alphabetic" transform="matrix(1, 0, 0, 1, 0.5, 0.5)" stroke-opacity="0" stroke-linejoin="bevel" stroke-miterlimit="10">16.022</text><text fill="rgb(68,68,68)" stroke="none" font-family="helvetica" font-size="11px" font-style="normal" font-weight="normal" text-decoration="normal" x="616" y="106.11111450195312" text-anchor="start" dominant-baseline="alphabetic" transform="matrix(1, 0, 0, 1, 0.5, 0.5)" fill-opacity="1">18.681</text><text fill="none" stroke="rgb(0,0,0)" font-family="helvetica" font-size="11px" font-style="normal" font-weight="normal" text-decoration="normal" x="616" y="106.11111450195312" text-anchor="start" dominant-baseline="alphabetic" transform="matrix(1, 0, 0, 1, 0.5, 0.5)" stroke-opacity="0" stroke-linejoin="bevel" stroke-miterlimit="10">18.681</text><text fill="rgb(68,68,68)" stroke="none" font-family="helvetica" font-size="11px" font-style="normal" font-weight="normal" text-decoration="normal" x="616" y="62.55555725097656" text-anchor="start" dominant-baseline="alphabetic" transform="matrix(1, 0, 0, 1, 0.5, 0.5)" fill-opacity="1">21.341</text><text fill="none" stroke="rgb(0,0,0)" font-family="helvetica" font-size="11px" font-style="normal" font-weight="normal" text-decoration="normal" x="616" y="62.55555725097656" text-anchor="start" dominant-baseline="alphabetic" transform="matrix(1, 0, 0, 1, 0.5, 0.5)" stroke-opacity="0" stroke-linejoin="bevel" stroke-miterlimit="10">21.341</text><text fill="rgb(68,68,68)" stroke="none" font-family="helvetica" font-size="11px" font-style="normal" font-weight="normal" text-decoration="normal" x="616" y="19" text-anchor="start" dominant-baseline="alphabetic" transform="matrix(1, 0, 0, 1, 0.5, 0.5)" fill-opacity="1">24</text><text fill="none" stroke="rgb(0,0,0)" font-family="helvetica" font-size="11px" font-style="normal" font-weight="normal" text-decoration="normal" x="616" y="19" text-anchor="start" dominant-baseline="alphabetic" transform="matrix(1, 0, 0, 1, 0.5, 0.5)" stroke-opacity="0" stroke-linejoin="bevel" stroke-miterlimit="10">24</text></svg>